<svg xmlns="http://www.w3.org/2000/svg">
<defs>
<font id="PTSansNarrowRegular" horiz-adv-x="450" >
  <font-face 
    font-family="PTSansNarrowRegular"
    font-weight="400"
    font-stretch="condensed"
    units-per-em="1000"
    panose-1="2 11 5 6 2 2 3 2 2 4"
    ascent="750"
    descent="-250"
    x-height="500"
    cap-height="700"
    bbox="-394 -245 905 994"
    underline-thickness="50"
    underline-position="-50"
    unicode-range="U+0020-FB02"
  />
<missing-glyph horiz-adv-x="750" 
d="M50 700h650v-700h-650v700zM570 620l-195 -217l-195 217l-50 -50l197 -220l-197 -220l50 -50l195 217l195 -217l50 50l-198 220l198 220zM129 27h8v12h4q6 0 11 2.5t5 9.5q0 8 -5.5 10t-11.5 2h-11v-36zM141 57q8 0 8 -5t-2.5 -5.5t-6.5 -0.5h-3v11h4zM189 63h-31v-6h12
v-30h7v30h12v6zM222 37q0 -4 -7 -4t-9 2l-3 -7q2 0 5 -1t8 -1q14 0 14 12q0 9 -9 10t-9 6q0 3 6 3q5 0 9 -2l2 7q-6 2 -11 2q-14 0 -14 -11q0 -5 3 -7t6 -3.5t6 -2.5t3 -3zM237 47q4 2 9 2t5 -4v-2q-1 0 -2 0.5t-3 0.5q-12 0 -12 -10q0 -8 8 -8q6 0 9 5l2 -4h6q-1 2 -1 7v11
q0 10 -10 10q-4 0 -7.5 -1t-5.5 -2zM245 32q-4 0 -4 4t5 4q2 0 3 -0.5t2 -0.5v-3q-2 -4 -6 -4zM292 27v16q0 12 -9 12q-7 0 -10 -5l-2 4h-5v-27h7v17q2 4 6 4q5 0 5 -6v-15h8zM297 28q4 -2 10 -2q11 0 11 9q0 5 -2.5 6t-5.5 3q-5 2 -5 3q0 2 3 2q4 0 8 -2l2 6q-4 2 -10 2
q-10 0 -10 -9q0 -5 3 -6.5l5 -2.5q5 0 5 -3q0 -2 -3 -2q-5 0 -9 2zM338 42q0 -21 20 -21t20 21q0 20 -20 20q-8 0 -14 -5.5t-6 -14.5zM344 42q0 15 14 15t14 -15t-14 -15t-14 15zM364 38q-2 -1 -4 -1q-4 0 -4 5q0 4 4 4h3l2 4q-4 2 -7 2q-9 0 -9 -10q0 -11 9 -11q5 0 7 2z
M399 27h8v12h4q6 0 11 2.5t5 9.5q0 8 -5.5 10t-11.5 2h-11v-36zM411 57q8 0 8 -5t-2.5 -5.5t-6.5 -0.5h-3v11h4zM432 47q4 2 9 2t5 -4v-2q-1 0 -2 0.5t-3 0.5q-13 0 -13 -10q0 -8 9 -8q6 0 9 5l2 -4h6q-1 2 -1 7v11q0 10 -10 10q-4 0 -7.5 -1t-5.5 -2zM440 32q-4 0 -4 4t5 4
q2 0 3 -0.5t2 -0.5v-3q-2 -4 -6 -4zM478 54q-1 1 -4 1q-4 0 -6 -5h-1l-1 4h-6v-27h8v17q0 4 6 4h1q1 0 1 -0.5t1 -0.5zM483 47q6 2 9 2q5 0 5 -4v-2q-1 0 -2 0.5t-3 0.5q-13 0 -13 -10q0 -8 9 -8q7 0 9 5h1l1 -4h6q-1 2 -1 7v11q0 10 -10 10q-4 0 -7 -1t-5 -2zM491 32

<glyph glyph-name="fi" unicode="fi" horiz-adv-x="437" 
d="M376 500v-500h-72v435h-155v-435h-72v435h-61v65h61v28q0 94 38 136.5t111 42.5q49 0 85.5 -9.5t59.5 -21.5l-23 -60q-24 14 -53.5 20t-61.5 6q-28 0 -44.5 -9.5t-25.5 -28t-11.5 -45t-2.5 -59.5h227z" />
    <glyph glyph-name="fl" unicode="fl" horiz-adv-x="469" 
d="M300 639q-11 2 -32.5 5t-42.5 3q-26 0 -41 -10t-23 -28.5t-10 -46t-2 -62.5h79v-65h-79v-435h-72v435h-61v65h61v28q0 94 33.5 139t112.5 45q16 0 37.5 -1.5t42.5 -4t39.5 -5.5t29.5 -7v-580q0 -33 9.5 -47t26.5 -14q22 0 50 11l5 -58q-13 -8 -35.5 -13t-43.5 -5
q-38 0 -61 24t-23 82v545z" />
    <glyph glyph-name=".notdef" horiz-adv-x="750" 
d="M50 700h650v-700h-650v700zM570 620l-195 -217l-195 217l-50 -50l197 -220l-197 -220l50 -50l195 217l195 -217l50 50l-198 220l198 220zM129 27h8v12h4q6 0 11 2.5t5 9.5q0 8 -5.5 10t-11.5 2h-11v-36zM141 57q8 0 8 -5t-2.5 -5.5t-6.5 -0.5h-3v11h4zM189 63h-31v-6h12
v-30h7v30h12v6zM222 37q0 -4 -7 -4t-9 2l-3 -7q2 0 5 -1t8 -1q14 0 14 12q0 9 -9 10t-9 6q0 3 6 3q5 0 9 -2l2 7q-6 2 -11 2q-14 0 -14 -11q0 -5 3 -7t6 -3.5t6 -2.5t3 -3zM237 47q4 2 9 2t5 -4v-2q-1 0 -2 0.5t-3 0.5q-12 0 -12 -10q0 -8 8 -8q6 0 9 5l2 -4h6q-1 2 -1 7v11
q0 10 -10 10q-4 0 -7.5 -1t-5.5 -2zM245 32q-4 0 -4 4t5 4q2 0 3 -0.5t2 -0.5v-3q-2 -4 -6 -4zM292 27v16q0 12 -9 12q-7 0 -10 -5l-2 4h-5v-27h7v17q2 4 6 4q5 0 5 -6v-15h8zM297 28q4 -2 10 -2q11 0 11 9q0 5 -2.5 6t-5.5 3q-5 2 -5 3q0 2 3 2q4 0 8 -2l2 6q-4 2 -10 2
q-10 0 -10 -9q0 -5 3 -6.5l5 -2.5q5 0 5 -3q0 -2 -3 -2q-5 0 -9 2zM338 42q0 -21 20 -21t20 21q0 20 -20 20q-8 0 -14 -5.5t-6 -14.5zM344 42q0 15 14 15t14 -15t-14 -15t-14 15zM364 38q-2 -1 -4 -1q-4 0 -4 5q0 4 4 4h3l2 4q-4 2 -7 2q-9 0 -9 -10q0 -11 9 -11q5 0 7 2z
M399 27h8v12h4q6 0 11 2.5t5 9.5q0 8 -5.5 10t-11.5 2h-11v-36zM411 57q8 0 8 -5t-2.5 -5.5t-6.5 -0.5h-3v11h4zM432 47q4 2 9 2t5 -4v-2q-1 0 -2 0.5t-3 0.5q-13 0 -13 -10q0 -8 9 -8q6 0 9 5l2 -4h6q-1 2 -1 7v11q0 10 -10 10q-4 0 -7.5 -1t-5.5 -2zM440 32q-4 0 -4 4t5 4
q2 0 3 -0.5t2 -0.5v-3q-2 -4 -6 -4zM478 54q-1 1 -4 1q-4 0 -6 -5h-1l-1 4h-6v-27h8v17q0 4 6 4h1q1 0 1 -0.5t1 -0.5zM483 47q6 2 9 2q5 0 5 -4v-2q-1 0 -2 0.5t-3 0.5q-13 0 -13 -10q0 -8 9 -8q7 0 9 5h1l1 -4h6q-1 2 -1 7v11q0 10 -10 10q-4 0 -7 -1t-5 -2zM491 32
q-4 0 -4 4t5 4q2 0 3 -0.5t2 -0.5v-3q-2 -4 -6 -4zM533 63h-31v-6h11v-30h8v30h12v6zM541 54h-8l12 -27q-1 -5 -5 -5l-1 1l-2 -6q2 -1 5 -1q5 0 10 13l10 25h-8l-5 -15v-5h-1l-1 5zM565 16h8v12q1 -2 5 -2q14 0 14 15q0 14 -11 14q-5 0 -9 -4h-1l-1 3h-5v-38zM579 49
q5 0 5 -8q0 -9 -7 -9q-2 0 -4 2v10q0 5 6 5zM618 34q-2 -2 -7 -2q-7 0 -8 6h19v6q0 6 -3.5 8.5t-8.5 2.5q-14 0 -14 -15q0 -14 14 -14q3 0 6 1t5 2zM610 49q6 0 5 -6h-11q0 6 6 6z" />
    <glyph glyph-name=".null" horiz-adv-x="0" 
 />
    <glyph glyph-name="nonmarkingreturn" horiz-adv-x="212" 
 />
    <glyph glyph-name="space" unicode=" " horiz-adv-x="212" 
 />
    <glyph glyph-name="exclam" unicode="!" horiz-adv-x="247" 
d="M101 700h75v-347l-15 -176h-45l-15 176v347zM88 45q0 28 13.5 42t36.5 14t36.5 -14t13.5 -42q0 -29 -13.5 -43t-36.5 -14t-36.5 14t-13.5 43z" />
    <glyph glyph-name="quotedbl" unicode="&#x22;" horiz-adv-x="286" 
d="M177 700h69l-26 -193h-43v193zM72 700h69l-26 -193h-43v193z" />
    <glyph glyph-name="numbersign" unicode="#" 
d="M230 225h-82l-32 -167h-61l32 167h-63l13 60h61l27 140h-61l13 60h60l30 157h61l-30 -157h82l31 157h61l-30 -157h61l-14 -60h-59l-27 -140h60l-14 -60h-57l-32 -167h-62zM159 285h83l27 140h-83z" />
    <glyph glyph-name="dollar" unicode="$" 
d="M197 -12q-45 1 -78.5 8.5t-55.5 21.5l23 68q17 -11 44.5 -19t66.5 -10v279q-25 16 -49 34.5t-42.5 42.5t-30 55.5t-11.5 74.5q0 66 33.5 110.5t99.5 55.5v91h60v-88q39 -2 65 -8t49 -17l-23 -65q-17 9 -38 15t-53 8v-256q25 -18 50 -37t44.5 -43.5t31.5 -56t12 -73.5
q0 -72 -35.5 -122t-102.5 -64v-93h-60v88zM242 57q35 8 56.5 37.5t21.5 79.5q0 47 -22.5 77t-55.5 54v-248zM212 643q-41 -8 -57 -36.5t-16 -60.5q0 -43 20.5 -72.5t52.5 -53.5v223z" />
    <glyph glyph-name="percent" unicode="%" horiz-adv-x="637" 
d="M55 542q0 46 9.5 78.5t27 53t41 29.5t50.5 9t50.5 -8.5t41 -28t27 -52.5t9.5 -81t-9.5 -81t-27 -52.5t-41 -28t-50.5 -8.5t-50.5 8.5t-41 28t-27 52.5t-9.5 81zM120 542q0 -65 17.5 -90t45.5 -25q14 0 25.5 5t19.5 17.5t12.5 35t4.5 57.5q0 34 -4.5 56.5t-12.5 35.5
t-19.5 18t-25.5 5q-15 0 -26.5 -5t-19.5 -18t-12.5 -35.5t-4.5 -56.5zM349 171q0 46 9.5 78.5t27 53t41 29.5t50.5 9t50.5 -8.5t41 -28t27 -52.5t9.5 -81t-9.5 -81t-27 -52.5t-41 -28t-50.5 -8.5t-50.5 8.5t-41 28t-27 52.5t-9.5 81zM414 171q0 -65 17.5 -90t45.5 -25
q14 0 25.5 5t19.5 17.5t12.5 35t4.5 57.5q0 34 -4.5 56.5t-12.5 35.5t-19.5 18t-25.5 5q-15 0 -26.5 -5t-19.5 -18t-12.5 -35.5t-4.5 -56.5zM518 713l47 -30l-426 -695l-47 30z" />
    <glyph glyph-name="ampersand" unicode="&#x26;" horiz-adv-x="656" 
d="M91 188q0 40 12 75.5t31.5 66t44.5 55.5t51 45q-20 36 -35 74t-15 80q0 24 6.5 47t21.5 41t38 29t56 11q34 0 57.5 -10t37.5 -26t20.5 -36.5t6.5 -42.5q0 -43 -27 -88t-82 -88q13 -28 29.5 -58.5t35 -61t38 -60t38.5 -54.5q18 25 34 67t26 81l58 -23q-5 -17 -14 -41
t-19.5 -48.5t-22 -47t-21.5 -37.5q33 -39 55.5 -60.5t45.5 -37.5l-45 -52q-45 26 -98 93q-14 -18 -31.5 -34.5t-39 -29.5t-48 -21t-57.5 -8q-39 0 -73.5 12.5t-60 37.5t-40 62.5t-14.5 87.5zM413 130q-23 29 -45 62t-42 66t-36.5 64t-27.5 57q-21 -20 -39 -40t-31.5 -42.5
t-21 -49t-7.5 -58.5q0 -33 10 -58.5t27.5 -42.5t40 -26t47.5 -9q19 0 38 7t35.5 18t29.5 24.5t22 27.5zM252 584q0 -30 9.5 -59t24.5 -59q41 35 56.5 64t15.5 52q0 28 -11.5 48.5t-41.5 20.5q-28 0 -40.5 -19t-12.5 -48z" />
    <glyph glyph-name="quotesingle" unicode="'" horiz-adv-x="181" 
d="M72 700h69l-26 -193h-43v193z" />
    <glyph glyph-name="parenleft" unicode="(" horiz-adv-x="233" 
d="M183 -220q-38 48 -63.5 105.5t-41.5 118t-23 122t-7 117.5q0 55 7 116t23 122.5t42.5 120.5t64.5 110l45 -27q-32 -51 -53 -107t-33.5 -113.5t-18 -114t-5.5 -107.5q0 -48 6 -105.5t19.5 -115.5t34.5 -113t50 -99z" />
    <glyph glyph-name="parenright" unicode=")" horiz-adv-x="234" 
d="M49 712q37 -48 64 -105.5t43 -118t23 -122t7 -117.5q0 -55 -7 -116t-23 -122.5t-42.5 -120.5t-64.5 -110l-44 28q32 51 53 107t33.5 113t17.5 113.5t5 107.5q0 48 -6.5 105.5t-20 116t-34 114t-49.5 99.5z" />
    <glyph glyph-name="asterisk" unicode="*" horiz-adv-x="291" 
d="M108 703l20 -38l15 -52l16 52l21 37l44 -24l-23 -40l-38 -43l55 11h42v-51h-39l-54 11l39 -44l20 -35l-43 -25l-21 38l-19 55l-15 -53l-21 -37l-44 25l23 38l35 38l-47 -11h-44v51h44l50 -11l-38 41l-22 41z" />
    <glyph glyph-name="plus" unicode="+" horiz-adv-x="415" 
d="M34 373h139v156h68v-156h139v-65h-139v-158h-68v158h-139v65z" />
    <glyph glyph-name="comma" unicode="," horiz-adv-x="162" 
d="M36 43q0 25 14.5 40t37.5 15q26 0 42.5 -21t16.5 -66q0 -33 -8.5 -59.5t-22 -46.5t-29.5 -33t-31 -19l-25 34q13 7 24.5 18.5t19 25.5t11.5 29.5t4 30.5q-20 -6 -37 8t-17 44z" />
    <glyph glyph-name="hyphen" unicode="-" horiz-adv-x="291" 
d="M47 320h197v-69h-197v69z" />
    <glyph glyph-name="period" unicode="." horiz-adv-x="155" 
d="M39 45q0 28 13.5 42t36.5 14t36.5 -14t13.5 -42q0 -29 -13.5 -43t-36.5 -14t-36.5 14t-13.5 43z" />
    <glyph glyph-name="slash" unicode="/" horiz-adv-x="295" 
d="M266 712l56 -22l-292 -830l-58 21z" />
    <glyph glyph-name="zero" unicode="0" 
d="M38 350q0 96 12 165t36 112.5t59 64t80 20.5q48 0 83.5 -20.5t58.5 -64t34 -112.5t11 -165q0 -97 -12 -165.5t-36 -112t-58.5 -64t-79.5 -20.5q-49 0 -84.5 21t-58.5 65t-34 112.5t-11 163.5zM113 350q0 -143 27 -220t87 -77q58 0 84.5 70.5t26.5 226.5
q0 142 -25.5 219.5t-87.5 77.5q-58 0 -85 -70t-27 -227z" />
    <glyph glyph-name="one" unicode="1" 
d="M94 67h113v487l9 59l-34 -48l-84 -68l-38 45l182 170h37v-645h109v-67h-294v67z" />
    <glyph glyph-name="two" unicode="2" 
d="M379 0h-324v32q19 23 43.5 58t51 76.5t52 88t45.5 94.5t32.5 95t12.5 90q0 51 -23 82t-69 31q-29 0 -56.5 -11t-47.5 -27l-28 52q28 24 66.5 37.5t81.5 13.5q74 0 112.5 -45.5t38.5 -119.5q0 -55 -16.5 -115t-42 -118.5t-56.5 -112.5t-61 -96l-41 -44v-3l53 9h176v-67z
" />
    <glyph glyph-name="three" unicode="3" 
d="M93 76q19 -11 43.5 -17t56.5 -6q27 0 49.5 11t39 31t25.5 47.5t9 60.5q0 74 -32.5 108t-90.5 34h-60v29l116 224l39 42l-55 -7h-157v67h290v-29l-128 -239l-30 -29v-2l29 6q31 0 59 -12.5t48 -37t32 -60.5t12 -84q0 -54 -15.5 -96t-42 -70.5t-62 -43.5t-75.5 -15
q-35 0 -66 6t-54 17z" />
    <glyph glyph-name="four" unicode="4" 
d="M431 215h-93v-215h-70v215h-248v34l265 462h53v-431h93v-65zM268 504l10 86h-3l-30 -77l-110 -191l-38 -49l55 7h116v224z" />
    <glyph glyph-name="five" unicode="5" 
d="M357 700v-70h-190v-204l34 3q80 -1 126 -55t47 -155q-1 -56 -16.5 -99t-42.5 -72.5t-63 -44.5t-77 -15q-69 0 -111 19l18 64q18 -9 40 -12.5t51 -3.5q57 0 92.5 41.5t36.5 116.5q-1 77 -36.5 114t-98.5 37l-66 -5v341h256z" />
    <glyph glyph-name="six" unicode="6" 
d="M405 211q-1 -50 -12.5 -91.5t-34 -70.5t-55 -45t-73.5 -16q-84 0 -131.5 61t-47.5 186q0 106 21.5 189t58.5 143t87 96.5t107 48.5l20 -58q-45 -12 -82 -40t-65 -68t-46.5 -90t-25.5 -107q13 27 43.5 47t75.5 20q72 0 115.5 -51t44.5 -154zM332 204q0 147 -106 147
q-38 0 -65 -24t-38 -54q-2 -13 -2 -25.5t1 -23.5q-1 -33 5.5 -63.5t20 -54.5t34 -38.5t48.5 -14.5q45 0 73.5 40t28.5 111z" />
    <glyph glyph-name="seven" unicode="7" 
d="M95 0l202 591l36 49l-48 -9h-229v69h341v-27l-230 -673h-72z" />
    <glyph glyph-name="eight" unicode="8" 
d="M58 162q0 67 27.5 114t81.5 85q-20 15 -37.5 31.5t-30.5 37.5t-20.5 47t-7.5 60q0 81 42.5 128t116.5 47q69 0 109.5 -42.5t40.5 -116.5q0 -57 -22 -101t-69 -86q21 -15 40 -33t33.5 -40.5t22.5 -51t8 -65.5q0 -85 -45.5 -136.5t-126.5 -51.5q-39 0 -69 13t-51 36t-32 55
t-11 70zM214 333q-46 -34 -66.5 -76t-20.5 -84q0 -51 25 -85.5t73 -34.5q39 0 67.5 28.5t28.5 90.5q0 31 -9 55t-24 42.5t-34 34t-40 29.5zM241 392q34 34 52 68.5t18 76.5q0 55 -24.5 82.5t-57.5 27.5q-21 0 -37.5 -8.5t-27.5 -23.5t-17 -34.5t-6 -41.5q0 -27 8 -48.5
t22 -39t32 -32t38 -27.5z" />
    <glyph glyph-name="nine" unicode="9" horiz-adv-x="451" 
d="M46 488q0 104 44.5 164t132.5 60q84 0 130.5 -62t46.5 -190q0 -113 -21 -196.5t-58 -141t-87 -90.5t-108 -44l-19 59q96 25 149 100.5t67 189.5q-21 -29 -46.5 -41t-67.5 -12q-32 0 -61.5 12.5t-52 38t-36 64t-13.5 89.5zM119 496q0 -71 29 -109t77 -38q38 0 64.5 16.5
t38.5 42.5q2 13 2 25v23q0 38 -6.5 72.5t-20 61t-34.5 42t-50 15.5q-47 0 -73.5 -41t-26.5 -110z" />
    <glyph glyph-name="colon" unicode=":" horiz-adv-x="190" 
d="M76 448q0 28 13.5 42t36.5 14t36.5 -14t13.5 -42q0 -29 -13.5 -43t-36.5 -14t-36.5 14t-13.5 43zM76 45q0 28 13.5 42t36.5 14t36.5 -14t13.5 -42q0 -29 -13.5 -43t-36.5 -14t-36.5 14t-13.5 43z" />
    <glyph glyph-name="semicolon" unicode=";" horiz-adv-x="216" 
d="M75 43q0 25 14.5 40t37.5 15q26 0 42.5 -21t16.5 -66q0 -33 -8.5 -59.5t-22 -46.5t-29.5 -33t-31 -19l-25 34q13 7 24.5 18.5t19 25.5t11.5 29.5t4 30.5q-20 -6 -37 8t-17 44zM85 448q0 28 13.5 42t36.5 14t36.5 -14t13.5 -42q0 -29 -13.5 -43t-36.5 -14t-36.5 14
t-13.5 43z" />
    <glyph glyph-name="less" unicode="&#x3c;" horiz-adv-x="415" 
d="M36 305v29l300 223l39 -54l-191 -145l-74 -38l73 -32l196 -144l-38 -54z" />
    <glyph glyph-name="equal" unicode="=" horiz-adv-x="415" 
d="M35 456h344v-67h-344v67zM35 291h344v-67h-344v67z" />
    <glyph glyph-name="greater" unicode="&#x3e;" horiz-adv-x="415" 
d="M74 90l-38 54l196 144l73 32l-74 38l-191 145l39 54l300 -223v-29z" />
    <glyph glyph-name="question" unicode="?" horiz-adv-x="357" 
d="M122 177q-3 44 5.5 78t23.5 62.5t32.5 53.5t33.5 51.5t26.5 56t10.5 66.5q0 46 -20 74t-68 28q-29 0 -57 -10.5t-50 -26.5l-28 56q30 20 65.5 33t86.5 13q72 0 109 -42t37 -115q0 -43 -11 -77t-27 -62.5t-35 -54.5t-35.5 -53.5t-27.5 -59t-11 -71.5h-60zM107 45
q0 28 13.5 42t36.5 14t36.5 -14t13.5 -42q0 -29 -13.5 -43t-36.5 -14t-36.5 14t-13.5 43z" />
    <glyph glyph-name="at" unicode="@" horiz-adv-x="857" 
d="M565 491h33l-41 -291q-9 -67 -5.5 -99.5t29.5 -32.5t52 17t46.5 50t33 81t12.5 110q0 71 -20.5 124.5t-57 89.5t-88.5 54.5t-115 18.5q-65 0 -122 -26.5t-99 -75.5t-66.5 -117t-24.5 -152q0 -87 22.5 -151t63.5 -107t97 -64t124 -21q24 0 55.5 6t54.5 18l18 -56
q-34 -16 -67.5 -22.5t-70.5 -6.5q-73 0 -138.5 23t-115 71.5t-78.5 124t-29 179.5q0 103 30.5 184.5t82 137.5t120.5 86t146 30q74 0 136.5 -22t108.5 -66t71.5 -109t25.5 -151q0 -69 -18 -128t-48.5 -102t-71 -67.5t-86.5 -24.5q-19 0 -34.5 5t-25 17t-13.5 32t0 49h-4
q-11 -20 -26 -38.5t-32.5 -33t-38 -23t-42.5 -8.5q-42 0 -71.5 37.5t-29.5 108.5q0 74 16.5 138t45 111t66.5 73.5t81 26.5q29 0 47.5 -10t35.5 -27zM519 400q-13 18 -26.5 26t-33.5 8q-30 0 -56 -22.5t-45 -60t-30 -85.5t-11 -99q0 -45 13.5 -71.5t45.5 -26.5q15 0 31 11
t31.5 28.5t29.5 39.5t24 44z" />
    <glyph glyph-name="A" unicode="A" horiz-adv-x="473" 
d="M333 196h-198l-56 -196h-74l211 711h41l211 -711h-78zM155 263h160l-61 216l-19 105h-2l-19 -107z" />
    <glyph glyph-name="B" unicode="B" horiz-adv-x="471" 
d="M411 541q0 -26 -6 -52t-19 -49t-32.5 -41t-47.5 -27v-4q24 -5 46 -16.5t39 -32t27 -50t10 -70.5q0 -54 -17 -93.5t-46.5 -64.5t-68 -37t-81.5 -12h-32.5t-39.5 1.5t-41.5 4t-37.5 7.5v689q30 6 70.5 10t87.5 4q34 0 68 -6.5t61 -24.5t43.5 -50.5t16.5 -85.5zM221 61
q27 0 50 8.5t40.5 25.5t27.5 41.5t10 57.5q0 41 -12.5 66.5t-32.5 39.5t-45.5 19t-52.5 5h-67v-256q6 -2 15.5 -3t21 -2t23.5 -1.5t22 -0.5zM180 389q14 0 32 1t30 3q37 15 63.5 48.5t26.5 82.5q0 33 -9 55.5t-24.5 35.5t-36.5 18.5t-44 5.5q-26 0 -47 -1.5t-32 -3.5v-245
h41z" />
    <glyph glyph-name="C" unicode="C" horiz-adv-x="458" 
d="M430 27q-25 -21 -63 -30t-80 -9q-53 0 -98 20t-77.5 63.5t-50.5 112.5t-18 166q0 100 20.5 169t54.5 112t78.5 62t91.5 19q48 0 79.5 -7t54.5 -17l-18 -68q-20 11 -47 17t-62 6t-66 -15.5t-55 -50t-38 -90.5t-14 -137q0 -146 50 -219.5t133 -73.5q34 0 61 9.5t46 22.5z
" />
    <glyph glyph-name="D" unicode="D" horiz-adv-x="525" 
d="M64 700q16 3 35.5 4.5t39.5 2t39.5 1t36.5 0.5q73 0 124 -25t83 -71.5t46 -111.5t14 -145q0 -72 -13.5 -138t-45.5 -116t-84.5 -80t-131.5 -30q-13 0 -33 0.5t-41.5 2t-40 2.5t-28.5 3v701zM219 639h-21.5t-22.5 -1t-20.5 -2t-15.5 -2v-570q4 -1 14.5 -1.5t22 -1t22 -1
t15.5 -0.5q55 0 92 24t58.5 64.5t30.5 94t9 113.5q0 53 -8 104t-28.5 90.5t-56 64t-91.5 24.5z" />
    <glyph glyph-name="E" unicode="E" horiz-adv-x="429" 
d="M64 700h311v-69h-236v-237h217v-69h-217v-256h241v-69h-316v700z" />
    <glyph glyph-name="F" unicode="F" horiz-adv-x="413" 
d="M64 700h311v-69h-236v-247h220v-69h-220v-315h-75v700z" />
    <glyph glyph-name="G" unicode="G" horiz-adv-x="492" 
d="M257 349h193v-308q-28 -26 -72 -39.5t-89 -13.5q-56 0 -101.5 21t-77.5 65.5t-49.5 112.5t-17.5 163q0 98 21 166.5t56.5 112t81 63.5t93.5 20t80.5 -6.5t55.5 -17.5l-18 -68q-20 11 -47.5 17t-63.5 6q-35 0 -67 -15t-57.5 -49.5t-40.5 -90.5t-15 -138
q0 -150 47.5 -221.5t130.5 -71.5q52 0 86 25v204l-129 19v44z" />
    <glyph glyph-name="H" unicode="H" horiz-adv-x="536" 
d="M397 323h-258v-323h-75v700h75v-308h258v308h75v-700h-75v323z" />
    <glyph glyph-name="I" unicode="I" horiz-adv-x="233" 
d="M79 700h75v-700h-75v700z" />
    <glyph glyph-name="J" unicode="J" horiz-adv-x="241" 
d="M93 700h75v-543q0 -82 -26.5 -124.5t-92.5 -42.5q-16 0 -38.5 4t-36.5 12l16 65q10 -6 22.5 -9t25.5 -3q18 0 29 8t17 22.5t7.5 35t1.5 46.5v529z" />
    <glyph glyph-name="K" unicode="K" horiz-adv-x="493" 
d="M175 324h-36v-324h-75v700h75v-326l35 14l182 312h86l-183 -302l-35 -32l41 -40l203 -326h-95z" />
    <glyph glyph-name="L" unicode="L" horiz-adv-x="415" 
d="M401 0h-337v700h75v-631h262v-69z" />
    <glyph glyph-name="M" unicode="M" horiz-adv-x="637" 
d="M498 460l9 106h-4l-32 -99l-141 -304h-25l-148 304l-31 99h-4l14 -106v-460h-72v700h63l169 -344l25 -82h2l24 83l160 343h66v-700h-75v460z" />
    <glyph glyph-name="N" unicode="N" horiz-adv-x="538" 
d="M171 444l-43 110h-3l11 -110v-444h-72v711h45l259 -454l41 -105h4l-11 105v443h72v-711h-46z" />
    <glyph glyph-name="O" unicode="O" horiz-adv-x="549" 
d="M43 350q0 178 57 270t174 92q63 0 107 -25.5t71.5 -72.5t40.5 -114t13 -150q0 -178 -57.5 -270t-174.5 -92q-62 0 -106 25.5t-72 72.5t-40.5 114t-12.5 150zM122 350q0 -59 8.5 -112t26.5 -93t47 -64t70 -24q75 0 114 72t39 221q0 58 -8.5 111t-26.5 93.5t-47 64.5
t-71 24q-74 0 -113 -72t-39 -221z" />
    <glyph glyph-name="P" unicode="P" horiz-adv-x="451" 
d="M64 693q32 9 68 12t71 3q40 0 79 -9t70.5 -33t51 -66t19.5 -107q0 -63 -18.5 -107t-49 -71.5t-70 -40t-81.5 -12.5h-13t-19 0.5t-19.5 1.5t-13.5 2v-266h-75v693zM207 639q-20 0 -38.5 -1.5t-29.5 -4.5v-298q4 -2 12.5 -2.5t17.5 -1t17.5 -0.5h12.5q28 0 54 7t46 25.5
t32.5 50t12.5 79.5q0 42 -11.5 70t-30 45t-43.5 24t-52 7z" />
    <glyph glyph-name="Q" unicode="Q" horiz-adv-x="549" 
d="M566 -166q-20 -7 -38.5 -9.5t-37.5 -2.5q-40 0 -78.5 10.5t-74 22.5t-68.5 22.5t-63 10.5q-18 0 -36 -6v68q22 6 44 6q33 0 66.5 -10t67.5 -22t70.5 -22t75.5 -10q36 0 72 10v-68zM43 350q0 178 57 270t174 92q63 0 107 -25.5t71.5 -72.5t40.5 -114t13 -150
q0 -178 -57.5 -270t-174.5 -92q-62 0 -106 25.5t-72 72.5t-40.5 114t-12.5 150zM122 350q0 -59 8.5 -112t26.5 -93t47 -64t70 -24q75 0 114 72t39 221q0 58 -8.5 111t-26.5 93.5t-47 64.5t-71 24q-74 0 -113 -72t-39 -221z" />
    <glyph glyph-name="R" unicode="R" horiz-adv-x="480" 
d="M64 693q33 8 72.5 11.5t72.5 3.5q39 0 74 -9.5t61 -32t41.5 -59t15.5 -91.5q0 -83 -34.5 -133t-91.5 -67l38 -37l138 -279h-87l-150 305l-75 15v-320h-75v693zM139 370h60q57 0 90 35t33 107q0 55 -27.5 91t-81.5 36q-20 0 -41.5 -1.5t-32.5 -4.5v-263z" />
    <glyph glyph-name="S" unicode="S" horiz-adv-x="428" 
d="M59 93q19 -13 53.5 -24.5t78.5 -11.5q56 0 91 27.5t35 86.5q0 39 -20 68t-50 53.5t-64.5 48t-64.5 52t-50 65.5t-20 89q0 84 50.5 124.5t131.5 40.5q50 0 89 -9t63 -23l-24 -66q-18 11 -51.5 20t-77.5 9q-54 0 -80 -26.5t-26 -66.5q0 -35 20 -62t50 -51t64.5 -48.5
t64.5 -54.5t50 -68t20 -90q0 -88 -52 -138t-147 -50q-60 0 -98.5 11t-61.5 25z" />
    <glyph glyph-name="T" unicode="T" horiz-adv-x="447" 
d="M433 631h-172v-631h-75v631h-172v69h419v-69z" />
    <glyph glyph-name="U" unicode="U" horiz-adv-x="521" 
d="M385 700h72v-469q0 -127 -49.5 -183.5t-140.5 -56.5q-106 0 -154.5 55t-48.5 169v485h75v-446q0 -54 7 -91t23 -60t40 -33t59 -10q66 0 91.5 46t25.5 148v446z" />
    <glyph glyph-name="V" unicode="V" horiz-adv-x="463" 
d="M218 221l18 -107h2l20 109l130 477h77l-212 -711h-40l-215 711h83z" />
    <glyph glyph-name="W" unicode="W" horiz-adv-x="672" 
d="M182 237l12 -117h2l12 119l112 461h43l112 -462l12 -118h1l14 119l89 461h75l-156 -711h-46l-111 461l-14 107h-3l-14 -108l-111 -460h-47l-159 711h81z" />
    <glyph glyph-name="X" unicode="X" horiz-adv-x="500" 
d="M203 356l-168 344h90l109 -237l20 -59l20 59l115 237h83l-174 -337l182 -363h-88l-121 251l-23 62l-21 -62l-124 -251h-84z" />
    <glyph glyph-name="Y" unicode="Y" horiz-adv-x="455" 
d="M191 278l-186 422h88l126 -305l13 -61h2l13 63l122 303h81l-184 -421v-279h-75v278z" />
    <glyph glyph-name="Z" unicode="Z" horiz-adv-x="439" 
d="M29 69l278 522l33 40h-311v69h381v-69l-279 -525l-32 -37h311v-69h-381v69z" />
    <glyph glyph-name="bracketleft" unicode="[" horiz-adv-x="248" 
d="M64 700h156v-65h-84v-800h84v-65h-156v930z" />
    <glyph glyph-name="backslash" unicode="\" horiz-adv-x="316" 
d="M330 -117l-60 -23l-298 829l61 23z" />
    <glyph glyph-name="bracketright" unicode="]" horiz-adv-x="249" 
d="M185 -230h-156v65h84v800h-84v65h156v-930z" />
    <glyph glyph-name="asciicircum" unicode="^" horiz-adv-x="412" 
d="M191 711h30l139 -276h-75l-62 135l-18 69l-24 -70l-72 -134h-69z" />
    <glyph glyph-name="underscore" unicode="_" horiz-adv-x="334" 
d="M0 -140h334v-65h-334v65z" />
    <glyph glyph-name="grave" unicode="`" horiz-adv-x="255" 
d="M195 571h-41l-94 128v21h83z" />
    <glyph glyph-name="a" unicode="a" horiz-adv-x="400" 
d="M54 470q29 18 70.5 28t87.5 10q42 0 67.5 -12.5t40 -34t19 -49t4.5 -57.5q0 -60 -2.5 -117t-2.5 -108q0 -38 2.5 -70.5t9.5 -61.5h-55l-17 59h-4q-15 -26 -44 -45t-78 -19q-54 0 -88.5 37.5t-34.5 103.5q0 43 14.5 72t41 47t63 25.5t81.5 7.5h20t21 -1q3 31 3 55
q0 57 -17 80t-62 23q-28 0 -61 -8.5t-55 -21.5zM271 228q-10 1 -20 1.5t-20 0.5q-24 0 -47 -4t-41 -14t-28.5 -27t-10.5 -43q0 -40 19.5 -62t50.5 -22q42 0 65 20t32 44v106z" />
    <glyph glyph-name="b" unicode="b" horiz-adv-x="434" 
d="M59 700h72v-238h3q41 50 109 50q77 0 115.5 -61t38.5 -193q0 -135 -51.5 -201t-145.5 -66q-46 0 -84 10.5t-57 24.5v674zM131 73q14 -8 34.5 -12.5t43.5 -4.5q52 0 82.5 49.5t30.5 152.5q0 43 -5.5 77.5t-17 59.5t-30 38.5t-44.5 13.5q-36 0 -59.5 -21.5t-34.5 -58.5
v-294z" />
    <glyph glyph-name="c" unicode="c" horiz-adv-x="356" 
d="M335 25q-25 -19 -57 -28t-67 -9q-48 0 -81 18.5t-53.5 53t-30 83t-9.5 107.5q0 128 45.5 195t130.5 67q39 0 67 -7t48 -18l-20 -63q-40 23 -87 23q-54 0 -81.5 -47.5t-27.5 -149.5q0 -41 6 -77t20 -62.5t36 -42t55 -15.5q26 0 48.5 9t36.5 21z" />
    <glyph glyph-name="d" unicode="d" horiz-adv-x="433" 
d="M374 172q0 -51 1 -92.5t7 -81.5h-49l-16 60h-4q-14 -30 -44 -50t-72 -20q-81 0 -120.5 63t-39.5 198q0 128 48.5 194t133.5 66q29 0 46 -3.5t37 -11.5v206h72v-528zM302 421q-14 12 -31.5 17.5t-46.5 5.5q-53 0 -82.5 -48t-29.5 -148q0 -44 5.5 -79.5t17 -61.5t30 -40
t45.5 -14q72 0 92 85v283z" />
    <glyph glyph-name="e" unicode="e" horiz-adv-x="413" 
d="M358 34q-24 -22 -61 -34t-78 -12q-47 0 -81.5 18.5t-57 53t-33 82.5t-10.5 108q0 128 47 195t133 67q28 0 55.5 -7t49.5 -28t35.5 -59t13.5 -99q0 -17 -1.5 -36.5t-3.5 -40.5h-254q0 -43 7 -78t22 -59.5t38.5 -38t58.5 -13.5q27 0 53.5 10t40.5 24zM302 302q2 75 -21 110
t-63 35q-46 0 -73 -35t-32 -110h189z" />
    <glyph glyph-name="f" unicode="f" horiz-adv-x="257" 
d="M16 500h61v28q0 94 27 136t92 42q26 0 47 -3t43 -13l-18 -62q-18 8 -33.5 10.5t-29.5 2.5q-20 0 -31 -8t-16.5 -25t-7 -43.5t-1.5 -64.5h104v-65h-104v-435h-72v435h-61v65z" />
    <glyph glyph-name="g" unicode="g" horiz-adv-x="432" 
d="M374 -23q0 -97 -43 -143t-125 -46q-50 0 -82 8.5t-52 19.5l21 62q20 -9 44 -17t59 -8q61 0 83.5 34t22.5 114v37h-3q-16 -23 -41 -36t-64 -13q-81 0 -119 62.5t-38 196.5q0 129 49.5 195t146.5 66q47 0 81 -9t60 -21v-502zM302 428q-30 16 -77 16q-51 0 -82 -46.5
t-31 -148.5q0 -42 5 -77.5t17 -62t30.5 -41t45.5 -14.5q38 0 60 20t32 60v294z" />
    <glyph glyph-name="h" unicode="h" horiz-adv-x="440" 
d="M315 0v304q0 70 -16.5 106.5t-65.5 36.5q-35 0 -63.5 -25t-38.5 -63v-359h-72v700h72v-247h3q20 26 49.5 42.5t73.5 16.5q33 0 57.5 -9t40.5 -31t24 -58.5t8 -90.5v-323h-72z" />
    <glyph glyph-name="i" unicode="i" horiz-adv-x="217" 
d="M71 500h72v-500h-72v500zM58 652q0 24 13.5 39t35.5 15t36.5 -14.5t14.5 -39.5q0 -24 -14.5 -37.5t-36.5 -13.5t-35.5 14t-13.5 37z" />
    <glyph glyph-name="j" unicode="j" horiz-adv-x="215" 
d="M72 500h72v-527q0 -103 -33 -148.5t-107 -34.5v65q22 0 35.5 9t21 27.5t9.5 46t2 64.5v498zM58 652q0 24 13.5 39t35.5 15t36.5 -14.5t14.5 -39.5q0 -24 -14.5 -37.5t-36.5 -13.5t-35.5 14t-13.5 37z" />
    <glyph glyph-name="k" unicode="k" horiz-adv-x="388" 
d="M168 225h-37v-225h-72v700h72v-426l33 14l117 212h83l-118 -202l-35 -32l41 -39l129 -227h-87z" />
    <glyph glyph-name="l" unicode="l" horiz-adv-x="233" 
d="M136 119q0 -35 9.5 -50t26.5 -15q21 0 49 11l7 -58q-13 -8 -36.5 -13t-42.5 -5q-38 0 -61.5 23.5t-23.5 82.5v605h72v-581z" />
    <glyph glyph-name="m" unicode="m" horiz-adv-x="651" 
d="M293 0v297q0 40 -2.5 68.5t-10.5 46.5t-22 26.5t-37 8.5q-34 0 -57.5 -26.5t-32.5 -60.5v-360h-72v500h51l13 -53h3q21 29 50 47t74 18q38 0 62.5 -16.5t38.5 -58.5q18 35 51.5 55t73.5 20q33 0 56.5 -8.5t38 -30t21.5 -57t7 -89.5v-327h-72v318q0 65 -12.5 97t-57.5 32
q-38 0 -60.5 -23.5t-31.5 -63.5v-360h-72z" />
    <glyph glyph-name="n" unicode="n" horiz-adv-x="439" 
d="M315 0v305q0 75 -17.5 108.5t-62.5 33.5q-40 0 -66 -24t-38 -59v-364h-72v500h52l13 -53h3q19 27 51.5 46t77.5 19q32 0 56.5 -9t41 -30.5t25 -57.5t8.5 -91v-324h-72z" />
    <glyph glyph-name="o" unicode="o" horiz-adv-x="432" 
d="M37 250q0 135 46.5 198.5t132.5 63.5q92 0 135.5 -65t43.5 -197q0 -136 -47 -199t-132 -63q-92 0 -135.5 65t-43.5 197zM112 250q0 -44 5.5 -80t18 -62t32.5 -40.5t48 -14.5q52 0 78 46.5t26 150.5q0 43 -5.5 79.5t-18 62.5t-32.5 40.5t-48 14.5q-51 0 -77.5 -47
t-26.5 -150z" />
    <glyph glyph-name="p" unicode="p" horiz-adv-x="435" 
d="M59 500h51l11 -54h4q37 66 116 66t118.5 -59t39.5 -193q0 -63 -13 -113.5t-37 -86t-58.5 -54t-76.5 -18.5q-29 0 -46 3.5t-37 14.5v-206h-72v700zM131 79q14 -12 31.5 -19t46.5 -7q53 0 84 54t31 154q0 42 -5.5 76t-17.5 58.5t-30.5 38t-45.5 13.5q-73 0 -94 -89v-279z
" />
    <glyph glyph-name="q" unicode="q" horiz-adv-x="432" 
d="M374 -200h-72v241h-4q-16 -25 -40.5 -39t-63.5 -14q-79 0 -118 63.5t-39 196.5q0 129 51 195t148 66q42 0 80 -10t58 -21v-678zM302 427q-28 17 -79 17q-52 0 -81.5 -48t-29.5 -147q0 -42 5 -78t16.5 -62.5t30 -41t45.5 -14.5q38 0 60 22t33 64v288z" />
    <glyph glyph-name="r" unicode="r" horiz-adv-x="274" 
d="M59 500h51l13 -53h3q14 29 36.5 45.5t54.5 16.5q23 0 52 -9l-14 -73q-26 9 -46 9q-32 0 -52 -18.5t-26 -49.5v-368h-72v500z" />
    <glyph glyph-name="s" unicode="s" horiz-adv-x="338" 
d="M51 82q20 -12 47.5 -20.5t56.5 -8.5q33 0 56 16.5t23 53.5q0 31 -14 51t-35.5 36t-46.5 29.5t-46.5 32.5t-35.5 45t-14 66q0 64 34.5 96.5t97.5 32.5q41 0 71 -7.5t52 -20.5l-19 -60q-19 10 -44 16.5t-51 6.5q-36 0 -52.5 -15t-16.5 -47q0 -25 14 -42.5t35.5 -32
t46.5 -29.5t46.5 -35.5t35.5 -49t14 -71.5q0 -28 -9 -53t-27.5 -43.5t-46 -29.5t-64.5 -11q-44 0 -76 8.5t-54 22.5z" />
    <glyph glyph-name="t" unicode="t" horiz-adv-x="275" 
d="M9 500h61v99l72 23v-122h108v-65h-108v-298q0 -44 10.5 -63.5t34.5 -19.5q20 0 34.5 4.5t31.5 11.5l14 -57q-22 -11 -48.5 -17.5t-55.5 -6.5q-50 0 -71.5 32.5t-21.5 105.5v308h-61v65z" />
    <glyph glyph-name="u" unicode="u" horiz-adv-x="434" 
d="M124 500v-306q0 -76 15.5 -108.5t56.5 -32.5q21 0 37.5 8.5t29.5 22.5t23 32t16 37v347h72v-358q0 -36 2.5 -74.5t7.5 -67.5h-51l-18 70h-3q-17 -33 -49 -57.5t-80 -24.5q-32 0 -56 8t-41 29t-25.5 57.5t-8.5 93.5v324h72z" />
    <glyph glyph-name="v" unicode="v" horiz-adv-x="388" 
d="M180 207l20 -99h2l18 101l88 291h76l-171 -511h-35l-174 511h82z" />
    <glyph glyph-name="w" unicode="w" horiz-adv-x="590" 
d="M326 500l89 -292l18 -96h2l15 98l68 290h68l-133 -511h-41l-101 328l-14 84h-2l-14 -85l-98 -327h-41l-137 511h77l77 -291l12 -97h2l18 99l82 289h53z" />
    <glyph glyph-name="x" unicode="x" horiz-adv-x="412" 
d="M161 256l-132 244h86l74 -143l20 -56l21 56l76 143h79l-133 -240l141 -260h-82l-84 157l-22 60l-23 -60l-84 -157h-79z" />
    <glyph glyph-name="y" unicode="y" horiz-adv-x="376" 
d="M183 177l21 -97h5l15 97l76 323h73l-119 -449q-14 -54 -28 -101t-30.5 -81.5t-37 -54t-48.5 -19.5t-49 9l12 68q14 -5 28 -2t26.5 17t23 41.5t18.5 71.5l-162 500h82z" />
    <glyph glyph-name="z" unicode="z" horiz-adv-x="360" 
d="M32 65l186 327l35 43h-221v65h292v-65l-187 -330l-34 -40h221v-65h-292v65z" />
    <glyph glyph-name="braceleft" unicode="{" horiz-adv-x="282" 
d="M107 114q0 51 -16.5 70t-47.5 19v65q31 0 47.5 20t16.5 64v247q0 47 18.5 74.5t60.5 27.5h74v-65h-39q-23 0 -32.5 -12.5t-9.5 -44.5v-244q0 -44 -16.5 -67t-39.5 -28v-6q23 -4 39.5 -30.5t16.5 -68.5v-243q0 -31 9.5 -44t33.5 -13h38v-65h-74q-79 0 -79 101v243z" />
    <glyph glyph-name="bar" unicode="|" horiz-adv-x="190" 
d="M65 700h61v-830h-61v830z" />
    <glyph glyph-name="braceright" unicode="}" horiz-adv-x="282" 
d="M175 -129q0 -101 -79 -101h-74v65h38q24 0 33.5 13t9.5 44v243q0 42 16.5 68.5t39.5 30.5v6q-23 5 -39.5 28t-16.5 67v244q0 32 -9.5 44.5t-32.5 12.5h-39v65h74q42 0 60.5 -27.5t18.5 -74.5v-247q0 -44 16.5 -64t47.5 -20v-65q-31 0 -47.5 -19t-16.5 -70v-243z" />
    <glyph glyph-name="asciitilde" unicode="~" horiz-adv-x="415" 
d="M23 361q36 33 65 46t54 13q23 0 43 -8.5t38 -18t35.5 -18t35.5 -8.5q14 0 30 7t33 26l34 -60q-32 -27 -57 -37.5t-46 -10.5q-22 0 -40.5 8.5t-36 19t-35 19t-36.5 8.5q-18 0 -38.5 -10t-45.5 -35z" />
    <glyph glyph-name="uni00A0" unicode="&#xa0;" horiz-adv-x="212" 
 />
    <glyph glyph-name="exclamdown" unicode="&#xa1;" horiz-adv-x="247" 
d="M101 -203.957h75v346.979l-15 175.989h-45l-15 -175.989v-346.979zM88 451.003q0 -27.998 13.5 -41.998q13.5 -13.999 36.5 -13.999t36.5 13.999q13.5 14 13.5 41.998q0 28.998 -13.5 42.9971t-36.5 13.999t-36.5 -13.999t-13.5 -42.9971z" />
    <glyph glyph-name="cent" unicode="&#xa2;" 
d="M382 27q-18 -15 -42.5 -24t-50.5 -12v-91h-65v90q-41 6 -69 27t-45.5 54.5t-25.5 79t-8 99.5q0 114 38 180t110 79v91h65v-89q27 -2 48 -8t38 -16l-19 -63q-16 9 -34.5 14.5t-38.5 7.5v-393q25 2 45 11t34 20zM151 250q0 -36 4.5 -67.5t14.5 -56.5t26 -43t39 -25v385
q-43 -11 -63.5 -58t-20.5 -135z" />
    <glyph glyph-name="sterling" unicode="&#xa3;" 
d="M42 381h55q-10 29 -17 62.5t-7 78.5q0 97 45.5 143.5t123.5 46.5q49 0 85 -8t61 -20l-24 -66q-19 10 -48.5 17.5t-71.5 7.5q-46 0 -71 -31t-25 -93q0 -42 8.5 -74.5t19.5 -63.5h127v-65h-104q7 -23 11.5 -47.5t4.5 -56.5q0 -29 -8.5 -63t-23.5 -55l-39 -35v-4l59 14h202
v-69h-363v69h2q25 1 43 13t30 31.5t17.5 44t5.5 48.5q0 34 -6 59.5t-14 50.5h-78v65z" />
    <glyph glyph-name="currency" unicode="&#xa4;" 
d="M46 579l69 -67l19 -31q37 29 91 29q26 0 49.5 -7.5t41.5 -21.5l19 31l70 67l42 -43l-67 -69l-31 -19q28 -39 28 -90q0 -56 -28 -91l31 -19l67 -69l-42 -43l-70 68l-18 30q-39 -28 -92 -28q-54 0 -91 28l-19 -30l-69 -68l-43 43l68 69l30 19q-28 37 -28 91q0 26 7.5 48.5
t20.5 41.5l-30 19l-68 69zM135 358q0 -41 25 -67.5t65 -26.5t65.5 26.5t25.5 67.5q0 39 -25.5 66t-65.5 27t-65 -27t-25 -66z" />
    <glyph glyph-name="yen" unicode="&#xa5;" 
d="M89 326h79l-165 374h88l126 -305l13 -61h2l13 63l122 303h81l-164 -374h80v-58h-100v-71h100v-58h-100v-139h-75v139h-100v58h100v71h-100v58z" />
    <glyph glyph-name="brokenbar" unicode="&#xa6;" horiz-adv-x="189" 
d="M64 213h61v-343h-61v343zM125 357h-61v343h61v-343z" />
    <glyph glyph-name="section" unicode="&#xa7;" horiz-adv-x="405" 
d="M45 353q0 31 13 61.5t36 53.5l34 15q-22 17 -37.5 41t-15.5 66q0 53 33.5 87.5t99.5 34.5q42 0 73 -8t53 -19l-18 -62q-21 10 -46.5 17t-53.5 7q-36 0 -52.5 -17t-16.5 -42q0 -26 16 -42t39.5 -28.5t51 -24.5t51 -30t39.5 -45.5t16 -70.5q0 -31 -12 -62.5t-35 -54.5
l-36 -14q21 -16 37 -40.5t16 -65.5q0 -60 -37.5 -91t-98.5 -31q-42 0 -72 7.5t-52 21.5l19 61q19 -11 44 -18t53 -7q72 0 72 61q0 24 -16 39.5t-39.5 28t-51 24.5t-51 30.5t-39.5 46t-16 70.5zM288 345q0 24 -9.5 40t-25.5 27.5t-36.5 21t-42.5 19.5q-24 -14 -40.5 -38
t-16.5 -60q0 -23 9.5 -39.5t25.5 -29t36.5 -22t42.5 -19.5q22 14 39.5 41t17.5 59z" />
    <glyph glyph-name="dieresis" unicode="&#xa8;" horiz-adv-x="365" 
d="M60 653q0 23 11.5 36t31.5 13t31.5 -13t11.5 -36q0 -21 -11.5 -34t-31.5 -13t-31.5 13t-11.5 34zM219 653q0 23 11.5 36t31.5 13t31.5 -13t11.5 -36q0 -21 -11.5 -34t-31.5 -13t-31.5 13t-11.5 34z" />
    <glyph glyph-name="copyright" unicode="&#xa9;" horiz-adv-x="693" 
d="M50 293q0 70 23.5 125t64 93t94.5 58.5t115 20.5t115 -20.5t94.5 -58.5t64 -93t23.5 -125t-23.5 -125t-64 -93.5t-94.5 -58.5t-115 -20q-68 0 -122.5 20t-93.5 58.5t-60 93.5t-21 125zM110 293q0 -58 18.5 -103t50.5 -75.5t75 -46.5t93 -16q49 0 92.5 16t75.5 46.5
t50.5 75.5t18.5 103t-18.5 103t-50.5 75.5t-75.5 46.5t-92.5 16q-50 0 -93 -16t-75 -46.5t-50.5 -75.5t-18.5 -103zM446 155q-20 -11 -44 -17t-56 -6q-68 0 -104 43.5t-36 117.5q0 77 38.5 118.5t101.5 41.5q31 0 50 -6t44 -17l-22 -55q-19 9 -35.5 13t-28.5 4
q-35 0 -55.5 -22.5t-20.5 -76.5q0 -99 83 -99q38 0 67 16z" />
    <glyph glyph-name="ordfeminine" unicode="&#xaa;" horiz-adv-x="316" 
d="M52 681q21 11 54.5 19t75.5 8q53 0 72 -26t20 -75q-1 -69 -4 -126t8 -101h-50l-12 42h-3q-10 -17 -29.5 -31.5t-52.5 -14.5q-45 0 -70 25.5t-25 69.5q0 33 14 55t38 35t55.5 17.5t68.5 2.5q2 40 -6.5 57t-40.5 17q-29 0 -54.5 -6.5t-42.5 -14.5zM143 430q30 0 45.5 14.5
t23.5 29.5v57q-21 1 -41 0.5t-36 -5.5t-26 -16.5t-10 -32.5q0 -20 11 -33.5t33 -13.5z" />
    <glyph glyph-name="guillemotleft" unicode="&#xab;" horiz-adv-x="386" 
d="M178 259l127 228l48 -33l-80 -153l-38 -41l38 -36l85 -150l-48 -34zM29 259l129 230l50 -34l-82 -154l-38 -41l38 -36l88 -151l-51 -35z" />
    <glyph glyph-name="logicalnot" unicode="&#xac;" horiz-adv-x="415" 
d="M36 391h343v-191h-65v122h-278v69z" />
    <glyph glyph-name="uni00AD" unicode="&#xad;" horiz-adv-x="291" 
d="M47 320h197v-69h-197v69z" />
    <glyph glyph-name="registered" unicode="&#xae;" horiz-adv-x="591" 
d="M72 490q0 54 18 95.5t48.5 70t71 43t85.5 14.5q47 0 88 -14.5t71 -43t47.5 -70t17.5 -95.5t-18 -96t-48.5 -70.5t-71 -43t-86.5 -14.5q-47 0 -87.5 14.5t-70.5 43t-47.5 70.5t-17.5 96zM126 490q0 -44 13.5 -76.5t36.5 -54.5t53.5 -32.5t65.5 -10.5q37 0 68 10.5t53.5 32
t35.5 54t13 77.5q0 43 -13.5 75.5t-36.5 54.5t-54 32.5t-66 10.5q-37 0 -68 -10.5t-53.5 -32.5t-35 -54.5t-12.5 -75.5zM208 599q14 4 38.5 6.5t46.5 2.5q35 0 60.5 -15t25.5 -51q0 -27 -17 -41.5t-43 -16.5l24 -11l62 -93h-52l-60 88l-41 13v-101h-44v219zM283 570
q-8 0 -17 -0.5t-14 -3.5v-60h29q51 0 51 34q0 30 -49 30z" />
    <glyph glyph-name="macron" unicode="&#xaf;" horiz-adv-x="363" 
d="M60 643h243v-60h-243v60z" />
    <glyph glyph-name="degree" unicode="&#xb0;" horiz-adv-x="342" 
d="M62 571q0 63 32 102t85 39q52 0 85 -36.5t33 -104.5t-33 -104.5t-85 -36.5q-53 0 -85 36.5t-32 104.5zM119 571q0 -39 16.5 -63.5t43.5 -24.5t44 24.5t17 63.5t-17 63.5t-44 24.5t-43.5 -24.5t-16.5 -63.5z" />
    <glyph glyph-name="plusminus" unicode="&#xb1;" horiz-adv-x="415" 
d="M35 469h139v155h67v-155h139v-67h-139v-105h-67v105h-139v67zM35 247h345v-67h-345v67z" />
    <glyph glyph-name="twosuperior" unicode="&#xb2;" horiz-adv-x="330" 
d="M267 695q0 -32 -8.5 -62.5t-23 -60t-34 -58t-40.5 -56.5l-37 -32v-2l46 15h112v-59h-238v32q21 21 48.5 53.5t52.5 69.5t42 76t17 74q0 30 -15.5 46t-38.5 16q-22 0 -42.5 -7t-34.5 -17l-20 52q20 16 49.5 24t58.5 8q51 0 78.5 -29t27.5 -83z" />
    <glyph glyph-name="threesuperior" unicode="&#xb3;" horiz-adv-x="330" 
d="M141 430q38 0 57.5 20.5t18.5 57.5q1 32 -16.5 52t-58.5 20h-44v23l77 119l29 27l-41 -6h-105v57h211v-32l-82 -126l-21 -17v-3l20 3q45 0 70.5 -31.5t24.5 -85.5q1 -61 -36.5 -98t-97.5 -37q-29 0 -51 5t-39 13l13 56q15 -8 32.5 -12.5t38.5 -4.5z" />
    <glyph glyph-name="acute" unicode="&#xb4;" horiz-adv-x="245" 
d="M107 720h78v-21l-82 -128h-43z" />
    <glyph glyph-name="mu" unicode="&#xb5;" 
d="M125 500v-302q0 -72 20.5 -108.5t67.5 -36.5q42 0 70 25t41 67v355h72v-337q0 -41 2 -82.5t10 -80.5h-51l-23 62h-3q-16 -32 -48 -53t-78 -21q-37 0 -57.5 13t-34.5 33h-5l18 -101v-133h-73v700h72z" />
    <glyph glyph-name="mu" unicode="&#x3bc;" 
d="M125 500v-302q0 -72 20.5 -108.5t67.5 -36.5q42 0 70 25t41 67v355h72v-337q0 -41 2 -82.5t10 -80.5h-51l-23 62h-3q-16 -32 -48 -53t-78 -21q-37 0 -57.5 13t-34.5 33h-5l18 -101v-133h-73v700h72z" />
    <glyph glyph-name="paragraph" unicode="&#xb6;" horiz-adv-x="403" 
d="M278 700h61v-830h-61v830zM148 310q-27 0 -48.5 15.5t-37.5 42.5t-24.5 62.5t-8.5 75.5q0 39 9.5 74.5t27.5 62t43.5 42t58.5 15.5h41v-830h-61v440z" />
    <glyph glyph-name="periodcentered" unicode="&#xb7;" horiz-adv-x="213" 
d="M57 295q0 28 13.5 42t36.5 14t36.5 -14t13.5 -42q0 -29 -13.5 -43t-36.5 -14t-36.5 14t-13.5 43z" />
    <glyph glyph-name="cedilla" unicode="&#xb8;" horiz-adv-x="262" 
d="M137 -43q65 -15 65 -75q0 -23 -10 -42t-29 -31t-45 -15.5t-58 2.5l6 48q38 -6 53.5 1.5t15.5 27.5q0 28 -69 37l40 90h50z" />
    <glyph glyph-name="onesuperior" unicode="&#xb9;" horiz-adv-x="330" 
d="M64 437h84v257l6 36l-23 -28l-59 -40l-27 42l125 103h41v-370h75v-57h-222v57z" />
    <glyph glyph-name="ordmasculine" unicode="&#xba;" horiz-adv-x="323" 
d="M34 542q0 46 9.5 78.5t27 53t41 29.5t50.5 9t50.5 -8.5t41 -28t27 -52.5t9.5 -81t-9.5 -81t-27 -52.5t-41 -28t-50.5 -8.5t-50.5 8.5t-41 28t-27 52.5t-9.5 81zM99 542q0 -65 17.5 -90t45.5 -25q14 0 25.5 5t19.5 17.5t12.5 35t4.5 57.5q0 34 -4.5 56.5t-12.5 35.5
t-19.5 18t-25.5 5q-15 0 -26.5 -5t-19.5 -18t-12.5 -35.5t-4.5 -56.5z" />
    <glyph glyph-name="guillemotright" unicode="&#xbb;" horiz-adv-x="386" 
d="M208 268l-127 -228l-49 32l81 154l38 41l-38 36l-85 151l48 33zM357 268l-129 -230l-51 33l83 155l38 41l-38 36l-88 152l51 34z" />
    <glyph glyph-name="onequarter" unicode="&#xbc;" horiz-adv-x="683" 
d="M505 713l49 -27l-384 -698l-50 28zM636 96h-65v-96h-61v96h-165v34l181 300h45v-278h65v-56zM510 277l7 53h-4l-18 -50l-59 -102l-27 -30l41 4h60v125zM135 595l6 36l-22 -29l-59 -41l-26 44l124 102h41v-427h-64v315z" />
    <glyph glyph-name="onehalf" unicode="&#xbd;" horiz-adv-x="701" 
d="M505 713l49 -27l-384 -698l-50 28zM640 315q0 -32 -8.5 -62.5t-23 -60t-34 -58t-40.5 -56.5l-37 -32v-2l46 15h112v-59h-238v32q21 21 48.5 53.5t52.5 69.5t42 76t17 74q0 30 -15.5 46t-38.5 16q-22 0 -42.5 -7t-34.5 -17l-20 52q20 16 49.5 24t58.5 8q51 0 78.5 -29
t27.5 -83zM135 595l6 36l-22 -29l-59 -41l-26 44l124 102h41v-427h-64v315z" />
    <glyph glyph-name="threequarters" unicode="&#xbe;" horiz-adv-x="710" 
d="M533 713l49 -27l-384 -698l-50 28zM664 96h-65v-96h-61v96h-165v34l181 300h45v-278h65v-56zM538 277l7 53h-4l-18 -50l-59 -102l-27 -30l41 4h60v125zM131 330q38 0 57.5 20.5t18.5 57.5q1 32 -16.5 52t-58.5 20h-44v23l77 119l29 27l-41 -6h-105v57h211v-32l-82 -126
l-21 -17v-3l20 3q45 0 70.5 -31.5t24.5 -85.5q1 -61 -36.5 -98t-97.5 -37q-29 0 -51 5t-39 13l13 56q15 -8 32.5 -12.5t38.5 -4.5z" />
    <glyph glyph-name="questiondown" unicode="&#xbf;" horiz-adv-x="357" 
d="M235.008 323.011q2.99902 -43.9971 -5.5 -77.9951q-8.5 -33.998 -23.499 -62.4961t-32.498 -53.4971q-17.498 -24.998 -33.4971 -51.4971q-15.999 -26.498 -26.499 -55.9961q-10.499 -29.498 -10.499 -66.4961q0 -45.9971 19.999 -73.9951
q19.998 -27.999 67.9951 -27.999q28.999 0 56.9971 10.5q27.998 10.499 49.9971 26.498l27.998 -55.9961q-29.998 -19.999 -65.4961 -32.998q-35.498 -13 -86.4951 -13q-71.9951 0 -108.993 41.998q-36.9971 41.9971 -36.9971 114.993q0 42.9971 10.999 76.9951
t26.998 62.4961t34.998 54.4971q18.999 25.998 35.498 53.4961q16.499 27.499 27.498 58.9971t10.999 71.4951h59.9971zM250.007 455.003q0 -27.998 -13.499 -41.998q-13.5 -13.999 -36.498 -13.999q-22.999 0 -36.498 13.999q-13.499 14 -13.499 41.998
q0 28.998 13.499 42.9971t36.498 13.999q22.998 0 36.498 -13.999q13.499 -13.999 13.499 -42.9971z" />
    <glyph glyph-name="Agrave" unicode="&#xc0;" horiz-adv-x="473" 
d="M333 196h-198l-56 -196h-74l211 711h41l211 -711h-78zM155 263h160l-61 216l-19 105h-2l-19 -107zM302 752h-65l-127 97v21h99z" />
    <glyph glyph-name="Aacute" unicode="&#xc1;" horiz-adv-x="473" 
d="M333 196h-198l-56 -196h-74l211 711h41l211 -711h-78zM155 263h160l-61 216l-19 105h-2l-19 -107zM262 870h99v-21l-131 -97h-61z" />
    <glyph glyph-name="Acircumflex" unicode="&#xc2;" horiz-adv-x="473" 
d="M333 196h-198l-56 -196h-74l211 711h41l211 -711h-78zM155 263h160l-61 216l-19 105h-2l-19 -107zM213 870h50l102 -102v-21h-66l-47 49l-15 35l-15 -34l-52 -50h-64v22z" />
    <glyph glyph-name="Atilde" unicode="&#xc3;" horiz-adv-x="473" 
d="M333 196h-198l-56 -196h-74l211 711h41l211 -711h-78zM155 263h160l-61 216l-19 105h-2l-19 -107zM100 780q28 34 51.5 46.5t44.5 12.5q16 0 30.5 -5t28 -10.5t26 -10.5t25.5 -5q11 0 21.5 4t21.5 16l26 -37q-24 -28 -45 -38t-39 -10q-15 0 -29 5t-27.5 10.5t-26.5 10.5
t-27 5t-27.5 -6t-29.5 -23z" />
    <glyph glyph-name="Adieresis" unicode="&#xc4;" horiz-adv-x="473" 
d="M333 196h-198l-56 -196h-74l211 711h41l211 -711h-78zM155 263h160l-61 216l-19 105h-2l-19 -107zM111 794q0 21 12.5 34t34.5 13q21 0 33.5 -13t12.5 -34t-12.5 -33.5t-33.5 -12.5q-22 0 -34.5 12.5t-12.5 33.5zM269 794q0 21 12.5 34t33.5 13q22 0 34.5 -13t12.5 -34
t-12.5 -33.5t-34.5 -12.5q-21 0 -33.5 12.5t-12.5 33.5z" />
    <glyph glyph-name="Aring" unicode="&#xc5;" horiz-adv-x="473" 
d="M148 768q0 37 21 61t69 23q43 1 66.5 -20.5t23.5 -63.5q0 -31 -16 -52.5t-48 -28.5l204 -687h-78l-57 196h-198l-56 -196h-74l204 687q-30 8 -45.5 28.5t-15.5 52.5zM155 263h160l-61 216l-19 105h-2l-19 -107zM202 768q0 -18 8.5 -29.5t27.5 -11.5q36 0 36 41
q0 43 -36 44q-36 -1 -36 -44z" />
    <glyph glyph-name="AE" unicode="&#xc6;" horiz-adv-x="683" 
d="M315 589l-26 -98l-103 -225h132v323h-3zM318 199h-165l-90 -199h-81l335 700h313v-69h-237v-237h217v-69h-217v-256h241v-69h-316v199z" />
    <glyph glyph-name="Ccedilla" unicode="&#xc7;" horiz-adv-x="458" 
d="M430 27q-21 -18 -52 -27t-66 -11l-14 -32q65 -15 65 -75q0 -39 -28.5 -64.5t-76.5 -25.5q-20 0 -37 4l7 39q23 -2 36.5 1t20.5 9t9 13.5t2 14.5q0 28 -69 37l35 80q-48 4 -88.5 26.5t-69.5 66t-45 109.5t-16 158q0 100 20.5 169t54.5 112t78.5 62t91.5 19q48 0 79.5 -7
t54.5 -17l-18 -68q-20 11 -47 17t-62 6t-66 -15.5t-55 -50t-38 -90.5t-14 -137q0 -146 50 -219t133 -73q34 0 61 9.5t46 22.5z" />
    <glyph glyph-name="Egrave" unicode="&#xc8;" horiz-adv-x="429" 
d="M64 700h311v-69h-236v-237h217v-69h-217v-256h241v-69h-316v700zM267 752h-65l-127 97v21h99z" />
    <glyph glyph-name="Eacute" unicode="&#xc9;" horiz-adv-x="429" 
d="M64 700h311v-69h-236v-237h217v-69h-217v-256h241v-69h-316v700zM258 870h99v-21l-131 -97h-61z" />
    <glyph glyph-name="Ecircumflex" unicode="&#xca;" horiz-adv-x="429" 
d="M64 700h311v-69h-236v-237h217v-69h-217v-256h241v-69h-316v700zM192 870h50l102 -102v-21h-66l-47 49l-15 35l-15 -34l-52 -50h-64v22z" />
    <glyph glyph-name="Edieresis" unicode="&#xcb;" horiz-adv-x="429" 
d="M64 700h311v-69h-236v-237h217v-69h-217v-256h241v-69h-316v700zM90 794q0 21 12.5 34t34.5 13q21 0 33.5 -13t12.5 -34t-12.5 -33.5t-33.5 -12.5q-22 0 -34.5 12.5t-12.5 33.5zM248 794q0 21 12.5 34t33.5 13q22 0 34.5 -13t12.5 -34t-12.5 -33.5t-34.5 -12.5
q-21 0 -33.5 12.5t-12.5 33.5z" />
    <glyph glyph-name="Igrave" unicode="&#xcc;" horiz-adv-x="233" 
d="M79 700h75v-700h-75v700zM191 752h-65l-127 97v21h99z" />
    <glyph glyph-name="Iacute" unicode="&#xcd;" horiz-adv-x="233" 
d="M79 700h75v-700h-75v700zM141 870h99v-21l-131 -97h-61z" />
    <glyph glyph-name="Icircumflex" unicode="&#xce;" horiz-adv-x="233" 
d="M79 700h75v-700h-75v700zM94 870h50l102 -102v-21h-66l-47 49l-15 35l-15 -34l-52 -50h-64v22z" />
    <glyph glyph-name="Idieresis" unicode="&#xcf;" horiz-adv-x="233" 
d="M79 700h75v-700h-75v700zM-8 794q0 21 12.5 34t34.5 13q21 0 33.5 -13t12.5 -34t-12.5 -33.5t-33.5 -12.5q-22 0 -34.5 12.5t-12.5 33.5zM150 794q0 21 12.5 34t33.5 13q22 0 34.5 -13t12.5 -34t-12.5 -33.5t-34.5 -12.5q-21 0 -33.5 12.5t-12.5 33.5z" />
    <glyph glyph-name="Eth" unicode="&#xd0;" horiz-adv-x="531" 
d="M-1 392h71v308q16 3 35.5 4.5t39.5 2t39.5 1t36.5 0.5q73 0 124 -25t83 -71.5t46 -111.5t14 -145q0 -72 -13.5 -138t-45.5 -116t-84.5 -80t-131.5 -30q-13 0 -33 0.5t-41.5 2t-40 2.5t-28.5 3v335h-71v58zM225 639h-21.5t-22.5 -1t-20.5 -2t-15.5 -2v-242h117v-58h-117
v-270q4 -1 14.5 -1.5t22 -1t22 -1t15.5 -0.5q55 0 92 24t58.5 64.5t30.5 94t9 113.5q0 53 -8 104t-28.5 90.5t-56 64t-91.5 24.5z" />
    <glyph glyph-name="Ntilde" unicode="&#xd1;" horiz-adv-x="538" 
d="M171 444l-43 110h-3l11 -110v-444h-72v711h45l259 -454l41 -105h4l-11 105v443h72v-711h-46zM135 780q28 34 51.5 46.5t44.5 12.5q16 0 30.5 -5t28 -10.5t26 -10.5t25.5 -5q11 0 21.5 4t21.5 16l26 -37q-24 -28 -45 -38t-39 -10q-15 0 -29 5t-27.5 10.5t-26.5 10.5t-27 5
t-27.5 -6t-29.5 -23z" />
    <glyph glyph-name="Ograve" unicode="&#xd2;" horiz-adv-x="549" 
d="M43 350q0 178 57 270t174 92q63 0 107 -25.5t71.5 -72.5t40.5 -114t13 -150q0 -178 -57.5 -270t-174.5 -92q-62 0 -106 25.5t-72 72.5t-40.5 114t-12.5 150zM122 350q0 -59 8.5 -112t26.5 -93t47 -64t70 -24q75 0 114 72t39 221q0 58 -8.5 111t-26.5 93.5t-47 64.5
t-71 24q-74 0 -113 -72t-39 -221zM333 752h-65l-127 97v21h99z" />
    <glyph glyph-name="Oacute" unicode="&#xd3;" horiz-adv-x="549" 
d="M43 350q0 178 57 270t174 92q63 0 107 -25.5t71.5 -72.5t40.5 -114t13 -150q0 -178 -57.5 -270t-174.5 -92q-62 0 -106 25.5t-72 72.5t-40.5 114t-12.5 150zM122 350q0 -59 8.5 -112t26.5 -93t47 -64t70 -24q75 0 114 72t39 221q0 58 -8.5 111t-26.5 93.5t-47 64.5
t-71 24q-74 0 -113 -72t-39 -221zM335 870h99v-21l-131 -97h-61z" />
    <glyph glyph-name="Ocircumflex" unicode="&#xd4;" horiz-adv-x="549" 
d="M43 350q0 178 57 270t174 92q63 0 107 -25.5t71.5 -72.5t40.5 -114t13 -150q0 -178 -57.5 -270t-174.5 -92q-62 0 -106 25.5t-72 72.5t-40.5 114t-12.5 150zM122 350q0 -59 8.5 -112t26.5 -93t47 -64t70 -24q75 0 114 72t39 221q0 58 -8.5 111t-26.5 93.5t-47 64.5
t-71 24q-74 0 -113 -72t-39 -221zM250 870h50l102 -102v-21h-66l-47 49l-15 35l-15 -34l-52 -50h-64v22z" />
    <glyph glyph-name="Otilde" unicode="&#xd5;" horiz-adv-x="549" 
d="M43 350q0 178 57 270t174 92q63 0 107 -25.5t71.5 -72.5t40.5 -114t13 -150q0 -178 -57.5 -270t-174.5 -92q-62 0 -106 25.5t-72 72.5t-40.5 114t-12.5 150zM122 350q0 -59 8.5 -112t26.5 -93t47 -64t70 -24q75 0 114 72t39 221q0 58 -8.5 111t-26.5 93.5t-47 64.5
t-71 24q-74 0 -113 -72t-39 -221zM139 780q28 34 51.5 46.5t44.5 12.5q16 0 30.5 -5t28 -10.5t26 -10.5t25.5 -5q11 0 21.5 4t21.5 16l26 -37q-24 -28 -45 -38t-39 -10q-15 0 -29 5t-27.5 10.5t-26.5 10.5t-27 5t-27.5 -6t-29.5 -23z" />
    <glyph glyph-name="Odieresis" unicode="&#xd6;" horiz-adv-x="549" 
d="M43 350q0 178 57 270t174 92q63 0 107 -25.5t71.5 -72.5t40.5 -114t13 -150q0 -178 -57.5 -270t-174.5 -92q-62 0 -106 25.5t-72 72.5t-40.5 114t-12.5 150zM122 350q0 -59 8.5 -112t26.5 -93t47 -64t70 -24q75 0 114 72t39 221q0 58 -8.5 111t-26.5 93.5t-47 64.5
t-71 24q-74 0 -113 -72t-39 -221zM148 794q0 21 12.5 34t34.5 13q21 0 33.5 -13t12.5 -34t-12.5 -33.5t-33.5 -12.5q-22 0 -34.5 12.5t-12.5 33.5zM306 794q0 21 12.5 34t33.5 13q22 0 34.5 -13t12.5 -34t-12.5 -33.5t-34.5 -12.5q-21 0 -33.5 12.5t-12.5 33.5z" />
    <glyph glyph-name="multiply" unicode="&#xd7;" horiz-adv-x="415" 
d="M104 513l104 -122l105 122l49 -46l-109 -128l109 -130l-49 -45l-105 122l-105 -123l-50 45l111 131l-110 128z" />
    <glyph glyph-name="Oslash" unicode="&#xd8;" horiz-adv-x="549" 
d="M43 350q0 178 57 270t174 92q45 0 80.5 -13.5t61.5 -38.5l30 53l48 -27l-41 -73q28 -48 40.5 -114t12.5 -149q0 -178 -57.5 -270t-174.5 -92q-87 0 -140 50l-27 -50l-49 28l38 69q-28 48 -40.5 114.5t-12.5 150.5zM122 350q0 -49 5.5 -93.5t17.5 -82.5l230 412
q-18 27 -43 42t-58 15q-74 0 -113 -72t-39 -221zM427 350q0 48 -5.5 92t-17.5 81l-229 -412q18 -26 42.5 -40t56.5 -14q75 0 114 72t39 221z" />
    <glyph glyph-name="Ugrave" unicode="&#xd9;" horiz-adv-x="521" 
d="M385 700h72v-469q0 -127 -49.5 -183.5t-140.5 -56.5q-106 0 -154.5 55t-48.5 169v485h75v-446q0 -54 7 -91t23 -60t40 -33t59 -10q66 0 91.5 46t25.5 148v446zM326 752h-65l-127 97v21h99z" />
    <glyph glyph-name="Uacute" unicode="&#xda;" horiz-adv-x="521" 
d="M385 700h72v-469q0 -127 -49.5 -183.5t-140.5 -56.5q-106 0 -154.5 55t-48.5 169v485h75v-446q0 -54 7 -91t23 -60t40 -33t59 -10q66 0 91.5 46t25.5 148v446zM311 870h99v-21l-131 -97h-61z" />
    <glyph glyph-name="Ucircumflex" unicode="&#xdb;" horiz-adv-x="521" 
d="M385 700h72v-469q0 -127 -49.5 -183.5t-140.5 -56.5q-106 0 -154.5 55t-48.5 169v485h75v-446q0 -54 7 -91t23 -60t40 -33t59 -10q66 0 91.5 46t25.5 148v446zM240 870h50l102 -102v-21h-66l-47 49l-15 35l-15 -34l-52 -50h-64v22z" />
    <glyph glyph-name="Udieresis" unicode="&#xdc;" horiz-adv-x="521" 
d="M385 700h72v-469q0 -127 -49.5 -183.5t-140.5 -56.5q-106 0 -154.5 55t-48.5 169v485h75v-446q0 -54 7 -91t23 -60t40 -33t59 -10q66 0 91.5 46t25.5 148v446zM136 794q0 21 12.5 34t34.5 13q21 0 33.5 -13t12.5 -34t-12.5 -33.5t-33.5 -12.5q-22 0 -34.5 12.5
t-12.5 33.5zM294 794q0 21 12.5 34t33.5 13q22 0 34.5 -13t12.5 -34t-12.5 -33.5t-34.5 -12.5q-21 0 -33.5 12.5t-12.5 33.5z" />
    <glyph glyph-name="Yacute" unicode="&#xdd;" horiz-adv-x="455" 
d="M191 278l-186 422h88l126 -305l13 -61h2l13 63l122 303h81l-184 -421v-279h-75v278zM282 870h99v-21l-131 -97h-61z" />
    <glyph glyph-name="Thorn" unicode="&#xde;" horiz-adv-x="452" 
d="M65 700h75v-78q31 3 64 3q40 0 79 -9.5t70.5 -33.5t51 -66t19.5 -107q0 -63 -18.5 -107t-49 -71t-70 -39.5t-81.5 -12.5h-13t-19 0.5t-19.5 1.5t-13.5 2v-183h-75v700zM140 252q4 -2 12.5 -2.5t17.5 -1.5t17.5 -1h12.5q28 0 54 7t46 25.5t32.5 50t12.5 80.5
q0 41 -11.5 69t-30 45.5t-43.5 25t-52 7.5q-20 0 -38.5 -1t-29.5 -4v-300z" />
    <glyph glyph-name="germandbls" unicode="&#xdf;" horiz-adv-x="488" 
d="M77 500v25q0 99 41.5 140t112.5 41q33 0 61.5 -9t50 -26.5t33.5 -43t12 -58.5t-16 -56.5t-34.5 -42.5t-34.5 -38t-16 -43q0 -23 12.5 -39t31 -30t40.5 -28.5t40.5 -34.5t31 -48.5t12.5 -70.5q0 -28 -10 -55t-29 -48t-47 -34t-65 -13t-60.5 6t-45.5 20l20 61
q21 -12 36.5 -17.5t43.5 -5.5q34 0 59.5 23t25.5 61q0 31 -12.5 51.5t-31.5 36t-40.5 29t-40.5 31t-31.5 41.5t-12.5 61q0 33 16 56t35 42.5t35 38.5t16 43q0 17 -7.5 31t-19.5 23.5t-26.5 15t-29.5 5.5q-22 0 -38 -6.5t-26 -22.5t-15 -43.5t-5 -69.5v-499h-72v435h-61v65
h61z" />
    <glyph glyph-name="agrave" unicode="&#xe0;" horiz-adv-x="400" 
d="M54 470q29 18 70.5 28t87.5 10q42 0 67.5 -12.5t40 -34t19 -49t4.5 -57.5q0 -60 -2.5 -117t-2.5 -108q0 -38 2.5 -70.5t9.5 -61.5h-55l-17 59h-4q-15 -26 -44 -45t-78 -19q-54 0 -88.5 37.5t-34.5 103.5q0 43 14.5 72t41 47t63 25.5t81.5 7.5h20t21 -1q3 31 3 55
q0 57 -17 80t-62 23q-28 0 -61 -8.5t-55 -21.5zM271 228q-10 1 -20 1.5t-20 0.5q-24 0 -47 -4t-41 -14t-28.5 -27t-10.5 -43q0 -40 19.5 -62t50.5 -22q42 0 65 20t32 44v106zM244 571h-41l-94 128v21h83z" />
    <glyph glyph-name="aacute" unicode="&#xe1;" horiz-adv-x="400" 
d="M54 470q29 18 70.5 28t87.5 10q42 0 67.5 -12.5t40 -34t19 -49t4.5 -57.5q0 -60 -2.5 -117t-2.5 -108q0 -38 2.5 -70.5t9.5 -61.5h-55l-17 59h-4q-15 -26 -44 -45t-78 -19q-54 0 -88.5 37.5t-34.5 103.5q0 43 14.5 72t41 47t63 25.5t81.5 7.5h20t21 -1q3 31 3 55
q0 57 -17 80t-62 23q-28 0 -61 -8.5t-55 -21.5zM271 228q-10 1 -20 1.5t-20 0.5q-24 0 -47 -4t-41 -14t-28.5 -27t-10.5 -43q0 -40 19.5 -62t50.5 -22q42 0 65 20t32 44v106zM194 720h78v-21l-82 -128h-43z" />
    <glyph glyph-name="acircumflex" unicode="&#xe2;" horiz-adv-x="400" 
d="M54 470q29 18 70.5 28t87.5 10q42 0 67.5 -12.5t40 -34t19 -49t4.5 -57.5q0 -60 -2.5 -117t-2.5 -108q0 -38 2.5 -70.5t9.5 -61.5h-55l-17 59h-4q-15 -26 -44 -45t-78 -19q-54 0 -88.5 37.5t-34.5 103.5q0 43 14.5 72t41 47t63 25.5t81.5 7.5h20t21 -1q3 31 3 55
q0 57 -17 80t-62 23q-28 0 -61 -8.5t-55 -21.5zM271 228q-10 1 -20 1.5t-20 0.5q-24 0 -47 -4t-41 -14t-28.5 -27t-10.5 -43q0 -40 19.5 -62t50.5 -22q42 0 65 20t32 44v106zM190 732h35l89 -182h-63l-32 66l-16 58l-17 -58l-36 -66h-59z" />
    <glyph glyph-name="atilde" unicode="&#xe3;" horiz-adv-x="400" 
d="M54 470q29 18 70.5 28t87.5 10q42 0 67.5 -12.5t40 -34t19 -49t4.5 -57.5q0 -60 -2.5 -117t-2.5 -108q0 -38 2.5 -70.5t9.5 -61.5h-55l-17 59h-4q-15 -26 -44 -45t-78 -19q-54 0 -88.5 37.5t-34.5 103.5q0 43 14.5 72t41 47t63 25.5t81.5 7.5h20t21 -1q3 31 3 55
q0 57 -17 80t-62 23q-28 0 -61 -8.5t-55 -21.5zM271 228q-10 1 -20 1.5t-20 0.5q-24 0 -47 -4t-41 -14t-28.5 -27t-10.5 -43q0 -40 19.5 -62t50.5 -22q42 0 65 20t32 44v106zM80 653q27 34 48 46.5t38 12.5q14 0 26 -6t23.5 -12.5t22 -12.5t22.5 -6q9 0 18.5 4.5t20.5 16.5
l23 -38q-24 -29 -42.5 -40t-34.5 -11q-14 0 -26 5.5t-23.5 12.5t-22.5 12.5t-23 5.5q-11 0 -22 -5.5t-24 -19.5z" />
    <glyph glyph-name="adieresis" unicode="&#xe4;" horiz-adv-x="400" 
d="M54 470q29 18 70.5 28t87.5 10q42 0 67.5 -12.5t40 -34t19 -49t4.5 -57.5q0 -60 -2.5 -117t-2.5 -108q0 -38 2.5 -70.5t9.5 -61.5h-55l-17 59h-4q-15 -26 -44 -45t-78 -19q-54 0 -88.5 37.5t-34.5 103.5q0 43 14.5 72t41 47t63 25.5t81.5 7.5h20t21 -1q3 31 3 55
q0 57 -17 80t-62 23q-28 0 -61 -8.5t-55 -21.5zM271 228q-10 1 -20 1.5t-20 0.5q-24 0 -47 -4t-41 -14t-28.5 -27t-10.5 -43q0 -40 19.5 -62t50.5 -22q42 0 65 20t32 44v106zM78 653q0 23 11.5 36t31.5 13t31.5 -13t11.5 -36q0 -21 -11.5 -34t-31.5 -13t-31.5 13t-11.5 34z
M237 653q0 23 11.5 36t31.5 13t31.5 -13t11.5 -36q0 -21 -11.5 -34t-31.5 -13t-31.5 13t-11.5 34z" />
    <glyph glyph-name="aring" unicode="&#xe5;" horiz-adv-x="400" 
d="M54 470q29 18 70.5 28t87.5 10q42 0 67.5 -12.5t40 -34t19 -49t4.5 -57.5q0 -60 -2.5 -117t-2.5 -108q0 -38 2.5 -70.5t9.5 -61.5h-55l-17 59h-4q-15 -26 -44 -45t-78 -19q-54 0 -88.5 37.5t-34.5 103.5q0 43 14.5 72t41 47t63 25.5t81.5 7.5h20t21 -1q3 31 3 55
q0 57 -17 80t-62 23q-28 0 -61 -8.5t-55 -21.5zM271 228q-10 1 -20 1.5t-20 0.5q-24 0 -47 -4t-41 -14t-28.5 -27t-10.5 -43q0 -40 19.5 -62t50.5 -22q42 0 65 20t32 44v106zM118 643q0 42 22 65.5t60 23.5q36 0 59.5 -21t23.5 -68q0 -40 -22.5 -64t-60.5 -24t-60 22.5
t-22 65.5zM166 643q0 -23 10 -34.5t24 -11.5q16 0 25.5 11t9.5 35t-10.5 35.5t-24.5 11.5t-24 -11t-10 -36z" />
    <glyph glyph-name="ae" unicode="&#xe6;" horiz-adv-x="642" 
d="M173 57q21 0 37.5 6.5t28.5 17t20 23t12 25.5v101q-10 1 -20 1.5t-20 0.5q-24 0 -47 -4t-41 -14t-28.5 -27t-10.5 -43q0 -35 19 -61t50 -26zM294 73q-20 -35 -54.5 -58t-85.5 -23q-56 0 -90.5 39t-34.5 105q0 44 14.5 73.5t40.5 47t62 25t80 7.5q11 0 22 -0.5t22 -1.5
q3 31 3 55q0 57 -17 79.5t-62 22.5q-28 0 -62 -10t-57 -26l-22 56q31 23 72.5 33.5t86.5 10.5q84 0 109 -64q20 36 55.5 52t70.5 16q28 0 55.5 -7.5t49.5 -29t35.5 -60t13.5 -99.5q0 -17 -1.5 -36t-3.5 -40h-253q1 -92 28 -139.5t95 -47.5q28 0 55 10t41 22l26 -53
q-25 -20 -61 -32t-80 -12q-50 0 -89 21.5t-58 63.5h-6zM447 447q-45 0 -72 -36t-32 -112h188q2 75 -20.5 111.5t-63.5 36.5z" />
    <glyph glyph-name="ccedilla" unicode="&#xe7;" horiz-adv-x="356" 
d="M335 25q-20 -15 -44 -23.5t-50 -11.5l-14 -33q65 -15 65 -75q0 -39 -28.5 -64.5t-76.5 -25.5q-20 0 -37 4l7 39q23 -2 36.5 1t20.5 9t9 13.5t2 14.5q0 28 -69 37l35 79q-42 4 -71.5 24.5t-47.5 54t-26.5 80t-8.5 102.5q0 128 45.5 195t130.5 67q39 0 67 -7t48 -18
l-20 -62q-38 22 -87 22q-54 0 -81.5 -47.5t-27.5 -149.5q0 -41 6 -76.5t20 -62t36 -41.5t55 -15q26 0 48.5 8.5t36.5 20.5z" />
    <glyph glyph-name="egrave" unicode="&#xe8;" horiz-adv-x="413" 
d="M358 34q-24 -22 -61 -34t-78 -12q-47 0 -81.5 18.5t-57 53t-33 82.5t-10.5 108q0 128 47 195t133 67q28 0 55.5 -7t49.5 -28t35.5 -59t13.5 -99q0 -17 -1.5 -36.5t-3.5 -40.5h-254q0 -43 7 -78t22 -59.5t38.5 -38t58.5 -13.5q27 0 53.5 10t40.5 24zM302 302q2 75 -21 110
t-63 35q-46 0 -73 -35t-32 -110h189zM261 571h-41l-94 128v21h83z" />
    <glyph glyph-name="eacute" unicode="&#xe9;" horiz-adv-x="413" 
d="M358 34q-24 -22 -61 -34t-78 -12q-47 0 -81.5 18.5t-57 53t-33 82.5t-10.5 108q0 128 47 195t133 67q28 0 55.5 -7t49.5 -28t35.5 -59t13.5 -99q0 -17 -1.5 -36.5t-3.5 -40.5h-254q0 -43 7 -78t22 -59.5t38.5 -38t58.5 -13.5q27 0 53.5 10t40.5 24zM302 302q2 75 -21 110
t-63 35q-46 0 -73 -35t-32 -110h189zM232 720h78v-21l-82 -128h-43z" />
    <glyph glyph-name="ecircumflex" unicode="&#xea;" horiz-adv-x="413" 
d="M358 34q-24 -22 -61 -34t-78 -12q-47 0 -81.5 18.5t-57 53t-33 82.5t-10.5 108q0 128 47 195t133 67q28 0 55.5 -7t49.5 -28t35.5 -59t13.5 -99q0 -17 -1.5 -36.5t-3.5 -40.5h-254q0 -43 7 -78t22 -59.5t38.5 -38t58.5 -13.5q27 0 53.5 10t40.5 24zM302 302q2 75 -21 110
t-63 35q-46 0 -73 -35t-32 -110h189zM197 732h35l89 -182h-63l-32 66l-16 58l-17 -58l-36 -66h-59z" />
    <glyph glyph-name="edieresis" unicode="&#xeb;" horiz-adv-x="413" 
d="M358 34q-24 -22 -61 -34t-78 -12q-47 0 -81.5 18.5t-57 53t-33 82.5t-10.5 108q0 128 47 195t133 67q28 0 55.5 -7t49.5 -28t35.5 -59t13.5 -99q0 -17 -1.5 -36.5t-3.5 -40.5h-254q0 -43 7 -78t22 -59.5t38.5 -38t58.5 -13.5q27 0 53.5 10t40.5 24zM302 302q2 75 -21 110
t-63 35q-46 0 -73 -35t-32 -110h189zM93 653q0 23 11.5 36t31.5 13t31.5 -13t11.5 -36q0 -21 -11.5 -34t-31.5 -13t-31.5 13t-11.5 34zM252 653q0 23 11.5 36t31.5 13t31.5 -13t11.5 -36q0 -21 -11.5 -34t-31.5 -13t-31.5 13t-11.5 34z" />
    <glyph glyph-name="igrave" unicode="&#xec;" horiz-adv-x="217" 
d="M72 500h72v-500h-72v500zM140 571h-41l-94 128v21h83z" />
    <glyph glyph-name="iacute" unicode="&#xed;" horiz-adv-x="217" 
d="M72 500h72v-500h-72v500zM123 720h78v-21l-82 -128h-43z" />
    <glyph glyph-name="icircumflex" unicode="&#xee;" horiz-adv-x="217" 
d="M72 500h72v-500h-72v500zM94 732h35l89 -182h-63l-32 66l-16 58l-17 -58l-36 -66h-59z" />
    <glyph glyph-name="idieresis" unicode="&#xef;" horiz-adv-x="217" 
d="M72 500h72v-500h-72v500zM-15 653q0 23 11.5 36t31.5 13t31.5 -13t11.5 -36q0 -21 -11.5 -34t-31.5 -13t-31.5 13t-11.5 34zM144 653q0 23 11.5 36t31.5 13t31.5 -13t11.5 -36q0 -21 -11.5 -34t-31.5 -13t-31.5 13t-11.5 34z" />
    <glyph glyph-name="eth" unicode="&#xf0;" 
d="M169 589l57 38q-32 26 -67 41l32 44q16 -8 38 -20t46 -33l60 40l24 -39l-50 -33q20 -23 38 -54t32 -71.5t22 -91.5t8 -114q0 -86 -14.5 -144.5t-39.5 -95t-58.5 -52.5t-72.5 -16q-48 0 -83 19t-57 53.5t-32.5 83t-10.5 107.5q0 57 12 104.5t35.5 82t57 53.5t76.5 19
q35 0 62 -12t41 -30q-11 38 -27.5 69.5t-37.5 56.5l-66 -43zM115 251q0 -105 32 -151t82 -46q23 0 43 13t34.5 41t23 73t8.5 109q0 10 -0.5 24.5t-1.5 29t-2.5 27.5t-2.5 21q-14 26 -43 39t-58 13q-30 0 -51.5 -14t-36 -39.5t-21 -61t-6.5 -78.5z" />
    <glyph glyph-name="ntilde" unicode="&#xf1;" horiz-adv-x="439" 
d="M315 0v305q0 75 -17.5 108.5t-62.5 33.5q-40 0 -66 -24t-38 -59v-364h-72v500h52l13 -53h3q19 27 51.5 46t77.5 19q32 0 56.5 -9t41 -30.5t25 -57.5t8.5 -91v-324h-72zM100 653q27 34 48 46.5t38 12.5q14 0 26 -6t23.5 -12.5t22 -12.5t22.5 -6q9 0 18.5 4.5t20.5 16.5
l23 -38q-24 -29 -42.5 -40t-34.5 -11q-14 0 -26 5.5t-23.5 12.5t-22.5 12.5t-23 5.5q-11 0 -22 -5.5t-24 -19.5z" />
    <glyph glyph-name="ograve" unicode="&#xf2;" horiz-adv-x="432" 
d="M37 250q0 135 46.5 198.5t132.5 63.5q92 0 135.5 -65t43.5 -197q0 -136 -47 -199t-132 -63q-92 0 -135.5 65t-43.5 197zM112 250q0 -44 5.5 -80t18 -62t32.5 -40.5t48 -14.5q52 0 78 46.5t26 150.5q0 43 -5.5 79.5t-18 62.5t-32.5 40.5t-48 14.5q-51 0 -77.5 -47
t-26.5 -150zM254 571h-41l-94 128v21h83z" />
    <glyph glyph-name="oacute" unicode="&#xf3;" horiz-adv-x="432" 
d="M37 250q0 135 46.5 198.5t132.5 63.5q92 0 135.5 -65t43.5 -197q0 -136 -47 -199t-132 -63q-92 0 -135.5 65t-43.5 197zM112 250q0 -44 5.5 -80t18 -62t32.5 -40.5t48 -14.5q52 0 78 46.5t26 150.5q0 43 -5.5 79.5t-18 62.5t-32.5 40.5t-48 14.5q-51 0 -77.5 -47
t-26.5 -150zM227 720h78v-21l-82 -128h-43z" />
    <glyph glyph-name="ocircumflex" unicode="&#xf4;" horiz-adv-x="432" 
d="M37 250q0 135 46.5 198.5t132.5 63.5q92 0 135.5 -65t43.5 -197q0 -136 -47 -199t-132 -63q-92 0 -135.5 65t-43.5 197zM112 250q0 -44 5.5 -80t18 -62t32.5 -40.5t48 -14.5q52 0 78 46.5t26 150.5q0 43 -5.5 79.5t-18 62.5t-32.5 40.5t-48 14.5q-51 0 -77.5 -47
t-26.5 -150zM206 732h35l89 -182h-63l-32 66l-16 58l-17 -58l-36 -66h-59z" />
    <glyph glyph-name="otilde" unicode="&#xf5;" horiz-adv-x="432" 
d="M37 250q0 135 46.5 198.5t132.5 63.5q92 0 135.5 -65t43.5 -197q0 -136 -47 -199t-132 -63q-92 0 -135.5 65t-43.5 197zM112 250q0 -44 5.5 -80t18 -62t32.5 -40.5t48 -14.5q52 0 78 46.5t26 150.5q0 43 -5.5 79.5t-18 62.5t-32.5 40.5t-48 14.5q-51 0 -77.5 -47
t-26.5 -150zM96 653q27 34 48 46.5t38 12.5q14 0 26 -6t23.5 -12.5t22 -12.5t22.5 -6q9 0 18.5 4.5t20.5 16.5l23 -38q-24 -29 -42.5 -40t-34.5 -11q-14 0 -26 5.5t-23.5 12.5t-22.5 12.5t-23 5.5q-11 0 -22 -5.5t-24 -19.5z" />
    <glyph glyph-name="odieresis" unicode="&#xf6;" horiz-adv-x="432" 
d="M37 250q0 135 46.5 198.5t132.5 63.5q92 0 135.5 -65t43.5 -197q0 -136 -47 -199t-132 -63q-92 0 -135.5 65t-43.5 197zM112 250q0 -44 5.5 -80t18 -62t32.5 -40.5t48 -14.5q52 0 78 46.5t26 150.5q0 43 -5.5 79.5t-18 62.5t-32.5 40.5t-48 14.5q-51 0 -77.5 -47
t-26.5 -150zM92 653q0 23 11.5 36t31.5 13t31.5 -13t11.5 -36q0 -21 -11.5 -34t-31.5 -13t-31.5 13t-11.5 34zM251 653q0 23 11.5 36t31.5 13t31.5 -13t11.5 -36q0 -21 -11.5 -34t-31.5 -13t-31.5 13t-11.5 34z" />
    <glyph glyph-name="divide" unicode="&#xf7;" horiz-adv-x="415" 
d="M35 373h344v-67h-344v67zM159 510q0 28 13.5 42t36.5 14t36.5 -14t13.5 -42q0 -29 -13.5 -43t-36.5 -14t-36.5 14t-13.5 43zM159 170q0 28 13.5 42t36.5 14t36.5 -14t13.5 -42q0 -29 -13.5 -43t-36.5 -14t-36.5 14t-13.5 43z" />
    <glyph glyph-name="oslash" unicode="&#xf8;" horiz-adv-x="436" 
d="M40 250q0 131 46.5 196.5t132.5 65.5q58 0 98 -29l19 32l49 -30l-27 -48q20 -33 30 -80t10 -107q0 -133 -46.5 -197.5t-132.5 -64.5q-62 0 -103 32l-21 -34l-49 32l30 51q-36 66 -36 181zM323 250q0 32 -2.5 60.5t-9.5 51.5l-160 -275q26 -34 68 -34q52 0 78 47t26 150z
M115 250q0 -30 2 -57t8 -50l157 275q-12 14 -27.5 21.5t-35.5 7.5q-51 0 -77.5 -47t-26.5 -150z" />
    <glyph glyph-name="ugrave" unicode="&#xf9;" horiz-adv-x="434" 
d="M124 500v-306q0 -76 15.5 -108.5t56.5 -32.5q21 0 37.5 8.5t29.5 22.5t23 32t16 37v347h72v-358q0 -36 2.5 -74.5t7.5 -67.5h-51l-18 70h-3q-17 -33 -49 -57.5t-80 -24.5q-32 0 -56 8t-41 29t-25.5 57.5t-8.5 93.5v324h72zM249 571h-41l-94 128v21h83z" />
    <glyph glyph-name="uacute" unicode="&#xfa;" horiz-adv-x="434" 
d="M124 500v-306q0 -76 15.5 -108.5t56.5 -32.5q21 0 37.5 8.5t29.5 22.5t23 32t16 37v347h72v-358q0 -36 2.5 -74.5t7.5 -67.5h-51l-18 70h-3q-17 -33 -49 -57.5t-80 -24.5q-32 0 -56 8t-41 29t-25.5 57.5t-8.5 93.5v324h72zM226 720h78v-21l-82 -128h-43z" />
    <glyph glyph-name="ucircumflex" unicode="&#xfb;" horiz-adv-x="434" 
d="M124 500v-306q0 -76 15.5 -108.5t56.5 -32.5q21 0 37.5 8.5t29.5 22.5t23 32t16 37v347h72v-358q0 -36 2.5 -74.5t7.5 -67.5h-51l-18 70h-3q-17 -33 -49 -57.5t-80 -24.5q-32 0 -56 8t-41 29t-25.5 57.5t-8.5 93.5v324h72zM203 732h35l89 -182h-63l-32 66l-16 58l-17 -58
l-36 -66h-59z" />
    <glyph glyph-name="udieresis" unicode="&#xfc;" horiz-adv-x="434" 
d="M124 500v-306q0 -76 15.5 -108.5t56.5 -32.5q21 0 37.5 8.5t29.5 22.5t23 32t16 37v347h72v-358q0 -36 2.5 -74.5t7.5 -67.5h-51l-18 70h-3q-17 -33 -49 -57.5t-80 -24.5q-32 0 -56 8t-41 29t-25.5 57.5t-8.5 93.5v324h72zM91 653q0 23 11.5 36t31.5 13t31.5 -13
t11.5 -36q0 -21 -11.5 -34t-31.5 -13t-31.5 13t-11.5 34zM250 653q0 23 11.5 36t31.5 13t31.5 -13t11.5 -36q0 -21 -11.5 -34t-31.5 -13t-31.5 13t-11.5 34z" />
    <glyph glyph-name="yacute" unicode="&#xfd;" horiz-adv-x="376" 
d="M183 177l21 -97h5l15 97l76 323h73l-119 -449q-14 -54 -28 -101t-30.5 -81.5t-37 -54t-48.5 -19.5t-49 9l12 68q14 -5 28 -2t26.5 17t23 41.5t18.5 71.5l-162 500h82zM219 720h78v-21l-82 -128h-43z" />
    <glyph glyph-name="thorn" unicode="&#xfe;" horiz-adv-x="435" 
d="M59 700h72v-240h3q16 24 42.5 38t64.5 14q79 0 118 -59t39 -193q0 -63 -13 -113.5t-37 -85.5t-58 -54t-76 -19q-29 0 -47.5 4t-35.5 13v-205h-72v900zM224 447q-35 0 -59 -22.5t-34 -62.5v-284q14 -12 31.5 -18.5t46.5 -6.5q53 0 83.5 54t30.5 154q0 42 -5.5 76t-17 58.5
t-30.5 38t-46 13.5z" />
    <glyph glyph-name="ydieresis" unicode="&#xff;" horiz-adv-x="376" 
d="M183 177l21 -97h5l15 97l76 323h73l-119 -449q-14 -54 -28 -101t-30.5 -81.5t-37 -54t-48.5 -19.5t-49 9l12 68q14 -5 28 -2t26.5 17t23 41.5t18.5 71.5l-162 500h82zM66 653q0 23 11.5 36t31.5 13t31.5 -13t11.5 -36q0 -21 -11.5 -34t-31.5 -13t-31.5 13t-11.5 34z
M225 653q0 23 11.5 36t31.5 13t31.5 -13t11.5 -36q0 -21 -11.5 -34t-31.5 -13t-31.5 13t-11.5 34z" />
    <glyph glyph-name="Amacron" unicode="&#x100;" horiz-adv-x="473" 
d="M333 196h-198l-56 -196h-74l211 711h41l211 -711h-78zM155 263h160l-61 216l-19 105h-2l-19 -107zM107 843h259v-62h-259v62z" />
    <glyph glyph-name="amacron" unicode="&#x101;" horiz-adv-x="400" 
d="M54 470q29 18 70.5 28t87.5 10q42 0 67.5 -12.5t40 -34t19 -49t4.5 -57.5q0 -60 -2.5 -117t-2.5 -108q0 -38 2.5 -70.5t9.5 -61.5h-55l-17 59h-4q-15 -26 -44 -45t-78 -19q-54 0 -88.5 37.5t-34.5 103.5q0 43 14.5 72t41 47t63 25.5t81.5 7.5h20t21 -1q3 31 3 55
q0 57 -17 80t-62 23q-28 0 -61 -8.5t-55 -21.5zM271 228q-10 1 -20 1.5t-20 0.5q-24 0 -47 -4t-41 -14t-28.5 -27t-10.5 -43q0 -40 19.5 -62t50.5 -22q42 0 65 20t32 44v106zM76 643h243v-60h-243v60z" />
    <glyph glyph-name="Abreve" unicode="&#x102;" horiz-adv-x="473" 
d="M333 196h-198l-56 -196h-74l211 711h41l211 -711h-78zM155 263h160l-61 216l-19 105h-2l-19 -107zM133 871q14 -34 42 -55t66 -21q39 0 64.5 22.5t38.5 53.5l36 -16q-15 -63 -54.5 -94t-85.5 -31q-43 0 -84.5 29t-60.5 92z" />
    <glyph glyph-name="abreve" unicode="&#x103;" horiz-adv-x="400" 
d="M54 470q29 18 70.5 28t87.5 10q42 0 67.5 -12.5t40 -34t19 -49t4.5 -57.5q0 -60 -2.5 -117t-2.5 -108q0 -38 2.5 -70.5t9.5 -61.5h-55l-17 59h-4q-15 -26 -44 -45t-78 -19q-54 0 -88.5 37.5t-34.5 103.5q0 43 14.5 72t41 47t63 25.5t81.5 7.5h20t21 -1q3 31 3 55
q0 57 -17 80t-62 23q-28 0 -61 -8.5t-55 -21.5zM271 228q-10 1 -20 1.5t-20 0.5q-24 0 -47 -4t-41 -14t-28.5 -27t-10.5 -43q0 -40 19.5 -62t50.5 -22q42 0 65 20t32 44v106zM114 717q14 -36 38 -57.5t53 -21.5q28 0 49.5 21t34.5 58l37 -15q-2 -26 -12.5 -49.5t-26.5 -41
t-37.5 -28t-45.5 -10.5q-47 0 -82.5 33t-46.5 93z" />
    <glyph glyph-name="Aogonek" unicode="&#x104;" horiz-adv-x="473" 
d="M333 196h-198l-56 -196h-74l211 711h41l211 -711h-21q-22 -16 -34.5 -38t-12.5 -50q1 -29 19.5 -44.5t55.5 -0.5l10 -40q-11 -11 -31.5 -17t-39.5 -6q-40 0 -63 24t-24 62q1 38 19 65.5t49 44.5h-5zM155 263h160l-61 216l-19 105h-2l-19 -107z" />
    <glyph glyph-name="aogonek" unicode="&#x105;" horiz-adv-x="400" 
d="M54 470q29 18 70.5 28t87.5 10q42 0 67.5 -12.5t40 -34t19 -49t4.5 -57.5q0 -60 -2.5 -117t-2.5 -108q0 -38 2.5 -70.5t9.5 -61.5h-19q-21 -16 -33 -37.5t-12 -48.5q1 -29 19.5 -44.5t55.5 -0.5l10 -40q-11 -11 -31.5 -17t-39.5 -6q-40 0 -63.5 24t-23.5 62q0 42 22 70.5
t57 45.5l-14 51h-4q-15 -26 -44 -45t-78 -19q-54 0 -88.5 37.5t-34.5 103.5q0 43 14.5 72t41 47t63 25.5t81.5 7.5h20t21 -1q3 31 3 56q0 57 -17 79.5t-62 22.5q-28 0 -61 -8.5t-55 -21.5zM271 228q-10 1 -20.5 1.5t-20.5 0.5q-24 0 -47 -4t-40.5 -14t-28 -27t-10.5 -43
q0 -40 19 -62t50 -22q42 0 65.5 20t32.5 44v106z" />
    <glyph glyph-name="Cacute" unicode="&#x106;" horiz-adv-x="458" 
d="M430 27q-25 -21 -63 -30t-80 -9q-53 0 -98 20t-77.5 63.5t-50.5 112.5t-18 166q0 100 20.5 169t54.5 112t78.5 62t91.5 19q48 0 79.5 -7t54.5 -17l-18 -68q-20 11 -47 17t-62 6t-66 -15.5t-55 -50t-38 -90.5t-14 -137q0 -146 50 -219.5t133 -73.5q34 0 61 9.5t46 22.5z
M331 870h99v-21l-131 -97h-61z" />
    <glyph glyph-name="cacute" unicode="&#x107;" horiz-adv-x="356" 
d="M335 25q-25 -19 -57 -28t-67 -9q-48 0 -81 18.5t-53.5 53t-30 83t-9.5 107.5q0 128 45.5 195t130.5 67q39 0 67 -7t48 -18l-20 -63q-40 23 -87 23q-54 0 -81.5 -47.5t-27.5 -149.5q0 -41 6 -77t20 -62.5t36 -42t55 -15.5q26 0 48.5 9t36.5 21zM232 720h78v-21l-82 -128
h-43z" />
    <glyph glyph-name="Ccircumflex" unicode="&#x108;" horiz-adv-x="458" 
d="M430 27q-25 -21 -63 -30t-80 -9q-53 0 -98 20t-77.5 63.5t-50.5 112.5t-18 166q0 100 20.5 169t54.5 112t78.5 62t91.5 19q48 0 79.5 -7t54.5 -17l-18 -68q-20 11 -47 17t-62 6t-66 -15.5t-55 -50t-38 -90.5t-14 -137q0 -146 50 -219.5t133 -73.5q34 0 61 9.5t46 22.5z
M255 870h50l102 -102v-21h-66l-47 49l-15 35l-15 -34l-52 -50h-64v22z" />
    <glyph glyph-name="ccircumflex" unicode="&#x109;" horiz-adv-x="356" 
d="M335 25q-25 -19 -57 -28t-67 -9q-48 0 -81 18.5t-53.5 53t-30 83t-9.5 107.5q0 128 45.5 195t130.5 67q39 0 67 -7t48 -18l-20 -63q-40 23 -87 23q-54 0 -81.5 -47.5t-27.5 -149.5q0 -41 6 -77t20 -62.5t36 -42t55 -15.5q26 0 48.5 9t36.5 21zM187 732h35l89 -182h-63
l-32 66l-16 58l-17 -58l-36 -66h-59z" />
    <glyph glyph-name="Ccaron" unicode="&#x10c;" horiz-adv-x="458" 
d="M430 27q-25 -21 -63 -30t-80 -9q-53 0 -98 20t-77.5 63.5t-50.5 112.5t-18 166q0 100 20.5 169t54.5 112t78.5 62t91.5 19q48 0 79.5 -7t54.5 -17l-18 -68q-20 11 -47 17t-62 6t-66 -15.5t-55 -50t-38 -90.5t-14 -137q0 -146 50 -219.5t133 -73.5q34 0 61 9.5t46 22.5z
M308 746h-53l-102 103v21h69l47 -50l14 -34l15 33l50 51h66v-22z" />
    <glyph glyph-name="ccaron" unicode="&#x10d;" horiz-adv-x="356" 
d="M335 25q-25 -19 -57 -28t-67 -9q-48 0 -81 18.5t-53.5 53t-30 83t-9.5 107.5q0 128 45.5 195t130.5 67q39 0 67 -7t48 -18l-20 -63q-40 23 -87 23q-54 0 -81.5 -47.5t-27.5 -149.5q0 -41 6 -77t20 -62.5t36 -42t55 -15.5q26 0 48.5 9t36.5 21zM222 550h-38l-93 182h68
l31 -66l17 -58l17 58l36 66h61z" />
    <glyph glyph-name="Dcaron" unicode="&#x10e;" horiz-adv-x="525" 
d="M64 700q16 3 35.5 4.5t39.5 2t39.5 1t36.5 0.5q73 0 124 -25t83 -71.5t46 -111.5t14 -145q0 -72 -13.5 -138t-45.5 -116t-84.5 -80t-131.5 -30q-13 0 -33 0.5t-41.5 2t-40 2.5t-28.5 3v701zM219 639h-21.5t-22.5 -1t-20.5 -2t-15.5 -2v-570q4 -1 14.5 -1.5t22 -1t22 -1
t15.5 -0.5q55 0 92 24t58.5 64.5t30.5 94t9 113.5q0 53 -8 104t-28.5 90.5t-56 64t-91.5 24.5zM244 746h-53l-102 103v21h69l47 -50l14 -34l15 33l50 51h66v-22z" />
    <glyph glyph-name="dcaron" unicode="&#x10f;" horiz-adv-x="464" 
d="M374 172q0 -51 1 -92.5t7 -81.5h-49l-16 60h-4q-14 -30 -44 -50t-72 -20q-81 0 -120.5 63t-39.5 198q0 128 48.5 194t133.5 66q29 0 46 -3.5t37 -11.5v206h72v-528zM302 421q-14 12 -31.5 17.5t-46.5 5.5q-53 0 -82.5 -48t-29.5 -148q0 -44 5.5 -79.5t17 -61.5t30 -40
t45.5 -14q72 0 92 85v283zM504 700q-2 -29 -10 -59t-19 -56t-22.5 -45.5t-18.5 -28.5l-30 15q14 36 21 82t7 92h72z" />
    <glyph glyph-name="Dcroat" unicode="&#x110;" horiz-adv-x="531" 
d="M-1 392h71v308q16 3 35.5 4.5t39.5 2t39.5 1t36.5 0.5q73 0 124 -25t83 -71.5t46 -111.5t14 -145q0 -72 -13.5 -138t-45.5 -116t-84.5 -80t-131.5 -30q-13 0 -33 0.5t-41.5 2t-40 2.5t-28.5 3v335h-71v58zM225 639h-21.5t-22.5 -1t-20.5 -2t-15.5 -2v-242h117v-58h-117
v-270q4 -1 14.5 -1.5t22 -1t22 -1t15.5 -0.5q55 0 92 24t58.5 64.5t30.5 94t9 113.5q0 53 -8 104t-28.5 90.5t-56 64t-91.5 24.5z" />
    <glyph glyph-name="dcroat" unicode="&#x111;" horiz-adv-x="434" 
d="M374 632h64v-58h-64v-402q0 -51 1 -92.5t7 -81.5h-49l-16 60h-4q-14 -30 -44 -50t-72 -20q-81 0 -120.5 63t-39.5 198q0 128 48.5 194t133.5 66q29 0 46 -3.5t37 -11.5v80h-125v58h125v68h72v-68zM302 421q-14 12 -31.5 17.5t-46.5 5.5q-53 0 -82.5 -48t-29.5 -148
q0 -44 5.5 -79.5t17 -61.5t30 -40t45.5 -14q72 0 92 85v283z" />
    <glyph glyph-name="Emacron" unicode="&#x112;" horiz-adv-x="429" 
d="M64 700h311v-69h-236v-237h217v-69h-217v-256h241v-69h-316v700zM84 843h259v-62h-259v62z" />
    <glyph glyph-name="emacron" unicode="&#x113;" horiz-adv-x="413" 
d="M358 34q-24 -22 -61 -34t-78 -12q-47 0 -81.5 18.5t-57 53t-33 82.5t-10.5 108q0 128 47 195t133 67q28 0 55.5 -7t49.5 -28t35.5 -59t13.5 -99q0 -17 -1.5 -36.5t-3.5 -40.5h-254q0 -43 7 -78t22 -59.5t38.5 -38t58.5 -13.5q27 0 53.5 10t40.5 24zM302 302q2 75 -21 110
t-63 35q-46 0 -73 -35t-32 -110h189zM85 643h243v-60h-243v60z" />
    <glyph glyph-name="Edotaccent" unicode="&#x116;" horiz-adv-x="429" 
d="M64 700h311v-69h-236v-237h217v-69h-217v-256h241v-69h-316v700zM166 797q0 21 14 36.5t40 15.5t40.5 -15.5t14.5 -36.5q0 -23 -14.5 -38t-40.5 -15t-40 15t-14 38z" />
    <glyph glyph-name="edotaccent" unicode="&#x117;" horiz-adv-x="413" 
d="M358 34q-24 -22 -61 -34t-78 -12q-47 0 -81.5 18.5t-57 53t-33 82.5t-10.5 108q0 128 47 195t133 67q28 0 55.5 -7t49.5 -28t35.5 -59t13.5 -99q0 -17 -1.5 -36.5t-3.5 -40.5h-254q0 -43 7 -78t22 -59.5t38.5 -38t58.5 -13.5q27 0 53.5 10t40.5 24zM302 302q2 75 -21 110
t-63 35q-46 0 -73 -35t-32 -110h189zM167 652q0 24 13.5 39t35.5 15t36.5 -14.5t14.5 -39.5q0 -24 -14.5 -37.5t-36.5 -13.5t-35.5 14t-13.5 37z" />
    <glyph glyph-name="Eogonek" unicode="&#x118;" horiz-adv-x="429" 
d="M64 700h311v-69h-236v-237h217v-69h-217v-256h241v-69h-31q-22 -16 -34.5 -38t-12.5 -50q1 -29 19.5 -44.5t55.5 -0.5l10 -40q-11 -11 -31.5 -17t-39.5 -6q-40 0 -63.5 24t-23.5 62t18.5 65.5t49.5 44.5h-233v700z" />
    <glyph glyph-name="eogonek" unicode="&#x119;" horiz-adv-x="409" 
d="M358 34q-19 -18 -47 -29q-22 -15 -36 -35q-18 -25 -17 -58q0 -28 18.5 -43.5t56.5 1.5l10 -43q-12 -12 -33 -17.5t-41 -5.5q-38 0 -60 24t-22 65q0 43 25 73q10 12 24 23q-9 -1 -17 -1q-47 0 -81.5 18.5t-57 53t-33 82.5t-10.5 108q0 128 47 195t133 67q32 0 63 -9.5
t53.5 -38.5t32.5 -82t0 -140h-255q0 -43 7 -78t22 -60t39 -38.5t59 -13.5q27 0 53.5 10.5t40.5 24.5zM218 448q-46 0 -73 -35.5t-32 -110.5h189q2 75 -21 110.5t-63 35.5z" />
    <glyph glyph-name="Ecaron" unicode="&#x11a;" horiz-adv-x="429" 
d="M64 700h311v-69h-236v-237h217v-69h-217v-256h241v-69h-316v700zM242 746h-53l-102 103v21h69l47 -50l14 -34l15 33l50 51h66v-22z" />
    <glyph glyph-name="ecaron" unicode="&#x11b;" horiz-adv-x="413" 
d="M358 34q-24 -22 -61 -34t-78 -12q-47 0 -81.5 18.5t-57 53t-33 82.5t-10.5 108q0 128 47 195t133 67q28 0 55.5 -7t49.5 -28t35.5 -59t13.5 -99q0 -17 -1.5 -36.5t-3.5 -40.5h-254q0 -43 7 -78t22 -59.5t38.5 -38t58.5 -13.5q27 0 53.5 10t40.5 24zM302 302q2 75 -21 110
t-63 35q-46 0 -73 -35t-32 -110h189zM229 550h-38l-93 182h68l31 -66l17 -58l17 58l36 66h61z" />
    <glyph glyph-name="Gcircumflex" unicode="&#x11c;" horiz-adv-x="492" 
d="M257 349h193v-308q-28 -26 -72 -39.5t-89 -13.5q-56 0 -101.5 21t-77.5 65.5t-49.5 112.5t-17.5 163q0 98 21 166.5t56.5 112t81 63.5t93.5 20t80.5 -6.5t55.5 -17.5l-18 -68q-20 11 -47.5 17t-63.5 6q-35 0 -67 -15t-57.5 -49.5t-40.5 -90.5t-15 -138
q0 -150 47.5 -221.5t130.5 -71.5q52 0 86 25v204l-129 19v44zM267 870h50l102 -102v-21h-66l-47 49l-15 35l-15 -34l-52 -50h-64v22z" />
    <glyph glyph-name="gcircumflex" unicode="&#x11d;" horiz-adv-x="432" 
d="M374 -23q0 -97 -43 -143t-125 -46q-50 0 -82 8.5t-52 19.5l21 62q20 -9 44 -17t59 -8q61 0 83.5 34t22.5 114v37h-3q-16 -23 -41 -36t-64 -13q-81 0 -119 62.5t-38 196.5q0 129 49.5 195t146.5 66q47 0 81 -9t60 -21v-502zM302 428q-30 16 -77 16q-51 0 -82 -46.5
t-31 -148.5q0 -42 5 -77.5t17 -62t30.5 -41t45.5 -14.5q38 0 60 20t32 60v294zM208 732h35l89 -182h-63l-32 66l-16 58l-17 -58l-36 -66h-59z" />
    <glyph glyph-name="Gbreve" unicode="&#x11e;" horiz-adv-x="492" 
d="M257 349h193v-308q-28 -26 -72 -39.5t-89 -13.5q-56 0 -101.5 21t-77.5 65.5t-49.5 112.5t-17.5 163q0 98 21 166.5t56.5 112t81 63.5t93.5 20t80.5 -6.5t55.5 -17.5l-18 -68q-20 11 -47.5 17t-63.5 6q-35 0 -67 -15t-57.5 -49.5t-40.5 -90.5t-15 -138
q0 -150 47.5 -221.5t130.5 -71.5q52 0 86 25v204l-129 19v44zM178 871q14 -34 42 -55t66 -21q39 0 64.5 22.5t38.5 53.5l36 -16q-15 -63 -54.5 -94t-85.5 -31q-43 0 -84.5 29t-60.5 92z" />
    <glyph glyph-name="gbreve" unicode="&#x11f;" horiz-adv-x="432" 
d="M374 -23q0 -97 -43 -143t-125 -46q-50 0 -82 8.5t-52 19.5l21 62q20 -9 44 -17t59 -8q61 0 83.5 34t22.5 114v37h-3q-16 -23 -41 -36t-64 -13q-81 0 -119 62.5t-38 196.5q0 129 49.5 195t146.5 66q47 0 81 -9t60 -21v-502zM302 428q-30 16 -77 16q-51 0 -82 -46.5
t-31 -148.5q0 -42 5 -77.5t17 -62t30.5 -41t45.5 -14.5q38 0 60 20t32 60v294zM133 717q14 -36 38 -57.5t53 -21.5q28 0 49.5 21t34.5 58l37 -15q-2 -26 -12.5 -49.5t-26.5 -41t-37.5 -28t-45.5 -10.5q-47 0 -82.5 33t-46.5 93z" />
    <glyph glyph-name="Gcommaaccent" unicode="&#x122;" horiz-adv-x="492" 
d="M257 349h193v-308q-28 -26 -72 -39.5t-89 -13.5q-56 0 -101.5 21t-77.5 65.5t-49.5 112.5t-17.5 163q0 98 21 166.5t56.5 112t81 63.5t93.5 20t80.5 -6.5t55.5 -17.5l-18 -68q-20 11 -47.5 17t-63.5 6q-35 0 -67 -15t-57.5 -49.5t-40.5 -90.5t-15 -138
q0 -150 47.5 -221.5t130.5 -71.5q52 0 86 25v204l-129 19v44zM238 -102q0 21 13 34t31 13q22 0 38 -17t16 -58q0 -26 -7.5 -45.5t-18 -34t-22 -23t-20.5 -12.5l-27 27q17 13 28.5 31.5t10.5 42.5q-17 -2 -29.5 9t-12.5 33z" />
    <glyph glyph-name="gcommaaccent" unicode="&#x123;" horiz-adv-x="432" 
d="M374 -23q0 -97 -43 -143t-125 -46q-50 0 -82 8.5t-52 19.5l21 62q20 -9 44 -17t59 -8q61 0 83.5 34t22.5 114v37h-3q-16 -23 -41 -36t-64 -13q-81 0 -119 62.5t-38 196.5q0 129 49.5 195t146.5 66q47 0 81 -9t60 -21v-502zM302 428q-30 16 -77 16q-51 0 -82 -46.5
t-31 -148.5q0 -42 5 -77.5t17 -62t30.5 -41t45.5 -14.5q38 0 60 20t32 60v294zM280 609q0 -21 -12.5 -34t-30.5 -13q-22 0 -38 17t-16 58q0 24 7.5 43.5t18 34t22 24t20.5 13.5l26 -30q-16 -9 -27.5 -28.5t-11.5 -43.5q17 5 29.5 -7t12.5 -34z" />
    <glyph glyph-name="Hcircumflex" unicode="&#x124;" horiz-adv-x="536" 
d="M397 323h-258v-323h-75v700h75v-308h258v308h75v-700h-75v323zM244 870h50l102 -102v-21h-66l-47 49l-15 35l-15 -34l-52 -50h-64v22z" />
    <glyph glyph-name="hcircumflex" unicode="&#x125;" horiz-adv-x="440" 
d="M315 0v304q0 70 -16.5 106.5t-65.5 36.5q-35 0 -63.5 -25t-38.5 -63v-359h-72v700h72v-247h3q20 26 49.5 42.5t73.5 16.5q33 0 57.5 -9t40.5 -31t24 -58.5t8 -90.5v-323h-72zM204 870h50l102 -102v-21h-66l-47 49l-15 35l-15 -34l-52 -50h-64v22z" />
    <glyph glyph-name="Hbar" unicode="&#x126;" horiz-adv-x="549" 
d="M8 585h63v115h75v-115h258v115h75v-115h63v-60h-63v-525h-75v323h-258v-323h-75v525h-63v60zM404 392v133h-258v-133h258z" />
    <glyph glyph-name="hbar" unicode="&#x127;" horiz-adv-x="441" 
d="M-4 632h64v68h72v-68h129v-58h-129v-121h3q20 26 49.5 42.5t73.5 16.5q33 0 57.5 -9t40.5 -31t24 -58.5t8 -90.5v-323h-72v304q0 70 -16.5 106.5t-65.5 36.5q-35 0 -63.5 -25t-38.5 -63v-359h-72v574h-64v58z" />
    <glyph glyph-name="Imacron" unicode="&#x12a;" horiz-adv-x="233" 
d="M79 700h75v-700h-75v700zM-12 843h259v-62h-259v62z" />
    <glyph glyph-name="imacron" unicode="&#x12b;" horiz-adv-x="217" 
d="M72 500h72v-500h-72v500zM-12 643h243v-60h-243v60z" />
    <glyph glyph-name="Iogonek" unicode="&#x12e;" horiz-adv-x="234" 
d="M79 700h75v-700h-13q-20 -15 -32.5 -36.5t-11.5 -52.5q0 -28 18 -44t56 -1l10 -39q-12 -12 -32.5 -17.5t-39.5 -5.5q-38 0 -62 23t-24 64q0 35 18.5 63.5t49.5 45.5h-12v700z" />
    <glyph glyph-name="iogonek" unicode="&#x12f;" horiz-adv-x="217" 
d="M72 500h72v-500h-14q-20 -16 -33 -38.5t-12 -50.5q0 -14 5.5 -25.5t15 -18.5t23.5 -7t32 10l9 -43q-12 -12 -33 -17.5t-41 -5.5q-38 0 -60 23.5t-22 64.5q0 35 17.5 63t47.5 45h-7v500zM58 652q0 24 13.5 39t35.5 15t36.5 -14.5t14.5 -39.5q0 -24 -14.5 -37.5
t-36.5 -13.5t-35.5 14t-13.5 37z" />
    <glyph glyph-name="Idotaccent" unicode="&#x130;" horiz-adv-x="233" 
d="M79 700h75v-700h-75v700zM62 797q0 21 14 36.5t40 15.5t40.5 -15.5t14.5 -36.5q0 -23 -14.5 -38t-40.5 -15t-40 15t-14 38z" />
    <glyph glyph-name="dotlessi" unicode="&#x131;" horiz-adv-x="217" 
d="M72 500h72v-500h-72v500z" />
    <glyph glyph-name="Jcircumflex" unicode="&#x134;" horiz-adv-x="241" 
d="M93 700h75v-543q0 -82 -26.5 -124.5t-92.5 -42.5q-16 0 -38.5 4t-36.5 12l16 65q10 -6 22.5 -9t25.5 -3q18 0 29 8t17 22.5t7.5 35t1.5 46.5v529zM107 870h50l102 -102v-21h-66l-47 49l-15 35l-15 -34l-52 -50h-64v22z" />
    <glyph glyph-name="jcircumflex" unicode="&#x135;" horiz-adv-x="215" 
d="M75 500h72v-527q0 -103 -33 -148.5t-107 -34.5v65q22 0 35.5 9t21 27.5t9.5 46t2 64.5v498zM100 732h35l89 -182h-63l-32 66l-16 58l-17 -58l-36 -66h-59z" />
    <glyph glyph-name="Kcommaaccent" unicode="&#x136;" horiz-adv-x="493" 
d="M175 324h-36v-324h-75v700h75v-326l35 14l182 312h86l-183 -302l-35 -32l41 -40l203 -326h-95zM188 -102q0 21 13 34t31 13q22 0 38 -17t16 -58q0 -26 -7.5 -45.5t-18 -34t-22 -23t-20.5 -12.5l-27 27q17 13 28.5 31.5t10.5 42.5q-17 -2 -29.5 9t-12.5 33z" />
    <glyph glyph-name="kcommaaccent" unicode="&#x137;" horiz-adv-x="388" 
d="M168 225h-37v-225h-72v700h72v-426l33 14l117 212h83l-118 -202l-35 -32l41 -39l129 -227h-87zM146 -102q0 21 13 34t31 13q22 0 38 -17t16 -58q0 -26 -7.5 -45.5t-18 -34t-22 -23t-20.5 -12.5l-27 27q17 13 28.5 31.5t10.5 42.5q-17 -2 -29.5 9t-12.5 33z" />
    <glyph glyph-name="Lacute" unicode="&#x139;" horiz-adv-x="415" 
d="M401 0h-337v700h75v-631h262v-69zM173 870h99v-21l-131 -97h-61z" />
    <glyph glyph-name="lacute" unicode="&#x13a;" horiz-adv-x="233" 
d="M136 119q0 -35 9.5 -50t26.5 -15q21 0 49 11l7 -58q-13 -8 -36.5 -13t-42.5 -5q-38 0 -61.5 23.5t-23.5 82.5v605h72v-581zM162 870h99v-21l-131 -97h-61z" />
    <glyph glyph-name="Lcommaaccent" unicode="&#x13b;" horiz-adv-x="415" 
d="M401 0h-337v700h75v-631h262v-69zM154 -102q0 21 13 34t31 13q22 0 38 -17t16 -58q0 -26 -7.5 -45.5t-18 -34t-22 -23t-20.5 -12.5l-27 27q17 13 28.5 31.5t10.5 42.5q-17 -2 -29.5 9t-12.5 33z" />
    <glyph glyph-name="lcommaaccent" unicode="&#x13c;" horiz-adv-x="233" 
d="M136 119q0 -35 9.5 -50t26.5 -15q21 0 49 11l7 -58q-13 -8 -36.5 -13t-42.5 -5q-38 0 -61.5 23.5t-23.5 82.5v605h72v-581zM92 -102q0 21 13 34t31 13q22 0 38 -17t16 -58q0 -26 -7.5 -45.5t-18 -34t-22 -23t-20.5 -12.5l-27 27q17 13 28.5 31.5t10.5 42.5
q-17 -2 -29.5 9t-12.5 33z" />
    <glyph glyph-name="Lcaron" unicode="&#x13d;" horiz-adv-x="415" 
d="M401 0h-337v700h75v-631h262v-69zM355 700q-2 -29 -10 -59t-19 -56t-22.5 -45.5t-18.5 -28.5l-30 15q14 36 21 82t7 92h72z" />
    <glyph glyph-name="lcaron" unicode="&#x13e;" horiz-adv-x="239" 
d="M136 119q0 -35 9.5 -50t26.5 -15q21 0 49 11l7 -58q-13 -8 -36.5 -13t-42.5 -5q-38 0 -61.5 23.5t-23.5 82.5v605h72v-581zM266 700q-2 -29 -10 -59t-19 -56t-22.5 -45.5t-18.5 -28.5l-30 15q14 36 21 82t7 92h72z" />
    <glyph glyph-name="Lslash" unicode="&#x141;" horiz-adv-x="418" 
d="M15 290l52 48v362h75v-293l90 84v-83l-90 -82v-257h262v-69h-337v258l-52 -47v79z" />
    <glyph glyph-name="lslash" unicode="&#x142;" horiz-adv-x="234" 
d="M8 288l60 55v357h72v-290l85 79v-83l-85 -77v-210q0 -35 9.5 -50t26.5 -15q21 0 49 11l7 -58q-13 -8 -36.5 -13t-42.5 -5q-38 0 -61.5 23.5t-23.5 82.5v168l-60 -54v79z" />
    <glyph glyph-name="Nacute" unicode="&#x143;" horiz-adv-x="538" 
d="M171 444l-43 110h-3l11 -110v-444h-72v711h45l259 -454l41 -105h4l-11 105v443h72v-711h-46zM327 870h99v-21l-131 -97h-61z" />
    <glyph glyph-name="nacute" unicode="&#x144;" horiz-adv-x="439" 
d="M315 0v305q0 75 -17.5 108.5t-62.5 33.5q-40 0 -66 -24t-38 -59v-364h-72v500h52l13 -53h3q19 27 51.5 46t77.5 19q32 0 56.5 -9t41 -30.5t25 -57.5t8.5 -91v-324h-72zM241 720h78v-21l-82 -128h-43z" />
    <glyph glyph-name="Ncommaaccent" unicode="&#x145;" horiz-adv-x="538" 
d="M171 444l-43 110h-3l11 -110v-444h-72v711h45l259 -454l41 -105h4l-11 105v443h72v-711h-46zM223 -102q0 21 13 34t31 13q22 0 38 -17t16 -58q0 -26 -7.5 -45.5t-18 -34t-22 -23t-20.5 -12.5l-27 27q17 13 28.5 31.5t10.5 42.5q-17 -2 -29.5 9t-12.5 33z" />
    <glyph glyph-name="ncommaaccent" unicode="&#x146;" horiz-adv-x="439" 
d="M315 0v305q0 75 -17.5 108.5t-62.5 33.5q-40 0 -66 -24t-38 -59v-364h-72v500h52l13 -53h3q19 27 51.5 46t77.5 19q32 0 56.5 -9t41 -30.5t25 -57.5t8.5 -91v-324h-72zM171 -102q0 21 13 34t31 13q22 0 38 -17t16 -58q0 -26 -7.5 -45.5t-18 -34t-22 -23t-20.5 -12.5
l-27 27q17 13 28.5 31.5t10.5 42.5q-17 -2 -29.5 9t-12.5 33z" />
    <glyph glyph-name="Ncaron" unicode="&#x147;" horiz-adv-x="538" 
d="M171 444l-43 110h-3l11 -110v-444h-72v711h45l259 -454l41 -105h4l-11 105v443h72v-711h-46zM295 746h-53l-102 103v21h69l47 -50l14 -34l15 33l50 51h66v-22z" />
    <glyph glyph-name="ncaron" unicode="&#x148;" horiz-adv-x="439" 
d="M315 0v305q0 75 -17.5 108.5t-62.5 33.5q-40 0 -66 -24t-38 -59v-364h-72v500h52l13 -53h3q19 27 51.5 46t77.5 19q32 0 56.5 -9t41 -30.5t25 -57.5t8.5 -91v-324h-72zM237 550h-38l-93 182h68l31 -66l17 -58l17 58l36 66h61z" />
    <glyph glyph-name="Omacron" unicode="&#x14c;" horiz-adv-x="549" 
d="M43 350q0 178 57 270t174 92q63 0 107 -25.5t71.5 -72.5t40.5 -114t13 -150q0 -178 -57.5 -270t-174.5 -92q-62 0 -106 25.5t-72 72.5t-40.5 114t-12.5 150zM122 350q0 -59 8.5 -112t26.5 -93t47 -64t70 -24q75 0 114 72t39 221q0 58 -8.5 111t-26.5 93.5t-47 64.5
t-71 24q-74 0 -113 -72t-39 -221zM149 843h259v-62h-259v62z" />
    <glyph glyph-name="omacron" unicode="&#x14d;" horiz-adv-x="432" 
d="M37 250q0 135 46.5 198.5t132.5 63.5q92 0 135.5 -65t43.5 -197q0 -136 -47 -199t-132 -63q-92 0 -135.5 65t-43.5 197zM112 250q0 -44 5.5 -80t18 -62t32.5 -40.5t48 -14.5q52 0 78 46.5t26 150.5q0 43 -5.5 79.5t-18 62.5t-32.5 40.5t-48 14.5q-51 0 -77.5 -47
t-26.5 -150zM94 643h243v-60h-243v60z" />
    <glyph glyph-name="Ohungarumlaut" unicode="&#x150;" horiz-adv-x="549" 
d="M43 350q0 178 57 270t174 92q63 0 107 -25.5t71.5 -72.5t40.5 -114t13 -150q0 -178 -57.5 -270t-174.5 -92q-62 0 -106 25.5t-72 72.5t-40.5 114t-12.5 150zM122 350q0 -59 8.5 -112t26.5 -93t47 -64t70 -24q75 0 114 72t39 221q0 58 -8.5 111t-26.5 93.5t-47 64.5
t-71 24q-74 0 -113 -72t-39 -221zM239 850h81v-16l-80 -93h-52zM375 850h86v-16l-115 -93h-52z" />
    <glyph glyph-name="ohungarumlaut" unicode="&#x151;" horiz-adv-x="432" 
d="M37 250q0 135 46.5 198.5t132.5 63.5q92 0 135.5 -65t43.5 -197q0 -136 -47 -199t-132 -63q-92 0 -135.5 65t-43.5 197zM112 250q0 -44 5.5 -80t18 -62t32.5 -40.5t48 -14.5q52 0 78 46.5t26 150.5q0 43 -5.5 79.5t-18 62.5t-32.5 40.5t-48 14.5q-51 0 -77.5 -47
t-26.5 -150zM164 700h69v-16l-58 -113h-39zM287 700h75v-16l-92 -113h-42z" />
    <glyph glyph-name="OE" unicode="&#x152;" horiz-adv-x="748" 
d="M383 623q-22 11 -50 15.5t-58 4.5q-73 0 -113 -72t-40 -221q0 -59 8.5 -112t27.5 -93t49 -64t73 -24q23 0 47 2t56 14v550zM383 0q-20 -5 -48 -8.5t-62 -3.5q-60 0 -103.5 25.5t-71.5 73t-41.5 114t-13.5 149.5q0 177 58.5 269.5t171.5 92.5q36 0 60.5 -3.5t49.5 -8.5
h311v-69h-236v-237h216v-69h-216v-256h241v-69h-316z" />
    <glyph glyph-name="oe" unicode="&#x153;" horiz-adv-x="692" 
d="M112 250q0 -39 5.5 -74.5t18 -62.5t32.5 -43.5t48 -16.5q103 0 103 197q0 39 -5.5 74.5t-17.5 63t-32 43.5t-48 16q-104 0 -104 -197zM355 75q-43 -87 -140 -87q-91 0 -134.5 68t-43.5 194q0 128 46.5 195t132.5 67q51 0 85.5 -22.5t54.5 -63.5q20 38 55.5 62t84.5 24
q28 0 55.5 -7.5t49.5 -28.5t35.5 -59t13.5 -99q0 -17 -1.5 -36t-3.5 -40h-256q1 -87 30.5 -138.5t97.5 -51.5q27 0 55 11t42 25l26 -53q-24 -23 -62.5 -35t-80.5 -12q-50 0 -86 24t-56 63zM496 448q-45 0 -72.5 -36t-32.5 -111h190q2 75 -21 111t-64 36z" />
    <glyph glyph-name="Racute" unicode="&#x154;" horiz-adv-x="480" 
d="M64 693q33 8 72.5 11.5t72.5 3.5q39 0 74 -9.5t61 -32t41.5 -59t15.5 -91.5q0 -83 -34.5 -133t-91.5 -67l38 -37l138 -279h-87l-150 305l-75 15v-320h-75v693zM139 370h60q57 0 90 35t33 107q0 55 -27.5 91t-81.5 36q-20 0 -41.5 -1.5t-32.5 -4.5v-263zM255 870h99v-21
l-131 -97h-61z" />
    <glyph glyph-name="racute" unicode="&#x155;" horiz-adv-x="274" 
d="M59 500h51l13 -53h3q14 29 36.5 45.5t54.5 16.5q23 0 52 -9l-14 -73q-26 9 -46 9q-32 0 -52 -18.5t-26 -49.5v-368h-72v500zM157 720h78v-21l-82 -128h-43z" />
    <glyph glyph-name="Rcommaaccent" unicode="&#x156;" horiz-adv-x="480" 
d="M64 693q33 8 72.5 11.5t72.5 3.5q39 0 74 -9.5t61 -32t41.5 -59t15.5 -91.5q0 -83 -34.5 -133t-91.5 -67l38 -37l138 -279h-87l-150 305l-75 15v-320h-75v693zM139 370h60q57 0 90 35t33 107q0 55 -27.5 91t-81.5 36q-20 0 -41.5 -1.5t-32.5 -4.5v-263zM192 -102
q0 21 13 34t31 13q22 0 38 -17t16 -58q0 -26 -7.5 -45.5t-18 -34t-22 -23t-20.5 -12.5l-27 27q17 13 28.5 31.5t10.5 42.5q-17 -2 -29.5 9t-12.5 33z" />
    <glyph glyph-name="rcommaaccent" unicode="&#x157;" horiz-adv-x="274" 
d="M59 500h51l13 -53h3q14 29 36.5 45.5t54.5 16.5q23 0 52 -9l-14 -73q-26 9 -46 9q-32 0 -52 -18.5t-26 -49.5v-368h-72v500zM63 -102q0 21 13 34t31 13q22 0 38 -17t16 -58q0 -26 -7.5 -45.5t-18 -34t-22 -23t-20.5 -12.5l-27 27q17 13 28.5 31.5t10.5 42.5
q-17 -2 -29.5 9t-12.5 33z" />
    <glyph glyph-name="Rcaron" unicode="&#x158;" horiz-adv-x="480" 
d="M64 693q33 8 72.5 11.5t72.5 3.5q39 0 74 -9.5t61 -32t41.5 -59t15.5 -91.5q0 -83 -34.5 -133t-91.5 -67l38 -37l138 -279h-87l-150 305l-75 15v-320h-75v693zM139 370h60q57 0 90 35t33 107q0 55 -27.5 91t-81.5 36q-20 0 -41.5 -1.5t-32.5 -4.5v-263zM228 746h-53
l-102 103v21h69l47 -50l14 -34l15 33l50 51h66v-22z" />
    <glyph glyph-name="rcaron" unicode="&#x159;" horiz-adv-x="274" 
d="M59 500h51l13 -53h3q14 29 36.5 45.5t54.5 16.5q23 0 52 -9l-14 -73q-26 9 -46 9q-32 0 -52 -18.5t-26 -49.5v-368h-72v500zM170 550h-38l-93 182h68l31 -66l17 -58l17 58l36 66h61z" />
    <glyph glyph-name="Sacute" unicode="&#x15a;" horiz-adv-x="428" 
d="M59 93q19 -13 53.5 -24.5t78.5 -11.5q56 0 91 27.5t35 86.5q0 39 -20 68t-50 53.5t-64.5 48t-64.5 52t-50 65.5t-20 89q0 84 50.5 124.5t131.5 40.5q50 0 89 -9t63 -23l-24 -66q-18 11 -51.5 20t-77.5 9q-54 0 -80 -26.5t-26 -66.5q0 -35 20 -62t50 -51t64.5 -48.5
t64.5 -54.5t50 -68t20 -90q0 -88 -52 -138t-147 -50q-60 0 -98.5 11t-61.5 25zM279 870h99v-21l-131 -97h-61z" />
    <glyph glyph-name="sacute" unicode="&#x15b;" horiz-adv-x="338" 
d="M51 82q20 -12 47.5 -20.5t56.5 -8.5q33 0 56 16.5t23 53.5q0 31 -14 51t-35.5 36t-46.5 29.5t-46.5 32.5t-35.5 45t-14 66q0 64 34.5 96.5t97.5 32.5q41 0 71 -7.5t52 -20.5l-19 -60q-19 10 -44 16.5t-51 6.5q-36 0 -52.5 -15t-16.5 -47q0 -25 14 -42.5t35.5 -32
t46.5 -29.5t46.5 -35.5t35.5 -49t14 -71.5q0 -28 -9 -53t-27.5 -43.5t-46 -29.5t-64.5 -11q-44 0 -76 8.5t-54 22.5zM190 720h78v-21l-82 -128h-43z" />
    <glyph glyph-name="Scircumflex" unicode="&#x15c;" horiz-adv-x="428" 
d="M59 93q19 -13 53.5 -24.5t78.5 -11.5q56 0 91 27.5t35 86.5q0 39 -20 68t-50 53.5t-64.5 48t-64.5 52t-50 65.5t-20 89q0 84 50.5 124.5t131.5 40.5q50 0 89 -9t63 -23l-24 -66q-18 11 -51.5 20t-77.5 9q-54 0 -80 -26.5t-26 -66.5q0 -35 20 -62t50 -51t64.5 -48.5
t64.5 -54.5t50 -68t20 -90q0 -88 -52 -138t-147 -50q-60 0 -98.5 11t-61.5 25zM205 870h50l102 -102v-21h-66l-47 49l-15 35l-15 -34l-52 -50h-64v22z" />
    <glyph glyph-name="scircumflex" unicode="&#x15d;" horiz-adv-x="338" 
d="M51 82q20 -12 47.5 -20.5t56.5 -8.5q33 0 56 16.5t23 53.5q0 31 -14 51t-35.5 36t-46.5 29.5t-46.5 32.5t-35.5 45t-14 66q0 64 34.5 96.5t97.5 32.5q41 0 71 -7.5t52 -20.5l-19 -60q-19 10 -44 16.5t-51 6.5q-36 0 -52.5 -15t-16.5 -47q0 -25 14 -42.5t35.5 -32
t46.5 -29.5t46.5 -35.5t35.5 -49t14 -71.5q0 -28 -9 -53t-27.5 -43.5t-46 -29.5t-64.5 -11q-44 0 -76 8.5t-54 22.5zM161 732h35l89 -182h-63l-32 66l-16 58l-17 -58l-36 -66h-59z" />
    <glyph glyph-name="Scedilla" unicode="&#x15e;" horiz-adv-x="428" 
d="M59 93q19 -13 53.5 -24.5t78.5 -11.5q56 0 91 27.5t35 86.5q0 39 -20 68t-50 53.5t-64.5 48t-64.5 52t-50 65.5t-20 89q0 84 50.5 124.5t131.5 40.5q50 0 89 -9t63 -23l-24 -66q-18 11 -51.5 20t-77.5 9q-54 0 -80 -26.5t-26 -66.5q0 -35 20 -62t50 -51t64.5 -48.5
t64.5 -54.5t50 -68t20 -90q0 -78 -41.5 -126t-116.5 -59l-15 -34q65 -15 65 -75q0 -39 -28.5 -64.5t-76.5 -25.5q-20 0 -37 4l7 39q23 -2 36.5 1t20.5 9t9 13.5t2 14.5q0 28 -69 37l34 78q-56 2 -92 12t-57 24z" />
    <glyph glyph-name="scedilla" unicode="&#x15f;" horiz-adv-x="338" 
d="M51 82q20 -12 47.5 -20t56.5 -8q33 0 56 16t23 53q0 31 -14 51t-35.5 36t-46.5 29.5t-46.5 32.5t-35.5 45t-14 66q0 64 34.5 96.5t97.5 32.5q41 0 71 -7.5t52 -20.5l-19 -60q-19 10 -44 16.5t-51 6.5q-36 0 -52.5 -15t-16.5 -47q0 -25 14 -42.5t35.5 -32t46.5 -29.5
t46.5 -35.5t35.5 -49t14 -71.5q0 -50 -29 -88t-87 -46l-15 -34q65 -15 65 -75q0 -39 -28.5 -64.5t-76.5 -25.5q-20 0 -37 4l7 39q23 -2 36.5 1t20.5 9t9 13.5t2 14.5q0 28 -69 37l35 79q-36 2 -63.5 10t-46.5 20z" />
    <glyph glyph-name="Scaron" unicode="&#x160;" horiz-adv-x="428" 
d="M59 93q19 -13 53.5 -24.5t78.5 -11.5q56 0 91 27.5t35 86.5q0 39 -20 68t-50 53.5t-64.5 48t-64.5 52t-50 65.5t-20 89q0 84 50.5 124.5t131.5 40.5q50 0 89 -9t63 -23l-24 -66q-18 11 -51.5 20t-77.5 9q-54 0 -80 -26.5t-26 -66.5q0 -35 20 -62t50 -51t64.5 -48.5
t64.5 -54.5t50 -68t20 -90q0 -88 -52 -138t-147 -50q-60 0 -98.5 11t-61.5 25zM259 746h-53l-102 103v21h69l47 -50l14 -34l15 33l50 51h66v-22z" />
    <glyph glyph-name="scaron" unicode="&#x161;" horiz-adv-x="338" 
d="M51 82q20 -12 47.5 -20.5t56.5 -8.5q33 0 56 16.5t23 53.5q0 31 -14 51t-35.5 36t-46.5 29.5t-46.5 32.5t-35.5 45t-14 66q0 64 34.5 96.5t97.5 32.5q41 0 71 -7.5t52 -20.5l-19 -60q-19 10 -44 16.5t-51 6.5q-36 0 -52.5 -15t-16.5 -47q0 -25 14 -42.5t35.5 -32
t46.5 -29.5t46.5 -35.5t35.5 -49t14 -71.5q0 -28 -9 -53t-27.5 -43.5t-46 -29.5t-64.5 -11q-44 0 -76 8.5t-54 22.5zM186 550h-38l-93 182h68l31 -66l17 -58l17 58l36 66h61z" />
    <glyph glyph-name="Tcommaaccent" unicode="&#x162;" horiz-adv-x="447" 
d="M433 631h-172v-631h-75v631h-172v69h419v-69zM175 -102q0 21 13 34t31 13q22 0 38 -17t16 -58q0 -26 -7.5 -45.5t-18 -34t-22 -23t-20.5 -12.5l-27 27q17 13 28.5 31.5t10.5 42.5q-17 -2 -29.5 9t-12.5 33z" />
    <glyph glyph-name="Tcommaaccent" unicode="&#x21a;" horiz-adv-x="447" 
d="M433 631h-172v-631h-75v631h-172v69h419v-69zM175 -102q0 21 13 34t31 13q22 0 38 -17t16 -58q0 -26 -7.5 -45.5t-18 -34t-22 -23t-20.5 -12.5l-27 27q17 13 28.5 31.5t10.5 42.5q-17 -2 -29.5 9t-12.5 33z" />
    <glyph glyph-name="tcommaaccent" unicode="&#x163;" horiz-adv-x="275" 
d="M9 500h61v99l72 23v-122h108v-65h-108v-298q0 -44 10.5 -63.5t34.5 -19.5q20 0 34.5 4.5t31.5 11.5l14 -57q-22 -11 -48.5 -17.5t-55.5 -6.5q-50 0 -71.5 32.5t-21.5 105.5v308h-61v65zM104 -102q0 21 13 34t31 13q22 0 38 -17t16 -58q0 -26 -7.5 -45.5t-18 -34t-22 -23
t-20.5 -12.5l-27 27q17 13 28.5 31.5t10.5 42.5q-17 -2 -29.5 9t-12.5 33z" />
    <glyph glyph-name="tcommaaccent" unicode="&#x21b;" horiz-adv-x="275" 
d="M9 500h61v99l72 23v-122h108v-65h-108v-298q0 -44 10.5 -63.5t34.5 -19.5q20 0 34.5 4.5t31.5 11.5l14 -57q-22 -11 -48.5 -17.5t-55.5 -6.5q-50 0 -71.5 32.5t-21.5 105.5v308h-61v65zM104 -102q0 21 13 34t31 13q22 0 38 -17t16 -58q0 -26 -7.5 -45.5t-18 -34t-22 -23
t-20.5 -12.5l-27 27q17 13 28.5 31.5t10.5 42.5q-17 -2 -29.5 9t-12.5 33z" />
    <glyph glyph-name="Tcaron" unicode="&#x164;" horiz-adv-x="447" 
d="M433 631h-172v-631h-75v631h-172v69h419v-69zM249 746h-53l-102 103v21h69l47 -50l14 -34l15 33l50 51h66v-22z" />
    <glyph glyph-name="tcaron" unicode="&#x165;" horiz-adv-x="276" 
d="M9 500h61v99l72 23v-122h108v-65h-108v-298q0 -44 10.5 -63.5t34.5 -19.5q20 0 34.5 4.5t31.5 11.5l14 -57q-22 -11 -48.5 -17.5t-55.5 -6.5q-50 0 -71.5 32.5t-21.5 105.5v308h-61v65zM268 714q-2 -29 -10 -59t-19 -56t-22.5 -45.5t-18.5 -28.5l-30 15q14 36 21 82t7 92
h72z" />
    <glyph glyph-name="Umacron" unicode="&#x16a;" horiz-adv-x="521" 
d="M385 700h72v-469q0 -127 -49.5 -183.5t-140.5 -56.5q-106 0 -154.5 55t-48.5 169v485h75v-446q0 -54 7 -91t23 -60t40 -33t59 -10q66 0 91.5 46t25.5 148v446zM133 843h259v-62h-259v62z" />
    <glyph glyph-name="umacron" unicode="&#x16b;" horiz-adv-x="434" 
d="M124 500v-306q0 -76 15.5 -108.5t56.5 -32.5q21 0 37.5 8.5t29.5 22.5t23 32t16 37v347h72v-358q0 -36 2.5 -74.5t7.5 -67.5h-51l-18 70h-3q-17 -33 -49 -57.5t-80 -24.5q-32 0 -56 8t-41 29t-25.5 57.5t-8.5 93.5v324h72zM94 643h243v-60h-243v60z" />
    <glyph glyph-name="Ubreve" unicode="&#x16c;" horiz-adv-x="521" 
d="M385 700h72v-469q0 -127 -49.5 -183.5t-140.5 -56.5q-106 0 -154.5 55t-48.5 169v485h75v-446q0 -54 7 -91t23 -60t40 -33t59 -10q66 0 91.5 46t25.5 148v446zM156 871q14 -34 42 -55t66 -21q39 0 64.5 22.5t38.5 53.5l36 -16q-15 -63 -54.5 -94t-85.5 -31
q-43 0 -84.5 29t-60.5 92z" />
    <glyph glyph-name="ubreve" unicode="&#x16d;" horiz-adv-x="434" 
d="M124 500v-306q0 -76 15.5 -108.5t56.5 -32.5q21 0 37.5 8.5t29.5 22.5t23 32t16 37v347h72v-358q0 -36 2.5 -74.5t7.5 -67.5h-51l-18 70h-3q-17 -33 -49 -57.5t-80 -24.5q-32 0 -56 8t-41 29t-25.5 57.5t-8.5 93.5v324h72zM126 717q14 -36 38 -57.5t53 -21.5
q28 0 49.5 21t34.5 58l37 -15q-2 -26 -12.5 -49.5t-26.5 -41t-37.5 -28t-45.5 -10.5q-47 0 -82.5 33t-46.5 93z" />
    <glyph glyph-name="Uring" unicode="&#x16e;" horiz-adv-x="521" 
d="M385 700h72v-469q0 -127 -49.5 -183.5t-140.5 -56.5q-106 0 -154.5 55t-48.5 169v485h75v-446q0 -54 7 -91t23 -60t40 -33t59 -10q66 0 91.5 46t25.5 148v446zM174 768q0 37 21 61t69 24q43 0 66.5 -21.5t23.5 -63.5q0 -36 -22.5 -59.5t-67.5 -23.5t-67.5 22.5
t-22.5 60.5zM228 768q0 -18 8.5 -29.5t27.5 -11.5q36 0 36 41q0 43 -36 43t-36 -43z" />
    <glyph glyph-name="uring" unicode="&#x16f;" horiz-adv-x="434" 
d="M124 500v-306q0 -76 15.5 -108.5t56.5 -32.5q21 0 37.5 8.5t29.5 22.5t23 32t16 37v347h72v-358q0 -36 2.5 -74.5t7.5 -67.5h-51l-18 70h-3q-17 -33 -49 -57.5t-80 -24.5q-32 0 -56 8t-41 29t-25.5 57.5t-8.5 93.5v324h72zM131 643q0 42 22 65.5t60 23.5q36 0 59.5 -21
t23.5 -68q0 -40 -22.5 -64t-60.5 -24t-60 22.5t-22 65.5zM179 643q0 -23 10 -34.5t24 -11.5q16 0 25.5 11t9.5 35t-10.5 35.5t-24.5 11.5t-24 -11t-10 -36z" />
    <glyph glyph-name="Uhungarumlaut" unicode="&#x170;" horiz-adv-x="521" 
d="M385 700h72v-469q0 -127 -49.5 -183.5t-140.5 -56.5q-106 0 -154.5 55t-48.5 169v485h75v-446q0 -54 7 -91t23 -60t40 -33t59 -10q66 0 91.5 46t25.5 148v446zM217 850h81v-16l-80 -93h-52zM353 850h86v-16l-115 -93h-52z" />
    <glyph glyph-name="uhungarumlaut" unicode="&#x171;" horiz-adv-x="434" 
d="M124 500v-306q0 -76 15.5 -108.5t56.5 -32.5q21 0 37.5 8.5t29.5 22.5t23 32t16 37v347h72v-358q0 -36 2.5 -74.5t7.5 -67.5h-51l-18 70h-3q-17 -33 -49 -57.5t-80 -24.5q-32 0 -56 8t-41 29t-25.5 57.5t-8.5 93.5v324h72zM163 700h69v-16l-58 -113h-39zM286 700h75v-16
l-92 -113h-42z" />
    <glyph glyph-name="Uogonek" unicode="&#x172;" horiz-adv-x="521" 
d="M385 700h72v-469q0 -97 -29.5 -152.5t-83.5 -75.5q-23 -17 -35.5 -39t-12.5 -52q0 -14 5 -25.5t14 -18.5t22.5 -8t31.5 6l11 -40q-11 -10 -32.5 -16t-39.5 -6q-39 0 -62 24.5t-24 63.5q1 30 14.5 55.5t38.5 43.5h-8q-106 0 -154.5 55t-48.5 169v485h75v-446q0 -54 7 -91
t23 -60t40 -33t59 -10q66 0 91.5 46t25.5 148v446z" />
    <glyph glyph-name="uogonek" unicode="&#x173;" horiz-adv-x="434" 
d="M124 500v-306q0 -76 15.5 -108.5t56.5 -32.5q21 0 37.5 8.5t29.5 22.5t23 32t16 37v347h72v-358q0 -36 2.5 -74.5t7.5 -67.5h-13q-23 -16 -38 -37t-14 -51q0 -14 5 -25.5t15 -18.5t24 -7t31 10l11 -43q-12 -12 -33.5 -18t-40.5 -6q-38 0 -60.5 24t-22.5 65q0 42 22.5 69
t60.5 44l-16 64h-3q-17 -33 -49 -57.5t-80 -24.5q-32 0 -56 8t-41 29t-25.5 57.5t-8.5 93.5v324h72z" />
    <glyph glyph-name="Ydieresis" unicode="&#x178;" horiz-adv-x="455" 
d="M191 278l-186 422h88l126 -305l13 -61h2l13 63l122 303h81l-184 -421v-279h-75v278zM105 794q0 21 12.5 34t34.5 13q21 0 33.5 -13t12.5 -34t-12.5 -33.5t-33.5 -12.5q-22 0 -34.5 12.5t-12.5 33.5zM263 794q0 21 12.5 34t33.5 13q22 0 34.5 -13t12.5 -34t-12.5 -33.5
t-34.5 -12.5q-21 0 -33.5 12.5t-12.5 33.5z" />
    <glyph glyph-name="Zacute" unicode="&#x179;" horiz-adv-x="439" 
d="M29 69l278 522l33 40h-311v69h381v-69l-279 -525l-32 -37h311v-69h-381v69zM266 870h99v-21l-131 -97h-61z" />
    <glyph glyph-name="zacute" unicode="&#x17a;" horiz-adv-x="360" 
d="M32 65l186 327l35 43h-221v65h292v-65l-187 -330l-34 -40h221v-65h-292v65zM193 720h78v-21l-82 -128h-43z" />
    <glyph glyph-name="Zdotaccent" unicode="&#x17b;" horiz-adv-x="439" 
d="M29 69l278 522l33 40h-311v69h381v-69l-279 -525l-32 -37h311v-69h-381v69zM167 797q0 21 14 36.5t40 15.5t40.5 -15.5t14.5 -36.5q0 -23 -14.5 -38t-40.5 -15t-40 15t-14 38z" />
    <glyph glyph-name="zdotaccent" unicode="&#x17c;" horiz-adv-x="360" 
d="M32 65l186 327l35 43h-221v65h292v-65l-187 -330l-34 -40h221v-65h-292v65zM134 652q0 24 13.5 39t35.5 15t36.5 -14.5t14.5 -39.5q0 -24 -14.5 -37.5t-36.5 -13.5t-35.5 14t-13.5 37z" />
    <glyph glyph-name="Zcaron" unicode="&#x17d;" horiz-adv-x="439" 
d="M29 69l278 522l33 40h-311v69h381v-69l-279 -525l-32 -37h311v-69h-381v69zM237 746h-53l-102 103v21h69l47 -50l14 -34l15 33l50 51h66v-22z" />
    <glyph glyph-name="zcaron" unicode="&#x17e;" horiz-adv-x="360" 
d="M32 65l186 327l35 43h-221v65h292v-65l-187 -330l-34 -40h221v-65h-292v65zM195 550h-38l-93 182h68l31 -66l17 -58l17 58l36 66h61z" />
    <glyph glyph-name="longs" unicode="&#x17f;" horiz-adv-x="206" 
d="M16 500h61v28q0 94 27 136t91 42q28 0 49 -3.5t43 -13.5l-18 -60q-19 8 -33.5 10t-28.5 2q-20 0 -31.5 -8t-17.5 -25t-7.5 -43.5t-1.5 -64.5v-500h-72v435h-61v65z" />
    <glyph glyph-name="florin" unicode="&#x192;" 
d="M260 435l-62 -469q-5 -37 -14 -68.5t-24 -55t-37 -37t-53 -13.5q-24 0 -52.5 5.5t-48.5 15.5l20 61q18 -8 34.5 -12.5t36.5 -4.5q30 0 46 36t26 115l53 427h-67v65h77l9 67q10 73 35.5 109t85.5 36q27 0 54.5 -5.5t48.5 -15.5l-20 -60q-36 16 -72 16q-30 0 -42 -25.5
t-19 -80.5l-5 -41h97v-65h-107z" />
    <glyph glyph-name="uni01F4" unicode="&#x1f4;" horiz-adv-x="492" 
d="M257 349h193v-308q-28 -26 -72 -39.5t-89 -13.5q-56 0 -101.5 21t-77.5 65.5t-49.5 112.5t-17.5 163q0 98 21 166.5t56.5 112t81 63.5t93.5 20t80.5 -6.5t55.5 -17.5l-18 -68q-20 11 -47.5 17t-63.5 6q-35 0 -67 -15t-57.5 -49.5t-40.5 -90.5t-15 -138
q0 -150 47.5 -221.5t130.5 -71.5q52 0 86 25v204l-129 19v44zM341 870h99v-21l-131 -97h-61z" />
    <glyph glyph-name="uni01F5" unicode="&#x1f5;" horiz-adv-x="432" 
d="M374 -23q0 -97 -43 -143t-125 -46q-50 0 -82 8.5t-52 19.5l21 62q20 -9 44 -17t59 -8q61 0 83.5 34t22.5 114v37h-3q-16 -23 -41 -36t-64 -13q-81 0 -119 62.5t-38 196.5q0 129 49.5 195t146.5 66q47 0 81 -9t60 -21v-502zM302 428q-30 16 -77 16q-51 0 -82 -46.5
t-31 -148.5q0 -42 5 -77.5t17 -62t30.5 -41t45.5 -14.5q38 0 60 20t32 60v294zM246 720h78v-21l-82 -128h-43z" />
    <glyph glyph-name="Scommaaccent" unicode="&#x218;" horiz-adv-x="428" 
d="M59 93q19 -13 53.5 -24.5t78.5 -11.5q56 0 91 27.5t35 86.5q0 39 -20 68t-50 53.5t-64.5 48t-64.5 52t-50 65.5t-20 89q0 84 50.5 124.5t131.5 40.5q50 0 89 -9t63 -23l-24 -66q-18 11 -51.5 20t-77.5 9q-54 0 -80 -26.5t-26 -66.5q0 -35 20 -62t50 -51t64.5 -48.5
t64.5 -54.5t50 -68t20 -90q0 -88 -52 -138t-147 -50q-60 0 -98.5 11t-61.5 25zM157 -102q0 21 13 34t31 13q22 0 38 -17t16 -58q0 -26 -7.5 -45.5t-18 -34t-22 -23t-20.5 -12.5l-27 27q17 13 28.5 31.5t10.5 42.5q-17 -2 -29.5 9t-12.5 33z" />
    <glyph glyph-name="scommaaccent" unicode="&#x219;" horiz-adv-x="338" 
d="M51 82q20 -12 47.5 -20.5t56.5 -8.5q33 0 56 16.5t23 53.5q0 31 -14 51t-35.5 36t-46.5 29.5t-46.5 32.5t-35.5 45t-14 66q0 64 34.5 96.5t97.5 32.5q41 0 71 -7.5t52 -20.5l-19 -60q-19 10 -44 16.5t-51 6.5q-36 0 -52.5 -15t-16.5 -47q0 -25 14 -42.5t35.5 -32
t46.5 -29.5t46.5 -35.5t35.5 -49t14 -71.5q0 -28 -9 -53t-27.5 -43.5t-46 -29.5t-64.5 -11q-44 0 -76 8.5t-54 22.5zM117 -102q0 21 13 34t31 13q22 0 38 -17t16 -58q0 -26 -7.5 -45.5t-18 -34t-22 -23t-20.5 -12.5l-27 27q17 13 28.5 31.5t10.5 42.5q-17 -2 -29.5 9
t-12.5 33z" />
    <glyph glyph-name="uni0237" unicode="&#x237;" horiz-adv-x="215" 
d="M72 500h72v-527q0 -103 -33 -148.5t-107 -34.5v65q22 0 35.5 9t21 27.5t9.5 46t2 64.5v498z" />
    <glyph glyph-name="afii57929" unicode="&#x2bc;" horiz-adv-x="162" 
d="M31 659q0 23 13 36t33 13q24 0 39 -16.5t15 -50.5q0 -32 -8 -56t-19.5 -40.5t-24.5 -27t-22 -15.5l-23 30q17 11 29.5 31.5t11.5 47.5q-18 -3 -31 10t-13 38z" />
    <glyph glyph-name="circumflex" unicode="&#x2c6;" horiz-adv-x="343" 
d="M159 732h35l89 -182h-63l-32 66l-16 58l-17 -58l-36 -66h-59z" />
    <glyph glyph-name="caron" unicode="&#x2c7;" horiz-adv-x="350" 
d="M191 550h-38l-93 182h68l31 -66l17 -58l17 58l36 66h61z" />
    <glyph glyph-name="breve" unicode="&#x2d8;" horiz-adv-x="371" 
d="M99 717q14 -36 38 -57.5t53 -21.5q28 0 49.5 21t34.5 58l37 -15q-2 -26 -12.5 -49.5t-26.5 -41t-37.5 -28t-45.5 -10.5q-47 0 -82.5 33t-46.5 93z" />
    <glyph glyph-name="dotaccent" unicode="&#x2d9;" horiz-adv-x="220" 
d="M60 652q0 24 13.5 39t35.5 15t36.5 -14.5t14.5 -39.5q0 -24 -14.5 -37.5t-36.5 -13.5t-35.5 14t-13.5 37z" />
    <glyph glyph-name="ring" unicode="&#x2da;" horiz-adv-x="285" 
d="M60 643q0 42 22 65.5t60 23.5q36 0 59.5 -21t23.5 -68q0 -40 -22.5 -64t-60.5 -24t-60 22.5t-22 65.5zM108 643q0 -23 10 -34.5t24 -11.5q16 0 25.5 11t9.5 35t-10.5 35.5t-24.5 11.5t-24 -11t-10 -36z" />
    <glyph glyph-name="ogonek" unicode="&#x2db;" horiz-adv-x="278" 
d="M195 10q-29 -16 -46 -40.5t-17 -56.5q1 -29 20 -44.5t56 -0.5l10 -40q-11 -11 -31.5 -17t-39.5 -6q-40 0 -63.5 24t-23.5 62q0 43 24.5 72.5t62.5 46.5h48z" />
    <glyph glyph-name="tilde" unicode="&#x2dc;" horiz-adv-x="362" 
d="M60 653q27 34 48 46.5t38 12.5q14 0 26 -6t23.5 -12.5t22 -12.5t22.5 -6q9 0 18.5 4.5t20.5 16.5l23 -38q-24 -29 -42.5 -40t-34.5 -11q-14 0 -26 5.5t-23.5 12.5t-22.5 12.5t-23 5.5q-11 0 -22 -5.5t-24 -19.5z" />
    <glyph glyph-name="hungarumlaut" unicode="&#x2dd;" horiz-adv-x="346" 
d="M88 700h69v-16l-58 -113h-39zM211 700h75v-16l-92 -113h-42z" />
    <glyph glyph-name="acutecomb" unicode="&#x301;" horiz-adv-x="2" 
d="M-290 720h78v-21l-82 -128h-43z" />
    <glyph glyph-name="uni0394" unicode="&#x394;" horiz-adv-x="459" 
d="M11 0v37l201 674h35l204 -674v-37h-440zM91 65h277l-121 402l-18 114h-3l-21 -116z" />
    <glyph glyph-name="uni0394" unicode="&#x2206;" horiz-adv-x="459" 
d="M11 0v37l201 674h35l204 -674v-37h-440zM91 65h277l-121 402l-18 114h-3l-21 -116z" />
    <glyph glyph-name="uni03A9" unicode="&#x3a9;" horiz-adv-x="640" 
d="M58 65h91l75 -10v27l-43 10q-25 15 -47.5 42t-39 63.5t-26.5 81.5t-10 97q0 79 18.5 141t52.5 105.5t82 66.5t108 23q63 0 112 -25t82.5 -70t51 -107.5t17.5 -137.5q0 -54 -11 -98.5t-28.5 -80t-39.5 -60.5t-43 -40l-45 -11v-27l76 10h91v-65h-233v116q23 6 50 23
t50 48.5t38.5 78.5t15.5 111q0 48 -10.5 96t-33 85.5t-57 61t-83.5 23.5q-88 0 -135 -68.5t-47 -200.5q0 -63 14.5 -109t36.5 -77.5t49 -49t53 -22.5v-116h-232v65z" />
    <glyph glyph-name="uni03A9" unicode="&#x2126;" horiz-adv-x="640" 
d="M58 65h91l75 -10v27l-43 10q-25 15 -47.5 42t-39 63.5t-26.5 81.5t-10 97q0 79 18.5 141t52.5 105.5t82 66.5t108 23q63 0 112 -25t82.5 -70t51 -107.5t17.5 -137.5q0 -54 -11 -98.5t-28.5 -80t-39.5 -60.5t-43 -40l-45 -11v-27l76 10h91v-65h-233v116q23 6 50 23
t50 48.5t38.5 78.5t15.5 111q0 48 -10.5 96t-33 85.5t-57 61t-83.5 23.5q-88 0 -135 -68.5t-47 -200.5q0 -63 14.5 -109t36.5 -77.5t49 -49t53 -22.5v-116h-232v65z" />
    <glyph glyph-name="pi" unicode="&#x3c0;" horiz-adv-x="535" 
d="M421 112q0 -28 7.5 -39.5t18.5 -11.5q8 0 18 2.5t17 4.5l16 -53q-14 -6 -34 -12.5t-46 -6.5q-41 0 -55 29t-14 81v329h-145v-435h-72v435h-13q-30 0 -52 -41l-43 34q16 36 41 54t68 18h355v-65h-67v-323z" />
    <glyph glyph-name="afii10023" unicode="&#x401;" horiz-adv-x="429" 
d="M64 700h311v-69h-236v-237h217v-69h-217v-256h241v-69h-316v700zM90 794q0 21 12.5 34t34.5 13q21 0 33.5 -13t12.5 -34t-12.5 -33.5t-33.5 -12.5q-22 0 -34.5 12.5t-12.5 33.5zM248 794q0 21 12.5 34t33.5 13q22 0 34.5 -13t12.5 -34t-12.5 -33.5t-34.5 -12.5
q-21 0 -33.5 12.5t-12.5 33.5z" />
    <glyph glyph-name="afii10051" unicode="&#x402;" horiz-adv-x="588" 
d="M262 0h-75v631h-173v69h421v-69h-173v-216q10 4 39 13t74 9q33 0 63.5 -9.5t54.5 -33.5t38.5 -64.5t14.5 -103.5q0 -120 -46.5 -177t-141.5 -57q-26 0 -38.5 0.5t-18.5 2.5v69q11 -2 23 -2.5t34 -0.5q109 0 109 158q0 43 -8.5 72t-24.5 46t-37.5 24t-46.5 7
q-14 0 -28 -2.5t-26 -6.5t-21 -7.5t-13 -5.5v-346z" />
    <glyph glyph-name="afii10052" unicode="&#x403;" horiz-adv-x="357" 
d="M370 631h-231v-631h-75v700h306v-69zM250 870h99v-21l-131 -97h-61z" />
    <glyph glyph-name="afii10053" unicode="&#x404;" horiz-adv-x="469" 
d="M432 27q-25 -21 -64 -30t-81 -9q-53 0 -98 20t-77.5 63.5t-50.5 112.5t-18 166q0 100 20.5 169t54.5 112t78.5 62t91.5 19q48 0 81 -7t56 -17l-19 -68q-19 11 -47.5 17t-63.5 6q-32 0 -61.5 -13t-52.5 -42.5t-38.5 -76.5t-19.5 -115h242v-69h-243q5 -135 55 -202.5
t130 -67.5q35 0 62 9.5t45 22.5z" />
    <glyph glyph-name="afii10054" unicode="&#x405;" horiz-adv-x="428" 
d="M59 93q19 -13 53.5 -24.5t78.5 -11.5q56 0 91 27.5t35 86.5q0 39 -20 68t-50 53.5t-64.5 48t-64.5 52t-50 65.5t-20 89q0 84 50.5 124.5t131.5 40.5q50 0 89 -9t63 -23l-24 -66q-18 11 -51.5 20t-77.5 9q-54 0 -80 -26.5t-26 -66.5q0 -35 20 -62t50 -51t64.5 -48.5
t64.5 -54.5t50 -68t20 -90q0 -88 -52 -138t-147 -50q-60 0 -98.5 11t-61.5 25z" />
    <glyph glyph-name="afii10055" unicode="&#x406;" horiz-adv-x="233" 
d="M79 700h75v-700h-75v700z" />
    <glyph glyph-name="afii10056" unicode="&#x407;" horiz-adv-x="236" 
d="M19 793q0 22 12 35t32 13t31.5 -13t11.5 -35t-11.5 -34.5t-31.5 -12.5t-32 12.5t-12 34.5zM130 793q0 22 11.5 35t31.5 13t32 -13t12 -35t-12 -34.5t-32 -12.5t-31.5 12.5t-11.5 34.5zM80 700h75v-700h-75v700z" />
    <glyph glyph-name="afii10057" unicode="&#x408;" horiz-adv-x="241" 
d="M93 700h75v-543q0 -82 -26.5 -124.5t-92.5 -42.5q-16 0 -38.5 4t-36.5 12l16 65q10 -6 22.5 -9t25.5 -3q18 0 29 8t17 22.5t7.5 35t1.5 46.5v529z" />
    <glyph glyph-name="afii10058" unicode="&#x409;" horiz-adv-x="747" 
d="M363 631h-158q-8 -201 -21 -336t-40 -208q-17 -48 -42 -70t-57 -22q-29 0 -49 10l11 68q20 -6 37 2.5t32 46.5q11 27 20.5 72.5t17 115.5t12.5 166t7 224h305v-272q13 3 37.5 6t43.5 3q40 0 76.5 -9.5t64.5 -33.5t44.5 -64.5t16.5 -102.5q0 -61 -15.5 -105t-44.5 -73
t-70 -43t-92 -14q-11 0 -27.5 0.5t-35 2t-38 4t-35.5 7.5v625zM438 66q12 -3 31 -4t38 -1q61 0 98 39t37 120q0 43 -10.5 71.5t-29 45.5t-43.5 24t-53 7q-7 0 -17 -1t-19.5 -2t-18.5 -3t-13 -3v-293z" />
    <glyph glyph-name="afii10059" unicode="&#x40a;" horiz-adv-x="782" 
d="M397 338h-258v-338h-75v700h75v-293h258v293h75v-293q4 1 13.5 2.5t21.5 2.5t24.5 2t21.5 1q39 0 75.5 -8t64.5 -30t45 -61t17 -100q0 -60 -16 -102.5t-45 -69.5t-69.5 -39.5t-90.5 -12.5q-11 0 -28 0.5t-35.5 2t-38 4.5t-35.5 7v332zM472 67q11 -4 31 -5t40 -1
q60 0 96.5 35.5t36.5 113.5q0 42 -10.5 68.5t-29 41.5t-43 20.5t-51.5 5.5q-7 0 -17.5 -1l-21 -2t-19 -3t-12.5 -3v-270z" />
    <glyph glyph-name="afii10060" unicode="&#x40b;" horiz-adv-x="606" 
d="M262 0h-75v631h-173v69h421v-69h-173v-234q21 15 57 29t82 14q35 0 63.5 -9.5t48.5 -32t31 -60t11 -93.5v-245h-75v233q0 75 -23 106.5t-73 31.5q-36 0 -69 -12.5t-53 -32.5v-326z" />
    <glyph glyph-name="afii10061" unicode="&#x40c;" horiz-adv-x="493" 
d="M175 324h-36v-324h-75v700h75v-326l35 14l182 312h86l-183 -302l-35 -32l41 -40l203 -326h-95zM276 870h99v-21l-131 -97h-61z" />
    <glyph glyph-name="afii10062" unicode="&#x40e;" horiz-adv-x="448" 
d="M228 341l19 -89h5l16 92l104 356h77l-143 -455q-22 -70 -38.5 -118t-33 -77t-36.5 -42t-49 -13q-26 0 -43 5t-32 16l22 64q16 -11 29 -13.5t24 -2.5q22 0 37 30.5t26 86.5l-209 519h88zM170 870q2 -37 20.5 -59t50.5 -22t49.5 22t20.5 58l64 -15q-8 -57 -41 -88t-94 -31
q-59 0 -97.5 28t-44.5 90z" />
    <glyph glyph-name="afii10145" unicode="&#x40f;" horiz-adv-x="526" 
d="M64 0v700h75v-631h248v631h75v-700h-162l-13 -179h-47l-16 179h-160z" />
    <glyph glyph-name="afii10017" unicode="&#x410;" horiz-adv-x="473" 
d="M333 196h-198l-56 -196h-74l211 711h41l211 -711h-78zM155 263h160l-61 216l-19 105h-2l-19 -107z" />
    <glyph glyph-name="afii10018" unicode="&#x411;" horiz-adv-x="445" 
d="M64 700h313v-69h-238v-215q14 3 34.5 6t39.5 3q42 0 79 -9.5t64.5 -32.5t43.5 -62.5t16 -99.5t-15.5 -103.5t-43 -71t-65.5 -41t-84 -13.5q-14 0 -32.5 0.5t-38 2t-39 4.5t-34.5 7v694zM139 67q11 -4 33.5 -5t42.5 -1q54 0 88 35t34 111q0 48 -10.5 77.5t-28.5 45.5
t-42.5 21t-52.5 5q-7 0 -16 -1t-18.5 -2t-17.5 -3l-12 -3v-280z" />
    <glyph glyph-name="afii10019" unicode="&#x412;" horiz-adv-x="471" 
d="M411 541q0 -26 -6 -52t-19 -49t-32.5 -41t-47.5 -27v-4q24 -5 46 -16.5t39 -32t27 -50t10 -70.5q0 -54 -17 -93.5t-46.5 -64.5t-68 -37t-81.5 -12h-32.5t-39.5 1.5t-41.5 4t-37.5 7.5v689q30 6 70.5 10t87.5 4q34 0 68 -6.5t61 -24.5t43.5 -50.5t16.5 -85.5zM221 61
q27 0 50 8.5t40.5 25.5t27.5 41.5t10 57.5q0 41 -12.5 66.5t-32.5 39.5t-45.5 19t-52.5 5h-67v-256q6 -2 15.5 -3t21 -2t23.5 -1.5t22 -0.5zM180 389q14 0 32 1t30 3q37 15 63.5 48.5t26.5 82.5q0 33 -9 55.5t-24.5 35.5t-36.5 18.5t-44 5.5q-26 0 -47 -1.5t-32 -3.5v-245
h41z" />
    <glyph glyph-name="afii10020" unicode="&#x413;" horiz-adv-x="357" 
d="M370 631h-231v-631h-75v700h306v-69z" />
    <glyph glyph-name="afii10021" unicode="&#x414;" horiz-adv-x="542" 
d="M521 -129h-53l-12 129h-388l-12 -129h-53v198h58q6 11 19.5 52t27 117.5t23.5 191t9 270.5h308v-631h73v-198zM373 69v562h-161q-5 -221 -26 -358t-46 -204h233z" />
    <glyph glyph-name="afii10022" unicode="&#x415;" horiz-adv-x="429" 
d="M64 700h311v-69h-236v-237h217v-69h-217v-256h241v-69h-316v700z" />
    <glyph glyph-name="afii10024" unicode="&#x416;" horiz-adv-x="654" 
d="M287 700h72v-326l34 14l154 312h84l-157 -304l-33 -32l41 -40l174 -324h-93l-168 325h-36v-325h-72v337l-33 -14l-168 -323h-88l172 314l39 37l-37 35l-162 314h88l154 -314h35v314z" />
    <glyph glyph-name="afii10025" unicode="&#x417;" horiz-adv-x="434" 
d="M109 333v65h18q15 0 37 1t35 4q40 10 68.5 41.5t28.5 79.5q0 66 -32 92.5t-81 26.5q-39 0 -69 -7t-49 -18l-20 61q18 11 59.5 22t93.5 11q34 0 66 -8t56.5 -27.5t39.5 -53t15 -83.5q0 -51 -25.5 -95.5t-78.5 -66.5v-4q56 -11 88.5 -53.5t32.5 -114.5q0 -58 -17.5 -99
t-47 -67.5t-68.5 -39t-81 -12.5q-53 0 -88.5 7t-58.5 19l20 68q20 -11 52 -18t78 -7q27 0 51 9.5t42 27.5t28.5 45.5t10.5 63.5q0 65 -34.5 94.5t-92.5 34.5q-10 1 -17.5 1h-18.5h-41z" />
    <glyph glyph-name="afii10026" unicode="&#x418;" horiz-adv-x="544" 
d="M405 458l6 92h-3l-35 -94l-259 -456h-50v700h75v-465l-7 -90h4l35 94l260 461h49v-700h-75v458z" />
    <glyph glyph-name="afii10027" unicode="&#x419;" horiz-adv-x="544" 
d="M405 458l6 92h-3l-35 -94l-259 -456h-50v700h75v-465l-7 -90h4l35 94l260 461h49v-700h-75v458zM209 870q2 -37 20.5 -59t50.5 -22t49.5 22t20.5 58l64 -15q-8 -57 -41 -88t-94 -31q-59 0 -97.5 28t-44.5 90z" />
    <glyph glyph-name="afii10028" unicode="&#x41a;" horiz-adv-x="493" 
d="M175 324h-36v-324h-75v700h75v-326l35 14l182 312h86l-183 -302l-35 -32l41 -40l203 -326h-95z" />
    <glyph glyph-name="afii10029" unicode="&#x41b;" horiz-adv-x="502" 
d="M363 631h-158q-8 -201 -21 -336t-40 -208q-17 -48 -42 -70t-57 -22q-29 0 -49 10l11 69q20 -6 37 2t32 46q11 27 20.5 72.5t17 115.5t12.5 166t7 224h305v-700h-75v631z" />
    <glyph glyph-name="afii10030" unicode="&#x41c;" horiz-adv-x="637" 
d="M498 460l9 106h-4l-32 -99l-141 -304h-25l-148 304l-31 99h-4l14 -106v-460h-72v700h63l169 -344l25 -82h2l24 83l160 343h66v-700h-75v460z" />
    <glyph glyph-name="afii10031" unicode="&#x41d;" horiz-adv-x="536" 
d="M397 323h-258v-323h-75v700h75v-308h258v308h75v-700h-75v323z" />
    <glyph glyph-name="afii10032" unicode="&#x41e;" horiz-adv-x="549" 
d="M43 350q0 178 57 270t174 92q63 0 107 -25.5t71.5 -72.5t40.5 -114t13 -150q0 -178 -57.5 -270t-174.5 -92q-62 0 -106 25.5t-72 72.5t-40.5 114t-12.5 150zM122 350q0 -59 8.5 -112t26.5 -93t47 -64t70 -24q75 0 114 72t39 221q0 58 -8.5 111t-26.5 93.5t-47 64.5
t-71 24q-74 0 -113 -72t-39 -221z" />
    <glyph glyph-name="afii10033" unicode="&#x41f;" horiz-adv-x="526" 
d="M387 631h-248v-631h-75v700h398v-700h-75v631z" />
    <glyph glyph-name="afii10034" unicode="&#x420;" horiz-adv-x="451" 
d="M64 693q32 9 68 12t71 3q40 0 79 -9t70.5 -33t51 -66t19.5 -107q0 -63 -18.5 -107t-49 -71.5t-70 -40t-81.5 -12.5h-13t-19 0.5t-19.5 1.5t-13.5 2v-266h-75v693zM207 639q-20 0 -38.5 -1.5t-29.5 -4.5v-298q4 -2 12.5 -2.5t17.5 -1t17.5 -0.5h12.5q28 0 54 7t46 25.5
t32.5 50t12.5 79.5q0 42 -11.5 70t-30 45t-43.5 24t-52 7z" />
    <glyph glyph-name="afii10035" unicode="&#x421;" horiz-adv-x="458" 
d="M430 27q-25 -21 -63 -30t-80 -9q-53 0 -98 20t-77.5 63.5t-50.5 112.5t-18 166q0 100 20.5 169t54.5 112t78.5 62t91.5 19q48 0 79.5 -7t54.5 -17l-18 -68q-20 11 -47 17t-62 6t-66 -15.5t-55 -50t-38 -90.5t-14 -137q0 -146 50 -219.5t133 -73.5q34 0 61 9.5t46 22.5z
" />
    <glyph glyph-name="afii10036" unicode="&#x422;" horiz-adv-x="447" 
d="M433 631h-172v-631h-75v631h-172v69h419v-69z" />
    <glyph glyph-name="afii10037" unicode="&#x423;" horiz-adv-x="448" 
d="M228 341l19 -89h5l16 92l104 356h77l-143 -455q-22 -70 -38.5 -118t-33 -77t-36.5 -42t-49 -13q-26 0 -43 5t-32 16l22 64q16 -11 29 -13.5t24 -2.5q22 0 37 30.5t26 86.5l-209 519h88z" />
    <glyph glyph-name="afii10038" unicode="&#x424;" horiz-adv-x="633" 
d="M279 78q-14 -3 -33 -4t-36 -1q-39 0 -71.5 15t-56.5 48.5t-37.5 86t-13.5 127.5q0 141 52.5 214.5t142.5 73.5q11 0 27.5 -1t25.5 -3v86h75v-89q14 5 35 6t34 1q39 0 72 -16.5t57 -50.5t37 -86.5t13 -124.5q0 -74 -15 -128t-41 -89t-61.5 -52.5t-75.5 -17.5q-9 0 -27 1.5
t-28 5.5v-100h-75v98zM410 573q-11 0 -29 -1t-29 -6v-425q8 -2 22 -2.5t25 -0.5q56 0 91 54.5t35 167.5q0 48 -7.5 87t-22 67t-36 43.5t-49.5 15.5zM226 138q9 0 26.5 0.5t28.5 5.5v425q-10 2 -24 3t-25 1q-55 0 -89.5 -55t-34.5 -168q0 -99 30.5 -155.5t87.5 -56.5z" />
    <glyph glyph-name="afii10039" unicode="&#x425;" horiz-adv-x="500" 
d="M203 356l-168 344h90l109 -237l20 -59l20 59l115 237h83l-174 -337l182 -363h-88l-121 251l-23 62l-21 -62l-124 -251h-84z" />
    <glyph glyph-name="afii10040" unicode="&#x426;" horiz-adv-x="551" 
d="M530 -129h-52l-13 129h-401v700h75v-631h242v631h75v-631h74v-198z" />
    <glyph glyph-name="afii10041" unicode="&#x427;" horiz-adv-x="487" 
d="M130 700v-244q0 -73 25 -101.5t73 -28.5q35 0 67.5 13t52.5 34v327h75v-700h-75v300q-20 -15 -56 -29t-80 -14q-32 0 -60.5 8t-50 28.5t-34 55.5t-12.5 90v261h75z" />
    <glyph glyph-name="afii10042" unicode="&#x428;" horiz-adv-x="699" 
d="M64 0v700h75v-631h173v631h75v-631h173v631h75v-700h-571z" />
    <glyph glyph-name="afii10043" unicode="&#x429;" horiz-adv-x="731" 
d="M64 0v700h75v-631h173v631h75v-631h173v631h75v-631h75v-198h-53l-12 129h-581z" />
    <glyph glyph-name="afii10044" unicode="&#x42a;" horiz-adv-x="513" 
d="M128 631h-129v69h204v-272q6 1 16 3t21.5 3t23.5 2t21 1q39 0 75.5 -9.5t64.5 -33.5t45 -64.5t17 -103.5q0 -62 -16 -106t-45 -72.5t-70 -42t-91 -13.5q-11 0 -28 0.5t-35.5 2t-38 4t-35.5 7.5v625zM273 61q60 0 97.5 38t37.5 121q0 44 -11 73t-29.5 45.5t-43.5 23
t-52 6.5q-7 0 -17.5 -1t-20.5 -2t-18.5 -3t-12.5 -3v-292q11 -3 31 -4.5t39 -1.5z" />
    <glyph glyph-name="afii10045" unicode="&#x42b;" horiz-adv-x="622" 
d="M483 700h75v-700h-75v700zM64 700h75v-272q9 2 30 5.5t41 3.5q39 0 74.5 -9t62.5 -32.5t43 -64.5t16 -104q0 -122 -56.5 -178.5t-157.5 -56.5q-23 0 -59.5 2.5t-68.5 11.5v694zM199 61q60 0 94 39t34 120q0 44 -10 72.5t-27.5 45.5t-41.5 23.5t-52 6.5q-14 0 -31.5 -3
t-25.5 -6v-291q20 -7 60 -7z" />
    <glyph glyph-name="afii10046" unicode="&#x42c;" horiz-adv-x="449" 
d="M64 700h75v-272q12 3 37.5 6t44.5 3q40 0 76.5 -9.5t64.5 -33.5t44.5 -64.5t16.5 -102.5q0 -61 -15.5 -105t-44.5 -73t-70 -43t-92 -14q-11 0 -28 0.5t-35.5 2t-38 4t-35.5 7.5v694zM209 61q61 0 98 39t37 120q0 43 -10.5 71.5t-29 45.5t-43.5 24t-53 7q-7 0 -17 -1
t-20.5 -2t-19 -3t-12.5 -3v-292q12 -3 31.5 -4.5t38.5 -1.5z" />
    <glyph glyph-name="afii10047" unicode="&#x42d;" horiz-adv-x="465" 
d="M118 390h229q-5 127 -53.5 190t-124.5 63q-38 0 -67 -9t-50 -22l-22 62q28 18 66.5 28t80.5 10q55 0 100 -19.5t77 -62.5t50 -112t18 -167q0 -99 -20 -168.5t-55 -112.5t-82 -62.5t-102 -19.5q-41 0 -74.5 7t-56.5 18l21 68q19 -10 50 -17t64 -7q34 0 65.5 14.5t56.5 46
t40.5 82t17.5 123.5h-229v67z" />
    <glyph glyph-name="afii10048" unicode="&#x42e;" horiz-adv-x="719" 
d="M139 392h95q5 155 59 237.5t163 82.5q61 0 103.5 -25.5t68 -72.5t37 -114t11.5 -150q0 -177 -52.5 -269.5t-168.5 -92.5q-59 0 -100 23.5t-68 67.5t-40 105.5t-14 138.5h-94v-323h-75v700h75v-308zM310 350q0 -59 7.5 -112t24.5 -93.5t45 -64t69 -23.5q75 0 108 71.5
t33 221.5q0 58 -6.5 111.5t-22.5 93.5t-43 64t-69 24q-75 0 -110.5 -72t-35.5 -221z" />
    <glyph glyph-name="afii10049" unicode="&#x42f;" horiz-adv-x="461" 
d="M397 0h-75v307l-80 -21l-136 -286h-87l123 253l48 42q-58 15 -94.5 64.5t-36.5 136.5q0 62 17 103t46 65.5t68 34t83 9.5q27 0 60.5 -3t63.5 -12v-693zM267 639q-26 0 -49 -6.5t-41 -23t-28.5 -44t-10.5 -69.5q0 -77 37 -111t93 -34h54v282q-11 4 -24 5t-31 1z" />
    <glyph glyph-name="afii10065" unicode="&#x430;" horiz-adv-x="400" 
d="M54 470q29 18 70.5 28t87.5 10q42 0 67.5 -12.5t40 -34t19 -49t4.5 -57.5q0 -60 -2.5 -117t-2.5 -108q0 -38 2.5 -70.5t9.5 -61.5h-55l-17 59h-4q-15 -26 -44 -45t-78 -19q-54 0 -88.5 37.5t-34.5 103.5q0 43 14.5 72t41 47t63 25.5t81.5 7.5h20t21 -1q3 31 3 55
q0 57 -17 80t-62 23q-28 0 -61 -8.5t-55 -21.5zM271 228q-10 1 -20 1.5t-20 0.5q-24 0 -47 -4t-41 -14t-28.5 -27t-10.5 -43q0 -40 19.5 -62t50.5 -22q42 0 65 20t32 44v106z" />
    <glyph glyph-name="afii10066" unicode="&#x431;" horiz-adv-x="432" 
d="M102 415q26 47 58 65t80 18q74 0 114.5 -58t40.5 -179q0 -139 -47 -206t-131 -67q-45 0 -78.5 17.5t-56 55t-34 97.5t-11.5 145q0 86 7.5 147t21 103t32.5 67t43 39.5t52.5 20.5t60.5 10q42 5 67 12t40 24l5 -71q-8 -8 -18 -13.5t-24 -9.5t-32.5 -6.5t-43.5 -4.5
q-34 -3 -59.5 -13t-44 -32.5t-29.5 -61.5t-15 -99h2zM112 249q0 -41 6 -76.5t19 -62t32.5 -42t46.5 -15.5q52 0 78 49t26 152q0 82 -22 130.5t-72 48.5q-59 0 -86.5 -48t-27.5 -136z" />
    <glyph glyph-name="afii10067" unicode="&#x432;" horiz-adv-x="403" 
d="M59 499q28 2 61 5t79 3q81 0 116 -30.5t35 -92.5q0 -35 -16.5 -68t-55.5 -50v-4q48 -11 68 -40.5t20 -80.5q0 -78 -46 -113t-137 -35q-34 0 -65 2.5t-59 5.5v498zM131 62q15 -2 28.5 -3t33.5 -1q51 0 74.5 21t23.5 68q0 36 -20 59.5t-73 23.5h-67v-168zM205 287
q14 0 27 6.5t23.5 17.5t16.5 25.5t6 30.5q0 39 -18.5 57t-63.5 18q-24 0 -38 -1t-27 -2v-152h74z" />
    <glyph glyph-name="afii10068" unicode="&#x433;" horiz-adv-x="296" 
d="M297 435h-166v-435h-72v500h238v-65z" />
    <glyph glyph-name="afii10069" unicode="&#x434;" horiz-adv-x="439" 
d="M423 -127h-50l-12 127h-296l-13 -127h-49v192h47q6 11 16.5 40.5t20.5 82t17.5 129.5t8.5 183h251v-435h59v-192zM292 65v370h-113q-2 -43 -5.5 -94t-10.5 -101.5t-17 -96.5t-23 -78h169z" />
    <glyph glyph-name="afii10070" unicode="&#x435;" horiz-adv-x="413" 
d="M358 34q-24 -22 -61 -34t-78 -12q-47 0 -81.5 18.5t-57 53t-33 82.5t-10.5 108q0 128 47 195t133 67q28 0 55.5 -7t49.5 -28t35.5 -59t13.5 -99q0 -17 -1.5 -36.5t-3.5 -40.5h-254q0 -43 7 -78t22 -59.5t38.5 -38t58.5 -13.5q27 0 53.5 10t40.5 24zM302 302q2 75 -21 110
t-63 35q-46 0 -73 -35t-32 -110h189z" />
    <glyph glyph-name="afii10072" unicode="&#x436;" horiz-adv-x="537" 
d="M193 221l-112 -221h-81l123 229l27 30l-41 38l-100 203h76l104 -216h41v216h72v-226l37 14l104 212h75l-105 -203l-32 -32l41 -40l115 -225h-83l-112 225h-40v-225h-72v235z" />
    <glyph glyph-name="afii10073" unicode="&#x437;" horiz-adv-x="351" 
d="M97 224v62h55q14 0 27.5 6.5t24 17.5t17 25.5t6.5 30.5q0 39 -20.5 57t-62.5 18q-31 0 -56.5 -9t-39.5 -19l-21 57q25 16 58.5 26t76.5 10q66 0 101.5 -30.5t35.5 -91.5q0 -38 -19 -70t-52 -46v-4q46 -11 66 -42t20 -82q0 -63 -42 -105.5t-129 -42.5q-40 0 -67.5 7.5
t-49.5 19.5l19 62q19 -12 45 -18t54 -6q49 0 73.5 23t24.5 66q0 36 -23 57t-77 21h-45z" />
    <glyph glyph-name="afii10074" unicode="&#x438;" horiz-adv-x="439" 
d="M308 288l6 76h-4l-35 -84l-169 -280h-47v500h72v-297l-6 -73h4l33 82l171 288h47v-500h-72v288z" />
    <glyph glyph-name="afii10075" unicode="&#x439;" horiz-adv-x="439" 
d="M308 288l6 76h-4l-35 -84l-169 -280h-47v500h72v-297l-6 -73h4l33 82l171 288h47v-500h-72v288zM157 702q5 -46 24.5 -65.5t45.5 -19.5t45.5 21t24.5 63l55 -16q-8 -60 -43.5 -91.5t-83.5 -31.5q-23 0 -44.5 6.5t-39 21t-29.5 37.5t-16 56z" />
    <glyph glyph-name="afii10076" unicode="&#x43a;" horiz-adv-x="387" 
d="M168 225h-37v-225h-72v500h72v-226l34 14l122 212h77l-119 -201l-35 -33l43 -40l128 -226h-86z" />
    <glyph glyph-name="afii10077" unicode="&#x43b;" horiz-adv-x="407" 
d="M276 435h-109q-3 -85 -8 -164.5t-17.5 -140.5t-35.5 -97.5t-61 -36.5q-17 0 -29 2t-22 7l11 63q21 -6 37.5 2.5t28.5 52t19.5 133t10.5 244.5h247v-500h-72v435z" />
    <glyph glyph-name="afii10078" unicode="&#x43c;" horiz-adv-x="522" 
d="M391 297l7 95h-4l-30 -85l-93 -192h-26l-97 192l-27 85h-5l8 -94v-298h-65v500h72l109 -217l22 -65h2l24 67l101 215h74v-500h-72v297z" />
    <glyph glyph-name="afii10079" unicode="&#x43d;" horiz-adv-x="434" 
d="M304 223h-173v-223h-72v500h72v-212h173v212h72v-500h-72v223z" />
    <glyph glyph-name="afii10080" unicode="&#x43e;" horiz-adv-x="432" 
d="M37 250q0 135 46.5 198.5t132.5 63.5q92 0 135.5 -65t43.5 -197q0 -136 -47 -199t-132 -63q-92 0 -135.5 65t-43.5 197zM112 250q0 -44 5.5 -80t18 -62t32.5 -40.5t48 -14.5q52 0 78 46.5t26 150.5q0 43 -5.5 79.5t-18 62.5t-32.5 40.5t-48 14.5q-51 0 -77.5 -47
t-26.5 -150z" />
    <glyph glyph-name="afii10081" unicode="&#x43f;" horiz-adv-x="430" 
d="M299 435h-168v-435h-72v500h312v-500h-72v435z" />
    <glyph glyph-name="afii10082" unicode="&#x440;" horiz-adv-x="435" 
d="M59 500h51l11 -54h4q37 66 116 66t118.5 -59t39.5 -193q0 -63 -13 -113.5t-37 -86t-58.5 -54t-76.5 -18.5q-29 0 -46 3.5t-37 14.5v-206h-72v700zM131 79q14 -12 31.5 -19t46.5 -7q53 0 84 54t31 154q0 42 -5.5 76t-17.5 58.5t-30.5 38t-45.5 13.5q-73 0 -94 -89v-279z
" />
    <glyph glyph-name="afii10083" unicode="&#x441;" horiz-adv-x="356" 
d="M335 25q-25 -19 -57 -28t-67 -9q-48 0 -81 18.5t-53.5 53t-30 83t-9.5 107.5q0 128 45.5 195t130.5 67q39 0 67 -7t48 -18l-20 -63q-40 23 -87 23q-54 0 -81.5 -47.5t-27.5 -149.5q0 -41 6 -77t20 -62.5t36 -42t55 -15.5q26 0 48.5 9t36.5 21z" />
    <glyph glyph-name="afii10084" unicode="&#x442;" horiz-adv-x="320" 
d="M319 435h-123v-435h-72v435h-123v65h318v-65z" />
    <glyph glyph-name="afii10085" unicode="&#x443;" horiz-adv-x="376" 
d="M183 177l21 -97h5l15 97l76 323h73l-119 -449q-14 -54 -28 -101t-30.5 -81.5t-37 -54t-48.5 -19.5t-49 9l12 68q14 -5 28 -2t26.5 17t23 41.5t18.5 71.5l-162 500h82z" />
    <glyph glyph-name="afii10086" unicode="&#x444;" horiz-adv-x="550" 
d="M240 -4q-14 -6 -28.5 -7t-26.5 -1q-74 0 -113 62.5t-39 199.5q0 133 43.5 195.5t124.5 62.5q23 0 39 -4v196h70v-197q14 3 25.5 4t21.5 1q40 0 70 -13t50 -42t30 -76.5t10 -116.5q0 -135 -42.5 -203.5t-120.5 -68.5q-8 0 -22 1.5t-22 5.5v-195h-70v196zM343 446
q-10 0 -17 -0.5t-18 -4.5v-388q8 -2 17.5 -2.5t21.5 -0.5q98 0 98 210q0 92 -22.5 139t-79.5 47zM203 50q10 0 19 1t20 4v387q-17 4 -37 4q-47 0 -73.5 -45.5t-26.5 -150.5q0 -92 23.5 -146t74.5 -54z" />
    <glyph glyph-name="afii10087" unicode="&#x445;" horiz-adv-x="412" 
d="M161 256l-132 244h86l74 -143l20 -56l21 56l76 143h79l-133 -240l141 -260h-82l-84 157l-22 60l-23 -60l-84 -157h-79z" />
    <glyph glyph-name="afii10088" unicode="&#x446;" horiz-adv-x="442" 
d="M426 -127h-50l-12 127h-305v500h72v-435h165v435h72v-435h58v-192z" />
    <glyph glyph-name="afii10089" unicode="&#x447;" horiz-adv-x="396" 
d="M108 500v-146q0 -25 2.5 -45t9.5 -34.5t20 -22t34 -7.5q35 0 57 9t34 20v226h72v-500h-72v210q-12 -9 -37.5 -19.5t-68.5 -10.5q-29 0 -52 7.5t-38.5 24.5t-24 46t-8.5 73v169h72z" />
    <glyph glyph-name="afii10090" unicode="&#x448;" horiz-adv-x="594" 
d="M59 0v500h72v-435h130v435h72v-435h130v435h72v-500h-476z" />
    <glyph glyph-name="afii10091" unicode="&#x449;" horiz-adv-x="609" 
d="M593 -130h-50l-12 130h-472v500h72v-435h130v435h72v-435h130v435h72v-435h58v-195z" />
    <glyph glyph-name="afii10092" unicode="&#x44a;" horiz-adv-x="407" 
d="M160 65q14 -3 28.5 -4.5t26.5 -1.5q49 0 71.5 24.5t22.5 74.5q0 45 -22 70.5t-70 25.5q-13 0 -28 -1.5t-29 -5.5v-182zM160 309q19 4 37.5 5.5t34.5 1.5q42 0 71 -11.5t47 -31.5t26 -47.5t8 -58.5q0 -91 -43.5 -132t-140.5 -41q-57 0 -112 6v435h-88v65h160v-191z" />
    <glyph glyph-name="afii10093" unicode="&#x44b;" horiz-adv-x="538" 
d="M131 65q30 -6 55 -6q48 0 67 25.5t19 73.5q0 45 -18.5 70.5t-65.5 25.5q-13 0 -28 -1.5t-29 -5.5v-182zM131 309q20 4 38 5.5t34 1.5q41 0 69 -11.5t44.5 -31.5t23.5 -47.5t7 -58.5q0 -91 -40.5 -132t-134.5 -41q-58 0 -113 6v500h72v-191zM407 500h72v-500h-72v500z" />
    <glyph glyph-name="afii10094" unicode="&#x44c;" horiz-adv-x="377" 
d="M131 65q30 -6 55 -6q94 0 94 99q0 45 -22 70.5t-70 25.5q-13 0 -28 -1.5t-29 -5.5v-182zM131 309q20 4 38 5.5t34 1.5q42 0 71 -11.5t47 -31.5t26 -47.5t8 -58.5q0 -91 -44 -132t-138 -41q-59 0 -114 6v500h72v-191z" />
    <glyph glyph-name="afii10095" unicode="&#x44d;" horiz-adv-x="372" 
d="M94 283h166q-3 78 -31.5 121t-80.5 43q-32 0 -56 -9t-39 -20l-25 57q23 17 56 27t76 10q90 0 132.5 -65t42.5 -197q0 -131 -48.5 -196.5t-136.5 -65.5q-77 0 -122 24l20 64q19 -11 45 -17t50 -6q111 0 117 168h-166v62z" />
    <glyph glyph-name="afii10096" unicode="&#x44e;" horiz-adv-x="581" 
d="M377 -11q-88 0 -126 61t-43 175h-77v-225h-72v500h72v-210h78q7 111 47.5 166t121.5 55q89 0 127.5 -68.5t38.5 -192.5q0 -133 -41 -197t-126 -64zM279 250q0 -40 4.5 -75.5t16 -62.5t30.5 -42.5t48 -15.5q49 0 70 45.5t21 150.5q0 43 -4.5 79t-15 62t-28 40.5
t-44.5 14.5q-52 0 -75 -48.5t-23 -147.5z" />
    <glyph glyph-name="afii10097" unicode="&#x44f;" horiz-adv-x="387" 
d="M262 207l-61 -12l-101 -195h-85l93 172l32 36q-41 8 -69.5 42t-28.5 92q0 90 48.5 130t132.5 40q31 0 58.5 -4.5t52.5 -10.5v-497h-72v207zM262 253v185q-10 5 -23 7t-23 2q-48 0 -73.5 -25t-25.5 -76q0 -46 29 -71.5t77 -23.5z" />
    <glyph glyph-name="afii10071" unicode="&#x451;" horiz-adv-x="413" 
d="M358 34q-24 -22 -61 -34t-78 -12q-47 0 -81.5 18.5t-57 53t-33 82.5t-10.5 108q0 128 47 195t133 67q28 0 55.5 -7t49.5 -28t35.5 -59t13.5 -99q0 -17 -1.5 -36.5t-3.5 -40.5h-254q0 -43 7 -78t22 -59.5t38.5 -38t58.5 -13.5q27 0 53.5 10t40.5 24zM302 302q2 75 -21 110
t-63 35q-46 0 -73 -35t-32 -110h189zM94 634q0 23 11.5 36t31.5 13t31.5 -13t11.5 -36q0 -21 -11.5 -34t-31.5 -13t-31.5 13t-11.5 34zM253 634q0 23 11.5 36t31.5 13t31.5 -13t11.5 -36q0 -21 -11.5 -34t-31.5 -13t-31.5 13t-11.5 34z" />
    <glyph glyph-name="afii10099" unicode="&#x452;" horiz-adv-x="443" 
d="M-2 500h65v200h72v-200h128v-58h-128v-141h3q20 27 49.5 43t73.5 16q33 0 57.5 -9t40.5 -30t24 -56t8 -87v-207q0 -101 -33 -144.5t-107 -32.5v65q22 0 35.5 8t21 25.5t9.5 44.5t2 63v150q0 78 -16.5 111.5t-66.5 33.5q-35 0 -62.5 -23t-38.5 -60v-212h-72v442h-65v58z
" />
    <glyph glyph-name="afii10100" unicode="&#x453;" horiz-adv-x="296" 
d="M297 435h-166v-435h-72v500h238v-65zM188 720h78v-21l-82 -128h-43z" />
    <glyph glyph-name="afii10101" unicode="&#x454;" horiz-adv-x="376" 
d="M351 24q-23 -17 -57.5 -26t-68.5 -9q-48 0 -83.5 18.5t-59 52.5t-34.5 82.5t-11 107.5q0 127 52.5 194t140.5 67q38 0 65.5 -6t48.5 -18l-19 -63q-20 11 -43 16.5t-47 5.5q-54 0 -85.5 -40t-37.5 -121h182v-62h-182q2 -34 10.5 -64.5t24 -54t38.5 -37t56 -13.5
q27 0 51 8.5t38 19.5z" />
    <glyph glyph-name="afii10102" unicode="&#x455;" horiz-adv-x="338" 
d="M51 82q20 -12 47.5 -20.5t56.5 -8.5q33 0 56 16.5t23 53.5q0 31 -14 51t-35.5 36t-46.5 29.5t-46.5 32.5t-35.5 45t-14 66q0 64 34.5 96.5t97.5 32.5q41 0 71 -7.5t52 -20.5l-19 -60q-19 10 -44 16.5t-51 6.5q-36 0 -52.5 -15t-16.5 -47q0 -25 14 -42.5t35.5 -32
t46.5 -29.5t46.5 -35.5t35.5 -49t14 -71.5q0 -28 -9 -53t-27.5 -43.5t-46 -29.5t-64.5 -11q-44 0 -76 8.5t-54 22.5z" />
    <glyph glyph-name="afii10103" unicode="&#x456;" horiz-adv-x="217" 
d="M71 500h72v-500h-72v500zM58 652q0 24 13.5 39t35.5 15t36.5 -14.5t14.5 -39.5q0 -24 -14.5 -37.5t-36.5 -13.5t-35.5 14t-13.5 37z" />
    <glyph glyph-name="afii10104" unicode="&#x457;" horiz-adv-x="231" 
d="M22 634q0 23 10.5 35.5t30.5 12.5t30.5 -12.5t10.5 -35.5q0 -21 -10.5 -34t-30.5 -13t-30.5 13t-10.5 34zM127 634q0 23 10.5 35.5t30.5 12.5t30.5 -12.5t10.5 -35.5q0 -21 -10.5 -34t-30.5 -13t-30.5 13t-10.5 34zM76 500h72v-500h-72v500z" />
    <glyph glyph-name="afii10105" unicode="&#x458;" horiz-adv-x="215" 
d="M72 500h72v-527q0 -103 -33 -148.5t-107 -34.5v65q22 0 35.5 9t21 27.5t9.5 46t2 64.5v498zM58 652q0 24 13.5 39t35.5 15t36.5 -14.5t14.5 -39.5q0 -24 -14.5 -37.5t-36.5 -13.5t-35.5 14t-13.5 37z" />
    <glyph glyph-name="afii10106" unicode="&#x459;" horiz-adv-x="597" 
d="M350 309q20 4 38 5.5t34 1.5q42 0 71 -11.5t47 -31.5t26 -47.5t8 -58.5q0 -91 -44 -132t-138 -41q-59 0 -114 6v435h-109q-3 -85 -8 -164.5t-17.5 -140.5t-35.5 -97.5t-61 -36.5q-17 0 -29 2t-22 7l11 63q21 -6 37.5 2.5t28.5 52t19.5 133t10.5 244.5h247v-191zM350 65
q30 -6 55 -6q94 0 94 99q0 45 -22 70.5t-70 25.5q-13 0 -28 -1.5t-29 -5.5v-182z" />
    <glyph glyph-name="afii10107" unicode="&#x45a;" horiz-adv-x="621" 
d="M375 64q15 -3 29 -4t26 -1q94 0 94 97q0 93 -92 93q-13 0 -28 -1t-29 -5v-179zM375 305q20 4 38 5t34 1q42 0 71 -10.5t47 -30t26 -46t8 -57.5q0 -91 -43.5 -132t-138.5 -41q-59 0 -114 6v226h-172v-226h-72v500h72v-209h172v209h72v-195z" />
    <glyph glyph-name="afii10108" unicode="&#x45b;" horiz-adv-x="443" 
d="M-2 500h65v200h72v-200h128v-58h-128v-141h3q20 27 49.5 43t73.5 16q33 0 57.5 -9.5t40.5 -31.5t24 -58.5t8 -90.5v-170h-72v156q0 70 -16.5 104.5t-66.5 34.5q-35 0 -63 -23.5t-38 -61.5v-210h-72v442h-65v58z" />
    <glyph glyph-name="afii10109" unicode="&#x45c;" horiz-adv-x="387" 
d="M168 225h-37v-225h-72v500h72v-226l34 14l122 212h77l-119 -201l-35 -33l43 -40l128 -226h-86zM205 720h78v-21l-82 -128h-43z" />
    <glyph glyph-name="afii10110" unicode="&#x45e;" horiz-adv-x="376" 
d="M183 177l21 -97h5l15 97l76 323h73l-119 -449q-14 -54 -28 -101t-30.5 -81.5t-37 -54t-48.5 -19.5t-49 9l12 68q14 -5 28 -2t26.5 17t23 41.5t18.5 71.5l-162 500h82zM129 702q5 -46 24.5 -65.5t45.5 -19.5t45.5 21t24.5 63l55 -16q-8 -60 -43.5 -91.5t-83.5 -31.5
q-23 0 -44.5 6.5t-39 21t-29.5 37.5t-16 56z" />
    <glyph glyph-name="afii10193" unicode="&#x45f;" horiz-adv-x="430" 
d="M59 0v500h72v-431h168v431h72v-500h-118l-13 -179h-47l-16 179h-118z" />
    <glyph glyph-name="afii10146" unicode="&#x462;" horiz-adv-x="504" 
d="M0 617h119v104h75v-104h166v-65h-166v-125q4 1 14 2.5t21.5 2.5t23.5 2t22 1q40 0 76.5 -9.5t64.5 -33t45 -64t17 -102.5q0 -120 -60 -177t-162 -57q-11 0 -28 0.5t-35.5 2t-38 4t-35.5 7.5v546h-119v65zM264 61q59 0 97 38t38 121q0 44 -11 72.5t-29.5 45t-43.5 22.5
t-52 6q-7 0 -17 -1t-20.5 -2t-19 -3t-12.5 -3v-290q11 -3 30.5 -4.5t39.5 -1.5z" />
    <glyph glyph-name="afii10194" unicode="&#x463;" horiz-adv-x="407" 
d="M0 500h88v200h72v-200h129v-62h-129v-129q19 4 37.5 5.5t34.5 1.5q42 0 71 -11.5t47 -31.5t26 -47.5t8 -58.5q0 -91 -43.5 -132t-139.5 -41q-58 0 -113 6v438h-88v62zM160 64q14 -3 28 -4t27 -1q49 0 71.5 27t22.5 72q0 40 -22 68t-70 28q-13 0 -28 -1.5t-29 -5.5v-183z
" />
    <glyph glyph-name="afii10147" unicode="&#x472;" horiz-adv-x="549" 
d="M43 350q0 178 57 270t174 92q63 0 107 -25.5t71.5 -72.5t40.5 -114t13 -150q0 -178 -57.5 -270t-174.5 -92q-62 0 -106 25.5t-72 72.5t-40.5 114t-12.5 150zM274 57q71 0 110 65t43 200h-305q2 -54 11.5 -102t28 -84.5t46 -57.5t66.5 -21zM274 643q-69 0 -108 -63
t-44 -191h305q-3 52 -13 98t-28.5 80.5t-46 55t-65.5 20.5z" />
    <glyph glyph-name="afii10195" unicode="&#x473;" horiz-adv-x="432" 
d="M37 250q0 131 46.5 196.5t132.5 65.5q92 0 135.5 -68.5t43.5 -193.5q0 -133 -46.5 -197.5t-132.5 -64.5q-92 0 -135.5 68.5t-43.5 193.5zM320 279q-5 91 -33 129.5t-71 38.5q-20 0 -38 -8.5t-32 -28t-23 -51.5t-11 -80h208zM112 219q3 -85 32.5 -125.5t71.5 -40.5
q19 0 37.5 8t32.5 27.5t23 51t11 79.5h-208z" />
    <glyph glyph-name="afii10148" unicode="&#x474;" horiz-adv-x="487" 
d="M252 -11h-39l-216 711h84l136 -479l19 -107h1l13 109l60 253q17 74 32 119.5t31.5 70t37 33t48.5 8.5q27 0 44 -5.5t31 -14.5l-21 -65q-15 9 -27.5 12.5t-23.5 3.5q-23 0 -38.5 -31.5t-30.5 -86.5z" />
    <glyph glyph-name="afii10196" unicode="&#x475;" horiz-adv-x="410" 
d="M88 500l93 -289l20 -99h2l18 101l25 87q14 49 26.5 87.5t27 65t33 40.5t44.5 14q16 0 28.5 -2t22.5 -7l-10 -67q-11 4 -21 6.5t-20 -4t-20.5 -24.5t-22.5 -53l-120 -367h-34l-175 511h83z" />
    <glyph glyph-name="uni048A" unicode="&#x48a;" horiz-adv-x="558" 
d="M405 458l6 92h-3l-35 -94l-259 -456h-50v700h75v-465l-7 -90h4l35 94l260 461h49v-635h83v-21l-74 -174h-50l36 130h-70v458zM207 870q2 -37 20.5 -59t50.5 -22t49.5 22t20.5 58l64 -15q-8 -57 -41 -88t-94 -31q-59 0 -97.5 28t-44.5 90z" />
    <glyph glyph-name="uni048B" unicode="&#x48b;" horiz-adv-x="456" 
d="M308 288l6 76h-4l-35 -84l-169 -280h-47v500h72v-297l-6 -73h4l33 82l171 288h47v-435h80v-21l-74 -174h-50l36 130h-64v288zM158 702q5 -46 24.5 -65.5t45.5 -19.5t45.5 21t24.5 63l55 -16q-8 -60 -43.5 -91.5t-83.5 -31.5q-23 0 -44.5 6.5t-39 21t-29.5 37.5t-16 56z
" />
    <glyph glyph-name="uni048C" unicode="&#x48c;" horiz-adv-x="459" 
d="M0 698h73v82h75v-82h117v-58h-117v-212q11 3 36 6t44 3q40 0 77 -10t65.5 -34t45.5 -64.5t17 -102.5q0 -120 -60 -177t-163 -57q-11 0 -28 0.5t-35.5 2t-38 4t-35.5 7.5v634h-73v58zM219 61q59 0 97 38t38 121q0 44 -11 73t-30 45.5t-44 23t-52 6.5q-7 0 -17.5 -1
t-20.5 -2t-18.5 -3t-12.5 -3v-292q11 -3 31 -4.5t40 -1.5z" />
    <glyph glyph-name="uni048D" unicode="&#x48d;" horiz-adv-x="407" 
d="M0 500h88v200h72v-200h129v-62h-129v-129q19 4 37.5 5.5t34.5 1.5q42 0 71 -11.5t47 -31.5t26 -47.5t8 -58.5q0 -91 -43.5 -132t-139.5 -41q-58 0 -113 6v438h-88v62zM160 64q14 -3 28 -4t27 -1q49 0 71.5 27t22.5 72q0 40 -22 68t-70 28q-13 0 -28 -1.5t-29 -5.5v-183z
" />
    <glyph glyph-name="uni048E" unicode="&#x48e;" horiz-adv-x="451" 
d="M64 693q32 9 68 12t71 3q40 0 79 -9t70.5 -33t51 -66t19.5 -107q0 -72 -24 -119.5t-62 -73.5l59 -93l-47 -32l-64 99q-38 -12 -81 -12h-13t-19 0.5t-19.5 1.5t-13.5 2v-266h-75v693zM231 462l63 -103q23 18 36.5 50t13.5 84q0 42 -11.5 70t-30 45t-43.5 24t-52 7
q-20 0 -38.5 -1.5t-29.5 -4.5v-297q4 -2 12.5 -2.5t17.5 -1.5t17.5 -1h12.5q14 0 28 1t27 6l-59 96z" />
    <glyph glyph-name="uni048F" unicode="&#x48f;" horiz-adv-x="435" 
d="M59 500h51l11 -54h4q37 66 116 66t118.5 -59t39.5 -193q0 -75 -18.5 -131.5t-51.5 -91.5l46 -63l-44 -35l-47 64q-32 -15 -70 -15q-29 0 -46 3.5t-37 14.5v-206h-72v700zM234 160l49 -68q20 26 30.5 68.5t10.5 100.5q0 42 -5.5 76t-17.5 58.5t-30.5 38t-45.5 13.5
q-73 0 -94 -89v-279q14 -12 31.5 -19t46.5 -7q22 0 40 9l-49 70z" />
    <glyph glyph-name="afii10050" unicode="&#x490;" horiz-adv-x="357" 
d="M306 700l14 134h50v-203h-231v-631h-75v700h242z" />
    <glyph glyph-name="afii10098" unicode="&#x491;" horiz-adv-x="296" 
d="M297 435h-166v-435h-72v500h174l14 134h50v-199z" />
    <glyph glyph-name="uni0492" unicode="&#x492;" horiz-adv-x="390" 
d="M392 631h-231v-248h172v-63h-172v-320h-75v320h-79v63h79v317h306v-69z" />
    <glyph glyph-name="uni0493" unicode="&#x493;" horiz-adv-x="306" 
d="M306 435h-166v-156h138v-58h-138v-221h-72v221h-68v58h68v221h238v-65z" />
    <glyph glyph-name="uni0494" unicode="&#x494;" horiz-adv-x="465" 
d="M139 0h-75v700h306v-69h-231v-276q10 4 39.5 12.5t71.5 8.5q34 0 65 -10.5t55 -37.5t38.5 -73t14.5 -117q0 -138 -47 -202t-142 -64q-26 0 -38 1t-18 2v69q11 -2 23.5 -2.5t34.5 -0.5q56 0 82 48t26 142q0 51 -8.5 85t-23.5 54t-36.5 28.5t-47.5 8.5q-27 0 -52.5 -7.5
t-36.5 -12.5v-287z" />
    <glyph glyph-name="uni0495" unicode="&#x495;" horiz-adv-x="430" 
d="M131 0h-72v500h238v-65h-166v-183q10 4 34.5 12.5t66.5 8.5q31 0 59.5 -10t50.5 -35.5t34.5 -70t12.5 -112.5q0 -131 -41.5 -192.5t-133.5 -61.5q-26 0 -38 1t-18 3v65q10 -2 21 -3t33 -1q54 0 78 45.5t24 134.5q0 49 -7.5 82.5t-21.5 53t-33.5 28t-43.5 8.5
q-27 0 -48 -7.5t-29 -11.5v-189z" />
    <glyph glyph-name="uni0496" unicode="&#x496;" horiz-adv-x="678" 
d="M287 700h72v-326l34 14l154 312h84l-157 -304l-33 -32l41 -40l137 -255h54v-198h-53l-12 129h-45l-168 325h-36v-325h-72v337l-33 -14l-168 -323h-88l172 314l39 37l-37 35l-162 314h88l154 -314h35v314z" />
    <glyph glyph-name="uni0497" unicode="&#x497;" horiz-adv-x="567" 
d="M342 225h-40v-225h-72v235l-37 -14l-112 -221h-81l123 229l27 30l-41 38l-100 203h76l104 -216h41v216h72v-226l36 14l105 212h75l-105 -203l-32 -32l41 -40l81 -160h61v-192h-49l-13 127h-48z" />
    <glyph glyph-name="uni0498" unicode="&#x498;" horiz-adv-x="434" 
d="M109 333v65h18q15 0 37 1t35 4q40 10 68.5 41.5t28.5 79.5q0 66 -32 92.5t-81 26.5q-39 0 -69 -7.5t-49 -18.5l-20 62q18 11 59.5 22t93.5 11q34 0 66 -8t56.5 -27.5t39.5 -53t15 -83.5q0 -51 -25.5 -95.5t-78.5 -66.5v-4q56 -11 88.5 -53.5t32.5 -114.5q0 -51 -14 -90
t-38 -65.5t-56.5 -42t-69.5 -19.5l-12 -168h-47l-15 167q-37 2 -63.5 9t-45.5 17l20 68q20 -11 52 -18t78 -7q27 0 51 9.5t42 27.5t28.5 45.5t10.5 63.5q0 65 -34.5 94.5t-92.5 34.5q-10 1 -17.5 1h-18.5h-41z" />
    <glyph glyph-name="uni0499" unicode="&#x499;" horiz-adv-x="351" 
d="M96 224v62h53q14 0 27.5 6.5t24 17.5t17 25.5t6.5 30.5q0 39 -20.5 57t-62.5 18q-31 0 -55 -9t-38 -19l-21 57q25 16 58.5 26t76.5 10q66 0 101.5 -30.5t35.5 -91.5q0 -38 -19 -70t-52 -46v-4q46 -11 66 -42t20 -82q0 -54 -30 -93.5t-93 -50.5l-12 -175h-47l-16 172
q-29 2 -50.5 9t-39.5 17l19 62q19 -12 43.5 -17.5t52.5 -5.5q98 0 98 88q0 36 -23 57t-77 21h-43z" />
    <glyph glyph-name="uni049A" unicode="&#x49a;" horiz-adv-x="505" 
d="M175 324h-36v-324h-75v700h75v-326l35 14l182 312h86l-183 -302l-35 -32l41 -40l160 -257h72v-198h-53l-12 129h-59z" />
    <glyph glyph-name="uni049B" unicode="&#x49b;" horiz-adv-x="410" 
d="M168 225h-37v-225h-72v500h72v-226l34 14l122 212h77l-119 -201l-35 -33l43 -40l90 -161h59v-192h-49l-13 127h-45z" />
    <glyph glyph-name="uni049C" unicode="&#x49c;" horiz-adv-x="558" 
d="M184 324h-44v-324h-75v700h75v-326l44 4v127h58v-120l18 3l163 312h85l-166 -301l-35 -33l41 -40l185 -326h-93l-178 324h-20v-129h-58v129z" />
    <glyph glyph-name="uni049D" unicode="&#x49d;" horiz-adv-x="441" 
d="M170 225h-39v-225h-72v500h72v-226l39 3v125h52v-117l20 3l99 212h76l-97 -201l-36 -33l42 -40l106 -226h-83l-105 225h-22v-127h-52v127z" />
    <glyph glyph-name="uni049E" unicode="&#x49e;" horiz-adv-x="539" 
d="M0 633h110v67h75v-67h95v-61h-95v-198l39 14l179 312h86l-180 -301l-37 -33l42 -40l200 -326h-94l-196 324h-39v-324h-75v570h-110v63z" />
    <glyph glyph-name="uni049F" unicode="&#x49f;" horiz-adv-x="388" 
d="M-5 613h65v87h72v-87h128v-58h-128v-281l33 14l117 212h83l-118 -202l-35 -32l41 -39l129 -227h-87l-126 225h-37v-225h-72v555h-65v58z" />
    <glyph glyph-name="uni04A0" unicode="&#x4a0;" horiz-adv-x="558" 
d="M129 631h-129v69h204v-326l35 14l182 312h86l-183 -302l-35 -32l41 -40l203 -326h-95l-198 324h-36v-324h-75v627v4z" />
    <glyph glyph-name="uni04A1" unicode="&#x4a1;" horiz-adv-x="416" 
d="M160 274l35 14l121 212h77l-119 -201l-35 -33l43 -39l129 -227h-86l-127 225h-38v-225h-72v435h-88v65h160v-226z" />
    <glyph glyph-name="uni04A2" unicode="&#x4a2;" horiz-adv-x="568" 
d="M397 323h-258v-323h-75v700h75v-308h258v308h75v-631h74v-198h-52l-12 129h-85v323z" />
    <glyph glyph-name="uni04A3" unicode="&#x4a3;" horiz-adv-x="444" 
d="M304 223h-173v-223h-72v500h72v-212h173v212h72v-435h60v-192h-49l-13 127h-70v223z" />
    <glyph glyph-name="uni04A4" unicode="&#x4a4;" horiz-adv-x="690" 
d="M703 631h-231v-631h-75v323h-258v-323h-75v700h75v-308h258v308h306v-69z" />
    <glyph glyph-name="uni04A5" unicode="&#x4a5;" horiz-adv-x="541" 
d="M542 435h-166v-435h-72v223h-173v-223h-72v500h72v-212h173v212h238v-65z" />
    <glyph glyph-name="uni04A6" unicode="&#x4a6;" horiz-adv-x="787" 
d="M462 0h-75v631h-248v-631h-75v700h398v-345q10 5 39 13t71 8q34 0 65.5 -10.5t55.5 -37.5t38 -73t14 -117q0 -137 -46.5 -201.5t-141.5 -64.5q-26 0 -38 0.5t-18 2.5v69q10 -2 22.5 -2.5t35.5 -0.5q55 0 81 48t26 141q0 51 -8.5 85t-23.5 54.5t-36.5 29t-46.5 8.5
q-27 0 -53.5 -7.5t-35.5 -12.5v-287z" />
    <glyph glyph-name="uni04A7" unicode="&#x4a7;" horiz-adv-x="668" 
d="M371 0h-72v435h-168v-435h-72v500h312v-246q10 4 34.5 11.5t66.5 7.5q31 0 59.5 -10.5t50 -36.5t34.5 -69.5t13 -110.5q0 -132 -41.5 -193.5t-134.5 -61.5q-26 0 -37.5 1t-17.5 3v65q10 -2 22 -3t34 -1q54 0 78.5 47.5t24.5 132.5q0 48 -8 81t-22 53t-33.5 29t-43.5 9
q-27 0 -49 -7.5t-30 -11.5v-189z" />
    <glyph glyph-name="uni04A8" unicode="&#x4a8;" horiz-adv-x="662" 
d="M284 643q-74 0 -118 -70.5t-44 -221.5q0 -62 13 -116t36.5 -93.5t56.5 -62t74 -22.5q8 0 19.5 0.5t19.5 3.5q-25 20 -44.5 51.5t-33 71t-21 85t-7.5 93.5q0 158 53 238t137 80q94 0 139 -74t45 -208q0 -62 -10 -115.5t-27 -97.5t-40 -76.5t-49 -51.5q6 -2 11.5 -1t10.5 1
q27 0 49.5 7.5t37.5 19.5l23 -61q-16 -15 -40.5 -25t-66.5 -10q-26 0 -53 8t-47 22q-45 -30 -107 -30t-110 25t-81 72t-50 114t-17 151q0 181 62 271.5t179 90.5v-69zM314 354q0 -36 6 -75.5t19 -76t32.5 -67.5t45.5 -50q21 15 41.5 42.5t36 66.5t25.5 89t10 109
q0 46 -5.5 86t-17.5 69.5t-31.5 46.5t-48.5 17q-47 0 -80 -62t-33 -195z" />
    <glyph glyph-name="uni04A9" unicode="&#x4a9;" horiz-adv-x="540" 
d="M217 447q-105 -2 -105 -196q0 -42 7.5 -78.5t23 -63t39 -41.5t54.5 -15q9 0 20 2.5t18 8.5q-27 22 -47 74.5t-20 120.5q0 47 7.5 90.5t24.5 77t46 53.5t72 20q39 0 65.5 -17t43.5 -46t24.5 -68t7.5 -83q0 -40 -8 -77t-21 -67t-29.5 -52t-33.5 -33q20 -11 45.5 -4.5
t43.5 26.5l23 -54q-14 -17 -39 -27t-54 -10q-25 0 -48 8.5t-39 26.5q-24 -21 -53.5 -28t-57.5 -7q-92 0 -141 68.5t-49 193.5t44.5 193t135.5 69v-65zM282 256q0 -57 17 -107t46 -75q32 21 55 78t23 133q0 30 -4 57t-12.5 48t-21 33t-29.5 12q-23 0 -37.5 -14t-22.5 -38
t-11 -57t-3 -70z" />
    <glyph glyph-name="uni04AA" unicode="&#x4aa;" horiz-adv-x="458" 
d="M430 27q-20 -17 -49 -26t-62 -12l-12 -168h-47l-15 170q-45 7 -82 31.5t-64 68t-41.5 108t-14.5 151.5q0 100 20.5 169t54.5 112t78.5 62t91.5 19q48 0 79.5 -7t54.5 -17l-18 -68q-20 11 -47 17t-62 6t-66 -15.5t-55 -50t-38 -90.5t-14 -137q0 -146 50 -218t133 -72
q34 0 61 8t46 21z" />
    <glyph glyph-name="uni04AB" unicode="&#x4ab;" horiz-adv-x="356" 
d="M335 25q-17 -14 -38.5 -22t-44.5 -12l-12 -170h-47l-15 170q-38 6 -65 27t-44 54.5t-24.5 78.5t-7.5 99q0 128 45.5 195t130.5 67q39 0 67 -7t48 -18l-20 -62q-38 22 -87 22q-54 0 -81.5 -47.5t-27.5 -149.5q0 -41 6 -76.5t20 -62t36 -42t55 -15.5q26 0 48.5 8.5
t36.5 20.5z" />
    <glyph glyph-name="uni04AC" unicode="&#x4ac;" horiz-adv-x="449" 
d="M186 631h-172v69h421v-69h-174v-562h76v-198h-52l-12 129h-87v631z" />
    <glyph glyph-name="uni04AD" unicode="&#x4ad;" horiz-adv-x="320" 
d="M124 435h-123v65h318v-65h-123v-370h60v-192h-49l-13 127h-70v435z" />
    <glyph glyph-name="uni04AE" unicode="&#x4ae;" horiz-adv-x="455" 
d="M191 278l-186 422h88l126 -305l13 -61h2l13 63l122 303h81l-184 -421v-279h-75v278z" />
    <glyph glyph-name="uni04AF" unicode="&#x4af;" horiz-adv-x="391" 
d="M5 500h84l93 -320l21 -110h2l18 112l84 318h78l-150 -500v-200h-72v200z" />
    <glyph glyph-name="uni04B0" unicode="&#x4b0;" horiz-adv-x="455" 
d="M69 285h119l-183 415h88l126 -305l13 -61h2l13 63l122 303h81l-182 -415h120v-59h-122v-226h-75v226h-122v59z" />
    <glyph glyph-name="uni04B1" unicode="&#x4b1;" horiz-adv-x="391" 
d="M67 0h96l-158 500h84l93 -320l21 -110h2l18 112l84 318h78l-150 -500h96v-58h-96v-142h-72v142h-96v58z" />
    <glyph glyph-name="uni04B2" unicode="&#x4b2;" horiz-adv-x="530" 
d="M203 356l-168 344h90l109 -237l20 -59l20 59l115 237h83l-174 -337l147 -294h77v-198h-53l-12 129h-65l-121 251l-23 62l-21 -62l-124 -251h-84z" />
    <glyph glyph-name="uni04B3" unicode="&#x4b3;" horiz-adv-x="426" 
d="M227 157l-22 60l-23 -60l-84 -157h-79l142 256l-132 244h86l74 -143l20 -56l21 56l76 143h79l-133 -240l105 -195h62v-192h-49l-13 127h-46z" />
    <glyph glyph-name="uni04B4" unicode="&#x4b4;" horiz-adv-x="674" 
d="M653 -129h-52l-13 129h-401v631h-173v69h388v-69h-140v-562h242v631h75v-631h74v-198z" />
    <glyph glyph-name="uni04B5" unicode="&#x4b5;" horiz-adv-x="509" 
d="M493 -127h-50l-12 127h-306v435h-124v65h306v-65h-110v-370h165v435h72v-435h59v-192z" />
    <glyph glyph-name="uni04B6" unicode="&#x4b6;" horiz-adv-x="518" 
d="M130 700v-244q0 -73 25 -101.5t73 -28.5q35 0 67.5 13t52.5 34v327h75v-631h74v-198h-52l-12 129h-85v300q-20 -15 -56 -29t-80 -14q-32 0 -60.5 8t-50 28.5t-34 55.5t-12.5 90v261h75z" />
    <glyph glyph-name="uni04B7" unicode="&#x4b7;" horiz-adv-x="414" 
d="M265 210q-12 -9 -37.5 -19.5t-68.5 -10.5q-29 0 -52 7.5t-38.5 24.5t-24 46t-8.5 73v169h72v-146q0 -25 2.5 -45t9.5 -34.5t20 -22t34 -7.5q35 0 57 9t34 20v226h72v-435h61v-192h-49l-13 127h-71v210z" />
    <glyph glyph-name="uni04B8" unicode="&#x4b8;" horiz-adv-x="498" 
d="M219 257h-4q-36 0 -65.5 9t-50.5 30.5t-32.5 57t-11.5 88.5v258h75v-242q0 -66 21.5 -97.5t67.5 -34.5v129h57v-124q25 5 47 16.5t36 25.5v327h75v-700h-75v300q-14 -10 -35.5 -19.5t-47.5 -16.5v-119h-57v112z" />
    <glyph glyph-name="uni04B9" unicode="&#x4b9;" horiz-adv-x="405" 
d="M167 176h-5q-31 0 -54.5 8t-39.5 28t-24 53t-8 83v152h72v-141q0 -25 2 -45.5t8.5 -36t18 -25t30.5 -11.5v132h52v-129q19 4 33.5 12t22.5 16v228h72v-500h-72v210q-8 -7 -22 -14.5t-34 -12.5v-115h-52v108z" />
    <glyph glyph-name="uni04BA" unicode="&#x4ba;" horiz-adv-x="487" 
d="M357 0v236q0 71 -23 104.5t-74 33.5q-36 0 -68.5 -12.5t-52.5 -32.5v-329h-75v700h75v-300q21 14 57 28.5t82 14.5q35 0 63.5 -9t48.5 -31.5t31 -59.5t11 -94v-249h-75z" />
    <glyph glyph-name="uni04BB" unicode="&#x4bb;" horiz-adv-x="440" 
d="M315 0v304q0 70 -16.5 106.5t-65.5 36.5q-35 0 -63.5 -25t-38.5 -63v-359h-72v700h72v-247h3q20 26 49.5 42.5t73.5 16.5q33 0 57.5 -9t40.5 -31t24 -58.5t8 -90.5v-323h-72z" />
    <glyph glyph-name="uni04BC" unicode="&#x4bc;" horiz-adv-x="632" 
d="M234 319q6 -133 48 -197.5t128 -64.5q36 0 67 13.5t52 27.5l22 -63q-28 -20 -66 -33.5t-89 -13.5q-108 0 -172 79t-69 252h-28q-69 0 -98.5 30.5t-27.5 86.5q0 29 7 49t18 34h69q-14 -14 -20 -35t-6 -39q0 -14 3 -25.5t12 -19.5t26 -12t45 -2q5 156 61.5 241t162.5 85
q103 0 153.5 -73.5t50.5 -208.5q0 -26 -1.5 -53.5t-5.5 -57.5h-342zM506 386q2 14 2 27.5v27.5q0 40 -7 76.5t-22.5 64.5t-40 44.5t-58.5 16.5q-74 0 -109 -68.5t-38 -188.5h273z" />
    <glyph glyph-name="uni04BD" unicode="&#x4bd;" horiz-adv-x="502" 
d="M450 34q-24 -22 -61 -34t-78 -12q-47 0 -80.5 18t-56 51t-33.5 79.5t-12 104.5h-9q-60 0 -88 31t-27 85q1 37 12.5 59.5t26.5 37.5h69q-18 -14 -31 -37t-13 -57q0 -24 12.5 -42t49.5 -15q10 103 55.5 156t122.5 53q28 0 55.5 -7t49.5 -28t35.5 -59t13.5 -99
q0 -17 -1.5 -36.5t-3.5 -40.5h-254q0 -43 7 -78t22 -59.5t38.5 -38t58.5 -13.5q27 0 53.5 10t40.5 24zM394 302q2 75 -21 110t-63 35q-46 0 -73 -35t-32 -110h189z" />
    <glyph glyph-name="uni04BE" unicode="&#x4be;" horiz-adv-x="627" 
d="M234 319q6 -133 48 -197t128 -64q36 0 67 13t52 27l22 -63q-24 -17 -55 -29.5t-71 -16.5l-12 -168h-47l-15 168q-89 14 -140 94.5t-56 235.5h-28q-69 0 -98.5 30.5t-27.5 86.5q0 29 7 49t18 34h69q-14 -14 -20 -35t-6 -39q0 -14 3 -25.5t12 -19.5t26 -12t45 -2
q5 156 61.5 241t162.5 85q103 0 153.5 -73.5t50.5 -208.5q0 -26 -1.5 -53.5t-5.5 -57.5h-342zM501 386q3 27 3 55q0 40 -6.5 76.5t-21 64.5t-38.5 44.5t-58 16.5q-74 0 -109 -68.5t-38 -188.5h268z" />
    <glyph glyph-name="uni04BF" unicode="&#x4bf;" horiz-adv-x="502" 
d="M451 34q-19 -17 -45.5 -28.5t-56.5 -16.5l-12 -168h-47l-15 169q-74 14 -108.5 81t-36.5 171h-9q-60 0 -88 30.5t-27 84.5q1 37 12.5 59.5t26.5 37.5h69q-18 -14 -31 -37t-13 -57q0 -12 3 -23t10 -19.5t19 -12.5t30 -2q10 103 55.5 156t122.5 53q28 0 55.5 -7t49.5 -28
t35.5 -59t13.5 -99q0 -17 -1.5 -36.5t-3.5 -40.5h-254q1 -87 29 -137.5t97 -50.5q27 0 53.5 9.5t40.5 23.5zM395 302q2 75 -21 110t-63 35q-46 0 -73 -35t-32 -110h189z" />
    <glyph glyph-name="uni04C0" unicode="&#x4c0;" horiz-adv-x="233" 
d="M79 700h75v-700h-75v700z" />
    <glyph glyph-name="uni04C3" unicode="&#x4c3;" horiz-adv-x="484" 
d="M351 71q0 70 -10 118.5t-31.5 78.5t-54.5 43t-79 13h-37v-324h-75v700h75v-326l35 14l182 312h86l-176 -286l-46 -38h48q42 -12 72 -33t49 -56t28 -86.5t9 -125.5v-19q0 -78 -13 -131t-37 -84.5t-59 -43.5t-78 -7v69q32 0 53.5 11t34.5 36.5t18.5 66t5.5 98.5z" />
    <glyph glyph-name="uni04C4" unicode="&#x4c4;" horiz-adv-x="390" 
d="M131 500v-235l34 14l121 221h78l-120 -210l-30 -27l34 -5q35 -10 56.5 -33t33.5 -53.5t16.5 -66.5t4.5 -72v-17q0 -68 -13 -114t-36.5 -72.5t-55.5 -35t-70 -2.5v65q49 -8 76 33.5t27 125.5q0 108 -31 155t-89 49h-36v-220h-72v500h72z" />
    <glyph glyph-name="uni04C5" unicode="&#x4c5;" horiz-adv-x="509" 
d="M363 631h-158q-8 -201 -21 -336t-40 -208q-17 -48 -42 -70t-57 -22q-29 0 -49 10l11 68q20 -6 37 2.5t32 46.5q11 27 20.5 72.5t17 115.5t12.5 166t7 224h305v-635h76v-21l-74 -174h-50l36 130h-63v631z" />
    <glyph glyph-name="uni04C6" unicode="&#x4c6;" horiz-adv-x="423" 
d="M276 435h-109q-3 -85 -8 -164.5t-17.5 -140.5t-35.5 -97.5t-61 -36.5q-17 0 -29 2t-22 7l11 63q21 -6 37.5 2.5t28.5 52t19.5 133t10.5 244.5h247v-435h79v-21l-74 -174h-50l36 130h-63v435z" />
    <glyph glyph-name="uni04C7" unicode="&#x4c7;" horiz-adv-x="536" 
d="M472 0v-28q0 -103 -32.5 -147.5t-107.5 -34.5v65q23 0 36 9t19.5 27t8 45.5t1.5 63.5v323h-258v-323h-75v700h75v-308h258v308h75v-700z" />
    <glyph glyph-name="uni04C8" unicode="&#x4c8;" horiz-adv-x="434" 
d="M304 223h-173v-223h-72v500h72v-212h173v212h72v-529q0 -92 -27.5 -136t-87.5 -43q-6 0 -12 0.5t-13 1.5v63q45 -1 56.5 34.5t11.5 108.5v223z" />
    <glyph glyph-name="uni04C9" unicode="&#x4c9;" horiz-adv-x="550" 
d="M397 323h-258v-323h-75v700h75v-308h258v308h75v-635h82v-21l-74 -174h-50l36 130h-69v323z" />
    <glyph glyph-name="uni04CA" unicode="&#x4ca;" horiz-adv-x="451" 
d="M304 223h-173v-223h-72v500h72v-212h173v212h72v-435h79v-21l-74 -174h-50l36 130h-63v223z" />
    <glyph glyph-name="uni04CB" unicode="&#x4cb;" horiz-adv-x="487" 
d="M130 700v-244q0 -73 25 -101.5t73 -28.5q35 0 67.5 13t52.5 34v327h75v-700h-86l-13 -129h-52v198h76v231q-20 -15 -56 -29t-80 -14q-32 0 -60.5 8t-50 28.5t-34 55.5t-12.5 90v261h75z" />
    <glyph glyph-name="uni04CC" unicode="&#x4cc;" horiz-adv-x="396" 
d="M265 213q-13 -9 -38 -19.5t-70 -10.5q-30 0 -52.5 7.5t-37.5 26.5t-23 51.5t-8 81.5v150h72v-135q0 -26 2.5 -47.5t9.5 -37t20 -24t34 -8.5q35 0 57.5 8.5t33.5 19.5v224h72v-500h-75l-12 -127h-50v192h65v148z" />
    <glyph glyph-name="uni04CD" unicode="&#x4cd;" horiz-adv-x="651" 
d="M498 460l9 106h-4l-32 -99l-141 -304h-25l-148 304l-31 99h-4l14 -106v-460h-72v700h63l169 -344l25 -82h2l24 83l160 343h66v-635h83v-21l-74 -174h-50l36 130h-70v460z" />
    <glyph glyph-name="uni04CE" unicode="&#x4ce;" horiz-adv-x="538" 
d="M391 297l7 95h-4l-30 -85l-93 -192h-26l-97 192l-27 85h-5l8 -94v-298h-65v500h72l109 -217l22 -65h2l24 67l101 215h74v-435h79v-21l-74 -174h-50l36 130h-63v297z" />
    <glyph glyph-name="uni04CF" unicode="&#x4cf;" horiz-adv-x="205" 
d="M67 700h72v-700h-72v700z" />
    <glyph glyph-name="uni04D0" unicode="&#x4d0;" horiz-adv-x="473" 
d="M333 196h-198l-56 -196h-74l211 711h41l211 -711h-78zM155 263h160l-61 216l-19 105h-2l-19 -107zM168 870q2 -37 20.5 -59t50.5 -22t49.5 22t20.5 58l64 -15q-8 -57 -41 -88t-94 -31q-59 0 -97.5 28t-44.5 90z" />
    <glyph glyph-name="uni04D1" unicode="&#x4d1;" horiz-adv-x="400" 
d="M54 470q29 18 70.5 28t87.5 10q42 0 67.5 -12.5t40 -34t19 -49t4.5 -57.5q0 -60 -2.5 -117t-2.5 -108q0 -38 2.5 -70.5t9.5 -61.5h-55l-17 59h-4q-15 -26 -44 -45t-78 -19q-54 0 -88.5 37.5t-34.5 103.5q0 43 14.5 72t41 47t63 25.5t81.5 7.5h20t21 -1q3 31 3 55
q0 57 -17 80t-62 23q-28 0 -61 -8.5t-55 -21.5zM271 228q-10 1 -20 1.5t-20 0.5q-24 0 -47 -4t-41 -14t-28.5 -27t-10.5 -43q0 -40 19.5 -62t50.5 -22q42 0 65 20t32 44v106zM131 702q5 -46 24.5 -65.5t45.5 -19.5t45.5 21t24.5 63l55 -16q-8 -60 -43.5 -91.5t-83.5 -31.5
q-23 0 -44.5 6.5t-39 21t-29.5 37.5t-16 56z" />
    <glyph glyph-name="uni04D2" unicode="&#x4d2;" horiz-adv-x="473" 
d="M333 196h-198l-56 -196h-74l211 711h41l211 -711h-78zM155 263h160l-61 216l-19 105h-2l-19 -107zM110 794q0 21 12.5 34t34.5 13q21 0 33.5 -13t12.5 -34t-12.5 -33.5t-33.5 -12.5q-22 0 -34.5 12.5t-12.5 33.5zM268 794q0 21 12.5 34t33.5 13q22 0 34.5 -13t12.5 -34
t-12.5 -33.5t-34.5 -12.5q-21 0 -33.5 12.5t-12.5 33.5z" />
    <glyph glyph-name="uni04D3" unicode="&#x4d3;" horiz-adv-x="400" 
d="M54 470q29 18 70.5 28t87.5 10q42 0 67.5 -12.5t40 -34t19 -49t4.5 -57.5q0 -60 -2.5 -117t-2.5 -108q0 -38 2.5 -70.5t9.5 -61.5h-55l-17 59h-4q-15 -26 -44 -45t-78 -19q-54 0 -88.5 37.5t-34.5 103.5q0 43 14.5 72t41 47t63 25.5t81.5 7.5h20t21 -1q3 31 3 55
q0 57 -17 80t-62 23q-28 0 -61 -8.5t-55 -21.5zM271 228q-10 1 -20 1.5t-20 0.5q-24 0 -47 -4t-41 -14t-28.5 -27t-10.5 -43q0 -40 19.5 -62t50.5 -22q42 0 65 20t32 44v106zM75 634q0 23 11.5 36t31.5 13t31.5 -13t11.5 -36q0 -21 -11.5 -34t-31.5 -13t-31.5 13t-11.5 34z
M234 634q0 23 11.5 36t31.5 13t31.5 -13t11.5 -36q0 -21 -11.5 -34t-31.5 -13t-31.5 13t-11.5 34z" />
    <glyph glyph-name="uni04D4" unicode="&#x4d4;" horiz-adv-x="683" 
d="M315 589l-26 -98l-103 -225h132v323h-3zM318 199h-165l-90 -199h-81l335 700h313v-69h-237v-237h217v-69h-217v-256h241v-69h-316v199z" />
    <glyph glyph-name="uni04D5" unicode="&#x4d5;" horiz-adv-x="642" 
d="M173 57q21 0 37.5 6.5t28.5 17t20 23t12 25.5v101q-10 1 -20 1.5t-20 0.5q-24 0 -47 -4t-41 -14t-28.5 -27t-10.5 -43q0 -35 19 -61t50 -26zM294 73q-20 -35 -54.5 -58t-85.5 -23q-56 0 -90.5 39t-34.5 105q0 44 14.5 73.5t40.5 47t62 25t80 7.5q11 0 22 -0.5t22 -1.5
q3 31 3 55q0 57 -17 79.5t-62 22.5q-28 0 -62 -10t-57 -26l-22 56q31 23 72.5 33.5t86.5 10.5q84 0 109 -64q20 36 55.5 52t70.5 16q28 0 55.5 -7.5t49.5 -29t35.5 -60t13.5 -99.5q0 -17 -1.5 -36t-3.5 -40h-253q1 -92 28 -139.5t95 -47.5q28 0 55 10t41 22l26 -53
q-25 -20 -61 -32t-80 -12q-50 0 -89 21.5t-58 63.5h-6zM447 447q-45 0 -72 -36t-32 -112h188q2 75 -20.5 111.5t-63.5 36.5z" />
    <glyph glyph-name="uni04D6" unicode="&#x4d6;" horiz-adv-x="429" 
d="M64 700h311v-69h-236v-237h217v-69h-217v-256h241v-69h-316v700zM151 870q2 -37 20.5 -59t50.5 -22t49.5 22t20.5 58l64 -15q-8 -57 -41 -88t-94 -31q-59 0 -97.5 28t-44.5 90z" />
    <glyph glyph-name="uni04D7" unicode="&#x4d7;" horiz-adv-x="413" 
d="M358 34q-24 -22 -61 -34t-78 -12q-47 0 -81.5 18.5t-57 53t-33 82.5t-10.5 108q0 128 47 195t133 67q28 0 55.5 -7t49.5 -28t35.5 -59t13.5 -99q0 -17 -1.5 -36.5t-3.5 -40.5h-254q0 -43 7 -78t22 -59.5t38.5 -38t58.5 -13.5q27 0 53.5 10t40.5 24zM302 302q2 75 -21 110
t-63 35q-46 0 -73 -35t-32 -110h189zM145 702q5 -46 24.5 -65.5t45.5 -19.5t45.5 21t24.5 63l55 -16q-8 -60 -43.5 -91.5t-83.5 -31.5q-23 0 -44.5 6.5t-39 21t-29.5 37.5t-16 56z" />
    <glyph glyph-name="uni04D8" unicode="&#x4d8;" horiz-adv-x="514" 
d="M120 323q-2 -15 -3 -30.5t-1 -30.5q0 -41 7.5 -78.5t24 -65.5t41 -44.5t59.5 -16.5q73 0 110 67.5t38 198.5h-276zM396 390q-7 128 -46 190.5t-121 62.5q-37 0 -71.5 -13.5t-53.5 -26.5l-22 63q26 17 67 31.5t92 14.5q57 0 100 -20.5t72 -64t43.5 -112.5t14.5 -165
q0 -173 -54.5 -267.5t-170.5 -94.5q-51 0 -89.5 20t-64 57t-38.5 90.5t-13 119.5q0 27 1.5 55.5t6.5 59.5h347z" />
    <glyph glyph-name="afii10846" unicode="&#x4d9;" horiz-adv-x="408" 
d="M50 468q25 20 62.5 32t79.5 12q93 0 136 -69.5t43 -192.5q0 -133 -46 -197.5t-127 -64.5q-28 0 -56.5 9.5t-52 34t-38 66t-14.5 105.5q0 17 1.5 35t3.5 38h256q-3 88 -30.5 129.5t-95.5 41.5q-28 0 -54.5 -9.5t-40.5 -23.5zM199 53q45 0 72 41.5t25 121.5h-189
q-4 -78 22.5 -120.5t69.5 -42.5z" />
    <glyph glyph-name="uni04DA" unicode="&#x4da;" horiz-adv-x="514" 
d="M120 323q-2 -15 -3 -30.5t-1 -30.5q0 -41 7.5 -78.5t24 -65.5t41 -44.5t59.5 -16.5q73 0 110 67.5t38 198.5h-276zM396 390q-7 128 -46 190.5t-121 62.5q-37 0 -71.5 -13.5t-53.5 -26.5l-22 63q26 17 67 31.5t92 14.5q57 0 100 -20.5t72 -64t43.5 -112.5t14.5 -165
q0 -173 -54.5 -267.5t-170.5 -94.5q-51 0 -89.5 20t-64 57t-38.5 90.5t-13 119.5q0 27 1.5 55.5t6.5 59.5h347zM123 794q0 21 12.5 34t34.5 13q21 0 33.5 -13t12.5 -34t-12.5 -33.5t-33.5 -12.5q-22 0 -34.5 12.5t-12.5 33.5zM281 794q0 21 12.5 34t33.5 13q22 0 34.5 -13
t12.5 -34t-12.5 -33.5t-34.5 -12.5q-21 0 -33.5 12.5t-12.5 33.5z" />
    <glyph glyph-name="uni04DB" unicode="&#x4db;" horiz-adv-x="408" 
d="M50 468q25 20 62.5 32t79.5 12q93 0 136 -69.5t43 -192.5q0 -133 -46 -197.5t-127 -64.5q-28 0 -56.5 9.5t-52 34t-38 66t-14.5 105.5q0 17 1.5 35t3.5 38h256q-3 88 -30.5 129.5t-95.5 41.5q-28 0 -54.5 -9.5t-40.5 -23.5zM199 53q45 0 72 41.5t25 121.5h-189
q-4 -78 22.5 -120.5t69.5 -42.5zM75 634q0 23 11.5 36t31.5 13t31.5 -13t11.5 -36q0 -21 -11.5 -34t-31.5 -13t-31.5 13t-11.5 34zM234 634q0 23 11.5 36t31.5 13t31.5 -13t11.5 -36q0 -21 -11.5 -34t-31.5 -13t-31.5 13t-11.5 34z" />
    <glyph glyph-name="uni04DC" unicode="&#x4dc;" horiz-adv-x="654" 
d="M287 700h72v-326l34 14l154 312h84l-157 -304l-33 -32l41 -40l174 -324h-93l-168 325h-36v-325h-72v337l-33 -14l-168 -323h-88l172 314l39 37l-37 35l-162 314h88l154 -314h35v314zM199 794q0 21 12.5 34t34.5 13q21 0 33.5 -13t12.5 -34t-12.5 -33.5t-33.5 -12.5
q-22 0 -34.5 12.5t-12.5 33.5zM357 794q0 21 12.5 34t33.5 13q22 0 34.5 -13t12.5 -34t-12.5 -33.5t-34.5 -12.5q-21 0 -33.5 12.5t-12.5 33.5z" />
    <glyph glyph-name="uni04DD" unicode="&#x4dd;" horiz-adv-x="537" 
d="M193 221l-112 -221h-81l123 229l27 30l-41 38l-100 203h76l104 -216h41v216h72v-226l37 14l104 212h75l-105 -203l-32 -32l41 -40l115 -225h-83l-112 225h-40v-225h-72v235zM145 634q0 23 11.5 36t31.5 13t31.5 -13t11.5 -36q0 -21 -11.5 -34t-31.5 -13t-31.5 13
t-11.5 34zM304 634q0 23 11.5 36t31.5 13t31.5 -13t11.5 -36q0 -21 -11.5 -34t-31.5 -13t-31.5 13t-11.5 34z" />
    <glyph glyph-name="uni04DE" unicode="&#x4de;" horiz-adv-x="434" 
d="M109 333v65h18q15 0 37 1t35 4q40 10 68.5 41.5t28.5 79.5q0 66 -32 92.5t-81 26.5q-39 0 -69 -7t-49 -18l-20 61q18 11 59.5 22t93.5 11q34 0 66 -8t56.5 -27.5t39.5 -53t15 -83.5q0 -51 -25.5 -95.5t-78.5 -66.5v-4q56 -11 88.5 -53.5t32.5 -114.5q0 -58 -17.5 -99
t-47 -67.5t-68.5 -39t-81 -12.5q-53 0 -88.5 7t-58.5 19l20 68q20 -11 52 -18t78 -7q27 0 51 9.5t42 27.5t28.5 45.5t10.5 63.5q0 65 -34.5 94.5t-92.5 34.5q-10 1 -17.5 1h-18.5h-41zM70 794q0 21 12.5 34t34.5 13q21 0 33.5 -13t12.5 -34t-12.5 -33.5t-33.5 -12.5
q-22 0 -34.5 12.5t-12.5 33.5zM228 794q0 21 12.5 34t33.5 13q22 0 34.5 -13t12.5 -34t-12.5 -33.5t-34.5 -12.5q-21 0 -33.5 12.5t-12.5 33.5z" />
    <glyph glyph-name="uni04DF" unicode="&#x4df;" horiz-adv-x="351" 
d="M97 224v62h55q14 0 27.5 6.5t24 17.5t17 25.5t6.5 30.5q0 39 -20.5 57t-62.5 18q-31 0 -56.5 -9t-39.5 -19l-21 57q25 16 58.5 26t76.5 10q66 0 101.5 -30.5t35.5 -91.5q0 -38 -19 -70t-52 -46v-4q46 -11 66 -42t20 -82q0 -63 -42 -105.5t-129 -42.5q-40 0 -67.5 7.5
t-49.5 19.5l19 62q19 -12 45 -18t54 -6q49 0 73.5 23t24.5 66q0 36 -23 57t-77 21h-45zM38 634q0 23 11.5 36t31.5 13t31.5 -13t11.5 -36q0 -21 -11.5 -34t-31.5 -13t-31.5 13t-11.5 34zM197 634q0 23 11.5 36t31.5 13t31.5 -13t11.5 -36q0 -21 -11.5 -34t-31.5 -13
t-31.5 13t-11.5 34z" />
    <glyph glyph-name="uni04E0" unicode="&#x4e0;" horiz-adv-x="451" 
d="M184 57q67 0 105 41t38 107q0 69 -39.5 103t-115.5 34h-70v27l147 228l35 43l-49 -9h-190v69h336v-29l-159 -242l-30 -30v-3l29 8q39 0 72.5 -13t57.5 -37t37.5 -59.5t13.5 -81.5q0 -54 -15.5 -95.5t-43.5 -70.5t-68.5 -44t-89.5 -15q-40 0 -80.5 9t-63.5 23l19 69
q20 -13 54.5 -22.5t69.5 -9.5z" />
    <glyph glyph-name="uni04E1" unicode="&#x4e1;" horiz-adv-x="384" 
d="M147 -145q28 0 51.5 10.5t41 30t27 47t9.5 60.5q0 72 -34 107t-95 35h-57v26l116 226l37 44l-52 -6h-160v65h295v-29l-126 -238l-29 -29v-2l27 6q31 -2 58.5 -15.5t47.5 -38t32 -59.5t12 -81q0 -54 -15.5 -96t-42.5 -70.5t-64 -43t-80 -14.5q-35 0 -65 6.5t-53 17.5
l21 64q19 -11 44 -17t54 -6z" />
    <glyph glyph-name="uni04E2" unicode="&#x4e2;" horiz-adv-x="544" 
d="M405 458l6 92h-3l-35 -94l-259 -456h-50v700h75v-465l-7 -90h4l35 94l260 461h49v-700h-75v458zM147 843h259v-62h-259v62z" />
    <glyph glyph-name="uni04E3" unicode="&#x4e3;" horiz-adv-x="439" 
d="M308 288l6 76h-4l-35 -84l-169 -280h-47v500h72v-297l-6 -73h4l33 82l171 288h47v-500h-72v288zM100 643h243v-60h-243v60z" />
    <glyph glyph-name="uni04E4" unicode="&#x4e4;" horiz-adv-x="544" 
d="M405 458l6 92h-3l-35 -94l-259 -456h-50v700h75v-465l-7 -90h4l35 94l260 461h49v-700h-75v458zM149 794q0 21 12.5 34t34.5 13q21 0 33.5 -13t12.5 -34t-12.5 -33.5t-33.5 -12.5q-22 0 -34.5 12.5t-12.5 33.5zM307 794q0 21 12.5 34t33.5 13q22 0 34.5 -13t12.5 -34
t-12.5 -33.5t-34.5 -12.5q-21 0 -33.5 12.5t-12.5 33.5z" />
    <glyph glyph-name="uni04E5" unicode="&#x4e5;" horiz-adv-x="439" 
d="M308 288l6 76h-4l-35 -84l-169 -280h-47v500h72v-297l-6 -73h4l33 82l171 288h47v-500h-72v288zM101 634q0 23 11.5 36t31.5 13t31.5 -13t11.5 -36q0 -21 -11.5 -34t-31.5 -13t-31.5 13t-11.5 34zM260 634q0 23 11.5 36t31.5 13t31.5 -13t11.5 -36q0 -21 -11.5 -34
t-31.5 -13t-31.5 13t-11.5 34z" />
    <glyph glyph-name="uni04E6" unicode="&#x4e6;" horiz-adv-x="549" 
d="M43 350q0 178 57 270t174 92q63 0 107 -25.5t71.5 -72.5t40.5 -114t13 -150q0 -178 -57.5 -270t-174.5 -92q-62 0 -106 25.5t-72 72.5t-40.5 114t-12.5 150zM122 350q0 -59 8.5 -112t26.5 -93t47 -64t70 -24q75 0 114 72t39 221q0 58 -8.5 111t-26.5 93.5t-47 64.5
t-71 24q-74 0 -113 -72t-39 -221zM149 794q0 21 12.5 34t34.5 13q21 0 33.5 -13t12.5 -34t-12.5 -33.5t-33.5 -12.5q-22 0 -34.5 12.5t-12.5 33.5zM307 794q0 21 12.5 34t33.5 13q22 0 34.5 -13t12.5 -34t-12.5 -33.5t-34.5 -12.5q-21 0 -33.5 12.5t-12.5 33.5z" />
    <glyph glyph-name="uni04E7" unicode="&#x4e7;" horiz-adv-x="432" 
d="M37 250q0 135 46.5 198.5t132.5 63.5q92 0 135.5 -65t43.5 -197q0 -136 -47 -199t-132 -63q-92 0 -135.5 65t-43.5 197zM112 250q0 -44 5.5 -80t18 -62t32.5 -40.5t48 -14.5q52 0 78 46.5t26 150.5q0 43 -5.5 79.5t-18 62.5t-32.5 40.5t-48 14.5q-51 0 -77.5 -47
t-26.5 -150zM93 634q0 23 11.5 36t31.5 13t31.5 -13t11.5 -36q0 -21 -11.5 -34t-31.5 -13t-31.5 13t-11.5 34zM252 634q0 23 11.5 36t31.5 13t31.5 -13t11.5 -36q0 -21 -11.5 -34t-31.5 -13t-31.5 13t-11.5 34z" />
    <glyph glyph-name="uni04E8" unicode="&#x4e8;" horiz-adv-x="549" 
d="M43 350q0 178 57 270t174 92q63 0 107 -25.5t71.5 -72.5t40.5 -114t13 -150q0 -178 -57.5 -270t-174.5 -92q-62 0 -106 25.5t-72 72.5t-40.5 114t-12.5 150zM274 57q71 0 110 65t43 200h-305q2 -54 11.5 -102t28 -84.5t46 -57.5t66.5 -21zM274 643q-69 0 -108 -63
t-44 -191h305q-3 52 -13 98t-28.5 80.5t-46 55t-65.5 20.5z" />
    <glyph glyph-name="uni04E9" unicode="&#x4e9;" horiz-adv-x="432" 
d="M37 250q0 131 46.5 196.5t132.5 65.5q92 0 135.5 -68.5t43.5 -193.5q0 -133 -46.5 -197.5t-132.5 -64.5q-92 0 -135.5 68.5t-43.5 193.5zM320 279q-5 91 -33 129.5t-71 38.5q-20 0 -38 -8.5t-32 -28t-23 -51.5t-11 -80h208zM112 219q3 -85 32.5 -125.5t71.5 -40.5
q19 0 37.5 8t32.5 27.5t23 51t11 79.5h-208z" />
    <glyph glyph-name="uni04EA" unicode="&#x4ea;" horiz-adv-x="549" 
d="M43 350q0 178 57 270t174 92q63 0 107 -25.5t71.5 -72.5t40.5 -114t13 -150q0 -178 -57.5 -270t-174.5 -92q-62 0 -106 25.5t-72 72.5t-40.5 114t-12.5 150zM274 57q71 0 110 65t43 200h-305q2 -54 11.5 -102t28 -84.5t46 -57.5t66.5 -21zM274 643q-69 0 -108 -63
t-44 -191h305q-3 52 -13 98t-28.5 80.5t-46 55t-65.5 20.5zM149 794q0 21 12.5 34t34.5 13q21 0 33.5 -13t12.5 -34t-12.5 -33.5t-33.5 -12.5q-22 0 -34.5 12.5t-12.5 33.5zM307 794q0 21 12.5 34t33.5 13q22 0 34.5 -13t12.5 -34t-12.5 -33.5t-34.5 -12.5q-21 0 -33.5 12.5
t-12.5 33.5z" />
    <glyph glyph-name="uni04EB" unicode="&#x4eb;" horiz-adv-x="432" 
d="M37 250q0 131 46.5 196.5t132.5 65.5q92 0 135.5 -68.5t43.5 -193.5q0 -133 -46.5 -197.5t-132.5 -64.5q-92 0 -135.5 68.5t-43.5 193.5zM320 279q-5 91 -33 129.5t-71 38.5q-20 0 -38 -8.5t-32 -28t-23 -51.5t-11 -80h208zM112 219q3 -85 32.5 -125.5t71.5 -40.5
q19 0 37.5 8t32.5 27.5t23 51t11 79.5h-208zM92 634q0 23 11.5 36t31.5 13t31.5 -13t11.5 -36q0 -21 -11.5 -34t-31.5 -13t-31.5 13t-11.5 34zM251 634q0 23 11.5 36t31.5 13t31.5 -13t11.5 -36q0 -21 -11.5 -34t-31.5 -13t-31.5 13t-11.5 34z" />
    <glyph glyph-name="uni04EC" unicode="&#x4ec;" horiz-adv-x="465" 
d="M118 390h229q-5 127 -53.5 190t-124.5 63q-38 0 -67 -9t-50 -22l-22 62q28 18 66.5 28t80.5 10q55 0 100 -19.5t77 -62.5t50 -112t18 -167q0 -99 -20 -168.5t-55 -112.5t-82 -62.5t-102 -19.5q-41 0 -74.5 7t-56.5 18l21 68q19 -10 50 -17t64 -7q34 0 65.5 14.5t56.5 46
t40.5 82t17.5 123.5h-229v67zM60 794q0 21 12.5 34t34.5 13q21 0 33.5 -13t12.5 -34t-12.5 -33.5t-33.5 -12.5q-22 0 -34.5 12.5t-12.5 33.5zM218 794q0 21 12.5 34t33.5 13q22 0 34.5 -13t12.5 -34t-12.5 -33.5t-34.5 -12.5q-21 0 -33.5 12.5t-12.5 33.5z" />
    <glyph glyph-name="uni04ED" unicode="&#x4ed;" horiz-adv-x="372" 
d="M94 283h166q-3 78 -31.5 121t-80.5 43q-32 0 -56 -9t-39 -20l-25 57q23 17 56 27t76 10q90 0 132.5 -65t42.5 -197q0 -131 -48.5 -196.5t-136.5 -65.5q-77 0 -122 24l20 64q19 -11 45 -17t50 -6q111 0 117 168h-166v62zM38 634q0 23 11.5 36t31.5 13t31.5 -13t11.5 -36
q0 -21 -11.5 -34t-31.5 -13t-31.5 13t-11.5 34zM197 634q0 23 11.5 36t31.5 13t31.5 -13t11.5 -36q0 -21 -11.5 -34t-31.5 -13t-31.5 13t-11.5 34z" />
    <glyph glyph-name="uni04EE" unicode="&#x4ee;" horiz-adv-x="448" 
d="M228 341l19 -89h5l16 92l104 356h77l-143 -455q-22 -70 -38.5 -118t-33 -77t-36.5 -42t-49 -13q-26 0 -43 5t-32 16l22 64q16 -11 29 -13.5t24 -2.5q22 0 37 30.5t26 86.5l-209 519h88zM109 843h259v-62h-259v62z" />
    <glyph glyph-name="uni04EF" unicode="&#x4ef;" horiz-adv-x="376" 
d="M183 177l21 -97h5l15 97l76 323h73l-119 -449q-14 -54 -28 -101t-30.5 -81.5t-37 -54t-48.5 -19.5t-49 9l12 68q14 -5 28 -2t26.5 17t23 41.5t18.5 71.5l-162 500h82zM74 643h243v-60h-243v60z" />
    <glyph glyph-name="uni04F0" unicode="&#x4f0;" horiz-adv-x="448" 
d="M228 341l19 -89h5l16 92l104 356h77l-143 -455q-22 -70 -38.5 -118t-33 -77t-36.5 -42t-49 -13q-26 0 -43 5t-32 16l22 64q16 -11 29 -13.5t24 -2.5q22 0 37 30.5t26 86.5l-209 519h88zM111 794q0 21 12.5 34t34.5 13q21 0 33.5 -13t12.5 -34t-12.5 -33.5t-33.5 -12.5
q-22 0 -34.5 12.5t-12.5 33.5zM269 794q0 21 12.5 34t33.5 13q22 0 34.5 -13t12.5 -34t-12.5 -33.5t-34.5 -12.5q-21 0 -33.5 12.5t-12.5 33.5z" />
    <glyph glyph-name="uni04F1" unicode="&#x4f1;" horiz-adv-x="376" 
d="M183 177l21 -97h5l15 97l76 323h73l-119 -449q-14 -54 -28 -101t-30.5 -81.5t-37 -54t-48.5 -19.5t-49 9l12 68q14 -5 28 -2t26.5 17t23 41.5t18.5 71.5l-162 500h82zM75 634q0 23 11.5 36t31.5 13t31.5 -13t11.5 -36q0 -21 -11.5 -34t-31.5 -13t-31.5 13t-11.5 34z
M234 634q0 23 11.5 36t31.5 13t31.5 -13t11.5 -36q0 -21 -11.5 -34t-31.5 -13t-31.5 13t-11.5 34z" />
    <glyph glyph-name="uni04F2" unicode="&#x4f2;" horiz-adv-x="448" 
d="M228 341l19 -89h5l16 92l104 356h77l-143 -455q-22 -70 -38.5 -118t-33 -77t-36.5 -42t-49 -13q-26 0 -43 5t-32 16l22 64q16 -11 29 -13.5t24 -2.5q22 0 37 30.5t26 86.5l-209 519h88zM190 850h81v-16l-80 -93h-52zM326 850h86v-16l-115 -93h-52z" />
    <glyph glyph-name="uni04F3" unicode="&#x4f3;" horiz-adv-x="376" 
d="M183 177l21 -97h5l15 97l76 323h73l-119 -449q-14 -54 -28 -101t-30.5 -81.5t-37 -54t-48.5 -19.5t-49 9l12 68q14 -5 28 -2t26.5 17t23 41.5t18.5 71.5l-162 500h82zM152 700h69v-16l-58 -113h-39zM275 700h75v-16l-92 -113h-42z" />
    <glyph glyph-name="uni04F4" unicode="&#x4f4;" horiz-adv-x="487" 
d="M130 700v-244q0 -73 25 -101.5t73 -28.5q35 0 67.5 13t52.5 34v327h75v-700h-75v300q-20 -15 -56 -29t-80 -14q-32 0 -60.5 8t-50 28.5t-34 55.5t-12.5 90v261h75zM119 794q0 21 12.5 34t34.5 13q21 0 33.5 -13t12.5 -34t-12.5 -33.5t-33.5 -12.5q-22 0 -34.5 12.5
t-12.5 33.5zM277 794q0 21 12.5 34t33.5 13q22 0 34.5 -13t12.5 -34t-12.5 -33.5t-34.5 -12.5q-21 0 -33.5 12.5t-12.5 33.5z" />
    <glyph glyph-name="uni04F5" unicode="&#x4f5;" horiz-adv-x="396" 
d="M108 500v-146q0 -25 2.5 -45t9.5 -34.5t20 -22t34 -7.5q35 0 57 9t34 20v226h72v-500h-72v210q-12 -9 -37.5 -19.5t-68.5 -10.5q-29 0 -52 7.5t-38.5 24.5t-24 46t-8.5 73v169h72zM64 634q0 23 11.5 36t31.5 13t31.5 -13t11.5 -36q0 -21 -11.5 -34t-31.5 -13t-31.5 13
t-11.5 34zM223 634q0 23 11.5 36t31.5 13t31.5 -13t11.5 -36q0 -21 -11.5 -34t-31.5 -13t-31.5 13t-11.5 34z" />
    <glyph glyph-name="uni04F6" unicode="&#x4f6;" horiz-adv-x="357" 
d="M370 631h-231v-562h76v-198h-52l-12 129h-87v700h306v-69z" />
    <glyph glyph-name="uni04F7" unicode="&#x4f7;" horiz-adv-x="296" 
d="M59 500h238v-65h-166v-370h62v-192h-49l-13 127h-72v500z" />
    <glyph glyph-name="uni04F8" unicode="&#x4f8;" horiz-adv-x="622" 
d="M483 700h75v-700h-75v700zM64 700h75v-272q9 2 30 5.5t41 3.5q39 0 74.5 -9t62.5 -32.5t43 -64.5t16 -104q0 -122 -56.5 -178.5t-157.5 -56.5q-23 0 -59.5 2.5t-68.5 11.5v694zM199 61q60 0 94 39t34 120q0 44 -10 72.5t-27.5 45.5t-41.5 23.5t-52 6.5q-14 0 -31.5 -3
t-25.5 -6v-291q20 -7 60 -7zM182 794q0 21 12.5 34t34.5 13q21 0 33.5 -13t12.5 -34t-12.5 -33.5t-33.5 -12.5q-22 0 -34.5 12.5t-12.5 33.5zM340 794q0 21 12.5 34t33.5 13q22 0 34.5 -13t12.5 -34t-12.5 -33.5t-34.5 -12.5q-21 0 -33.5 12.5t-12.5 33.5z" />
    <glyph glyph-name="uni04F9" unicode="&#x4f9;" horiz-adv-x="538" 
d="M131 65q30 -6 55 -6q48 0 67 25.5t19 73.5q0 45 -18.5 70.5t-65.5 25.5q-13 0 -28 -1.5t-29 -5.5v-182zM131 309q20 4 38 5.5t34 1.5q41 0 69 -11.5t44.5 -31.5t23.5 -47.5t7 -58.5q0 -91 -40.5 -132t-134.5 -41q-58 0 -113 6v500h72v-191zM407 500h72v-500h-72v500z
M141 634q0 23 11.5 36t31.5 13t31.5 -13t11.5 -36q0 -21 -11.5 -34t-31.5 -13t-31.5 13t-11.5 34zM300 634q0 23 11.5 36t31.5 13t31.5 -13t11.5 -36q0 -21 -11.5 -34t-31.5 -13t-31.5 13t-11.5 34z" />
    <glyph glyph-name="uni04FC" unicode="&#x4fc;" horiz-adv-x="498" 
d="M382 -45q0 50 -12.5 87.5t-28.5 69.5l-69 139l-24 62l-21 -62l-124 -251h-84l184 356l-168 344h90l109 -237l20 -59l20 59l115 237h83l-174 -337l109 -215q50 -98 50 -179q0 -102 -35.5 -144t-110.5 -33v65q24 0 38 8t21.5 21.5t9.5 31.5t2 37z" />
    <glyph glyph-name="uni04FD" unicode="&#x4fd;" horiz-adv-x="414" 
d="M331 126q23 -42 36.5 -83t13.5 -79q0 -96 -38 -138.5t-112 -31.5v65q45 -1 61.5 21t16.5 67q0 41 -13 77t-29 65l-36 63l-25 59l-24 -59l-82 -152h-81l142 256l-132 244h88l72 -138l22 -62l23 62l74 138h81l-134 -240z" />
    <glyph glyph-name="uni0510" unicode="&#x510;" horiz-adv-x="447" 
d="M290 333h-17.5t-16.5 -1q-59 -5 -93.5 -34t-34.5 -97q0 -71 36.5 -107.5t98.5 -36.5q34 0 66.5 10.5t49.5 21.5l23 -61q-21 -14 -59.5 -27t-91.5 -13q-92 0 -147 51t-55 158q0 75 31.5 118t86.5 55v4q-26 10 -45 28t-31.5 40.5t-18.5 47.5t-6 50q0 46 14.5 78.5t40 53.5
t59.5 30.5t72 9.5q45 0 84 -10.5t58 -24.5l-21 -64q-22 12 -53 21t-60 9q-54 0 -84.5 -25t-30.5 -85q0 -29 9 -51t24 -38.5t34.5 -27t39.5 -14.5q13 -2 32 -3t33 -1h14v-65h-41z" />
    <glyph glyph-name="uni0511" unicode="&#x511;" horiz-adv-x="353" 
d="M210 225q-54 0 -77.5 -21.5t-23.5 -57.5q0 -38 25 -64t74 -26q30 0 55.5 7.5t42.5 18.5l19 -60q-19 -12 -48.5 -21.5t-71.5 -9.5q-85 0 -126.5 40t-41.5 109q0 51 19.5 80t64.5 44v4q-33 14 -51 44t-18 71q0 62 36.5 93t98.5 31q47 0 79.5 -9.5t57.5 -25.5l-22 -58
q-17 11 -40.5 19.5t-53.5 8.5q-84 0 -84 -76q0 -16 6.5 -30.5t17.5 -25.5t24.5 -17.5t27.5 -6.5h55v-61h-45z" />
    <glyph glyph-name="uni0512" unicode="&#x512;" horiz-adv-x="503" 
d="M439 -28q0 -103 -32.5 -147.5t-107.5 -34.5v65q22 0 35 8t20 25.5t8.5 45t1.5 66.5v631h-158q-8 -201 -21 -336t-40 -208q-18 -48 -42.5 -70t-56.5 -22q-30 0 -50 10l12 68q9 -3 18 -3t18 5t17.5 16t16.5 31q11 27 20.5 72.5t17 115.5t12 166t6.5 224h305v-728z" />
    <glyph glyph-name="uni0513" unicode="&#x513;" horiz-adv-x="407" 
d="M348 500v-529q0 -92 -27.5 -136t-87.5 -43q-6 0 -12 0.5t-13 1.5v63q45 -1 56.5 34.5t11.5 107.5v436h-109q-3 -85 -8 -164.5t-17.5 -140.5t-35.5 -97.5t-61 -36.5q-17 0 -29 2t-22 7l11 63q21 -6 37.5 2.5t28.5 52t19.5 133t10.5 244.5h247z" />
    <glyph glyph-name="uni051C" unicode="&#x51c;" horiz-adv-x="672" 
d="M182 237l12 -117h2l12 119l112 461h43l112 -462l12 -118h1l14 119l89 461h75l-156 -711h-46l-111 461l-14 107h-3l-14 -108l-111 -460h-47l-159 711h81z" />
    <glyph glyph-name="uni051D" unicode="&#x51d;" horiz-adv-x="590" 
d="M326 500l89 -292l18 -96h2l15 98l68 290h68l-133 -511h-41l-101 328l-14 84h-2l-14 -85l-98 -327h-41l-137 511h77l77 -291l12 -97h2l18 99l82 289h53z" />
    <glyph glyph-name="uni0524" unicode="&#x524;" horiz-adv-x="558" 
d="M387 631h-248v-631h-75v700h398v-631h75v-198h-52l-12 129h-86v631z" />
    <glyph glyph-name="uni0525" unicode="&#x525;" horiz-adv-x="448" 
d="M299 435h-168v-435h-72v500h312v-435h61v-192h-49l-13 127h-71v435z" />
    <glyph glyph-name="uni0526" unicode="&#x526;" horiz-adv-x="521" 
d="M357 236q0 71 -23 104.5t-74 33.5q-36 0 -68.5 -12.5t-52.5 -32.5v-329h-75v700h75v-300q21 14 57 28.5t82 14.5q35 0 63.5 -9t48.5 -31.5t31 -59.5t11 -94v-180h73v-198h-52l-12 129h-84v236z" />
    <glyph glyph-name="uni0527" unicode="&#x527;" horiz-adv-x="463" 
d="M387 65h60v-192h-49l-13 127h-70v304q0 70 -16.5 106.5t-65.5 36.5q-35 0 -63.5 -25t-38.5 -63v-359h-72v700h72v-247h3q20 26 49.5 42.5t73.5 16.5q33 0 57.5 -9t40.5 -31t24 -58.5t8 -90.5v-258z" />
    <glyph glyph-name="uni1E30" unicode="&#x1e30;" horiz-adv-x="493" 
d="M175 324h-36v-324h-75v700h75v-326l35 14l182 312h86l-183 -302l-35 -32l41 -40l203 -326h-95zM260 870h99v-21l-131 -97h-61z" />
    <glyph glyph-name="uni1E31" unicode="&#x1e31;" horiz-adv-x="388" 
d="M168 225h-37v-225h-72v700h72v-426l33 14l117 212h83l-118 -202l-35 -32l41 -39l129 -227h-87zM239 720h78v-21l-82 -128h-43z" />
    <glyph glyph-name="uni1E3E" unicode="&#x1e3e;" horiz-adv-x="637" 
d="M498 460l9 106h-4l-32 -99l-141 -304h-25l-148 304l-31 99h-4l14 -106v-460h-72v700h63l169 -344l25 -82h2l24 83l160 343h66v-700h-75v460zM362 870h99v-21l-131 -97h-61z" />
    <glyph glyph-name="uni1E3F" unicode="&#x1e3f;" horiz-adv-x="651" 
d="M293 0v297q0 40 -2.5 68.5t-10.5 46.5t-22 26.5t-37 8.5q-34 0 -57.5 -26.5t-32.5 -60.5v-360h-72v500h51l13 -53h3q21 29 50 47t74 18q38 0 62.5 -16.5t38.5 -58.5q18 35 51.5 55t73.5 20q33 0 56.5 -8.5t38 -30t21.5 -57t7 -89.5v-327h-72v318q0 65 -12.5 97t-57.5 32
q-38 0 -60.5 -23.5t-31.5 -63.5v-360h-72zM343 720h78v-21l-82 -128h-43z" />
    <glyph glyph-name="uni1E54" unicode="&#x1e54;" horiz-adv-x="451" 
d="M64 693q32 9 68 12t71 3q40 0 79 -9t70.5 -33t51 -66t19.5 -107q0 -63 -18.5 -107t-49 -71.5t-70 -40t-81.5 -12.5h-13t-19 0.5t-19.5 1.5t-13.5 2v-266h-75v693zM207 639q-20 0 -38.5 -1.5t-29.5 -4.5v-298q4 -2 12.5 -2.5t17.5 -1t17.5 -0.5h12.5q28 0 54 7t46 25.5
t32.5 50t12.5 79.5q0 42 -11.5 70t-30 45t-43.5 24t-52 7zM257 870h99v-21l-131 -97h-61z" />
    <glyph glyph-name="uni1E55" unicode="&#x1e55;" horiz-adv-x="435" 
d="M59 500h51l11 -54h4q37 66 116 66t118.5 -59t39.5 -193q0 -63 -13 -113.5t-37 -86t-58.5 -54t-76.5 -18.5q-29 0 -46 3.5t-37 14.5v-206h-72v700zM131 79q14 -12 31.5 -19t46.5 -7q53 0 84 54t31 154q0 42 -5.5 76t-17.5 58.5t-30.5 38t-45.5 13.5q-73 0 -94 -89v-279z
M232 720h78v-21l-82 -128h-43z" />
    <glyph glyph-name="uni1E9E" unicode="&#x1e9e;" horiz-adv-x="522" 
d="M345 613q-16 16 -47 24.5t-63 8.5q-34 0 -53 -13.5t-28.5 -36.5t-12 -54t-2.5 -66v-476h-76v502q0 47 8 86t28 66.5t54 42.5t86 15q66 0 115.5 -21t84.5 -53l-125 -207l-27 -29v-2l26 7q78 -2 120 -53t42 -141q0 -108 -48 -166.5t-138 -58.5q-8 0 -22 1t-29 3t-28.5 5.5
t-22.5 9.5l12 67q7 -5 18.5 -9t24 -6t24.5 -3t21 -1q53 0 81 41.5t28 107.5q0 70 -33.5 106.5t-102.5 36.5h-45v54z" />
    <glyph glyph-name="uni2011" unicode="&#x2011;" horiz-adv-x="291" 
d="M47 320h197v-69h-197v69z" />
    <glyph glyph-name="endash" unicode="&#x2013;" horiz-adv-x="530" 
d="M93 322h344v-69h-344v69z" />
    <glyph glyph-name="emdash" unicode="&#x2014;" horiz-adv-x="662" 
d="M95 322h472v-69h-472v69z" />
    <glyph glyph-name="quoteleft" unicode="&#x2018;" horiz-adv-x="162" 
d="M130 620q0 -23 -12.5 -36.5t-32.5 -13.5q-23 0 -38.5 17t-15.5 52q0 33 8.5 57t20.5 41t24.5 27t21.5 15l23 -33q-17 -12 -29.5 -32t-11.5 -47q19 3 30.5 -10.5t11.5 -36.5z" />
    <glyph glyph-name="quoteright" unicode="&#x2019;" horiz-adv-x="162" 
d="M31 659q0 23 13 36t33 13q24 0 39 -16.5t15 -50.5q0 -32 -8 -56t-19.5 -40.5t-24.5 -27t-22 -15.5l-23 30q17 11 29.5 31.5t11.5 47.5q-18 -3 -31 10t-13 38z" />
    <glyph glyph-name="quotesinglbase" unicode="&#x201a;" horiz-adv-x="162" 
d="M31 50q0 23 13 36t33 13q24 0 39 -16.5t15 -50.5q0 -32 -8 -56t-19.5 -40.5t-24.5 -27t-22 -15.5l-23 30q17 11 29.5 31.5t11.5 47.5q-18 -3 -31 10t-13 38z" />
    <glyph glyph-name="quotedblleft" unicode="&#x201c;" horiz-adv-x="288" 
d="M256 620q0 -23 -12.5 -36.5t-32.5 -13.5q-23 0 -38.5 17t-15.5 52q0 33 8.5 57t20.5 41t24.5 27t21.5 15l23 -33q-17 -12 -29.5 -32t-11.5 -47q19 3 30.5 -10.5t11.5 -36.5zM130 620q0 -23 -12.5 -36.5t-32.5 -13.5q-23 0 -38.5 17t-15.5 52q0 33 8.5 57t20.5 41t24.5 27
t21.5 15l23 -33q-17 -12 -29.5 -32t-11.5 -47q19 3 30.5 -10.5t11.5 -36.5z" />
    <glyph glyph-name="quotedblright" unicode="&#x201d;" horiz-adv-x="288" 
d="M157 659q0 23 13 36t33 13q24 0 39 -16.5t15 -50.5q0 -32 -8 -56t-19.5 -40.5t-24.5 -27t-22 -15.5l-23 30q17 11 29.5 31.5t11.5 47.5q-18 -3 -31 10t-13 38zM31 659q0 23 13 36t33 13q24 0 39 -16.5t15 -50.5q0 -32 -8 -56t-19.5 -40.5t-24.5 -27t-22 -15.5l-23 30
q17 11 29.5 31.5t11.5 47.5q-18 -3 -31 10t-13 38z" />
    <glyph glyph-name="quotedblbase" unicode="&#x201e;" horiz-adv-x="288" 
d="M157 50q0 23 13 36t33 13q24 0 39 -16.5t15 -50.5q0 -32 -8 -56t-19.5 -40.5t-24.5 -27t-22 -15.5l-23 30q17 11 29.5 31.5t11.5 47.5q-18 -3 -31 10t-13 38zM31 50q0 23 13 36t33 13q24 0 39 -16.5t15 -50.5q0 -32 -8 -56t-19.5 -40.5t-24.5 -27t-22 -15.5l-23 30
q17 11 29.5 31.5t11.5 47.5q-18 -3 -31 10t-13 38z" />
    <glyph glyph-name="dagger" unicode="&#x2020;" horiz-adv-x="394" 
d="M32 499h103l36 -11l-10 47v165h72v-165l-10 -47l36 11h103v-65h-104l-35 11l10 -43v-402l-13 -200h-47l-12 201v401l10 43l-36 -11h-103v65z" />
    <glyph glyph-name="daggerdbl" unicode="&#x2021;" horiz-adv-x="394" 
d="M161 403l10 42l-36 -11h-103v65h103l36 -11l-10 46v166h72v-166l-10 -46l36 11h103v-65h-104l-35 11l10 -42v-130l-10 -42l35 11h104v-65h-103l-36 11l10 -46v-142l-13 -200h-46l-13 201v141l10 46l-36 -11h-103v65h103l36 -11l-10 42v130z" />
    <glyph glyph-name="bullet" unicode="&#x2022;" horiz-adv-x="363" 
d="M68 311q0 63 31.5 101t82.5 38q50 0 82 -36.5t32 -102.5t-32 -102.5t-82 -36.5q-51 0 -82.5 36.5t-31.5 102.5z" />
    <glyph glyph-name="ellipsis" unicode="&#x2026;" horiz-adv-x="657" 
d="M508 45q0 28 13.5 42t36.5 14t36.5 -14t13.5 -42q0 -29 -13.5 -43t-36.5 -14t-36.5 14t-13.5 43zM284 45q0 28 13.5 42t36.5 14t36.5 -14t13.5 -42q0 -29 -13.5 -43t-36.5 -14t-36.5 14t-13.5 43zM61 45q0 28 13.5 42t36.5 14t36.5 -14t13.5 -42q0 -29 -13.5 -43
t-36.5 -14t-36.5 14t-13.5 43z" />
    <glyph glyph-name="perthousand" unicode="&#x2030;" horiz-adv-x="948" 
d="M55 542q0 46 9.5 78.5t27 53t41 29.5t50.5 9t50.5 -8.5t41 -28t27 -52.5t9.5 -81t-9.5 -81t-27 -52.5t-41 -28t-50.5 -8.5t-50.5 8.5t-41 28t-27 52.5t-9.5 81zM120 542q0 -65 17.5 -90t45.5 -25q14 0 25.5 5t19.5 17.5t12.5 35t4.5 57.5q0 34 -4.5 56.5t-12.5 35.5
t-19.5 18t-25.5 5q-15 0 -26.5 -5t-19.5 -18t-12.5 -35.5t-4.5 -56.5zM353 171q0 46 9.5 78.5t27 53t41 29.5t50.5 9t50.5 -8.5t41 -28t27 -52.5t9.5 -81t-9.5 -81t-27 -52.5t-41 -28t-50.5 -8.5t-50.5 8.5t-41 28t-27 52.5t-9.5 81zM418 171q0 -65 17.5 -90t45.5 -25
q14 0 25.5 5t19.5 17.5t12.5 35t4.5 57.5q0 34 -4.5 56.5t-12.5 35.5t-19.5 18t-25.5 5q-15 0 -26.5 -5t-19.5 -18t-12.5 -35.5t-4.5 -56.5zM649 171q0 46 9.5 78.5t27 53t41 29.5t50.5 9t50.5 -8.5t41 -28t27 -52.5t9.5 -81t-9.5 -81t-27 -52.5t-41 -28t-50.5 -8.5
t-50.5 8.5t-41 28t-27 52.5t-9.5 81zM714 171q0 -65 17.5 -90t45.5 -25q14 0 25.5 5t19.5 17.5t12.5 35t4.5 57.5q0 34 -4.5 56.5t-12.5 35.5t-19.5 18t-25.5 5q-15 0 -26.5 -5t-19.5 -18t-12.5 -35.5t-4.5 -56.5zM521 713l47 -30l-426 -695l-47 30z" />
    <glyph glyph-name="guilsinglleft" unicode="&#x2039;" horiz-adv-x="241" 
d="M29 259l129 230l50 -33l-82 -155l-38 -41l38 -36l87 -152l-50 -34z" />
    <glyph glyph-name="guilsinglright" unicode="&#x203a;" horiz-adv-x="242" 
d="M212 268l-128 -230l-50 33l81 155l39 41l-39 36l-87 151l51 35z" />
    <glyph glyph-name="fraction" unicode="&#x2044;" horiz-adv-x="149" 
d="M243 713l49 -27l-384 -698l-50 28z" />
    <glyph glyph-name="uni2081" unicode="&#x2081;" horiz-adv-x="330" 
d="M64 -43h84v257l6 36l-23 -28l-59 -40l-27 42l125 103h41v-370h75v-57h-222v57z" />
    <glyph glyph-name="uni2082" unicode="&#x2082;" horiz-adv-x="330" 
d="M267 215q0 -32 -8.5 -62.5t-23 -60t-34 -58t-40.5 -56.5l-37 -32v-2l46 15h112v-59h-238v32q21 21 48.5 53.5t52.5 69.5t42 76t17 74q0 30 -15.5 46t-38.5 16q-22 0 -42.5 -7t-34.5 -17l-20 52q20 16 49.5 24t58.5 8q51 0 78.5 -29t27.5 -83z" />
    <glyph glyph-name="uni2083" unicode="&#x2083;" horiz-adv-x="330" 
d="M141 -50q38 0 57.5 20.5t18.5 57.5q1 32 -16.5 52t-58.5 20h-44v23l77 119l29 27l-41 -6h-105v57h211v-32l-82 -126l-21 -17v-3l20 3q45 0 70.5 -31.5t24.5 -85.5q1 -61 -36.5 -98t-97.5 -37q-29 0 -51 5t-39 13l13 56q15 -8 32.5 -12.5t38.5 -4.5z" />
    <glyph glyph-name="uni2084" unicode="&#x2084;" horiz-adv-x="330" 
d="M315 -4h-65v-96h-61v96h-165v34l181 300h45v-278h65v-56zM189 177l7 53h-4l-18 -50l-59 -102l-27 -30l41 4h60v125z" />
    <glyph glyph-name="Euro" unicode="&#x20ac;" 
d="M28 453h50q10 73 31 121t51 78.5t66.5 45t77.5 14.5t70.5 -5.5t52.5 -16.5l-20 -66q-19 9 -43 14t-58 5q-27 0 -51 -10t-44 -31.5t-35 -56.5t-23 -92h223l-15 -63h-214q-1 -8 -1 -20v-20v-16t1 -15h198l-15 -62h-178q14 -105 56 -152.5t108 -47.5q63 0 102 28l17 -60
q-24 -20 -60 -28.5t-73 -8.5q-92 0 -151 63t-75 206h-64l16 62h43v31v20t1 20h-60z" />
    <glyph glyph-name="uni20B4" unicode="&#x20b4;" 
d="M376 317v-62h-183q-17 -21 -32 -56.5t-15 -67.5q0 -35 21 -56.5t72 -21.5q38 0 62.5 7.5t43.5 20.5l22 -59q-18 -14 -51.5 -24t-90.5 -10q-77 0 -115.5 35t-38.5 98q0 19 5 39.5t12 39t15 33t13 22.5h-75v62h335zM41 388v62h188q20 26 32.5 60t12.5 65q0 35 -18.5 53.5
t-62.5 18.5q-32 0 -53.5 -8t-40.5 -19l-24 62q24 14 52.5 22t79.5 8q139 0 139 -125q0 -38 -13 -74.5t-30 -62.5h73v-62h-335z" />
    <glyph glyph-name="uni20B6" unicode="&#x20b6;" 
d="M29 334h59v359q31 9 66.5 12t70.5 3q38 0 74.5 -9t64.5 -33t45 -65t17 -105q0 -63 -17.5 -105.5t-46.5 -68.5t-66.5 -37t-77.5 -11l-57 -1v-71h133v-60h-133v-142h-73v142h-59v60h59v72h-59v60zM161 337h57q24 0 47.5 6.5t42 24.5t30 48.5t11.5 78.5q0 41 -9.5 69
t-26 45.5t-38.5 25t-47 7.5q-20 0 -38 -1t-29 -4v-300z" />
    <glyph glyph-name="uni20B7" unicode="&#x20b7;" 
d="M29 334h59v359q31 9 66.5 12t70.5 3q38 0 74.5 -9t64.5 -33t45 -65t17 -105q0 -63 -17.5 -105.5t-46.5 -68.5t-66.5 -37t-77.5 -11l-57 -1v-71h133v-60h-133v-142h-73v142h-59v60h59v72h-59v60zM161 337h57q24 0 47.5 6.5t42 24.5t30 48.5t11.5 78.5q0 41 -9.5 69
t-26 45.5t-38.5 25t-47 7.5q-20 0 -38 -1t-29 -4v-300z" />
    <glyph glyph-name="uni20B9" unicode="&#x20b9;" 
d="M29 334h59v359q31 9 66.5 12t70.5 3q38 0 74.5 -9t64.5 -33t45 -65t17 -105q0 -63 -17.5 -105.5t-46.5 -68.5t-66.5 -37t-77.5 -11l-57 -1v-71h133v-60h-133v-142h-73v142h-59v60h59v72h-59v60zM161 337h57q24 0 47.5 6.5t42 24.5t30 48.5t11.5 78.5q0 41 -9.5 69
t-26 45.5t-38.5 25t-47 7.5q-20 0 -38 -1t-29 -4v-300z" />
    <glyph glyph-name="uni20BA" unicode="&#x20ba;" 
d="M29 334h59v359q31 9 66.5 12t70.5 3q38 0 74.5 -9t64.5 -33t45 -65t17 -105q0 -63 -17.5 -105.5t-46.5 -68.5t-66.5 -37t-77.5 -11l-57 -1v-71h133v-60h-133v-142h-73v142h-59v60h59v72h-59v60zM161 337h57q24 0 47.5 6.5t42 24.5t30 48.5t11.5 78.5q0 41 -9.5 69
t-26 45.5t-38.5 25t-47 7.5q-20 0 -38 -1t-29 -4v-300z" />
    <glyph glyph-name="uni20BB" unicode="&#x20bb;" 
d="M29 334h59v359q31 9 66.5 12t70.5 3q38 0 74.5 -9t64.5 -33t45 -65t17 -105q0 -63 -17.5 -105.5t-46.5 -68.5t-66.5 -37t-77.5 -11l-57 -1v-71h133v-60h-133v-142h-73v142h-59v60h59v72h-59v60zM161 337h57q24 0 47.5 6.5t42 24.5t30 48.5t11.5 78.5q0 41 -9.5 69
t-26 45.5t-38.5 25t-47 7.5q-20 0 -38 -1t-29 -4v-300z" />
    <glyph glyph-name="uni20BC" unicode="&#x20bc;" 
d="M29 334h59v359q31 9 66.5 12t70.5 3q38 0 74.5 -9t64.5 -33t45 -65t17 -105q0 -63 -17.5 -105.5t-46.5 -68.5t-66.5 -37t-77.5 -11l-57 -1v-71h133v-60h-133v-142h-73v142h-59v60h59v72h-59v60zM161 337h57q24 0 47.5 6.5t42 24.5t30 48.5t11.5 78.5q0 41 -9.5 69
t-26 45.5t-38.5 25t-47 7.5q-20 0 -38 -1t-29 -4v-300z" />
    <glyph glyph-name="uni20BD" unicode="&#x20bd;" 
d="M29 334h59v359q31 9 66.5 12t70.5 3q38 0 74.5 -9t64.5 -33t45 -65t17 -105q0 -63 -17.5 -105.5t-46.5 -68.5t-66.5 -37t-77.5 -11l-57 -1v-71h133v-60h-133v-142h-73v142h-59v60h59v72h-59v60zM161 337h57q24 0 47.5 6.5t42 24.5t30 48.5t11.5 78.5q0 41 -9.5 69
t-26 45.5t-38.5 25t-47 7.5q-20 0 -38 -1t-29 -4v-300z" />
    <glyph glyph-name="uni20BE" unicode="&#x20be;" 
d="M29 334h59v359q31 9 66.5 12t70.5 3q38 0 74.5 -9t64.5 -33t45 -65t17 -105q0 -63 -17.5 -105.5t-46.5 -68.5t-66.5 -37t-77.5 -11l-57 -1v-71h133v-60h-133v-142h-73v142h-59v60h59v72h-59v60zM161 337h57q24 0 47.5 6.5t42 24.5t30 48.5t11.5 78.5q0 41 -9.5 69
t-26 45.5t-38.5 25t-47 7.5q-20 0 -38 -1t-29 -4v-300z" />
    <glyph glyph-name="uni20BF" unicode="&#x20bf;" 
d="M29 334h59v359q31 9 66.5 12t70.5 3q38 0 74.5 -9t64.5 -33t45 -65t17 -105q0 -63 -17.5 -105.5t-46.5 -68.5t-66.5 -37t-77.5 -11l-57 -1v-71h133v-60h-133v-142h-73v142h-59v60h59v72h-59v60zM161 337h57q24 0 47.5 6.5t42 24.5t30 48.5t11.5 78.5q0 41 -9.5 69
t-26 45.5t-38.5 25t-47 7.5q-20 0 -38 -1t-29 -4v-300z" />
    <glyph glyph-name="uni20C0" unicode="&#x20c0;" 
d="M29 334h59v359q31 9 66.5 12t70.5 3q38 0 74.5 -9t64.5 -33t45 -65t17 -105q0 -63 -17.5 -105.5t-46.5 -68.5t-66.5 -37t-77.5 -11l-57 -1v-71h133v-60h-133v-142h-73v142h-59v60h59v72h-59v60zM161 337h57q24 0 47.5 6.5t42 24.5t30 48.5t11.5 78.5q0 41 -9.5 69
t-26 45.5t-38.5 25t-47 7.5q-20 0 -38 -1t-29 -4v-300z" />
    <glyph glyph-name="uni20C1" unicode="&#x20c1;" 
d="M29 334h59v359q31 9 66.5 12t70.5 3q38 0 74.5 -9t64.5 -33t45 -65t17 -105q0 -63 -17.5 -105.5t-46.5 -68.5t-66.5 -37t-77.5 -11l-57 -1v-71h133v-60h-133v-142h-73v142h-59v60h59v72h-59v60zM161 337h57q24 0 47.5 6.5t42 24.5t30 48.5t11.5 78.5q0 41 -9.5 69
t-26 45.5t-38.5 25t-47 7.5q-20 0 -38 -1t-29 -4v-300z" />
    <glyph glyph-name="uni20C2" unicode="&#x20c2;" 
d="M29 334h59v359q31 9 66.5 12t70.5 3q38 0 74.5 -9t64.5 -33t45 -65t17 -105q0 -63 -17.5 -105.5t-46.5 -68.5t-66.5 -37t-77.5 -11l-57 -1v-71h133v-60h-133v-142h-73v142h-59v60h59v72h-59v60zM161 337h57q24 0 47.5 6.5t42 24.5t30 48.5t11.5 78.5q0 41 -9.5 69
t-26 45.5t-38.5 25t-47 7.5q-20 0 -38 -1t-29 -4v-300z" />
    <glyph glyph-name="uni20C3" unicode="&#x20c3;" 
d="M29 334h59v359q31 9 66.5 12t70.5 3q38 0 74.5 -9t64.5 -33t45 -65t17 -105q0 -63 -17.5 -105.5t-46.5 -68.5t-66.5 -37t-77.5 -11l-57 -1v-71h133v-60h-133v-142h-73v142h-59v60h59v72h-59v60zM161 337h57q24 0 47.5 6.5t42 24.5t30 48.5t11.5 78.5q0 41 -9.5 69
t-26 45.5t-38.5 25t-47 7.5q-20 0 -38 -1t-29 -4v-300z" />
    <glyph glyph-name="uni20C4" unicode="&#x20c4;" 
d="M29 334h59v359q31 9 66.5 12t70.5 3q38 0 74.5 -9t64.5 -33t45 -65t17 -105q0 -63 -17.5 -105.5t-46.5 -68.5t-66.5 -37t-77.5 -11l-57 -1v-71h133v-60h-133v-142h-73v142h-59v60h59v72h-59v60zM161 337h57q24 0 47.5 6.5t42 24.5t30 48.5t11.5 78.5q0 41 -9.5 69
t-26 45.5t-38.5 25t-47 7.5q-20 0 -38 -1t-29 -4v-300z" />
    <glyph glyph-name="uni20C5" unicode="&#x20c5;" 
d="M29 334h59v359q31 9 66.5 12t70.5 3q38 0 74.5 -9t64.5 -33t45 -65t17 -105q0 -63 -17.5 -105.5t-46.5 -68.5t-66.5 -37t-77.5 -11l-57 -1v-71h133v-60h-133v-142h-73v142h-59v60h59v72h-59v60zM161 337h57q24 0 47.5 6.5t42 24.5t30 48.5t11.5 78.5q0 41 -9.5 69
t-26 45.5t-38.5 25t-47 7.5q-20 0 -38 -1t-29 -4v-300z" />
    <glyph glyph-name="uni20C6" unicode="&#x20c6;" 
d="M29 334h59v359q31 9 66.5 12t70.5 3q38 0 74.5 -9t64.5 -33t45 -65t17 -105q0 -63 -17.5 -105.5t-46.5 -68.5t-66.5 -37t-77.5 -11l-57 -1v-71h133v-60h-133v-142h-73v142h-59v60h59v72h-59v60zM161 337h57q24 0 47.5 6.5t42 24.5t30 48.5t11.5 78.5q0 41 -9.5 69
t-26 45.5t-38.5 25t-47 7.5q-20 0 -38 -1t-29 -4v-300z" />
    <glyph glyph-name="uni20C7" unicode="&#x20c7;" 
d="M29 334h59v359q31 9 66.5 12t70.5 3q38 0 74.5 -9t64.5 -33t45 -65t17 -105q0 -63 -17.5 -105.5t-46.5 -68.5t-66.5 -37t-77.5 -11l-57 -1v-71h133v-60h-133v-142h-73v142h-59v60h59v72h-59v60zM161 337h57q24 0 47.5 6.5t42 24.5t30 48.5t11.5 78.5q0 41 -9.5 69
t-26 45.5t-38.5 25t-47 7.5q-20 0 -38 -1t-29 -4v-300z" />
    <glyph glyph-name="uni20C8" unicode="&#x20c8;" 
d="M29 334h59v359q31 9 66.5 12t70.5 3q38 0 74.5 -9t64.5 -33t45 -65t17 -105q0 -63 -17.5 -105.5t-46.5 -68.5t-66.5 -37t-77.5 -11l-57 -1v-71h133v-60h-133v-142h-73v142h-59v60h59v72h-59v60zM161 337h57q24 0 47.5 6.5t42 24.5t30 48.5t11.5 78.5q0 41 -9.5 69
t-26 45.5t-38.5 25t-47 7.5q-20 0 -38 -1t-29 -4v-300z" />
    <glyph glyph-name="uni20C9" unicode="&#x20c9;" 
d="M29 334h59v359q31 9 66.5 12t70.5 3q38 0 74.5 -9t64.5 -33t45 -65t17 -105q0 -63 -17.5 -105.5t-46.5 -68.5t-66.5 -37t-77.5 -11l-57 -1v-71h133v-60h-133v-142h-73v142h-59v60h59v72h-59v60zM161 337h57q24 0 47.5 6.5t42 24.5t30 48.5t11.5 78.5q0 41 -9.5 69
t-26 45.5t-38.5 25t-47 7.5q-20 0 -38 -1t-29 -4v-300z" />
    <glyph glyph-name="uni20CA" unicode="&#x20ca;" 
d="M29 334h59v359q31 9 66.5 12t70.5 3q38 0 74.5 -9t64.5 -33t45 -65t17 -105q0 -63 -17.5 -105.5t-46.5 -68.5t-66.5 -37t-77.5 -11l-57 -1v-71h133v-60h-133v-142h-73v142h-59v60h59v72h-59v60zM161 337h57q24 0 47.5 6.5t42 24.5t30 48.5t11.5 78.5q0 41 -9.5 69
t-26 45.5t-38.5 25t-47 7.5q-20 0 -38 -1t-29 -4v-300z" />
    <glyph glyph-name="uni20CB" unicode="&#x20cb;" 
d="M29 334h59v359q31 9 66.5 12t70.5 3q38 0 74.5 -9t64.5 -33t45 -65t17 -105q0 -63 -17.5 -105.5t-46.5 -68.5t-66.5 -37t-77.5 -11l-57 -1v-71h133v-60h-133v-142h-73v142h-59v60h59v72h-59v60zM161 337h57q24 0 47.5 6.5t42 24.5t30 48.5t11.5 78.5q0 41 -9.5 69
t-26 45.5t-38.5 25t-47 7.5q-20 0 -38 -1t-29 -4v-300z" />
    <glyph glyph-name="uni20CC" unicode="&#x20cc;" 
d="M29 334h59v359q31 9 66.5 12t70.5 3q38 0 74.5 -9t64.5 -33t45 -65t17 -105q0 -63 -17.5 -105.5t-46.5 -68.5t-66.5 -37t-77.5 -11l-57 -1v-71h133v-60h-133v-142h-73v142h-59v60h59v72h-59v60zM161 337h57q24 0 47.5 6.5t42 24.5t30 48.5t11.5 78.5q0 41 -9.5 69
t-26 45.5t-38.5 25t-47 7.5q-20 0 -38 -1t-29 -4v-300z" />
    <glyph glyph-name="uni20CD" unicode="&#x20cd;" 
d="M29 334h59v359q31 9 66.5 12t70.5 3q38 0 74.5 -9t64.5 -33t45 -65t17 -105q0 -63 -17.5 -105.5t-46.5 -68.5t-66.5 -37t-77.5 -11l-57 -1v-71h133v-60h-133v-142h-73v142h-59v60h59v72h-59v60zM161 337h57q24 0 47.5 6.5t42 24.5t30 48.5t11.5 78.5q0 41 -9.5 69
t-26 45.5t-38.5 25t-47 7.5q-20 0 -38 -1t-29 -4v-300z" />
    <glyph glyph-name="uni20CE" unicode="&#x20ce;" 
d="M29 334h59v359q31 9 66.5 12t70.5 3q38 0 74.5 -9t64.5 -33t45 -65t17 -105q0 -63 -17.5 -105.5t-46.5 -68.5t-66.5 -37t-77.5 -11l-57 -1v-71h133v-60h-133v-142h-73v142h-59v60h59v72h-59v60zM161 337h57q24 0 47.5 6.5t42 24.5t30 48.5t11.5 78.5q0 41 -9.5 69
t-26 45.5t-38.5 25t-47 7.5q-20 0 -38 -1t-29 -4v-300z" />
    <glyph glyph-name="uni20CF" unicode="&#x20cf;" 
d="M29 334h59v359q31 9 66.5 12t70.5 3q38 0 74.5 -9t64.5 -33t45 -65t17 -105q0 -63 -17.5 -105.5t-46.5 -68.5t-66.5 -37t-77.5 -11l-57 -1v-71h133v-60h-133v-142h-73v142h-59v60h59v72h-59v60zM161 337h57q24 0 47.5 6.5t42 24.5t30 48.5t11.5 78.5q0 41 -9.5 69
t-26 45.5t-38.5 25t-47 7.5q-20 0 -38 -1t-29 -4v-300z" />
    <glyph glyph-name="afii61289" unicode="&#x2113;" horiz-adv-x="500" 
d="M406 30q-22 -14 -57.5 -28t-70.5 -14q-63 0 -91.5 30.5t-28.5 95.5v104l-50 -44l-35 44l85 74v254q0 44 10 75.5t27.5 51.5t41 29.5t50.5 9.5q48 0 79 -29.5t31 -89.5q0 -74 -40 -157t-131 -171v-140q0 -44 17 -60.5t41 -16.5q25 0 55 10.5t50 21.5zM333 588q0 34 -14 49
t-32 15q-12 0 -23 -3.5t-19.5 -14t-13.5 -29t-5 -48.5v-212q56 65 81.5 125.5t25.5 117.5z" />
    <glyph glyph-name="afii61352" unicode="&#x2116;" horiz-adv-x="825" 
d="M535 312h230v-67h-230v67zM169 447l-42 115h-4l12 -110v-452h-72v711h45l247 -457l42 -110h4l-13 105v451h72v-711h-45zM520 542q0 46 9.5 78.5t27 53t41 29.5t49.5 9q27 0 50.5 -8.5t41 -28t27 -52.5t9.5 -81t-9.5 -81t-27 -52.5t-41 -28t-50.5 -8.5q-26 0 -49.5 8.5
t-41 28t-27 52.5t-9.5 81zM585 542q0 -65 17.5 -90t44.5 -25q14 0 25.5 5t20 17.5t13 35t4.5 57.5q0 34 -4.5 56.5t-13 35.5t-20 18t-25.5 5t-25.5 -5t-19.5 -18t-12.5 -35.5t-4.5 -56.5z" />
    <glyph glyph-name="trademark" unicode="&#x2122;" horiz-adv-x="731" 
d="M319 635h-106v-295h-72v295h-106v65h284v-65zM629 507l10 103h-4l-31 -85l-67 -140h-34l-68 139l-29 86h-4l13 -102v-168h-65v360h71l82 -167l22 -58l24 60l75 165h72v-360h-67v167z" />
    <glyph glyph-name="estimated" unicode="&#x212e;" horiz-adv-x="600" 
d="M157 259v-181q62 -59 145 -59q124 0 193 120l35 -21q-43 -66 -99 -100.5t-129 -34.5q-59 0 -107 21.5t-81.5 58.5t-51.5 87.5t-18 108.5q0 59 18.5 109.5t52.5 87.5t81.5 58t105.5 21q62 0 109.5 -22t80.5 -59.5t50 -87.5t19 -107h-404zM448 295v145q-63 60 -147 60
q-86 0 -144 -60v-145h291z" />
    <glyph glyph-name="partialdiff" unicode="&#x2202;" horiz-adv-x="416" 
d="M233 510q32 0 49 -7t31 -20h4q-3 49 -20.5 82t-43.5 52.5t-57 26.5t-61 5l13 63q56 1 101 -13.5t77 -50t49 -94t17 -146.5q0 -111 -16 -190.5t-44.5 -130.5t-67.5 -75t-86 -24q-78 0 -118.5 51t-40.5 145q0 65 13.5 124t40.5 104t67 71.5t93 26.5zM231 445q-28 0 -53 -18
t-43.5 -52.5t-29.5 -84t-11 -112.5q0 -24 5 -46.5t16 -40t28 -28t41 -10.5q39 0 64.5 32t40.5 83t21.5 113.5t6.5 123.5q-15 19 -34.5 29.5t-51.5 10.5z" />
    <glyph glyph-name="product" unicode="&#x220f;" horiz-adv-x="541" 
d="M402 631h-263v-831h-75v900h413v-900h-75v831z" />
    <glyph glyph-name="summation" unicode="&#x2211;" horiz-adv-x="415" 
d="M112 -95l-32 -36h306v-69h-370v69l177 351l28 30l-29 32l-176 349v69h370v-69h-302l35 -36l168 -339z" />
    <glyph glyph-name="minus" unicode="&#x2212;" horiz-adv-x="415" 
d="M35 373h344v-67h-344v67z" />
    <glyph glyph-name="uni2215" unicode="&#x2215;" horiz-adv-x="415" 
d="M376 713l49 -27l-384 -698l-50 28z" />
    <glyph glyph-name="radical" unicode="&#x221a;" horiz-adv-x="415" 
d="M138 446l70 -210l20 -131h2l15 133l116 462h67l-182 -711h-32l-128 392h-92v65h144z" />
    <glyph glyph-name="infinity" unicode="&#x221e;" horiz-adv-x="695" 
d="M343 286q-29 -59 -71 -91t-90 -32q-29 0 -54.5 12.5t-44.5 36.5t-30 58t-11 76q0 90 40 141.5t106 51.5q58 0 98.5 -32t65.5 -81q35 61 77.5 87t91.5 26q59 0 95.5 -48t36.5 -134q0 -92 -40.5 -143t-106.5 -51q-29 0 -53.5 10t-44.5 27t-36.5 39t-28.5 47zM507 228
q33 0 54.5 35.5t21.5 91.5q0 22 -4.5 43.5t-13.5 38t-24 27t-36 10.5q-33 0 -65.5 -27.5t-60.5 -75.5q10 -27 23 -52.5t29.5 -46t35.5 -32.5t40 -12zM189 474q-17 0 -31 -10t-24.5 -27.5t-16 -40t-5.5 -47.5t5.5 -47t16.5 -38.5t27 -26t36 -9.5q18 0 34.5 10t32 25.5
t29 35.5t24.5 41q-11 28 -24.5 52.5t-29 42.5t-34.5 28.5t-40 10.5z" />
    <glyph glyph-name="integral" unicode="&#x222b;" horiz-adv-x="284" 
d="M178 -58q0 -78 -28 -114t-86 -36q-30 0 -56.5 5.5t-45.5 14.5l19 61q36 -16 71 -16q32 0 43 24t11 84v597q0 78 26.5 114t86.5 36q28 0 54 -5.5t46 -14.5l-19 -60q-17 8 -34 11.5t-37 3.5q-30 0 -40.5 -23.5t-10.5 -82.5v-599z" />
    <glyph glyph-name="approxequal" unicode="&#x2248;" horiz-adv-x="415" 
d="M23 444q36 33 65 46t54 13q23 0 43 -8.5t38 -18t35.5 -18t35.5 -8.5q14 0 30 7t33 26l34 -60q-32 -27 -57 -37.5t-46 -10.5q-22 0 -40.5 8.5t-36 19t-35 19t-36.5 8.5q-18 0 -38.5 -10t-45.5 -35zM23 278q36 33 65 46t54 13q23 0 43 -8.5t38 -18t35.5 -18t35.5 -8.5
q14 0 30 7t33 26l34 -60q-32 -27 -57 -37.5t-46 -10.5q-22 0 -40.5 8.5t-36 19t-35 19t-36.5 8.5q-18 0 -38.5 -10t-45.5 -35z" />
    <glyph glyph-name="notequal" unicode="&#x2260;" horiz-adv-x="412" 
d="M33 456h181l49 138h66l-50 -138h98v-67h-122l-36 -99h158v-67h-182l-56 -157h-64l56 157h-98v67h122l35 99h-157v67z" />
    <glyph glyph-name="lessequal" unicode="&#x2264;" horiz-adv-x="415" 
d="M375 82l-38 -55l-291 204l38 55zM32 426v29l300 223l39 -54l-191 -145l-74 -38l73 -32l196 -144l-38 -54z" />
    <glyph glyph-name="greaterequal" unicode="&#x2265;" horiz-adv-x="415" 
d="M372 234l-290 -207l-40 54l291 207zM376 463v-29l-300 -223l-39 54l191 145l74 38l-73 32l-196 144l38 54z" />
    <glyph glyph-name="lozenge" unicode="&#x25ca;" horiz-adv-x="415" 
d="M222 -11h-33l-160 353l160 369h33l163 -364zM233 164l79 173l-85 192l-22 90h-2l-22 -92l-79 -174l85 -191l23 -91h1z" />
    <glyph glyph-name="uni2C67" unicode="&#x2c67;" horiz-adv-x="568" 
d="M397 323h-258v-323h-75v700h75v-308h258v308h75v-631h74v-198h-52l-12 129h-85v323z" />
    <glyph glyph-name="uni2C68" unicode="&#x2c68;" horiz-adv-x="467" 
d="M387 65h60v-192h-49l-13 127h-70v304q0 70 -16.5 106.5t-65.5 36.5q-35 0 -63.5 -25t-38.5 -63v-359h-72v700h72v-247h3q20 26 49.5 42.5t73.5 16.5q33 0 57.5 -9t40.5 -31t24 -58.5t8 -90.5v-258z" />
    <glyph glyph-name="uniF401" unicode="&#xf401;" horiz-adv-x="2" 
d="M-301 870h99v-21l-131 -97h-61z" />
    <glyph glyph-name="uniF406" unicode="&#xf406;" horiz-adv-x="405" 
d="M98 871q14 -34 42 -55t66 -21q39 0 64.5 22.5t38.5 53.5l36 -16q-15 -63 -54.5 -94t-85.5 -31q-43 0 -84.5 29t-60.5 92z" />
    <glyph glyph-name="uniF407" unicode="&#xf407;" horiz-adv-x="262" 
d="M137 -43q65 -15 65 -75q0 -23 -10 -42t-29 -31t-45 -15.5t-58 2.5l6 48q38 -6 53.5 1.5t15.5 27.5q0 28 -69 37l40 90h50z" />
    <glyph glyph-name="uniF408" unicode="&#xf408;" horiz-adv-x="379" 
d="M167 870h50l102 -102v-21h-66l-47 49l-15 35l-15 -34l-52 -50h-64v22z" />
    <glyph glyph-name="uniF409" unicode="&#xf409;" horiz-adv-x="219" 
d="M61 -102q0 21 13 34t31 13q22 0 38 -17t16 -58q0 -26 -7.5 -45.5t-18 -34t-22 -23t-20.5 -12.5l-27 27q17 13 28.5 31.5t10.5 42.5q-17 -2 -29.5 9t-12.5 33z" />
    <glyph glyph-name="uniF40A" unicode="&#xf40a;" horiz-adv-x="162" 
d="M31 659q0 23 13 36t33 13q24 0 39 -16.5t15 -50.5q0 -32 -8 -56t-19.5 -40.5t-24.5 -27t-22 -15.5l-23 30q17 11 29.5 31.5t11.5 47.5q-18 -3 -31 10t-13 38z" />
    <glyph glyph-name="uniF40B" unicode="&#xf40b;" horiz-adv-x="229" 
d="M60 797q0 21 14 36.5t40 15.5t40.5 -15.5t14.5 -36.5q0 -23 -14.5 -38t-40.5 -15t-40 15t-14 38z" />
    <glyph glyph-name="uniF40C" unicode="&#xf40c;" horiz-adv-x="300" 
d="M60 768q0 37 21 61t69 24q43 0 66.5 -21.5t23.5 -63.5q0 -36 -22.5 -59.5t-67.5 -23.5t-67.5 22.5t-22.5 60.5zM114 768q0 -18 8.5 -29.5t27.5 -11.5q36 0 36 41q0 43 -36 43t-36 -43z" />
    <glyph glyph-name="uniF40D" unicode="&#xf40d;" horiz-adv-x="395" 
d="M60 780q28 34 51.5 46.5t44.5 12.5q16 0 30.5 -5t28 -10.5t26 -10.5t25.5 -5q11 0 21.5 4t21.5 16l26 -37q-24 -28 -45 -38t-39 -10q-15 0 -29 5t-27.5 10.5t-26.5 10.5t-27 5t-27.5 -6t-29.5 -23z" />
    <glyph glyph-name="uniF40E" unicode="&#xf40e;" horiz-adv-x="278" 
d="M195 10q-29 -16 -46 -40.5t-17 -56.5q1 -29 20 -44.5t56 -0.5l10 -40q-11 -11 -31.5 -17t-39.5 -6q-40 0 -63.5 24t-23.5 62q0 43 24.5 72.5t62.5 46.5h48z" />
    <glyph glyph-name="uniF486" unicode="&#xf486;" horiz-adv-x="471" 
d="M411 541q0 -26 -6 -52t-19 -49t-32.5 -41t-47.5 -27v-4q24 -5 46 -16.5t39 -32t27 -50t10 -70.5q0 -54 -17 -93.5t-46.5 -64.5t-68 -37t-81.5 -12h-32.5t-39.5 1.5t-41.5 4t-37.5 7.5v689q30 6 70.5 10t87.5 4q34 0 68 -6.5t61 -24.5t43.5 -50.5t16.5 -85.5zM221 61
q27 0 50 8.5t40.5 25.5t27.5 41.5t10 57.5q0 41 -12.5 66.5t-32.5 39.5t-45.5 19t-52.5 5h-67v-256q6 -2 15.5 -3t21 -2t23.5 -1.5t22 -0.5zM180 389q14 0 32 1t30 3q37 15 63.5 48.5t26.5 82.5q0 33 -9 55.5t-24.5 35.5t-36.5 18.5t-44 5.5q-26 0 -47 -1.5t-32 -3.5v-245
h41zM246 870h99v-21l-131 -97h-61z" />
    <glyph glyph-name="uniF487" unicode="&#xf487;" horiz-adv-x="434" 
d="M59 700h72v-238h3q41 50 109 50q77 0 115.5 -61t38.5 -193q0 -135 -51.5 -201t-145.5 -66q-46 0 -84 10.5t-57 24.5v674zM131 73q14 -8 34.5 -12.5t43.5 -4.5q52 0 82.5 49.5t30.5 152.5q0 43 -5.5 77.5t-17 59.5t-30 38.5t-44.5 13.5q-36 0 -59.5 -21.5t-34.5 -58.5
v-294zM250 720h78v-21l-82 -128h-43z" />
    <glyph glyph-name="uniF488" unicode="&#xf488;" horiz-adv-x="413" 
d="M64 700h311v-69h-236v-247h220v-69h-220v-315h-75v700zM245 870h99v-21l-131 -97h-61z" />
    <glyph glyph-name="uniF489" unicode="&#xf489;" horiz-adv-x="257" 
d="M16 500h61v28q0 94 27 136t92 42q26 0 47 -3t43 -13l-18 -62q-18 8 -33.5 10.5t-29.5 2.5q-20 0 -31 -8t-16.5 -25t-7 -43.5t-1.5 -64.5h104v-65h-104v-435h-72v435h-61v65zM233 870h99v-21l-131 -97h-61z" />
    <glyph glyph-name="uniF49E" unicode="&#xf49e;" horiz-adv-x="490" 
d="M-2 587h69v113h75v-113h177v-62h-177v-125q21 14 57 28.5t82 14.5q35 0 63.5 -9t48.5 -31.5t31 -59.5t11 -94v-249h-75v236q0 71 -23 104.5t-74 33.5q-36 0 -68.5 -12.5t-52.5 -32.5v-329h-75v525h-69v62z" />
    <glyph glyph-name="uniF49F" unicode="&#xf49f;" horiz-adv-x="441" 
d="M-4 632h64v68h72v-68h129v-58h-129v-121h3q20 26 49.5 42.5t73.5 16.5q33 0 57.5 -9t40.5 -31t24 -58.5t8 -90.5v-323h-72v304q0 70 -16.5 106.5t-65.5 36.5q-35 0 -63.5 -25t-38.5 -63v-359h-72v574h-64v58z" />
    <glyph glyph-name="uniF4C6" unicode="&#xf4c6;" horiz-adv-x="487" 
d="M130 700v-244q0 -73 25 -101.5t73 -28.5q35 0 67.5 13t52.5 34v327h75v-728q0 -103 -34 -147.5t-109 -34.5v65q23 0 36.5 9t20.5 27t9 45.5t2 63.5v300q-20 -15 -56 -29t-80 -14q-32 0 -60.5 8t-50 28.5t-34 55.5t-12.5 90v261h75z" />
    <glyph glyph-name="uniF4C7" unicode="&#xf4c7;" horiz-adv-x="396" 
d="M108 500v-146q0 -25 2.5 -45t9.5 -34.5t20 -22t34 -7.5q35 0 57 9t34 20v226h72v-529q0 -92 -27.5 -136t-87.5 -43q-6 0 -12 0.5t-13 1.5v63q45 -1 56.5 34.5t11.5 108.5v210q-12 -9 -37.5 -19.5t-68.5 -10.5q-29 0 -52 7.5t-38.5 24.5t-24 46t-8.5 73v169h72z" />
    <glyph glyph-name="uniF4CC" unicode="&#xf4cc;" horiz-adv-x="448" 
d="M228 341l19 -89h5l16 92l104 356h77l-143 -455q-22 -70 -38.5 -118t-33 -77t-36.5 -42t-49 -13q-26 0 -43 5t-32 16l22 64q16 -11 29 -13.5t24 -2.5q22 0 37 30.5t26 86.5l-209 519h88zM257 870h99v-21l-131 -97h-61z" />
    <glyph glyph-name="uniF4CD" unicode="&#xf4cd;" horiz-adv-x="376" 
d="M183 177l21 -97h5l15 97l76 323h73l-119 -449q-14 -54 -28 -101t-30.5 -81.5t-37 -54t-48.5 -19.5t-49 9l12 68q14 -5 28 -2t26.5 17t23 41.5t18.5 71.5l-162 500h82zM212 720h78v-21l-82 -128h-43z" />
    <glyph glyph-name="uniF4D6" unicode="&#xf4d6;" horiz-adv-x="465" 
d="M118 390h229q-5 127 -53.5 190t-124.5 63q-38 0 -67 -9t-50 -22l-22 62q28 18 66.5 28t80.5 10q55 0 100 -19.5t77 -62.5t50 -112t18 -167q0 -99 -20 -168.5t-55 -112.5t-82 -62.5t-102 -19.5q-41 0 -74.5 7t-56.5 18l21 68q19 -10 50 -17t64 -7q34 0 65.5 14.5t56.5 46
t40.5 82t17.5 123.5h-229v67zM130 797q0 21 14 36.5t40 15.5t40.5 -15.5t14.5 -36.5q0 -23 -14.5 -38t-40.5 -15t-40 15t-14 38z" />
    <glyph glyph-name="uniF4D7" unicode="&#xf4d7;" horiz-adv-x="372" 
d="M94 283h166q-3 78 -31.5 121t-80.5 43q-32 0 -56 -9t-39 -20l-25 57q23 17 56 27t76 10q90 0 132.5 -65t42.5 -197q0 -131 -48.5 -196.5t-136.5 -65.5q-77 0 -122 24l20 64q19 -11 45 -17t50 -6q111 0 117 168h-166v62zM105 652q0 24 13.5 39t35.5 15t36.5 -14.5
t14.5 -39.5q0 -24 -14.5 -37.5t-36.5 -13.5t-35.5 14t-13.5 37z" />
    <glyph glyph-name="uni0498.alt" unicode="&#xf50a;" horiz-adv-x="434" 
d="M109 333v65h18q15 0 37 1t35 4q40 10 68.5 41.5t28.5 79.5q0 66 -32 92.5t-81 26.5q-39 0 -69 -7.5t-49 -18.5l-20 62q18 11 59.5 22t93.5 11q34 0 66 -8t56.5 -27.5t39.5 -53t15 -83.5q0 -51 -25.5 -95.5t-78.5 -66.5v-4q56 -11 88.5 -53.5t32.5 -114.5q0 -51 -14 -90
t-38 -65.5t-56.5 -42t-69.5 -19.5l-12 -168h-47l-15 167q-37 2 -63.5 9t-45.5 17l20 68q20 -11 52 -18t78 -7q27 0 51 9.5t42 27.5t28.5 45.5t10.5 63.5q0 65 -34.5 94.5t-92.5 34.5q-10 1 -17.5 1h-18.5h-41z" />
    <glyph glyph-name="uni0499.alt" unicode="&#xf50b;" horiz-adv-x="351" 
d="M96 224v62h53q14 0 27.5 6.5t24 17.5t17 25.5t6.5 30.5q0 39 -20.5 57t-62.5 18q-31 0 -55 -9t-38 -19l-21 57q25 16 58.5 26t76.5 10q66 0 101.5 -30.5t35.5 -91.5q0 -38 -19 -70t-52 -46v-4q46 -11 66 -42t20 -82q0 -54 -30 -93.5t-93 -50.5l-12 -175h-47l-16 172
q-29 2 -50.5 9t-39.5 17l19 62q19 -12 43.5 -17.5t52.5 -5.5q98 0 98 88q0 36 -23 57t-77 21h-43z" />
    <glyph glyph-name="uni04AA.alt02" unicode="&#xf50c;" horiz-adv-x="458" 
d="M430 27q-21 -18 -52 -27t-66 -11l-14 -32q65 -15 65 -75q0 -39 -28.5 -64.5t-76.5 -25.5q-20 0 -37 4l7 39q23 -2 36.5 1t20.5 9t9 13.5t2 14.5q0 28 -69 37l35 80q-48 4 -88.5 26.5t-69.5 66t-45 109.5t-16 158q0 100 20.5 169t54.5 112t78.5 62t91.5 19q48 0 79.5 -7
t54.5 -17l-18 -68q-20 11 -47 17t-62 6t-66 -15.5t-55 -50t-38 -90.5t-14 -137q0 -146 50 -219t133 -73q34 0 61 9.5t46 22.5z" />
    <glyph glyph-name="uni04AB.alt02" unicode="&#xf50d;" horiz-adv-x="356" 
d="M335 25q-20 -15 -44 -23.5t-50 -11.5l-14 -33q65 -15 65 -75q0 -39 -28.5 -64.5t-76.5 -25.5q-20 0 -37 4l7 39q23 -2 36.5 1t20.5 9t9 13.5t2 14.5q0 28 -69 37l35 79q-42 4 -71.5 24.5t-47.5 54t-26.5 80t-8.5 102.5q0 128 45.5 195t130.5 67q39 0 67 -7t48 -18
l-20 -62q-38 22 -87 22q-54 0 -81.5 -47.5t-27.5 -149.5q0 -41 6 -76.5t20 -62t36 -41.5t55 -15q26 0 48.5 8.5t36.5 20.5z" />
    <glyph glyph-name="uniF50E" unicode="&#xf50e;" horiz-adv-x="473" 
d="M333 196h-198l-56 -196h-74l211 711h41l211 -711h-78zM155 263h160l-61 216l-19 105h-2l-19 -107zM109 843h259v-62h-259v62z" />
    </font>
</defs>
</svg>
