<?xml version="1.0" standalone="no"?>
<!DOCTYPE svg PUBLIC "-//W3C//DTD SVG 1.1//EN" "http://www.w3.org/Graphics/SVG/1.1/DTD/svg11.dtd" >
<svg>
<metadata>
Created by FontForge 20110222 at Thu Jan  9 04:02:39 2014
 By Orthosie Webhosting
Copyrighted (c) 1981, 1997 by and the property of Linotype-Hell AG and/or its subsidiaries. All Rights Reserved. All Cyrillic characters designed by DoubleAlex. Helvetica is a registered Trademark of Linotype-Hell AG and/or its subsidiaries.
</metadata>
<defs>
<font id="HelveticaNeueCyrUltraLight" horiz-adv-x="500" >
  <font-face 
    font-family="HelveticaNeueCyrUltraLight"
    font-weight="200"
    font-stretch="normal"
    units-per-em="1000"
    panose-1="2 0 5 6 2 0 0 2 0 4"
    ascent="800"
    descent="-200"
    x-height="512"
    cap-height="712"
    bbox="-50 -219 1019 909"
    underline-thickness="50"
    underline-position="-50"
    unicode-range="U+0020-E001"
  />
<missing-glyph horiz-adv-x="1000" 
 />
    <glyph glyph-name=".notdef" horiz-adv-x="1000" 
 />
    <glyph glyph-name=".null" horiz-adv-x="0" 
 />
    <glyph glyph-name="nonmarkingreturn" horiz-adv-x="333" 
 />
    <glyph glyph-name="space" unicode=" " horiz-adv-x="278" 
 />
    <glyph glyph-name="exclam" unicode="!" horiz-adv-x="185" 
d="M103 712v-530h-21v530h21zM103 96v-96h-21v96h21z" />
    <glyph glyph-name="quotedbl" unicode="&#x22;" horiz-adv-x="278" 
d="M91 441h-16l-3 239h22zM203 441h-16l-3 239h22z" />
    <glyph glyph-name="numbersign" unicode="#" horiz-adv-x="556" 
d="M128 0h-18l41 222h-129v18h132l37 200h-129v18h133l41 222h18l-42 -222h174l42 222h17l-41 -222h129v-18h-132l-37 -200h129v-18h-132l-42 -222h-18l42 222h-174zM346 240l37 200h-173l-38 -200h174z" />
    <glyph glyph-name="dollar" unicode="$" horiz-adv-x="556" 
d="M287 771v-77q105 0 164.5 -48.5t59.5 -151.5v-1h-20q-1 91 -49.5 134.5t-154.5 47.5v-318q43 -7 71 -13t66.5 -20t60.5 -32t38.5 -49t16.5 -72q0 -50 -21.5 -87.5t-57.5 -58.5t-78 -31.5t-89 -10.5h-7v-89h-19v90q-120 2 -186.5 50.5t-66.5 162.5v10h21
q-12 -199 232 -205v339q-36 6 -60 12t-57 19.5t-53 31t-34.5 47t-14.5 67.5q0 79 60 127t159 49v77h19zM268 361v314q-83 -2 -140.5 -39t-57.5 -118q0 -41 14 -69t49 -45t52.5 -22.5t66.5 -16.5q11 -3 16 -4zM287 337v-335h4q107 0 167.5 45t60.5 125q0 25 -7.5 45.5
t-16.5 35t-29 27t-33.5 19.5t-42 15t-42.5 11t-46 9z" />
    <glyph glyph-name="percent" unicode="%" horiz-adv-x="685" 
d="M584 722l-467 -751h-23l467 751h23zM508 326q71 0 112.5 -44.5t41.5 -121.5q0 -79 -41 -124.5t-111 -45.5q-73 0 -113.5 44.5t-40.5 123.5q0 78 40.5 123t111.5 45zM175 705q71 0 112.5 -45.5t41.5 -123.5q0 -76 -42.5 -122.5t-112.5 -46.5q-71 0 -111.5 45t-40.5 125
q0 77 41.5 122.5t111.5 45.5zM508 308q-64 0 -98.5 -39t-34.5 -113q0 -71 35 -110t99 -39q63 0 99 41.5t36 112.5q0 68 -36 107.5t-100 39.5zM175 685q-63 0 -99 -40t-36 -110q0 -71 35 -110t99 -39q62 0 99 41t37 110q0 70 -35.5 109t-99.5 39z" />
    <glyph glyph-name="ampersand" unicode="&#x26;" horiz-adv-x="574" 
d="M497 274q0 -67 -32 -141l108 -133h-25l-91 114q-42 -64 -89 -96t-118 -32q-90 0 -147.5 50t-57.5 127q0 34 11.5 63.5t36.5 54t44 40t54.5 38t47.5 31.5q-8 9 -25 30t-23.5 29t-19 24.5t-17 25.5t-11 22.5t-8.5 25.5t-2 25q0 58 41.5 94t106.5 36q60 0 100 -36.5
t40 -90.5q0 -19 -4 -36.5t-16.5 -34.5t-19.5 -27.5t-28.5 -28t-27 -22t-32.5 -23t-28 -19.5l187 -234q22 49 27 124h18zM254 399q5 3 28 18.5t34 23t30.5 25t29.5 31.5t18 34.5t8 42.5q0 48 -35 79t-88 31q-56 0 -92 -31.5t-36 -80.5q0 -17 4 -31.5t16 -33.5t20.5 -30
t30 -38t32.5 -40zM249 374q-10 -7 -35 -22.5t-42 -26.5t-39 -30t-35.5 -36.5t-23.5 -43t-10 -52.5q0 -70 53 -115.5t133 -45.5q61 0 114 35.5t80 92.5z" />
    <glyph glyph-name="quotesingle" unicode="'" horiz-adv-x="167" 
d="M91 441h-16l-3 239h22z" />
    <glyph glyph-name="parenleft" unicode="(" horiz-adv-x="222" 
d="M206 720q-119 -204 -119 -452q0 -224 119 -447h-21q-117 220 -117 453q0 111 31.5 229.5t85.5 216.5h21z" />
    <glyph glyph-name="parenright" unicode=")" horiz-adv-x="222" 
d="M154 274q0 -233 -117 -453h-21q119 223 119 447q0 248 -119 452h21q54 -98 85.5 -216.5t31.5 -229.5z" />
    <glyph glyph-name="asterisk" unicode="*" horiz-adv-x="352" 
d="M321 615l-132 -43l83 -110l-15 -12l-81 111l-86 -108l-14 12l86 107l-131 43l6 17l130 -42v138h17v-138l131 42z" />
    <glyph glyph-name="plus" unicode="+" horiz-adv-x="600" 
d="M48 262h242v242h20v-242h242v-20h-242v-242h-20v242h-242v20z" />
    <glyph glyph-name="comma" unicode="," horiz-adv-x="278" 
d="M149 98v-92q0 -50 -9.5 -79.5t-32.5 -49.5v30q22 32 22 82v109h20z" />
    <glyph glyph-name="hyphen" unicode="-" horiz-adv-x="333" 
d="M256 276v-17h-179v17h179z" />
    <glyph glyph-name="period" unicode="." horiz-adv-x="278" 
d="M150 98v-98h-22v98h22z" />
    <glyph glyph-name="slash" unicode="/" horiz-adv-x="333" 
d="M342 730l-330 -747h-21l333 747h18z" />
    <glyph glyph-name="zero" unicode="0" horiz-adv-x="556" 
d="M278 694q69 0 121 -32t80.5 -85t42 -112t13.5 -124q0 -51 -8 -99.5t-27 -96t-48 -83t-74.5 -57t-102.5 -21.5q-118 0 -186 91.5t-68 251.5q0 51 7.5 99.5t26.5 98t47.5 86.5t74 60t101.5 23zM279 674q-66 0 -114.5 -32.5t-74.5 -86.5t-38 -111t-12 -118
q0 -151 62.5 -237.5t172.5 -86.5q66 0 115 31t75 82.5t38 107.5t12 117q0 47 -7 92t-24 89.5t-43.5 78t-68 54t-93.5 20.5z" />
    <glyph glyph-name="one" unicode="1" horiz-adv-x="556" 
d="M322 680v-680h-20v658q-74 -96 -185 -125v20q97 25 182 127h23z" />
    <glyph glyph-name="two" unicode="2" horiz-adv-x="556" 
d="M514 19v-19h-459q4 50 31.5 93t57 67.5t85.5 63.5l63 44q40 28 65.5 48.5t56 52.5t46 68t15.5 76q0 76 -49.5 119t-136.5 43q-198 0 -201 -219h-20v22q0 99 60 157.5t161 58.5q94 0 150 -49t56 -132q0 -43 -16.5 -81.5t-49.5 -73t-60.5 -57t-69.5 -52.5l-58 -41
q-82 -58 -109 -86q-46 -48 -54 -103h436z" />
    <glyph glyph-name="three" unicode="3" horiz-adv-x="556" 
d="M57 467q1 108 62 167.5t169 59.5q96 0 155 -47.5t59 -125.5q0 -69 -45.5 -110t-110.5 -47q74 -8 121 -51t47 -123q0 -91 -65 -148t-169 -57q-111 0 -176.5 60t-65.5 162q0 13 1 23h18v-21q0 -97 59.5 -151.5t163.5 -54.5q95 0 155 51.5t60 132.5q0 169 -233 169h-12v19
q11 -1 28 -1q39 0 72 6.5t64.5 21.5t49.5 45.5t18 73.5q0 71 -52.5 113t-141.5 42q-104 0 -157 -54t-56 -155h-18z" />
    <glyph glyph-name="four" unicode="4" horiz-adv-x="556" 
d="M520 197v-19h-124v-178h-19v178h-343v24l337 479h25v-484h124zM377 197v465l-324 -465h324z" />
    <glyph glyph-name="five" unicode="5" horiz-adv-x="556" 
d="M481 680v-19h-334l-64 -298q68 96 189 96q102 0 169.5 -67.5t67.5 -169.5t-67 -169.5t-168 -67.5q-111 0 -173.5 63t-62.5 169h18q0 -96 57 -155.5t161 -59.5q94 0 155 62t61 158q0 95 -62 157.5t-156 62.5q-124 0 -189 -107h-23l72 345h349z" />
    <glyph glyph-name="six" unicode="6" horiz-adv-x="556" 
d="M509 514h-20q-11 73 -64 117.5t-132 44.5q-54 0 -95.5 -22t-65 -54.5t-39 -81t-21.5 -90t-9 -92.5q-1 -14 -1 -58q22 80 81.5 127t143.5 47q98 0 166 -68t68 -167q0 -98 -68 -165.5t-166 -67.5q-84 0 -147 49t-81 129q-14 64 -14 145q0 55 5.5 103.5t21.5 102.5
t42.5 92.5t72 63.5t105.5 25q86 0 145.5 -49t71.5 -131zM284 435q-89 0 -151 -63t-62 -153q0 -92 62 -154.5t154 -62.5q91 0 153 62.5t62 154.5q0 91 -63 153.5t-155 62.5z" />
    <glyph glyph-name="seven" unicode="7" horiz-adv-x="556" 
d="M496 680v-24q-133 -128 -218 -302.5t-86 -353.5h-21q3 182 89 363t221 298h-420v19h435z" />
    <glyph glyph-name="eight" unicode="8" horiz-adv-x="556" 
d="M206 369q-66 11 -104.5 51t-38.5 105q0 81 56 125t159 44q104 0 160 -43.5t56 -125.5q0 -64 -39 -104.5t-103 -51.5q170 -27 170 -181q0 -95 -64 -150t-176 -55q-107 0 -178 50t-71 154q0 79 47 124.5t126 57.5zM278 676q-94 0 -145 -38.5t-51 -111.5q0 -71 52 -110
t146 -39q81 0 137.5 35.5t56.5 112.5q0 81 -54.5 116t-141.5 35zM276 360q-107 0 -165 -45t-58 -128q0 -88 60 -137t168 -49q104 0 162.5 49.5t58.5 137.5q0 84 -58 128t-168 44z" />
    <glyph glyph-name="nine" unicode="9" horiz-adv-x="556" 
d="M55 159h19q14 -72 67 -114.5t127 -42.5q122 0 181 106q22 39 33 99t12.5 97.5t1.5 107.5q-17 -80 -76.5 -132.5t-149.5 -52.5q-101 0 -168.5 66.5t-67.5 165.5t67.5 167t165.5 68q59 0 110 -25.5t82 -70.5q55 -77 55 -236q0 -120 -18 -186q-25 -93 -83.5 -143t-143.5 -50
t-143.5 48t-70.5 128zM267 676q-90 0 -152 -63t-62 -154t62.5 -153t153.5 -62t153.5 62.5t62.5 154.5q0 89 -63.5 152t-154.5 63z" />
    <glyph glyph-name="colon" unicode=":" horiz-adv-x="278" 
d="M149 489v-97h-21v97h21zM149 98v-98h-21v98h21z" />
    <glyph glyph-name="semicolon" unicode=";" horiz-adv-x="278" 
d="M149 489v-97h-21v97h21zM149 98v-92q0 -50 -9.5 -79.5t-32.5 -49.5v30q22 32 22 82v109h20z" />
    <glyph glyph-name="less" unicode="&#x3c;" horiz-adv-x="600" 
d="M59 244v19l482 207v-19l-461 -197l461 -195v-19z" />
    <glyph glyph-name="equal" unicode="=" horiz-adv-x="600" 
d="M51 359h498v-19h-498v19zM51 166h498v-19h-498v19z" />
    <glyph glyph-name="greater" unicode="&#x3e;" horiz-adv-x="600" 
d="M541 244l-482 -204v19l461 195l-461 197v19l482 -207v-19z" />
    <glyph glyph-name="question" unicode="?" 
d="M37 492q0 105 54 170t160 65q88 0 144.5 -48.5t56.5 -124.5q0 -19 -3 -36t-12 -33.5l-15 -27.5t-21.5 -28t-22 -23.5t-26.5 -25t-25 -23.5q-50 -47 -60.5 -76t-10.5 -99h-20v13q0 72 16 102.5t71 80.5q34 31 53 51t38 55t19 70q0 72 -54 113.5t-129 41.5
q-190 0 -194 -217h-19zM256 97v-97h-20v97h20z" />
    <glyph glyph-name="at" unicode="@" horiz-adv-x="800" 
d="M713 104l11 -15q-77 -53 -147.5 -77.5t-159.5 -24.5q-166 0 -278.5 97t-112.5 257q0 167 120 274.5t292 107.5q140 0 236.5 -78.5t96.5 -213.5q0 -59 -22.5 -117t-70 -100t-107.5 -42q-30 0 -50.5 17t-20.5 46q0 13 12 54q-27 -55 -63.5 -86t-92.5 -31q-62 0 -97 42
t-35 104q0 86 56.5 161.5t139.5 75.5q59 0 92.5 -36t33.5 -94v-6l38 124h20l-60 -192q-27 -93 -27 -116t16.5 -34.5t40.5 -11.5q53 0 95 41t62.5 95.5t20.5 105.5q0 127 -91.5 201t-223.5 74q-162 0 -277.5 -103.5t-115.5 -261.5q0 -153 110 -245t263 -92q85 0 153.5 24.5
t142.5 75.5zM533 417q0 53 -30 87t-83 34q-74 0 -125.5 -71t-51.5 -148q0 -56 30.5 -92.5t84.5 -36.5q61 0 103 49.5t62 116.5q10 33 10 61z" />
    <glyph glyph-name="A" unicode="A" horiz-adv-x="575" 
d="M300 712l286 -712h-23l-94 235h-362l-96 -235h-23l293 712h19zM462 254l-172 436l-176 -436h348z" />
    <glyph glyph-name="B" unicode="B" horiz-adv-x="611" 
d="M55 712h285q95 0 158.5 -42.5t63.5 -133.5q0 -66 -42.5 -112t-110.5 -54q72 -6 123.5 -51t51.5 -126q0 -82 -56 -132t-139 -57q-48 -4 -80 -4h-254v712zM75 694v-316h223q97 0 135 12q12 4 23 9q85 41 85 136q0 59 -32 96t-76.5 50t-103.5 13h-254zM75 359v-340h251
q47 0 86.5 8t74.5 27t55.5 55t20.5 86q0 88 -63.5 126t-158.5 38h-266z" />
    <glyph glyph-name="C" unicode="C" horiz-adv-x="685" 
d="M664 280q-10 -130 -97 -213t-212 -83q-153 0 -238.5 107.5t-85.5 263.5q0 167 91 270.5t238 103.5q111 0 194 -66t96 -165h-19q-19 98 -95.5 155t-178.5 57q-136 0 -221 -98.5t-85 -256.5q0 -95 32.5 -173t103.5 -128.5t168 -50.5q121 0 199 78t91 199h19z" />
    <glyph glyph-name="D" unicode="D" horiz-adv-x="648" 
d="M57 712h239q151 0 232.5 -95t81.5 -254q0 -166 -83.5 -264.5t-241.5 -98.5h-228v712zM77 693v-674h196q163 0 239.5 91t76.5 253q0 157 -76.5 243.5t-221.5 86.5h-214z" />
    <glyph glyph-name="E" unicode="E" horiz-adv-x="537" 
d="M527 712v-19h-453v-312h427v-19h-427v-343h458v-19h-478v712h473z" />
    <glyph glyph-name="F" unicode="F" horiz-adv-x="481" 
d="M493 712v-19h-419v-314h379v-18h-379v-361h-20v712h439z" />
    <glyph glyph-name="G" unicode="G" horiz-adv-x="722" 
d="M672 335l1 -335h-18v151l4 59q-24 -103 -101.5 -164t-191.5 -61q-150 0 -242.5 100t-92.5 262q0 170 92 275.5t240 105.5q110 0 193.5 -66t103.5 -171h-19q-21 97 -99 157.5t-179 60.5q-141 0 -226.5 -99.5t-85.5 -263.5q0 -146 84.5 -244.5t228.5 -98.5q130 0 211 82
t81 213v19h-279v18h295z" />
    <glyph glyph-name="H" unicode="H" horiz-adv-x="648" 
d="M594 712v-712h-21v362h-498v-362h-21v712h21v-331h498v331h21z" />
    <glyph glyph-name="I" unicode="I" horiz-adv-x="128" 
d="M74 712v-712h-20v712h20z" />
    <glyph glyph-name="J" unicode="J" horiz-adv-x="463" 
d="M408 712v-535q0 -93 -48.5 -142.5t-143.5 -49.5q-106 0 -150 53t-44 159q0 12 1 24h18l-1 -35q-4 -183 176 -183q171 0 171 178v531h21z" />
    <glyph glyph-name="K" unicode="K" horiz-adv-x="593" 
d="M597 712l-345 -300l368 -412h-26l-357 398l-163 -144v-254h-20v712h20v-434l494 434h29z" />
    <glyph glyph-name="L" unicode="L" horiz-adv-x="481" 
d="M498 19v-19h-439v712h21v-693h418z" />
    <glyph glyph-name="M" unicode="M" horiz-adv-x="780" 
d="M725 712v-712h-20v629q0 10 1 29.5t1 29.5q-202 -459 -304 -688h-25l-304 688q0 -10 0.5 -30t0.5 -30v-628h-21v712h30l306 -690l308 690h27z" />
    <glyph glyph-name="N" unicode="N" horiz-adv-x="648" 
d="M594 712v-712h-24l-497 692q2 -37 2 -53v-639h-21v712h27l494 -688q-2 69 -2 88v600h21z" />
    <glyph glyph-name="O" unicode="O" horiz-adv-x="721" 
d="M357 730q149 0 242.5 -106t93.5 -274q0 -163 -93 -265t-242 -102q-147 0 -238.5 103.5t-91.5 269.5q0 165 92 269.5t237 104.5zM359 711q-136 0 -222.5 -99t-86.5 -254q0 -158 85.5 -257t221.5 -99q140 0 227 97t87 252q0 159 -87 259.5t-225 100.5z" />
    <glyph glyph-name="P" unicode="P" horiz-adv-x="574" 
d="M59 712h300q91 0 148.5 -48t57.5 -145q0 -88 -58 -141t-155 -53h-273v-325h-20v712zM79 693v-349h268q86 0 141.5 44t55.5 130q0 175 -199 175h-266z" />
    <glyph glyph-name="Q" unicode="Q" horiz-adv-x="721" 
d="M703 -8l-11 -14l-119 83q-89 -78 -210 -78q-152 0 -243 104.5t-91 259.5q0 169 92.5 274t241.5 105q152 0 240.5 -107t88.5 -263q0 -171 -106 -283zM570 85q101 114 101 271q0 95 -34 173t-105.5 128t-168.5 50q-140 0 -226.5 -99t-86.5 -260q0 -148 83 -247t230 -99
q56 0 100 16t93 54l-125 86l11 15z" />
    <glyph glyph-name="R" unicode="R" horiz-adv-x="611" 
d="M57 712h282q103 0 166.5 -43.5t63.5 -143.5q0 -76 -45.5 -123t-120.5 -56q128 -15 147 -110q6 -27 9 -120q2 -93 16 -116h-21q-6 2 -9.5 37t-6.5 93t-3 61q-3 39 -15.5 66t-30 42t-47 23.5t-56.5 10.5t-69 2h-239v-335h-21v712zM78 694v-340h234q237 0 237 171
q0 50 -17.5 84.5t-50 52.5t-68.5 25t-82 7h-253z" />
    <glyph glyph-name="S" unicode="S" horiz-adv-x="611" 
d="M557 512h-21q-7 195 -240 195q-101 0 -158 -43t-57 -120q0 -25 7.5 -46t17.5 -35.5t29 -27.5t34 -20.5t41 -15.5t41 -11.5t43.5 -9t39.5 -8.5q106 -24 138 -38q99 -42 99 -149q0 -92 -69 -144.5t-190 -52.5t-196.5 59.5t-75.5 177.5v13h20v-3q0 -111 65 -170.5t186 -59.5
q113 0 176.5 47.5t63.5 132.5q0 24 -6.5 44.5t-15 35t-25.5 27t-30 19.5t-37 15t-37.5 11l-40.5 9t-38 9q-8 2 -33.5 7.5t-36.5 8.5t-34.5 9.5t-35.5 11.5t-31.5 14t-30 18t-23.5 22.5t-19.5 28t-11.5 33t-5 40.5q0 84 63 132.5t172 48.5q116 0 187 -53t75 -162z" />
    <glyph glyph-name="T" unicode="T" 
d="M519 712v-19h-259v-693h-20v693h-259v19h538z" />
    <glyph glyph-name="U" unicode="U" horiz-adv-x="632" 
d="M581 712v-446q0 -131 -65 -206t-195 -75q-137 0 -203.5 75t-66.5 209v443h20v-445q0 -127 61.5 -195.5t188.5 -68.5q123 0 181 71t58 195v443h21z" />
    <glyph glyph-name="V" unicode="V" horiz-adv-x="538" 
d="M557 712l-272 -712h-26l-279 712h22l270 -692l265 692h20z" />
    <glyph glyph-name="W" unicode="W" horiz-adv-x="870" 
d="M883 712l-209 -712h-27l-212 694l-206 -694h-26l-217 712h24l206 -688l204 688h31l209 -688l203 688h20z" />
    <glyph glyph-name="X" unicode="X" horiz-adv-x="520" 
d="M535 712l-261 -347l274 -365h-25l-264 349l-263 -349h-25l275 365l-260 347h25l248 -330l253 330h23z" />
    <glyph glyph-name="Y" unicode="Y" horiz-adv-x="538" 
d="M570 712l-292 -412v-300h-20v300l-290 412h24l276 -393l279 393h23z" />
    <glyph glyph-name="Z" unicode="Z" 
d="M506 712v-26l-501 -667h509v-19h-528v27l501 666h-474v19h493z" />
    <glyph glyph-name="bracketleft" unicode="[" horiz-adv-x="222" 
d="M209 721v-18h-95v-864h95v-18h-114v900h114z" />
    <glyph glyph-name="backslash" unicode="\" horiz-adv-x="333" 
d="M342 -17h-21l-330 747h18z" />
    <glyph glyph-name="bracketright" unicode="]" horiz-adv-x="222" 
d="M128 722v-900h-115v17h96v865h-96v18h115z" />
    <glyph glyph-name="asciicircum" unicode="^" horiz-adv-x="600" 
d="M126 273l162 407h25l162 -407h-20l-155 392l-154 -392h-20z" />
    <glyph glyph-name="underscore" unicode="_" 
d="M0 -125v50h500v-50h-500z" />
    <glyph glyph-name="grave" unicode="`" horiz-adv-x="130" 
d="M-17 738l136 -140h-25l-138 140h27z" />
    <glyph glyph-name="a" unicode="a" horiz-adv-x="481" 
d="M487 22v-18q-15 -4 -32 -4q-16 0 -26.5 4.5t-16 10t-8 19t-3 21.5t-0.5 27q0 11 1 45q-56 -141 -206 -141q-81 0 -126 37.5t-45 104.5q0 141 202 155q21 2 49.5 3.5t40.5 2.5t26.5 2.5t22.5 4t14 6.5q21 13 21 64q0 141 -158 141q-154 0 -168 -152h-19q7 83 55.5 126.5
t133.5 43.5q79 0 127 -35.5t48 -110.5v-309q0 -27 7.5 -40t30.5 -13q13 0 29 5zM401 301q-7 -10 -18 -16.5t-30 -10t-33.5 -5t-47.5 -3t-53 -3.5q-38 -3 -65 -9.5t-54 -20.5t-41 -41t-14 -66q0 -58 40 -90.5t112 -32.5q84 0 136 50q68 65 68 151v97z" />
    <glyph glyph-name="b" unicode="b" horiz-adv-x="537" 
d="M76 712v-346q21 75 73 118t132 43q102 0 162 -73t60 -198q0 -127 -59.5 -200t-162.5 -73q-157 0 -205 161v-144h-20v712h20zM277 508q-90 0 -145.5 -69t-55.5 -182q0 -116 56.5 -186.5t148.5 -70.5q93 0 147 68.5t54 185.5q0 120 -54 187t-151 67z" />
    <glyph glyph-name="c" unicode="c" 
d="M472 175q-12 -89 -67.5 -140t-142.5 -51q-102 0 -165 74.5t-63 195.5q0 122 63.5 196t168.5 74q84 0 137.5 -45t63.5 -123h-20q-8 67 -56.5 108.5t-123.5 41.5q-97 0 -155 -68.5t-58 -184.5q0 -113 57 -182.5t149 -69.5q79 0 130 46.5t61 127.5h21z" />
    <glyph glyph-name="d" unicode="d" horiz-adv-x="537" 
d="M479 712v-712h-20v146q-17 -75 -71.5 -119t-134.5 -44q-103 0 -162.5 71t-59.5 194q0 127 61 202.5t164 75.5q151 0 203 -155v341h20zM254 508q-93 0 -147.5 -70t-54.5 -189q0 -116 53.5 -182.5t147.5 -66.5q95 0 150.5 68.5t55.5 185.5q0 106 -51.5 180t-153.5 74z" />
    <glyph glyph-name="e" unicode="e" 
d="M470 178q-12 -86 -69 -140.5t-146 -54.5q-103 0 -165.5 73t-62.5 194q0 122 63 197.5t166 75.5q104 0 161.5 -74.5t57.5 -174.5v-20h-427q0 -105 52 -179t155 -74q80 0 133 52t61 125h21zM455 273q0 94 -51.5 162.5t-147.5 68.5q-93 0 -149 -67.5t-59 -163.5h407z" />
    <glyph glyph-name="f" unicode="f" horiz-adv-x="204" 
d="M233 712v-19q-22 2 -39 2q-15 0 -27.5 -2.5t-21.5 -9t-15.5 -11t-10.5 -17.5t-6.5 -18t-3.5 -22t-1 -21.5v-24.5v-22v-35h111v-20h-111v-492h-20v492h-89v20h89v60q0 35 3.5 57.5t14 44t33 31.5t57.5 10q12 0 37 -3z" />
    <glyph glyph-name="g" unicode="g" horiz-adv-x="519" 
d="M466 512v-478q0 -112 -52.5 -167t-162.5 -55q-90 0 -140 41t-54 119h20q10 -141 175 -141q109 0 152 53t43 163v127q-22 -68 -74.5 -107t-129.5 -39q-98 0 -155.5 65.5t-57.5 177.5q0 115 60 184.5t160 69.5q73 0 125 -42t72 -109v138h19zM248 506q-89 0 -143.5 -63.5
t-54.5 -168.5q0 -104 52.5 -166t141.5 -62q95 0 148.5 66t53.5 165q0 103 -54.5 166t-143.5 63z" />
    <glyph glyph-name="h" unicode="h" 
d="M75 712v-331q54 143 188 143q89 0 137.5 -55t48.5 -143v-326h-20v322q0 82 -42 133.5t-124 51.5q-64 0 -108 -36.5t-62 -88.5t-18 -114v-268h-21v712h21z" />
    <glyph glyph-name="i" unicode="i" horiz-adv-x="130" 
d="M75 712v-102h-21v102h21zM75 512v-512h-21v512h21z" />
    <glyph glyph-name="j" unicode="j" horiz-adv-x="130" 
d="M78 512v-585q0 -61 -25 -83t-86 -22h-17v18h8q53 0 76 15.5t23 67.5v589h21zM78 712v-102h-21v102h21z" />
    <glyph glyph-name="k" unicode="k" horiz-adv-x="444" 
d="M461 512l-237 -194l253 -318h-26l-242 303l-133 -109v-194h-20v712h20v-493l355 293h30z" />
    <glyph glyph-name="l" unicode="l" horiz-adv-x="130" 
d="M75 712v-712h-20v712h20z" />
    <glyph glyph-name="m" unicode="m" horiz-adv-x="778" 
d="M76 512v-120q41 132 169 132q61 0 100 -31.5t53 -87.5q43 120 165 120q82 0 122 -47t40 -129v-349h-21v356q0 69 -35.5 109t-106.5 40q-72 0 -115.5 -47t-43.5 -124v-334h-20v347q0 72 -34 115t-107 43q-74 0 -120 -56.5t-46 -149.5v-299h-20v512h20z" />
    <glyph glyph-name="n" unicode="n" 
d="M74 512v-129q19 63 70.5 102t119.5 39q90 0 138 -50.5t48 -135.5v-338h-21v331q0 78 -39.5 126t-123.5 48q-97 0 -144 -65.5t-47 -155.5v-284h-21v512h20z" />
    <glyph glyph-name="o" unicode="o" horiz-adv-x="519" 
d="M262 525q104 0 166 -74.5t62 -199.5q0 -122 -62.5 -194t-168.5 -72q-105 0 -167.5 73.5t-62.5 196.5q0 122 64 196t169 74zM261 506q-95 0 -153.5 -69t-58.5 -181q0 -115 57.5 -183.5t153.5 -68.5q95 0 152 67t57 180q0 116 -56.5 185.5t-151.5 69.5z" />
    <glyph glyph-name="p" unicode="p" horiz-adv-x="537" 
d="M80 512v-143q52 158 201 158q101 0 161.5 -74t60.5 -199q0 -122 -61 -196.5t-162 -74.5q-78 0 -129.5 41.5t-70.5 113.5l1 -58v-258h-20v690h19zM281 508q-96 0 -148.5 -67t-52.5 -190q0 -105 50 -177.5t151 -72.5q92 0 147 68.5t55 185.5q0 118 -54 185.5t-148 67.5z
" />
    <glyph glyph-name="q" unicode="q" horiz-adv-x="537" 
d="M474 512v-690h-20v248l1 67q-52 -153 -201 -153q-102 0 -162.5 72.5t-60.5 195.5q0 124 61.5 199t163.5 75q76 0 127.5 -43t71.5 -115v144h19zM255 507q-95 0 -149 -68.5t-54 -187.5q0 -116 54 -183t147 -67t148 67t55 180q0 40 -6.5 76t-21.5 70t-37.5 58.5t-57 39.5
t-78.5 15z" />
    <glyph glyph-name="r" unicode="r" horiz-adv-x="259" 
d="M282 513v-20q-76 -2 -121.5 -34.5t-68.5 -103.5q-13 -40 -13 -121v-234h-20v512h20v-145q24 75 71.5 109.5t131.5 36.5z" />
    <glyph glyph-name="s" unicode="s" horiz-adv-x="463" 
d="M411 361h-21q0 144 -167 144q-70 0 -110.5 -30.5t-40.5 -82.5q0 -15 3 -27.5t11 -22.5t14.5 -17.5t20 -14.5t21.5 -11t25.5 -9t24.5 -6.5t26.5 -6t23.5 -5.5q92 -22 124 -41q58 -35 58 -101q0 -65 -53 -105.5t-138 -40.5q-97 0 -149 49.5t-52 141.5h21q0 -170 181 -170
q75 0 122.5 35t47.5 90q0 39 -29.5 66t-53 34.5t-73.5 19.5q-7 2 -11 3q-2 0 -23.5 5t-26 6.5t-24 7t-25.5 8.5t-22 10t-22 13t-16.5 15.5t-15 19.5t-8 23.5t-3.5 28.5q0 63 47 98.5t130 35.5q86 0 134.5 -42t48.5 -121z" />
    <glyph glyph-name="t" unicode="t" horiz-adv-x="241" 
d="M227 512v-19h-113v-370q0 -24 0.5 -33t3.5 -26.5t10 -25t21.5 -14t35.5 -6.5q17 0 42 4v-20q-25 -4 -41 -4q-33 0 -53 9t-28 29.5t-10 38t-2 50.5v368h-96v19h96v161h21v-161h113z" />
    <glyph glyph-name="u" unicode="u" 
d="M442 512v-512h-20v121q-53 -137 -185 -137q-88 0 -136.5 54.5t-48.5 144.5v329h21v-308q0 -51 3.5 -74.5t16.5 -47.5q19 -37 58 -58.5t87 -21.5q86 0 134.5 64.5t48.5 152.5v293h21z" />
    <glyph glyph-name="v" unicode="v" horiz-adv-x="407" 
d="M423 512l-196 -512h-27l-215 512h22l206 -492l189 492h21z" />
    <glyph glyph-name="w" unicode="w" horiz-adv-x="685" 
d="M696 512l-168 -512h-26l-160 492l-161 -492h-28l-166 512h21l159 -491l160 491h31l158 -489l159 489h21z" />
    <glyph glyph-name="x" unicode="x" horiz-adv-x="407" 
d="M405 512l-188 -246l206 -266h-26l-194 251l-194 -251h-24l206 266l-190 246h27l176 -231l177 231h24z" />
    <glyph glyph-name="y" unicode="y" horiz-adv-x="407" 
d="M414 512l-227 -596q-20 -53 -46.5 -72t-84.5 -19h-15v19q6 -1 12 -1q43 0 68 11.5t39 48.5q18 41 38 102l-215 507h22l204 -485l185 485h20z" />
    <glyph glyph-name="z" unicode="z" horiz-adv-x="407" 
d="M387 512v-23l-366 -470h383v-19h-401v26l364 467h-336v19h356z" />
    <glyph glyph-name="braceleft" unicode="{" horiz-adv-x="333" 
d="M182 109v-41q0 -107 9 -140q18 -70 97 -85q18 -4 39 -5v-17q-39 2 -67.5 10t-46 24.5t-27.5 32t-14.5 46t-5.5 51.5t-1 62v61q0 82 -29.5 111t-114.5 41v21q85 12 114.5 41t29.5 111v61q0 41 1 62t5.5 51.5t14.5 46t27.5 32t46 24.5t67.5 10v-17q-31 -2 -54 -9
t-38.5 -15.5t-26 -26.5t-15.5 -30.5t-7.5 -39.5t-3 -42t-0.5 -49v-18v-41q0 -76 -26.5 -114t-101.5 -46v-3q75 -8 101.5 -46t26.5 -114z" />
    <glyph glyph-name="bar" unicode="|" horiz-adv-x="222" 
d="M102 -214v1000h18v-1000h-18z" />
    <glyph glyph-name="braceright" unicode="}" horiz-adv-x="333" 
d="M312 260q-86 -12 -115 -40.5t-29 -111.5v-61q0 -41 -1 -62t-5.5 -51.5t-14.5 -46t-27.5 -32t-46 -24.5t-67.5 -10v17q24 1 43.5 6t33.5 10.5t25 17t18.5 20t12 26t7 28t4 33.5t1.5 34.5v38.5v16v41q0 76 26.5 114t101.5 46v3q-75 8 -101.5 46t-26.5 114v41q0 107 -9 141
q-20 71 -103 85q-15 3 -33 4v17q39 -2 67.5 -10t46 -24.5t27.5 -32t14.5 -46t5.5 -51.5t1 -62v-61q0 -83 29 -111.5t115 -40.5v-21z" />
    <glyph glyph-name="asciitilde" unicode="~" horiz-adv-x="600" 
d="M554 303q-13 -43 -42.5 -72t-71.5 -29q-28 0 -139 36q-4 1 -27 10t-38.5 14.5t-38 11t-38.5 5.5q-32 0 -57.5 -25t-37.5 -58h-18q15 46 44.5 73.5t68.5 27.5q15 0 37.5 -5t39.5 -10.5t41.5 -14.5t33.5 -12q99 -35 129 -35q34 0 59 24t37 59h18z" />
    <glyph glyph-name="sterling" unicode="&#xa3;" horiz-adv-x="556" 
d="M502 459h-18q-2 111 -53.5 164.5t-157.5 53.5q-95 0 -151.5 -43t-56.5 -115q0 -22 8.5 -48t17.5 -43.5t25.5 -46t23.5 -40.5h159v-16h-149q28 -64 28 -118q0 -56 -26 -100t-74 -92q58 34 106 34q30 0 84 -20q78 -30 107 -30q37 0 79 22.5t76 59.5l13 -14
q-85 -85 -167 -85q-35 0 -87 20q-78 29 -111 29q-55 0 -121 -48l-16 20q51 40 84.5 93t33.5 111q0 59 -31 118h-78v16h69q-3 5 -14 23.5t-15 26t-13 23.5t-13 26.5t-9 25.5t-7 28.5t-2 27.5q0 78 62.5 126t165.5 48q228 0 228 -237z" />
    <glyph glyph-name="currency" unicode="&#xa4;" horiz-adv-x="556" 
d="M64 135l64 64q-53 59 -53 137q0 76 53 137l-64 64l12 13l65 -64q59 53 137 53q77 0 138 -53l63 64l12 -13l-63 -63q53 -61 53 -138q0 -76 -53 -138l64 -64l-13 -12l-63 64q-62 -53 -138 -53t-137 53l-64 -63zM278 521q-77 0 -131 -54.5t-54 -130.5q0 -77 54.5 -130.5
t130.5 -53.5q77 0 131 54t54 130q0 77 -54.5 131t-130.5 54z" />
    <glyph glyph-name="brokenbar" unicode="&#xa6;" horiz-adv-x="222" 
d="M102 -89v250h18v-250h-18zM102 411v250h18v-250h-18z" />
    <glyph glyph-name="section" unicode="&#xa7;" horiz-adv-x="556" 
d="M439 529h-20q0 75 -41 116t-115 41q-59 0 -95.5 -30.5t-36.5 -79.5q0 -23 9 -42.5t24 -33t32.5 -24.5t37.5 -22q7 -3 10 -5q129 -70 177 -108q77 -61 77 -129q0 -46 -31.5 -83t-86.5 -53q61 -53 61 -110q0 -60 -45 -97.5t-118 -37.5q-82 0 -129 47.5t-47 128.5v10h20
q1 -82 40.5 -124.5t113.5 -42.5q64 0 104 31.5t40 82.5q0 55 -45 92q-29 23 -122 78q-6 4 -32.5 18.5t-38.5 22.5t-36 23.5t-36 28t-26.5 30t-21 36.5t-6.5 39q0 97 111 140q-56 37 -56 106q0 56 42.5 91t110.5 35q83 0 127.5 -44.5t47.5 -130.5zM184 462
q-107 -48 -107 -129q0 -15 5.5 -30.5t12 -27t21 -25.5t23.5 -22t29 -20.5t27.5 -17.5t29 -17t24.5 -14q89 -52 113 -70q56 16 86 47.5t30 74.5q0 60 -66 111q-58 46 -174 109q-30 17 -54 31z" />
    <glyph glyph-name="copyright" unicode="&#xa9;" horiz-adv-x="800" 
d="M400 730q152 0 258.5 -107.5t106.5 -257.5q0 -154 -108 -260t-261 -106t-257.5 107.5t-104.5 258.5q0 150 107 257.5t259 107.5zM400 712q-144 0 -245.5 -102t-101.5 -245q0 -145 100.5 -246t244.5 -101t246 100.5t102 246.5q0 144 -102 245.5t-244 101.5zM572 280
q-10 -57 -56 -90.5t-104 -33.5q-88 0 -141.5 62.5t-53.5 150.5q0 87 52 149t135 62q62 0 110 -38t54 -98h-18q-10 55 -49.5 86.5t-95.5 31.5q-77 0 -123.5 -56.5t-46.5 -134.5q0 -81 49 -139t127 -58q52 0 91.5 28.5t52.5 77.5h17z" />
    <glyph glyph-name="guillemotleft" unicode="&#xab;" horiz-adv-x="352" 
d="M269 416v-30l-82 -118l82 -110v-32l-100 132v18zM169 414v-30l-79 -116l79 -109v-31l-98 130v21z" />
    <glyph glyph-name="logicalnot" unicode="&#xac;" horiz-adv-x="600" 
d="M55 340v18h482v-202h-18v184h-464z" />
    <glyph glyph-name="registered" unicode="&#xae;" horiz-adv-x="400" 
d="M200 730q76 0 129.5 -54t53.5 -129q0 -77 -54 -130.5t-129 -53.5q-76 0 -130 53.5t-54 130.5q0 75 53.5 129t130.5 54zM200 715q-70 0 -119 -49.5t-49 -118.5q0 -70 49.5 -119t118.5 -49q70 0 119 49.5t49 118.5t-49.5 118.5t-118.5 49.5zM133 650h68q80 0 80 -56
q0 -18 -9.5 -32.5t-26.5 -18.5q33 -15 33 -68q0 -20 7 -29h-18q-4 7 -4 39q-1 29 -18 39.5t-49 10.5h-47v-89h-16v204zM149 551h53q63 0 63 42q0 15 -5.5 24t-16.5 12t-19.5 4t-23.5 1h-51v-83z" />
    <glyph glyph-name="degree" unicode="&#xb0;" horiz-adv-x="400" 
d="M200 694q56 0 95.5 -39.5t39.5 -95.5t-39.5 -95.5t-95.5 -39.5t-95.5 39.5t-39.5 95.5t40 95.5t95 39.5zM200 676q-49 0 -83 -34.5t-34 -82.5q0 -49 34.5 -83t82.5 -34q49 0 83 34.5t34 82.5q0 49 -34.5 83t-82.5 34z" />
    <glyph glyph-name="plusminus" unicode="&#xb1;" horiz-adv-x="600" 
d="M291 86v199h-232v18h232v199h18v-199h232v-18h-232v-199h-18zM59 0v18h482v-18h-482z" />
    <glyph glyph-name="mu" unicode="&#xb5;" horiz-adv-x="556" 
d="M452 512h21v-512h-21v120q-20 -61 -67.5 -98.5t-117.5 -37.5q-116 0 -163 101v-263h-21v690h21v-315q0 -48 6 -76q11 -53 55 -86t103 -33q86 0 135 63t49 148v299z" />
    <glyph glyph-name="paragraph" unicode="&#xb6;" horiz-adv-x="600" 
d="M524 694h-58v-872h-19v872h-147v-872h-18v454q-96 0 -154.5 60t-58.5 155q0 108 63.5 164.5t175.5 56.5h216v-18z" />
    <glyph glyph-name="periodcentered" unicode="&#xb7;" horiz-adv-x="278" 
d="M150 358v-98h-22v98h22z" />
    <glyph glyph-name="guillemotright" unicode="&#xbb;" horiz-adv-x="352" 
d="M184 413l97 -131v-19l-97 -135v30l80 116l-80 106v33zM84 414l100 -132v-18l-100 -138v29l83 118l-83 111v30z" />
    <glyph glyph-name="divide" unicode="&#xf7;" horiz-adv-x="600" 
d="M312 337h-22v92h22v-92zM549 242h-498v19h498v-19zM312 74h-22v92h22v-92z" />
    <glyph glyph-name="florin" unicode="&#x192;" horiz-adv-x="556" 
d="M409 420l-3 -18h-128l-77 -397q-21 -107 -54 -151t-91 -44q-24 0 -46 7l4 19q22 -5 44 -5q49 0 77.5 43t43.5 126l76 402h-119l5 18h118l19 94q8 39 12 55.5t15.5 46t25.5 43t38.5 24.5t57.5 11q25 0 59 -8l-5 -18q-29 5 -55 5q-33 0 -56.5 -12t-36.5 -36t-20 -45.5
t-13 -56.5l-19 -103h128z" />
    <glyph glyph-name="afii10023" unicode="&#x401;" horiz-adv-x="537" 
d="M527 712v-19h-453v-312h427v-19h-427v-343h458v-19h-478v712h473zM372 867v-104h-21v104h21zM204 867v-104h-20v104h20z" />
    <glyph glyph-name="afii10051" unicode="&#x402;" horiz-adv-x="685" 
d="M643 161q0 111 -54.5 179t-144.5 68q-93 0 -150.5 -70t-57.5 -182v-156h-20v693h-227v19h534v-19h-287v-421h2q25 73 77 114.5t129 41.5q98 0 158.5 -73.5t60.5 -193.5q0 -121 -61 -196t-160 -75v20q92 0 146.5 68t54.5 183z" />
    <glyph glyph-name="afii10052" unicode="&#x403;" horiz-adv-x="463" 
d="M74 693v-693h-20v712h419v-19h-399zM358 909l-137 -140h-23l133 140h27z" />
    <glyph glyph-name="afii10053" unicode="&#x404;" horiz-adv-x="685" 
d="M654 237q-22 -113 -105.5 -183t-197.5 -70q-153 0 -238.5 107.5t-85.5 263.5q0 167 91 270.5t238 103.5q106 0 187.5 -61.5t99.5 -154.5h-20q-23 91 -97.5 144t-172.5 53q-131 0 -214.5 -90.5t-91.5 -238.5h418v-19h-418v-7q0 -95 32.5 -173t103.5 -128.5t168 -50.5
q110 0 184.5 65t98.5 169h20z" />
    <glyph glyph-name="afii10054" unicode="&#x405;" horiz-adv-x="611" 
d="M557 512h-21q-7 195 -240 195q-101 0 -158 -43t-57 -120q0 -25 7.5 -46t17.5 -35.5t29 -27.5t34 -20.5t41 -15.5t41 -11.5t43.5 -9t39.5 -8.5q106 -24 138 -38q99 -42 99 -149q0 -92 -69 -144.5t-190 -52.5t-196.5 59.5t-75.5 177.5v13h20v-3q0 -111 65 -170.5t186 -59.5
q113 0 176.5 47.5t63.5 132.5q0 24 -6.5 44.5t-15 35t-25.5 27t-30 19.5t-37 15t-37.5 11l-40.5 9t-38 9q-8 2 -33.5 7.5t-36.5 8.5t-34.5 9.5t-35.5 11.5t-31.5 14t-30 18t-23.5 22.5t-19.5 28t-11.5 33t-5 40.5q0 84 63 132.5t172 48.5q116 0 187 -53t75 -162z" />
    <glyph glyph-name="afii10055" unicode="&#x406;" horiz-adv-x="128" 
d="M74 712v-712h-20v712h20z" />
    <glyph glyph-name="afii10056" unicode="&#x407;" horiz-adv-x="128" 
d="M74 712v-712h-20v712h20zM158 867v-104h-21v104h21zM-10 867v-104h-20v104h20z" />
    <glyph glyph-name="afii10057" unicode="&#x408;" horiz-adv-x="463" 
d="M408 712v-535q0 -93 -48.5 -142.5t-143.5 -49.5q-106 0 -150 53t-44 159q0 12 1 24h18l-1 -35q-4 -183 176 -183q171 0 171 178v531h21z" />
    <glyph glyph-name="afii10058" unicode="&#x409;" horiz-adv-x="985" 
d="M970 203q0 -92 -61 -147.5t-166 -55.5h-229v693h-297v-57q0 -53 -5.5 -206.5t-15.5 -255.5q-3 -32 -10.5 -61t-21 -57.5t-38 -45t-56.5 -16.5q-48 0 -70 13v24q25 -17 69 -17q91 0 108 161q20 194 20 494v43h337v-313h219q104 0 160.5 -51.5t56.5 -144.5zM949 204
q0 84 -51 130t-146 46h-218v-361h218q89 0 143 51.5t54 133.5z" />
    <glyph glyph-name="afii10059" unicode="&#x40a;" horiz-adv-x="985" 
d="M504 380h-430v-380h-20v712h20v-313h430v313h20v-313h229q104 0 160.5 -51.5t56.5 -144.5q0 -92 -61 -147.5t-166 -55.5h-239v380zM949 204q0 84 -51 130t-146 46h-228v-361h228q89 0 143 51.5t54 133.5z" />
    <glyph glyph-name="afii10060" unicode="&#x40b;" horiz-adv-x="685" 
d="M420 431q62 0 105 -16t66 -39t35 -64t14.5 -73.5t2.5 -85.5v-153h-20v171q0 123 -41.5 181.5t-162.5 58.5q-49 0 -102 -31.5t-83 -67.5v-312h-20v693h-227v19h534v-19h-287v-354q26 33 81 62.5t105 29.5z" />
    <glyph glyph-name="afii10061" unicode="&#x40c;" horiz-adv-x="593" 
d="M597 712l-345 -300l368 -412h-26l-357 398l-163 -144v-254h-20v712h20v-434l494 434h29zM393 909l-137 -140h-23l133 140h27z" />
    <glyph glyph-name="afii10062" unicode="&#x40e;" horiz-adv-x="537" 
d="M257 153l-264 559h22l254 -534l255 534h21l-302 -634q-45 -95 -124 -95q-16 0 -42.5 7.5t-37.5 14.5v22q12 -8 39 -16t43 -8q64 0 106 88zM155 867h20q17 -87 102 -87q91 0 104 87h20q-18 -107 -125 -107q-101 0 -121 107z" />
    <glyph glyph-name="afii10145" unicode="&#x40f;" horiz-adv-x="648" 
d="M342 0v-177h-20v177h-268v712h20v-693h500v693h20v-712h-252z" />
    <glyph glyph-name="afii10017" unicode="&#x410;" horiz-adv-x="575" 
d="M300 712l286 -712h-23l-94 235h-362l-96 -235h-23l293 712h19zM462 254l-172 436l-176 -436h348z" />
    <glyph glyph-name="afii10018" unicode="&#x411;" horiz-adv-x="611" 
d="M583 203q0 -92 -61 -147.5t-166 -55.5h-299v712h474v-19h-454v-294h289q104 0 160.5 -51.5t56.5 -144.5zM562 204q0 84 -51 130t-146 46h-288v-361h288q89 0 143 51.5t54 133.5z" />
    <glyph glyph-name="afii10019" unicode="&#x412;" horiz-adv-x="611" 
d="M55 712h285q95 0 158.5 -42.5t63.5 -133.5q0 -66 -42.5 -112t-110.5 -54q72 -6 123.5 -51t51.5 -126q0 -82 -56 -132t-139 -57q-48 -4 -80 -4h-254v712zM75 694v-316h223q97 0 135 12q12 4 23 9q85 41 85 136q0 59 -32 96t-76.5 50t-103.5 13h-254zM75 359v-340h251
q47 0 86.5 8t74.5 27t55.5 55t20.5 86q0 88 -63.5 126t-158.5 38h-266z" />
    <glyph glyph-name="afii10020" unicode="&#x413;" horiz-adv-x="463" 
d="M74 693v-693h-20v712h419v-19h-399z" />
    <glyph glyph-name="afii10021" unicode="&#x414;" horiz-adv-x="648" 
d="M644 -178h-20v178h-600v-178h-20v197h66q39 74 64.5 159.5t35 177t12.5 152.5t3 145v59h379v-693h80v-197zM544 19v674h-339v-70q0 -395 -111 -604h450z" />
    <glyph glyph-name="afii10022" unicode="&#x415;" horiz-adv-x="537" 
d="M527 712v-19h-453v-312h427v-19h-427v-343h458v-19h-478v712h473z" />
    <glyph glyph-name="afii10024" unicode="&#x416;" horiz-adv-x="978" 
d="M346 388l-330 -388h-27l343 402l-304 310h28l423 -432v432h20v-432l423 432h28l-304 -310l343 -402h-27l-330 388l-133 -135v-253h-20v253z" />
    <glyph glyph-name="afii10025" unicode="&#x417;" horiz-adv-x="611" 
d="M312 710q-212 0 -232 -197h-20q22 217 252 217q107 0 171 -49.5t64 -139.5q0 -65 -36 -110t-109 -54v-2q66 -3 112 -50.5t46 -117.5q0 -100 -72 -162t-184 -62q-123 0 -194 67t-71 184v3h20v-3q0 -109 64.5 -170t180.5 -61q105 0 170 56.5t65 147.5q0 72 -52.5 115.5
t-141.5 43.5h-100v20h100q84 0 132.5 41t48.5 114q0 79 -57 124t-157 45z" />
    <glyph glyph-name="afii10026" unicode="&#x418;" horiz-adv-x="648" 
d="M574 695l-489 -695h-31v712h20v-695l489 695h31v-712h-20v695z" />
    <glyph glyph-name="afii10027" unicode="&#x419;" horiz-adv-x="648" 
d="M200 867h20q17 -87 102 -87q90 0 104 87h20q-18 -107 -125 -107q-101 0 -121 107zM574 695l-489 -695h-31v712h20v-695l489 695h31v-712h-20v695z" />
    <glyph glyph-name="afii10028" unicode="&#x41a;" horiz-adv-x="593" 
d="M594 712l-345 -300l368 -412h-26l-357 398l-163 -144v-254h-20v712h20v-434l494 434h29z" />
    <glyph glyph-name="afii10029" unicode="&#x41b;" horiz-adv-x="648" 
d="M187 175q20 194 20 494v43h387v-712h-20v693h-347v-57q0 -53 -5.5 -206.5t-15.5 -255.5q-3 -32 -10.5 -61t-21 -57.5t-38 -45t-56.5 -16.5q-48 0 -70 13v24q25 -17 69 -17q91 0 108 161z" />
    <glyph glyph-name="afii10030" unicode="&#x41c;" horiz-adv-x="780" 
d="M725 712v-712h-20v629q0 10 1 29.5t1 29.5q-202 -459 -304 -688h-25l-304 688q0 -10 0.5 -30t0.5 -30v-628h-21v712h30l306 -690l308 690h27z" />
    <glyph glyph-name="afii10031" unicode="&#x41d;" horiz-adv-x="648" 
d="M594 712v-712h-21v362h-498v-362h-21v712h21v-331h498v331h21z" />
    <glyph glyph-name="afii10032" unicode="&#x41e;" horiz-adv-x="721" 
d="M357 730q149 0 242.5 -106t93.5 -274q0 -163 -93 -265t-242 -102q-147 0 -238.5 103.5t-91.5 269.5q0 165 92 269.5t237 104.5zM359 711q-136 0 -222.5 -99t-86.5 -254q0 -158 85.5 -257t221.5 -99q140 0 227 97t87 252q0 159 -87 259.5t-225 100.5z" />
    <glyph glyph-name="afii10033" unicode="&#x41f;" horiz-adv-x="648" 
d="M574 693h-500v-693h-20v712h540v-712h-20v693z" />
    <glyph glyph-name="afii10034" unicode="&#x420;" horiz-adv-x="574" 
d="M59 712h300q91 0 148.5 -48t57.5 -145q0 -88 -58 -141t-155 -53h-273v-325h-20v712zM79 693v-349h268q86 0 141.5 44t55.5 130q0 175 -199 175h-266z" />
    <glyph glyph-name="afii10035" unicode="&#x421;" horiz-adv-x="685" 
d="M664 280q-10 -130 -97 -213t-212 -83q-153 0 -238.5 107.5t-85.5 263.5q0 167 91 270.5t238 103.5q111 0 194 -66t96 -165h-19q-19 98 -95.5 155t-178.5 57q-136 0 -221 -98.5t-85 -256.5q0 -95 32.5 -173t103.5 -128.5t168 -50.5q121 0 199 78t91 199h19z" />
    <glyph glyph-name="afii10036" unicode="&#x422;" 
d="M519 712v-19h-259v-693h-20v693h-259v19h538z" />
    <glyph glyph-name="afii10037" unicode="&#x423;" horiz-adv-x="537" 
d="M257 153l-264 559h22l254 -534l255 534h21l-302 -634q-45 -95 -124 -95q-16 0 -42.5 7.5t-37.5 14.5v22q12 -8 39 -16t43 -8q64 0 106 88z" />
    <glyph glyph-name="afii10038" unicode="&#x424;" horiz-adv-x="714" 
d="M686 360q0 -134 -91 -204t-228 -70v-86h-20v86q-137 0 -228 70t-91 204t91 204t228 70v78h20v-78q137 0 228 -70t91 -204zM665 360q0 125 -83.5 189.5t-214.5 64.5v-508q131 0 214.5 64.5t83.5 189.5zM347 106v508q-131 0 -214.5 -64.5t-83.5 -189.5t83.5 -189.5
t214.5 -64.5z" />
    <glyph glyph-name="afii10039" unicode="&#x425;" horiz-adv-x="520" 
d="M535 712l-261 -347l274 -365h-25l-264 349l-263 -349h-25l275 365l-260 347h25l248 -330l253 330h23z" />
    <glyph glyph-name="afii10040" unicode="&#x426;" horiz-adv-x="667" 
d="M654 -178h-20v178h-580v712h20v-693h480v693h20v-693h80v-197z" />
    <glyph glyph-name="afii10041" unicode="&#x427;" horiz-adv-x="611" 
d="M557 0h-20v363q-48 -22 -117.5 -41t-124.5 -19q-67 0 -113 12.5t-72.5 32t-40.5 55t-18 70t-4 88.5v151h20v-149q0 -49 4 -82t17 -65.5t37 -51t65.5 -30t100.5 -11.5q107 0 246 60v329h20v-712z" />
    <glyph glyph-name="afii10042" unicode="&#x428;" horiz-adv-x="988" 
d="M934 0h-880v712h20v-693h410v693h20v-693h410v693h20v-712z" />
    <glyph glyph-name="afii10043" unicode="&#x429;" horiz-adv-x="1024" 
d="M1014 -178h-20v178h-940v712h20v-693h410v693h20v-693h410v693h20v-693h80v-197z" />
    <glyph glyph-name="afii10044" unicode="&#x42a;" horiz-adv-x="778" 
d="M763 203q0 -92 -61 -147.5t-166 -55.5h-279v693h-274v19h294v-313h269q104 0 160.5 -51.5t56.5 -144.5zM742 204q0 84 -51 130t-146 46h-268v-361h268q89 0 143 51.5t54 133.5z" />
    <glyph glyph-name="afii10045" unicode="&#x42b;" horiz-adv-x="778" 
d="M560 203q0 -92 -61 -147.5t-166 -55.5h-280v712h20v-313h270q104 0 160.5 -51.5t56.5 -144.5zM539 204q0 84 -51 130t-146 46h-269v-361h269q89 0 143 51.5t54 133.5zM704 712h20v-712h-20v712z" />
    <glyph glyph-name="afii10046" unicode="&#x42c;" horiz-adv-x="575" 
d="M560 203q0 -92 -61 -147.5t-166 -55.5h-279v712h20v-313h269q104 0 160.5 -51.5t56.5 -144.5zM539 204q0 84 -51 130t-146 46h-268v-361h268q89 0 143 51.5t54 133.5z" />
    <glyph glyph-name="afii10047" unicode="&#x42d;" horiz-adv-x="685" 
d="M654 355q0 -156 -85.5 -263.5t-238.5 -107.5q-114 0 -197.5 70t-105.5 183h20q24 -104 98.5 -169t184.5 -65q97 0 168 50.5t103.5 128.5t32.5 173v7h-419v19h418q-7 148 -91 238.5t-214 90.5q-98 0 -172.5 -53t-98.5 -144h-20q19 93 100.5 154.5t187.5 61.5
q147 0 238 -103.5t91 -270.5z" />
    <glyph glyph-name="afii10048" unicode="&#x42e;" horiz-adv-x="935" 
d="M571 730q149 0 242.5 -106t93.5 -274q0 -163 -93 -265t-242 -102q-147 0 -238.5 103.5t-91.5 269.5v6h-168v-362h-20v712h20v-331h169q7 156 97.5 252.5t230.5 96.5zM573 711q-136 0 -222.5 -99t-86.5 -254q0 -158 85.5 -257t221.5 -99q140 0 227 97t87 252
q0 159 -87 259.5t-225 100.5z" />
    <glyph glyph-name="afii10049" unicode="&#x42f;" horiz-adv-x="611" 
d="M293 335l-268 -335h-27l269 335q-100 1 -159 50t-59 142q0 185 218 185h292v-712h-20v335h-246zM539 354v339h-276q-193 0 -193 -163q0 -83 53 -129.5t140 -46.5h276z" />
    <glyph glyph-name="afii10065" unicode="&#x430;" horiz-adv-x="481" 
d="M487 22v-18q-15 -4 -32 -4q-16 0 -26.5 4.5t-16 10t-8 19t-3 21.5t-0.5 27q0 11 1 45q-56 -141 -206 -141q-81 0 -126 37.5t-45 104.5q0 141 202 155q21 2 49.5 3.5t40.5 2.5t26.5 2.5t22.5 4t14 6.5q21 13 21 64q0 141 -158 141q-154 0 -168 -152h-19q7 83 55.5 126.5
t133.5 43.5q79 0 127 -35.5t48 -110.5v-309q0 -27 7.5 -40t30.5 -13q13 0 29 5zM401 301q-7 -10 -18 -16.5t-30 -10t-33.5 -5t-47.5 -3t-53 -3.5q-38 -3 -65 -9.5t-54 -20.5t-41 -41t-14 -66q0 -58 40 -90.5t112 -32.5q84 0 136 50q68 65 68 151v97z" />
    <glyph glyph-name="afii10066" unicode="&#x431;" horiz-adv-x="519" 
d="M491 257q0 -118 -64 -193.5t-164 -75.5q-81 0 -141.5 52t-79.5 148q-6 34 -6 94q0 189 61 289q57 91 157 104l104 14q63 9 69 41h20q-5 -29 -24.5 -42t-72.5 -20l-89 -12q-53 -8 -86 -29t-64 -67q-47 -72 -58 -211h2q28 85 86 123.5t123 38.5q100 0 163.5 -69t63.5 -185z
M471 257q0 107 -57 170.5t-150 63.5q-87 0 -147.5 -63.5t-60.5 -165.5q0 -114 57.5 -184t150.5 -70q92 0 149.5 69.5t57.5 179.5z" />
    <glyph glyph-name="afii10067" unicode="&#x432;" horiz-adv-x="481" 
d="M55 0v512h238q65 0 104.5 -33.5t39.5 -90.5q0 -49 -29 -80.5t-79 -36.5v-2q57 -5 90.5 -38.5t33.5 -91.5q0 -64 -48 -101.5t-127 -37.5h-223zM75 259v-240h209q70 0 109.5 31t39.5 89q0 56 -39 88t-108 32h-211zM75 493v-215h211q60 0 95.5 29.5t35.5 80.5
q0 52 -34.5 78.5t-95.5 26.5h-212z" />
    <glyph glyph-name="afii10068" unicode="&#x433;" horiz-adv-x="379" 
d="M81 0h-20v512h323v-19h-303v-493z" />
    <glyph glyph-name="afii10069" unicode="&#x434;" horiz-adv-x="519" 
d="M440 512v-493h68v-196h-20v177h-466v-177h-20v196h58q50 97 65.5 217.5t15.5 275.5h299zM420 19v474h-260q0 -92 -3.5 -157t-22 -157t-52.5 -160h338z" />
    <glyph glyph-name="afii10070" unicode="&#x435;" 
d="M470 178q-12 -86 -69 -140.5t-146 -54.5q-103 0 -165.5 73t-62.5 194q0 122 63 197.5t166 75.5q104 0 161.5 -74.5t57.5 -174.5v-20h-427q0 -105 52 -179t155 -74q80 0 133 52t61 125h21zM455 273q0 94 -51.5 162.5t-147.5 68.5q-93 0 -149 -67.5t-59 -163.5h407z" />
    <glyph glyph-name="afii10072" unicode="&#x436;" horiz-adv-x="682" 
d="M236 279l-223 -279h-26l234 293l-210 219h28l292 -305v305h20v-305l292 305h28l-210 -219l234 -293h-26l-223 279l-95 -98v-181h-20v181z" />
    <glyph glyph-name="afii10073" unicode="&#x437;" horiz-adv-x="463" 
d="M231 506q-79 0 -119 -33.5t-48 -102.5h-20q8 77 52.5 116.5t134.5 39.5q83 0 132.5 -36t49.5 -101q0 -47 -25.5 -79t-78.5 -38v-2q48 -2 81 -36.5t33 -84.5q0 -73 -56 -119t-145 -46q-92 0 -143 49t-51 135v2h20v-3q0 -78 45.5 -120.5t128.5 -42.5q77 0 129 40.5
t52 104.5q0 51 -38 81t-103 30h-74v20h74q61 0 96 28.5t35 80.5q0 56 -44 86.5t-118 30.5z" />
    <glyph glyph-name="afii10074" unicode="&#x438;" 
d="M86 0h-31v512h20v-494h2l337 494h31v-512h-20v494h-2z" />
    <glyph glyph-name="afii10075" unicode="&#x439;" 
d="M128 712h20q17 -87 102 -87q90 0 104 87h20q-18 -107 -125 -107q-101 0 -121 107zM86 0h-31v512h20v-494h2l337 494h31v-512h-20v494h-2z" />
    <glyph glyph-name="afii10076" unicode="&#x43a;" horiz-adv-x="444" 
d="M458 0h-27l-233 292l-126 -111v-181h-20v512h20v-305l345 305h29l-233 -206z" />
    <glyph glyph-name="afii10077" unicode="&#x43b;" horiz-adv-x="519" 
d="M151 154q13 133 15 285l1 73h296v-512h-20v493h-256l-1 -54q-4 -174 -15 -285q-6 -65 -35 -112.5t-80 -47.5q-36 0 -57 10v24q25 -14 56 -14q42 0 66 42t30 98z" />
    <glyph glyph-name="afii10078" unicode="&#x43c;" horiz-adv-x="611" 
d="M74 0h-20v512h31l220 -491l220 491h31v-512h-20v488h-2l-217 -488h-24l-217 488h-2v-488z" />
    <glyph glyph-name="afii10079" unicode="&#x43d;" 
d="M75 0h-20v512h20v-236h350v236h20v-512h-20v257h-350v-257z" />
    <glyph glyph-name="afii10080" unicode="&#x43e;" horiz-adv-x="519" 
d="M28 251q0 123 64 199t168 76q101 0 166 -75.5t65 -193.5q0 -119 -64.5 -194t-167.5 -75q-100 0 -165.5 74.5t-65.5 188.5zM48 262q0 -114 58.5 -184t153.5 -70q93 0 152 69.5t59 179.5q0 109 -59.5 179t-151.5 70q-91 0 -151.5 -69.5t-60.5 -174.5z" />
    <glyph glyph-name="afii10081" unicode="&#x43f;" 
d="M75 0h-20v512h390v-512h-20v493h-350v-493z" />
    <glyph glyph-name="afii10082" unicode="&#x440;" horiz-adv-x="537" 
d="M80 512v-143q52 158 201 158q101 0 161.5 -74t60.5 -199q0 -122 -61 -196.5t-162 -74.5q-78 0 -129.5 41.5t-70.5 113.5l1 -58v-258h-20v690h19zM281 508q-96 0 -148.5 -67t-52.5 -190q0 -105 50 -177.5t151 -72.5q92 0 147 68.5t55 185.5q0 118 -54 185.5t-148 67.5z
" />
    <glyph glyph-name="afii10083" unicode="&#x441;" 
d="M472 175q-12 -89 -67.5 -140t-142.5 -51q-102 0 -165 74.5t-63 195.5q0 122 63.5 196t168.5 74q84 0 137.5 -45t63.5 -123h-20q-8 67 -56.5 108.5t-123.5 41.5q-97 0 -155 -68.5t-58 -184.5q0 -113 57 -182.5t149 -69.5q79 0 130 46.5t61 127.5h21z" />
    <glyph glyph-name="afii10084" unicode="&#x442;" horiz-adv-x="407" 
d="M214 0h-20v493h-201v19h422v-19h-201v-493z" />
    <glyph glyph-name="afii10085" unicode="&#x443;" horiz-adv-x="407" 
d="M414 512l-227 -596q-20 -53 -46.5 -72t-84.5 -19h-15v19q6 -1 12 -1q43 0 68 11.5t39 48.5q18 41 38 102l-215 507h22l204 -485l185 485h20z" />
    <glyph glyph-name="afii10086" unicode="&#x444;" horiz-adv-x="762" 
d="M734 256q0 -127 -57.5 -197.5t-150.5 -70.5q-41 0 -78 20.5t-55 51.5h-2v-238h-20v238q0 -1 -2 0q-18 -31 -55 -51.5t-78 -20.5q-93 0 -150.5 70.5t-57.5 197.5q0 132 56.5 201t152.5 69q42 0 78 -19.5t54 -52.5h2v258h20v-258h2q18 33 54 52.5t78 19.5q96 0 152.5 -69
t56.5 -201zM714 256q0 123 -52 186.5t-137 63.5q-56 0 -95 -35.5t-39 -91.5v-241q0 -59 38.5 -94.5t96.5 -35.5q83 0 135.5 64t52.5 184zM371 138v241q0 56 -39 91.5t-95 35.5q-85 0 -137 -63.5t-52 -186.5q0 -120 52.5 -184t135.5 -64q58 0 96.5 35.5t38.5 94.5z" />
    <glyph glyph-name="afii10087" unicode="&#x445;" horiz-adv-x="407" 
d="M405 512l-188 -246l206 -266h-26l-194 251l-194 -251h-24l206 266l-190 246h27l176 -231l177 231h24z" />
    <glyph glyph-name="afii10088" unicode="&#x446;" horiz-adv-x="519" 
d="M516 -177h-20v177h-444v512h20v-493h350v493h20v-493h74v-196z" />
    <glyph glyph-name="afii10089" unicode="&#x447;" horiz-adv-x="463" 
d="M388 255q-97 -43 -189 -43q-163 0 -163 168v132h20v-129q0 -74 38 -112.5t105 -38.5q93 0 189 45v235h20v-512h-20v255z" />
    <glyph glyph-name="afii10090" unicode="&#x448;" horiz-adv-x="758" 
d="M55 512h20v-493h294v493h20v-493h294v493h20v-512h-648v512z" />
    <glyph glyph-name="afii10091" unicode="&#x449;" horiz-adv-x="778" 
d="M773 -177h-20v177h-702v512h20v-493h294v493h20v-493h294v493h20v-493h74v-196z" />
    <glyph glyph-name="afii10092" unicode="&#x44a;" horiz-adv-x="611" 
d="M597 146q0 -66 -44 -106t-119 -40h-231v493h-213v19h233v-225h218q75 0 115.5 -37.5t40.5 -103.5zM577 146q0 57 -35 89.5t-101 32.5h-218v-249h211q68 0 105.5 35t37.5 92z" />
    <glyph glyph-name="afii10093" unicode="&#x44b;" horiz-adv-x="611" 
d="M428 146q0 -66 -44 -106t-119 -40h-210v512h20v-225h197q75 0 115.5 -37.5t40.5 -103.5zM408 146q0 57 -35 89.5t-101 32.5h-197v-249h190q68 0 105.5 35t37.5 92zM556 0h-20v512h20v-512z" />
    <glyph glyph-name="afii10094" unicode="&#x44c;" horiz-adv-x="463" 
d="M449 146q0 -66 -44 -106t-119 -40h-231v512h20v-225h218q75 0 115.5 -37.5t40.5 -103.5zM429 146q0 57 -35 89.5t-101 32.5h-218v-249h211q68 0 105.5 35t37.5 92z" />
    <glyph glyph-name="afii10095" unicode="&#x44d;" 
d="M470 254q0 -121 -63 -195.5t-165 -74.5q-84 0 -139.5 48.5t-69.5 134.5h21q12 -77 62.5 -121.5t127.5 -44.5q92 0 149 69.5t57 182.5v3h-280v20h279q-6 106 -63 168t-149 62q-72 0 -119.5 -38t-58.5 -101h-20q12 73 65 115t134 42q105 0 168.5 -74t63.5 -196z" />
    <glyph glyph-name="afii10096" unicode="&#x44e;" horiz-adv-x="698" 
d="M208 251v6h-133v-257h-20v512h20v-236h134q7 113 70 181.5t161 68.5q101 0 166 -75.5t65 -193.5q0 -119 -64.5 -194t-167.5 -75q-100 0 -165.5 74.5t-65.5 188.5zM228 262q0 -114 58.5 -184t153.5 -70q93 0 152 69.5t59 179.5q0 109 -59.5 179t-151.5 70
q-91 0 -151.5 -69.5t-60.5 -174.5z" />
    <glyph glyph-name="afii10097" unicode="&#x44f;" horiz-adv-x="481" 
d="M213 236l-187 -236h-27l188 236q-67 3 -108 40t-41 103q0 65 43.5 99t119.5 34h221v-512h-20v236h-189zM402 255v238h-201q-70 0 -106.5 -29t-36.5 -85q0 -60 38 -92t101 -32h205z" />
    <glyph glyph-name="afii10071" unicode="&#x451;" 
d="M470 178q-12 -86 -69 -140.5t-146 -54.5q-103 0 -165.5 73t-62.5 194q0 122 63 197.5t166 75.5q104 0 161.5 -74.5t57.5 -174.5v-20h-427q0 -105 52 -179t155 -74q80 0 133 52t61 125h21zM455 273q0 94 -51.5 162.5t-147.5 68.5q-93 0 -149 -67.5t-59 -163.5h407z
M176 712v-102h-21v102h21zM343 712v-102h-21v102h21z" />
    <glyph glyph-name="afii10099" unicode="&#x452;" 
d="M445 103q0 -119 -58 -197t-169 -83v20q95 5 151 73.5t56 185.5v96q0 78 -43 123t-119 45q-84 0 -136 -59.5t-52 -155.5v-151h-20v493h-60v19h60v200h20v-200h271v-19h-271v-246h2q14 60 63.5 99.5t121.5 39.5q84 0 133.5 -50t49.5 -135v-98z" />
    <glyph glyph-name="afii10100" unicode="&#x453;" horiz-adv-x="379" 
d="M303 738l-137 -140h-23l133 140h27zM81 0h-20v510h320v-19h-300v-491z" />
    <glyph glyph-name="afii10101" unicode="&#x454;" 
d="M470 167q-14 -86 -69 -134.5t-140 -48.5q-102 0 -165 74.5t-63 195.5q0 122 63.5 196t168.5 74q81 0 134 -42t66 -115h-20q-11 63 -59 101t-120 38q-92 0 -149 -62t-63 -168h279v-20h-280v-3q0 -113 57 -182.5t149 -69.5q78 0 128.5 44.5t61.5 121.5h21z" />
    <glyph glyph-name="afii10102" unicode="&#x455;" horiz-adv-x="463" 
d="M411 361h-21q0 144 -167 144q-70 0 -110.5 -30.5t-40.5 -82.5q0 -15 3 -27.5t11 -22.5t14.5 -17.5t20 -14.5t21.5 -11t25.5 -9t24.5 -6.5t26.5 -6t23.5 -5.5q92 -22 124 -41q58 -35 58 -101q0 -65 -53 -105.5t-138 -40.5q-97 0 -149 49.5t-52 141.5h21q0 -170 181 -170
q75 0 122.5 35t47.5 90q0 39 -29.5 66t-53 34.5t-73.5 19.5q-7 2 -11 3q-2 0 -23.5 5t-26 6.5t-24 7t-25.5 8.5t-22 10t-22 13t-16.5 15.5t-15 19.5t-8 23.5t-3.5 28.5q0 63 47 98.5t130 35.5q86 0 134.5 -42t48.5 -121z" />
    <glyph glyph-name="afii10103" unicode="&#x456;" horiz-adv-x="130" 
d="M75 712v-102h-21v102h21zM75 512v-512h-21v512h21z" />
    <glyph glyph-name="afii10104" unicode="&#x457;" horiz-adv-x="130" 
d="M75 512v-512h-21v512h21zM-8 712v-102h-21v102h21zM159 712v-102h-21v102h21z" />
    <glyph glyph-name="afii10105" unicode="&#x458;" horiz-adv-x="130" 
d="M78 512v-585q0 -61 -25 -83t-86 -22h-17v18h8q53 0 76 15.5t23 67.5v589h21zM78 712v-102h-21v102h21z" />
    <glyph glyph-name="afii10106" unicode="&#x459;" horiz-adv-x="763" 
d="M749 146q0 -66 -44 -106t-119 -40h-174v493h-225l-1 -54q-4 -174 -15 -285q-6 -65 -35 -112.5t-80 -47.5q-36 0 -57 10v24q25 -14 56 -14q42 0 66 42t30 98q13 133 15 285l1 73h265v-225h161q75 0 115.5 -37.5t40.5 -103.5zM729 146q0 57 -35 89.5t-101 32.5h-161v-249
h154q68 0 105.5 35t37.5 92z" />
    <glyph glyph-name="afii10107" unicode="&#x45a;" horiz-adv-x="743" 
d="M729 146q0 -66 -44 -106t-119 -40h-191v265h-300v-265h-20v512h20v-228h300v228h20v-228h178q75 0 115.5 -36t40.5 -102zM709 146q0 57 -34.5 88t-101.5 31h-178v-246h171q68 0 105.5 35t37.5 92z" />
    <glyph glyph-name="afii10108" unicode="&#x45b;" 
d="M445 0h-20v198q0 78 -43 123t-119 45q-84 0 -136 -59.5t-52 -155.5v-151h-20v493h-60v19h60v201h20v-201h271v-19h-271v-246h2q16 62 64 100.5t121 38.5q84 0 133.5 -50t49.5 -135v-201z" />
    <glyph glyph-name="afii10109" unicode="&#x45c;" horiz-adv-x="444" 
d="M461 0h-27l-233 292l-126 -111v-181h-20v512h20v-305l345 305h29l-233 -206zM333 738l-137 -140h-23l133 140h27z" />
    <glyph glyph-name="afii10110" unicode="&#x45e;" horiz-adv-x="407" 
d="M414 512l-227 -596q-20 -53 -46.5 -72t-84.5 -19h-15v19q6 -1 12 -1q43 0 68 11.5t39 48.5q18 41 38 102l-215 507h22l204 -485l185 485h20zM86 712h20q17 -87 102 -87q90 0 104 87h20q-18 -107 -125 -107q-101 0 -121 107z" />
    <glyph glyph-name="afii10193" unicode="&#x45f;" 
d="M259 0v-177h-20v177h-184v512h20v-493h350v493h20v-512h-186z" />
    <glyph glyph-name="afii10050" unicode="&#x490;" horiz-adv-x="463" 
d="M473 875v-182h-399v-693h-20v712h399v163h20z" />
    <glyph glyph-name="afii10098" unicode="&#x491;" horiz-adv-x="379" 
d="M369 512v159h20v-178h-315v-493h-20v512h315z" />
    <glyph glyph-name="endash" unicode="&#x2013;" 
d="M500 278v-18h-500v18h500z" />
    <glyph glyph-name="emdash" unicode="&#x2014;" horiz-adv-x="1000" 
d="M1000 278v-18h-1000v18h1000z" />
    <glyph glyph-name="quoteleft" unicode="&#x2018;" horiz-adv-x="167" 
d="M76 504v91q0 52 9.5 80t34.5 48v-28q-24 -24 -24 -85v-106h-20z" />
    <glyph glyph-name="quoteright" unicode="&#x2019;" horiz-adv-x="167" 
d="M93 712v-91q0 -52 -9.5 -80t-34.5 -48v28q24 24 24 85v106h20z" />
    <glyph glyph-name="quotesinglbase" unicode="&#x201a;" horiz-adv-x="167" 
d="M93 98v-91q0 -52 -9.5 -80t-34.5 -48v28q24 24 24 85v106h20z" />
    <glyph glyph-name="quotedblleft" unicode="&#x201c;" horiz-adv-x="278" 
d="M79 505v91q0 52 9.5 80t34.5 48v-28q-24 -24 -24 -85v-106h-20zM178 505v91q0 52 9.5 80t34.5 48v-28q-24 -24 -24 -85v-106h-20z" />
    <glyph glyph-name="quotedblright" unicode="&#x201d;" horiz-adv-x="278" 
d="M97 712v-91q0 -52 -9.5 -80t-34.5 -48v28q24 24 24 85v106h20zM197 712v-91q0 -52 -9.5 -80t-34.5 -48v28q24 24 24 85v106h20z" />
    <glyph glyph-name="quotedblbase" unicode="&#x201e;" horiz-adv-x="278" 
d="M97 97v-91q0 -52 -9.5 -80t-34.5 -48v28q24 24 24 85v106h20zM197 97v-91q0 -52 -9.5 -80t-34.5 -48v28q24 24 24 85v106h20z" />
    <glyph glyph-name="dagger" unicode="&#x2020;" horiz-adv-x="556" 
d="M498 468v-18h-210v-591h-19v591h-211v18h211v244h19v-244h210z" />
    <glyph glyph-name="daggerdbl" unicode="&#x2021;" horiz-adv-x="556" 
d="M497 516v-19h-209v-422h209v-18h-209v-197h-19v197h-210v18h210v422h-210v19h210v196h19v-196h209z" />
    <glyph glyph-name="bullet" unicode="&#x2022;" 
d="M250 534q74 0 126 -52.5t52 -125.5q0 -74 -52.5 -126t-125.5 -52q-74 0 -126 52.5t-52 125.5q0 74 52.5 126t125.5 52z" />
    <glyph glyph-name="ellipsis" unicode="&#x2026;" horiz-adv-x="1000" 
d="M179 98v-98h-22v98h22zM511 98v-98h-22v98h22zM843 98v-98h-22v98h22z" />
    <glyph glyph-name="perthousand" unicode="&#x2030;" horiz-adv-x="1037" 
d="M587 722l-468 -751h-23l467 751h24zM505 326q70 0 111.5 -44.5t41.5 -120.5q0 -80 -40.5 -125.5t-110.5 -45.5q-73 0 -114 44.5t-41 123.5q0 78 41 123t112 45zM867 327q70 0 111 -45t41 -122q0 -78 -41 -124t-111 -46q-72 0 -113.5 44.5t-41.5 123.5q0 78 41.5 123.5
t113.5 45.5zM177 705q71 0 112.5 -45.5t41.5 -123.5q0 -76 -42.5 -122.5t-112.5 -46.5q-71 0 -111.5 45t-40.5 125q0 77 41.5 122.5t111.5 45.5zM504 308q-64 0 -98.5 -39.5t-34.5 -112.5q0 -71 35.5 -110t99.5 -39q63 0 98.5 41t35.5 114q0 67 -36.5 106.5t-99.5 39.5z
M867 309q-63 0 -99.5 -40t-36.5 -109q0 -71 36 -111.5t99 -40.5t98.5 41t35.5 113q0 69 -35.5 108t-97.5 39zM176 685q-62 0 -98 -40.5t-36 -110.5t35.5 -109t98.5 -39t99.5 41t36.5 111q0 69 -36 108t-100 39z" />
    <glyph glyph-name="guilsinglleft" unicode="&#x2039;" horiz-adv-x="259" 
d="M172 416v-33l-80 -115l80 -108v-32l-98 132v19z" />
    <glyph glyph-name="guilsinglright" unicode="&#x203a;" horiz-adv-x="259" 
d="M89 416l98 -133v-20l-98 -136v32l81 116l-81 109v32z" />
    <glyph glyph-name="afii61352" unicode="&#x2116;" horiz-adv-x="936" 
d="M880 281q0 -65 -36.5 -104.5t-94.5 -39.5q-56 0 -93 39.5t-37 101.5q0 65 36.5 104.5t94.5 39.5q57 0 93.5 -39t36.5 -102zM880 0h-261v19h261v-19zM544 0h-28l-440 655h-2v-655h-20v680h28l440 -655h2v655h20v-680zM860 280q0 53 -32 87.5t-78 34.5t-78.5 -34.5
t-32.5 -83.5q0 -56 31.5 -91.5t79.5 -35.5q46 0 78 35t32 88z" />
    <glyph glyph-name="trademark" unicode="&#x2122;" horiz-adv-x="990" 
d="M253 356v337h-132v19h283v-19h-132v-337h-19zM482 356v356h29l133 -334l133 334h29v-356h-18v332l-134 -332h-20l-134 332v-332h-18z" />
    <glyph glyph-name="Delta" unicode="&#x2206;" horiz-adv-x="611" 
d="M307 712l293 -712h-589l289 712h7zM37 18h536l-270 654z" />
    <glyph glyph-name="radical" unicode="&#x221a;" horiz-adv-x="600" 
d="M506 777l-219 -996h-10l-188 386l-44 -21l-6 15l58 28l180 -373l211 962z" />
    <glyph glyph-name="infinity" unicode="&#x221e;" horiz-adv-x="722" 
d="M361 264q39 35 58 51t59 38t72 22q52 0 85 -35.5t33 -87.5q0 -55 -32.5 -90t-87.5 -35q-29 0 -58 12.5t-43 23t-46.5 40t-39.5 35.5q-11 -9 -40.5 -36t-44.5 -38.5t-43.5 -23.5t-57.5 -12q-56 0 -88.5 34t-32.5 90q0 52 32.5 87.5t84.5 35.5q33 0 73.5 -22t58.5 -37.5
t58 -51.5zM373 251q4 -3 20.5 -18.5t23.5 -21.5t22.5 -19t26 -19t25 -14t28.5 -11t28 -3q48 0 75.5 29t27.5 78q0 45 -27 75t-70 30q-29 0 -68 -21.5t-57 -36.5t-55 -48zM349 250q-37 33 -55.5 49t-56.5 37t-69 21q-43 0 -69.5 -31t-26.5 -74q0 -47 27 -76.5t74 -29.5
q13 0 26.5 3t24 6.5t24 12t21.5 13.5t22.5 17t19.5 16.5t20 18.5t18 17z" />
    <glyph glyph-name="approxequal" unicode="&#x2248;" horiz-adv-x="600" 
d="M554 222q-13 -43 -42.5 -72t-71.5 -29q-33 0 -139 37q-3 1 -35.5 13.5t-59.5 19.5t-47 7q-32 0 -57.5 -25t-37.5 -58h-18q15 46 44.5 73.5t68.5 27.5q15 0 37.5 -5t39.5 -10.5t41.5 -14.5t33.5 -12q99 -35 129 -35q34 0 59 24t37 59h18zM554 388q-13 -43 -42.5 -72
t-71.5 -29q-28 0 -139 36q-4 1 -27 10t-38.5 14.5t-38 11t-38.5 5.5q-32 0 -57.5 -25t-37.5 -58h-18q15 45 44.5 72.5t68.5 27.5q15 0 37.5 -5t39.5 -10.5t41.5 -14.5t33.5 -12q7 -2 29 -9.5t36 -12t32.5 -9t31.5 -4.5q34 0 59 24.5t37 59.5h18z" />
    <glyph glyph-name="notequal" unicode="&#x2260;" horiz-adv-x="600" 
d="M549 147h-295l-73 -137l-16 9l69 128h-183v19h193l93 174h-286v19h296l72 134l15 -8l-67 -126h182v-19h-192l-93 -174h285v-19z" />
    <glyph glyph-name="lessequal" unicode="&#x2264;" horiz-adv-x="600" 
d="M59 260v18l482 207v-19l-461 -197l461 -195v-19zM59 15h482v-18h-482v18z" />
    <glyph glyph-name="greaterequal" unicode="&#x2265;" horiz-adv-x="600" 
d="M541 260l-482 -205v19l461 195l-461 197v19l482 -207v-18zM541 15v-18h-482v18h482z" />
    <glyph glyph-name="hyphenminus" unicode="&#xe000;" horiz-adv-x="333" 
d="M256 276v-17h-179v17h179z" />
    <glyph glyph-name="nbspace" unicode="&#xe001;" horiz-adv-x="278" 
 />
    </font>
</defs>
</svg>
