<?xml version="1.0" encoding="UTF-8" standalone="no"?>
<!-- Created with Inkscape (http://www.inkscape.org/) -->

<svg
   xmlns:dc="http://purl.org/dc/elements/1.1/"
   xmlns:cc="http://creativecommons.org/ns#"
   xmlns:rdf="http://www.w3.org/1999/02/22-rdf-syntax-ns#"
   xmlns:svg="http://www.w3.org/2000/svg"
   xmlns="http://www.w3.org/2000/svg"
   version="1.1"
   width="500"
   height="183.75"
   id="svg2985"
   xml:space="preserve"><metadata
     id="metadata2991"><rdf:RDF><cc:Work
         rdf:about=""><dc:format>image/svg+xml</dc:format><dc:type
           rdf:resource="http://purl.org/dc/dcmitype/StillImage" /><dc:title></dc:title></cc:Work></rdf:RDF></metadata><defs
     id="defs2989" /><g
     transform="matrix(1.25,0,0,-1.25,0,183.75)"
     id="g2993"><g
       transform="scale(0.1,0.1)"
       id="g2995"><path
         d="m 2979.92,1006.54 1010.63,0 0,-196.52 -1010.63,0 0,196.52 z m 19.61,-19.919 219.34,0 0,-31.332 -219.34,0 0,31.332 z m 815.24,0 0,-31.332 30.85,0 0,-31.32 62,0 0,31.32 31.99,0 0,-125.348 31.37,0 0,156.68 -63.36,0 0,-31.332 -30.67,0 0,-62.687 -31.33,0 0,31.367 -30.85,0 0,31.32 -31.84,0 0,-125.348 -31.33,0 0,156.68 63.17,0 z m -282.54,-94.019 0,-62.661 -31.33,0 0,156.68 219.37,0 0,-156.68 -31.32,0 0,62.661 -156.72,0 z m 0,31.367 188.04,0 0,31.32 -188.04,0 0,-31.32 z m -438.68,0 31.33,0 0,-94.028 -31.33,0 0,94.028 z m 156.68,-62.699 219.34,0 0,-31.329 -219.34,0 0,31.329 z m 0,62.699 219.34,0 0,-31.367 -219.34,0 0,31.367 z m 0,62.652 219.34,0 0,-31.332 -219.34,0 0,31.332"
         id="path2997"
         style="fill:#f05920;fill-opacity:1;fill-rule:evenodd;stroke:none" /><path
         d="m 55.7383,1169.01 507.3127,292.81 c 8.898,5.15 19.14,5.15 28.039,0 8.91,-5.16 14.031,-13.99 14.031,-24.3 l 0,-195.7 c 0,-10.31 -5.121,-19.14 -14.031,-24.3 l -337.809,-195 c -8.902,-5.15 -19.14,-5.15 -28.051,0 l -169.4917,97.85 c -8.9375,5.16 -14.0195,14.03 -14.0195,24.3 0,10.31 5.082,19.18 14.0195,24.34"
         id="path2999"
         style="fill:#b4725a;fill-opacity:1;fill-rule:evenodd;stroke:none" /><path
         d="M 42.1094,387.949 211.602,485.84 c 8.91,5.16 14.019,13.988 14.019,24.301 l 0,455.429 c 0,10.27 -5.109,19.141 -14.019,24.301 L 42.1094,1087.72 c -8.9492,5.15 -19.1406,5.15 -28.0899,0 C 5.12109,1082.56 0,1073.73 0,1063.42 L 0,412.289 c 0,-10.32 5.12109,-19.18 14.0195,-24.34 8.9493,-5.121 19.1407,-5.121 28.0899,0"
         id="path3001"
         style="fill:#766a76;fill-opacity:1;fill-rule:evenodd;stroke:none" /><path
         d="M 563.051,13.8516 55.7383,306.699 c -8.9375,5.16 -14.0195,13.992 -14.0195,24.301 0,10.309 5.082,19.141 14.0195,24.289 L 225.23,453.191 c 8.911,5.149 19.149,5.149 28.051,0 l 337.809,-195 c 8.91,-5.16 14.031,-14.031 14.031,-24.3 l 0,-195.7426 c 0,-10.2773 -5.121,-19.1367 -14.031,-24.2968 -8.899,-5.12113 -19.141,-5.16019 -28.039,0"
         id="path3003"
         style="fill:#905d4c;fill-opacity:1;fill-rule:evenodd;stroke:none" /><path
         d="m 1193.52,355.289 -169.5,97.902 c -8.9,5.149 -19.14,5.149 -28.04,0 l -337.82,-195 c -8.898,-5.16 -14.019,-14.031 -14.019,-24.3 l 0,-195.7426 c 0,-10.2773 5.121,-19.1367 14.019,-24.2968 8.949,-5.12113 19.141,-5.16019 28.09,0 l 507.27,292.8474 c 8.94,5.16 14.02,13.992 14.02,24.301 0,10.309 -5.08,19.141 -14.02,24.289"
         id="path3005"
         style="fill:#b4725a;fill-opacity:1;fill-rule:evenodd;stroke:none" /><path
         d="m 1037.66,989.871 169.49,97.849 c 8.94,5.15 19.14,5.15 28.08,0 8.91,-5.16 14.03,-13.99 14.03,-24.3 l 0,-651.131 c 0,-10.32 -5.12,-19.18 -14.03,-24.34 -8.94,-5.121 -19.14,-5.121 -28.08,0 l -169.49,97.891 c -8.91,5.16 -14.03,13.988 -14.03,24.301 l 0,455.429 c 0,10.309 5.12,19.141 14.03,24.301"
         id="path3007"
         style="fill:#766a76;fill-opacity:1;fill-rule:evenodd;stroke:none" /><path
         d="m 686.25,1461.82 507.27,-292.81 c 8.94,-5.16 14.02,-14.03 14.02,-24.34 0,-10.27 -5.08,-19.14 -13.99,-24.3 l -169.53,-97.85 c -8.9,-5.15 -19.14,-5.15 -28.04,0 l -337.82,195 c -8.898,5.16 -14.019,13.99 -14.019,24.3 l 0,195.7 c 0,10.31 5.121,19.14 14.019,24.3 8.949,5.15 19.141,5.15 28.09,0"
         id="path3009"
         style="fill:#905d4c;fill-opacity:1;fill-rule:evenodd;stroke:none" /><path
         d="m 369.879,477.051 -84.219,0 c -10.781,0 -20.07,5.238 -25.66,14.461 -5.59,9.25 -5.941,19.879 -0.898,29.449 L 600.59,1173.42 c 5.308,10.16 15.109,16.09 26.601,16.09 11.438,0 21.25,-5.93 26.559,-16.09 L 995.23,520.961 c 5.04,-9.57 4.692,-20.199 -0.89,-29.449 -5.59,-9.223 -14.891,-14.461 -25.668,-14.461 l -439.184,0 c -10.617,0 -19.718,5.039 -25.386,13.988 -5.661,8.981 -6.25,19.41 -1.68,28.941 l 32.5,67.969 c 5.117,10.672 15.238,17.071 27.066,17.071 l 187.742,0 c 10.821,0 20.071,5.242 25.7,14.449 5.59,9.261 5.898,19.89 0.898,29.461 L 653.75,883.109 c -5.309,10.153 -15.121,16.09 -26.559,16.09 -11.492,0 -21.293,-5.937 -26.601,-16.09 L 396.48,493.148 c -5.308,-10.16 -15.152,-16.097 -26.601,-16.097"
         id="path3011"
         style="fill:#f05920;fill-opacity:1;fill-rule:evenodd;stroke:none" /><path
         d="m 1686.95,891.699 -28.08,83.442 -20.16,-62.231 -0.19,-0.512 -6.72,-20.699 0.04,0 -21.14,-65.578 -5.04,-15 -37.61,0 70.5,196.519 41.1,0 73.9,-196.519 -122.22,0 9.1,31.707 62.85,0 -16.37,48.871 0.04,0"
         id="path3013"
         style="fill:#f05920;fill-opacity:1;fill-rule:evenodd;stroke:none" /><path
         d="m 1942.23,811.121 -40.43,0 -17.35,48.859 c -1.56,4.258 -3.47,8.168 -5.82,11.801 -2.3,3.547 -5.04,6.559 -8.2,9.098 -3.2,2.543 -6.64,4.449 -10.43,5.781 -3.75,1.371 -7.97,2.031 -12.54,2.031 l -36.64,0 0,-77.57 -37.5,0 0,196.519 87.34,0 c 7.35,0 14.18,-0.31 20.43,-0.94 6.21,-0.66 11.96,-1.8 17.19,-3.44 5.24,-1.6 9.96,-3.901 14.1,-6.83 4.18,-2.852 7.78,-6.68 10.86,-11.328 6.29,-9.262 9.46,-20.43 9.46,-33.403 0,-13.871 -3.68,-25.078 -10.98,-33.668 -7.34,-8.562 -17.66,-14.41 -30.98,-17.543 l 0,-0.386 c 7.54,-2.543 13.75,-6.883 18.79,-13.012 4.92,-6.168 9.42,-14.18 13.28,-24.141 l 19.42,-51.828 z m -131.41,108.508 45.94,0 c 6.68,0 12.42,0.551 17.19,1.68 4.76,1.089 8.67,2.812 11.75,5.203 3.05,2.379 5.28,5.457 6.76,9.207 1.45,3.793 2.19,8.293 2.19,13.64 0,9.762 -2.89,16.95 -8.67,21.602 -5.82,4.609 -14.53,6.949 -26.18,6.949 l -48.98,0 0,-58.281"
         id="path3015"
         style="fill:#f05920;fill-opacity:1;fill-rule:evenodd;stroke:none" /><path
         d="m 2057.62,807.828 c -14.1,0 -27.03,2.352 -38.67,7.043 -11.72,4.719 -21.68,11.438 -30,20.188 -8.33,8.75 -14.81,19.41 -19.42,31.953 -4.61,12.539 -6.87,26.609 -6.87,42.308 0,15.078 2.11,28.828 6.36,41.328 4.26,12.5 10.47,23.204 18.6,32.114 8.16,8.859 18.08,15.816 29.84,20.778 11.68,4.88 24.92,7.38 39.61,7.38 12.11,0 23.2,-1.56 33.32,-4.65 10.04,-3.08 18.83,-7.54 26.25,-13.282 7.5,-5.816 13.48,-12.726 18.05,-20.898 4.57,-8.16 7.38,-17.34 8.43,-27.5 l -37.46,0 c -0.5,5.351 -1.99,10.16 -4.45,14.488 -2.5,4.262 -5.78,7.934 -9.88,10.902 -4.18,2.969 -9.06,5.2 -14.77,6.801 -5.74,1.52 -12.07,2.297 -19.06,2.297 -8.52,0 -16.25,-1.519 -23.16,-4.527 -6.88,-3.082 -12.78,-7.582 -17.62,-13.551 -4.88,-5.98 -8.63,-13.281 -11.37,-21.961 -2.73,-8.668 -4.06,-18.551 -4.06,-29.719 0,-11.25 1.37,-21.211 4.18,-29.879 2.69,-8.722 6.56,-16.019 11.52,-21.921 4.92,-5.86 10.9,-10.348 17.93,-13.36 6.99,-3.012 14.88,-4.488 23.6,-4.488 11.17,0 20.97,1.68 29.49,5.078 8.51,3.359 15.62,8.512 21.21,15.512 l 0,24.289 -44.3,0 0,29.418 81.17,0 0,-102.848 -23.94,0 -5.55,17.34 c -6.64,-6.68 -14.8,-11.801 -24.49,-15.313 -9.61,-3.519 -21.09,-5.32 -34.49,-5.32"
         id="path3017"
         style="fill:#f05920;fill-opacity:1;fill-rule:evenodd;stroke:none" /><path
         d="m 2526.8,811.121 -35.12,0 c 0,43.75 0.43,80.457 -0.23,124.918 l 0,71.601 35.35,0 0,-196.519 z m -46.57,13.82 -79.02,127.848 1.02,-69.918 0,-71.75 -35.39,0 0,196.519 38,0 75.39,-121.921 0,-60.778"
         id="path3019"
         style="fill:#f05920;fill-opacity:1;fill-rule:evenodd;stroke:none" /><path
         d="m 2709.49,975.219 -59.76,0 0,-164.098 -37.5,0 0,164.098 -59.14,0 0,32.421 156.4,0 0,-32.421"
         id="path3021"
         style="fill:#f05920;fill-opacity:1;fill-rule:evenodd;stroke:none" /><path
         d="m 2183.79,975.531 145.781,0 0,32.1094 -145.781,0 0,-32.1094 z"
         id="path3023"
         style="fill:#f05920;fill-opacity:1;fill-rule:evenodd;stroke:none" /><path
         d="m 2183.79,895.488 145.781,0 0,32.1133 -145.781,0 0,-32.1133 z"
         id="path3025"
         style="fill:#f05920;fill-opacity:1;fill-rule:evenodd;stroke:none" /><path
         d="m 2183.79,809.859 145.781,0 0,32.1094 -145.781,0 0,-32.1094 z"
         id="path3027"
         style="fill:#f05920;fill-opacity:1;fill-rule:evenodd;stroke:none" /><path
         d="m 2830.94,891.699 -28.09,83.442 -20.15,-62.231 -0.2,-0.512 -6.68,-20.699 -21.13,-65.578 -5.04,-15 -37.62,0 70.51,196.519 41.09,0 73.91,-196.519 -122.23,0 9.1,31.707 62.86,0 -16.37,48.871 0.04,0"
         id="path3029"
         style="fill:#f05920;fill-opacity:1;fill-rule:evenodd;stroke:none" /><path
         d="m 1683.16,613.031 -93.63,0 c -4.45,0 -8.2,-1.492 -11.17,-4.453 -2.97,-2.969 -4.45,-6.719 -4.45,-11.18 l 0,-124.839 c 0,-4.45 1.48,-8.161 4.45,-11.129 2.97,-2.969 6.72,-4.461 11.17,-4.461 l 93.63,0 c 4.61,0 9.65,0.82 15.16,2.472 5.47,1.637 10.59,4.289 15.27,8 4.69,3.707 8.56,8.559 11.68,14.5 3.13,5.93 4.69,13.239 4.69,21.829 0,6.839 -1.05,12.808 -3.12,17.968 -2.07,5.121 -4.69,9.532 -7.78,13.242 3.09,3.711 5.71,8.168 7.78,13.282 2.07,5.117 3.12,11.097 3.12,17.929 0,8.637 -1.56,15.899 -4.69,21.879 -3.12,5.942 -6.99,10.739 -11.68,14.489 -4.68,3.711 -9.8,6.371 -15.27,8.011 -5.51,1.641 -10.55,2.461 -15.16,2.461 z m 15.59,-46.84 c 0,-3.121 -0.47,-5.66 -1.45,-7.691 -0.97,-1.988 -2.18,-3.602 -3.67,-4.77 -1.48,-1.21 -3.16,-2.031 -5,-2.46 -1.87,-0.43 -3.71,-0.661 -5.47,-0.661 l -78.04,0 0,31.211 78.04,0 c 1.64,0 3.36,-0.242 5.24,-0.672 1.83,-0.457 3.55,-1.277 5.12,-2.457 1.56,-1.211 2.81,-2.769 3.78,-4.8 0.98,-1.993 1.45,-4.571 1.45,-7.7 z m -15.59,-78 -78.04,0 0,31.207 78.04,0 c 1.64,0 3.36,-0.238 5.24,-0.668 1.83,-0.468 3.55,-1.289 5.12,-2.46 1.56,-1.168 2.81,-2.77 3.78,-4.801 0.98,-2 1.45,-4.571 1.45,-7.699 0,-3.122 -0.47,-5.661 -1.45,-7.692 -0.97,-2 -2.22,-3.598 -3.78,-4.769 -1.57,-1.207 -3.29,-2.028 -5.12,-2.457 -1.88,-0.43 -3.6,-0.661 -5.24,-0.661"
         id="path3031"
         style="fill:#b4725a;fill-opacity:1;fill-rule:nonzero;stroke:none" /><path
         d="m 1794.61,581.82 93.63,0 c 4.46,0 8.17,1.481 11.17,4.45 2.93,2.968 4.42,6.679 4.42,11.128 0,4.461 -1.49,8.211 -4.42,11.18 -3,2.961 -6.71,4.453 -11.17,4.453 l -93.63,0 c -8.63,0 -15.9,-1.562 -21.84,-4.691 -5.93,-3.121 -10.78,-7.031 -14.49,-11.719 -3.71,-4.68 -6.4,-9.762 -8.05,-15.269 -1.6,-5.473 -2.42,-10.551 -2.42,-15.161 l 0,-62.421 c 0,-8.59 1.53,-15.899 4.69,-21.829 3.09,-5.941 6.99,-10.793 11.68,-14.5 4.69,-3.711 9.73,-6.363 15.16,-8 5.43,-1.652 10.5,-2.472 15.27,-2.472 l 93.63,0 c 4.46,0 8.17,1.492 11.17,4.461 2.93,2.968 4.42,6.679 4.42,11.129 0,4.492 -1.49,8.203 -4.42,11.171 -3,2.969 -6.71,4.461 -11.17,4.461 l -93.63,0 c -1.64,0 -3.36,0.231 -5.23,0.661 -1.88,0.429 -3.56,1.25 -5.12,2.457 -1.56,1.171 -2.85,2.769 -3.79,4.769 -0.98,2.031 -1.45,4.57 -1.45,7.692 l 0,15.628 46.8,0 c 4.45,0 8.16,1.481 11.13,4.454 3.01,2.968 4.46,6.679 4.46,11.128 0,4.461 -1.45,8.211 -4.46,11.168 -2.97,2.973 -6.68,4.461 -11.13,4.461 l -46.8,0 0,15.582 c 0,1.637 0.2,3.399 0.67,5.239 0.43,1.871 1.25,3.59 2.42,5.148 1.21,1.57 2.81,2.82 4.8,3.793 2,0.938 4.57,1.449 7.7,1.449"
         id="path3033"
         style="fill:#b4725a;fill-opacity:1;fill-rule:nonzero;stroke:none" /><path
         d="m 1968.48,581.82 93.63,0 c 4.49,0 8.2,1.481 11.17,4.45 2.97,2.968 4.45,6.679 4.45,11.128 0,4.461 -1.48,8.211 -4.45,11.18 -2.97,2.961 -6.68,4.453 -11.17,4.453 l -93.63,0 c -8.6,0 -15.9,-1.562 -21.84,-4.691 -5.94,-3.121 -10.78,-7.031 -14.49,-11.719 -3.71,-4.68 -6.37,-9.762 -8.01,-15.269 -1.64,-5.473 -2.46,-10.551 -2.46,-15.161 l 0,-62.421 c 0,-8.59 1.56,-15.899 4.69,-21.829 3.12,-5.941 7.03,-10.793 11.68,-14.5 4.68,-3.711 9.76,-6.363 15.19,-8 5.43,-1.652 10.51,-2.472 15.24,-2.472 l 93.63,0 c 4.49,0 8.2,1.492 11.17,4.461 2.97,2.968 4.45,6.679 4.45,11.129 0,4.492 -1.48,8.203 -4.45,11.171 -2.97,2.969 -6.68,4.461 -11.17,4.461 l -93.63,0 c -1.64,0 -3.36,0.231 -5.24,0.661 -1.83,0.429 -3.55,1.25 -5.12,2.457 -1.56,1.171 -2.81,2.769 -3.78,4.769 -0.98,2.031 -1.45,4.57 -1.45,7.692 l 0,62.421 c 0,1.637 0.23,3.399 0.66,5.239 0.47,1.871 1.29,3.59 2.47,5.148 1.17,1.57 2.77,2.82 4.8,3.793 1.99,0.938 4.57,1.449 7.66,1.449"
         id="path3035"
         style="fill:#b4725a;fill-opacity:1;fill-rule:nonzero;stroke:none" /><path
         d="m 2204.8,613.031 -62.42,0 c -8.63,0 -15.9,-1.562 -21.83,-4.691 -5.98,-3.121 -10.78,-7.031 -14.5,-11.719 -3.71,-4.68 -6.4,-9.762 -8.04,-15.269 -1.64,-5.473 -2.46,-10.551 -2.46,-15.161 l 0,-93.632 c 0,-4.45 1.52,-8.161 4.49,-11.129 2.97,-2.969 6.68,-4.461 11.13,-4.461 4.45,0 8.17,1.492 11.13,4.461 2.97,2.968 4.46,6.679 4.46,11.129 l 0,46.839 93.63,0 0,-46.839 c 0,-4.45 1.52,-8.161 4.45,-11.129 3.01,-2.969 6.72,-4.461 11.18,-4.461 4.45,0 8.16,1.492 11.13,4.461 2.97,2.968 4.45,6.679 4.45,11.129 l 0,93.632 c 0,8.637 -1.56,15.899 -4.65,21.879 -3.12,5.942 -7.03,10.739 -11.72,14.489 -4.68,3.711 -9.76,6.371 -15.27,8.011 -5.51,1.641 -10.55,2.461 -15.16,2.461 z m -78.04,-62.422 0,15.582 c 0,1.637 0.23,3.399 0.7,5.239 0.43,1.871 1.25,3.59 2.42,5.148 1.21,1.57 2.82,2.82 4.81,3.793 1.99,0.938 4.57,1.449 7.69,1.449 l 62.42,0 c 1.65,0 3.36,-0.242 5.24,-0.672 1.87,-0.457 3.55,-1.277 5.12,-2.457 1.56,-1.211 2.81,-2.769 3.79,-4.8 0.97,-1.993 1.44,-4.571 1.44,-7.7 l 0,-15.582 -93.63,0"
         id="path3037"
         style="fill:#b4725a;fill-opacity:1;fill-rule:nonzero;stroke:none" /><path
         d="m 2409.88,613.031 c -4.45,0 -8.16,-1.492 -11.13,-4.453 -2.97,-2.969 -4.45,-6.719 -4.45,-11.18 l 0,-93.628 c 0,-3.122 -0.51,-5.661 -1.45,-7.692 -0.97,-2 -2.26,-3.598 -3.79,-4.769 -1.56,-1.207 -3.28,-2.028 -5.15,-2.457 -1.84,-0.43 -3.6,-0.661 -5.24,-0.661 l -62.42,0 c -3.09,0 -5.66,0.457 -7.66,1.438 -2.03,0.98 -3.63,2.23 -4.8,3.793 -1.21,1.558 -2.03,3.277 -2.46,5.117 -0.43,1.871 -0.67,3.633 -0.67,5.231 l 0,93.628 c 0,4.461 -1.48,8.211 -4.45,11.18 -2.97,2.961 -6.68,4.453 -11.17,4.453 -4.45,0 -8.16,-1.492 -11.13,-4.453 -2.97,-2.969 -4.46,-6.719 -4.46,-11.18 l 0,-93.628 c 0,-4.731 0.82,-9.84 2.46,-15.27 1.64,-5.391 4.3,-10.469 8.01,-15.16 3.71,-4.649 8.56,-8.551 14.49,-11.68 5.94,-3.121 13.25,-4.691 21.84,-4.691 l 62.42,0 c 4.61,0 9.65,0.82 15.16,2.472 5.51,1.637 10.58,4.289 15.27,8 4.69,3.707 8.6,8.559 11.72,14.5 3.13,5.93 4.69,13.239 4.69,21.829 l 0,93.628 c 0,4.461 -1.49,8.211 -4.46,11.18 -3,2.961 -6.71,4.453 -11.17,4.453"
         id="path3039"
         style="fill:#b4725a;fill-opacity:1;fill-rule:nonzero;stroke:none" /><path
         d="m 2490.16,581.82 93.63,0 c 4.45,0 8.16,1.481 11.13,4.45 2.97,2.968 4.46,6.679 4.46,11.128 0,4.461 -1.49,8.211 -4.46,11.18 -2.97,2.961 -6.68,4.453 -11.13,4.453 l -93.63,0 c -4.77,0 -9.85,-0.82 -15.28,-2.461 -5.43,-1.64 -10.47,-4.3 -15.15,-8.011 -4.69,-3.75 -8.6,-8.547 -11.72,-14.489 -3.13,-5.98 -4.69,-13.242 -4.69,-21.879 0,-8.589 1.56,-15.902 4.69,-21.832 3.12,-5.937 7.03,-10.781 11.72,-14.488 4.68,-3.723 9.72,-6.41 15.15,-8.012 5.43,-1.64 10.51,-2.461 15.28,-2.461 l 62.42,0 c 1.6,0 3.36,-0.238 5.23,-0.668 1.84,-0.468 3.56,-1.289 5.12,-2.46 1.56,-1.168 2.81,-2.77 3.79,-4.801 0.98,-2 1.44,-4.571 1.44,-7.699 0,-3.122 -0.46,-5.661 -1.44,-7.692 -0.98,-2 -2.23,-3.598 -3.79,-4.769 -1.56,-1.207 -3.28,-2.028 -5.12,-2.457 -1.87,-0.43 -3.63,-0.661 -5.23,-0.661 l -93.63,0 c -4.46,0 -8.17,-1.492 -11.18,-4.461 -2.97,-2.968 -4.45,-6.679 -4.45,-11.171 0,-4.45 1.48,-8.161 4.45,-11.129 3.01,-2.969 6.72,-4.461 11.18,-4.461 l 93.63,0 c 4.61,0 9.65,0.82 15.15,2.472 5.51,1.637 10.59,4.289 15.28,8 4.65,3.707 8.55,8.559 11.68,14.5 3.12,5.93 4.69,13.239 4.69,21.829 0,8.628 -1.57,15.902 -4.69,21.878 -3.13,5.93 -7.03,10.743 -11.68,14.493 -4.69,3.711 -9.77,6.371 -15.28,8.007 -5.5,1.641 -10.54,2.461 -15.15,2.461 l -62.42,0 c -1.64,0 -3.4,0.231 -5.24,0.661 -1.87,0.429 -3.59,1.25 -5.15,2.46 -1.57,1.168 -2.82,2.782 -3.79,4.77 -0.94,2.031 -1.45,4.57 -1.45,7.691 0,3.129 0.51,5.707 1.45,7.7 0.97,2.031 2.22,3.589 3.79,4.8 1.56,1.18 3.28,2 5.15,2.457 1.84,0.43 3.6,0.672 5.24,0.672"
         id="path3041"
         style="fill:#b4725a;fill-opacity:1;fill-rule:nonzero;stroke:none" /><path
         d="m 2664.02,581.82 93.64,0 c 4.45,0 8.16,1.481 11.13,4.45 2.97,2.968 4.49,6.679 4.49,11.128 0,4.461 -1.52,8.211 -4.49,11.18 -2.97,2.961 -6.68,4.453 -11.13,4.453 l -93.64,0 c -8.63,0 -15.9,-1.562 -21.83,-4.691 -5.94,-3.121 -10.78,-7.031 -14.49,-11.719 -3.72,-4.68 -6.41,-9.762 -8.05,-15.269 -1.6,-5.473 -2.42,-10.551 -2.42,-15.161 l 0,-62.421 c 0,-8.59 1.56,-15.899 4.68,-21.829 3.09,-5.941 7,-10.793 11.68,-14.5 4.69,-3.711 9.73,-6.363 15.16,-8 5.43,-1.652 10.51,-2.472 15.27,-2.472 l 93.64,0 c 4.45,0 8.16,1.492 11.13,4.461 2.97,2.968 4.49,6.679 4.49,11.129 0,4.492 -1.52,8.203 -4.49,11.171 -2.97,2.969 -6.68,4.461 -11.13,4.461 l -93.64,0 c -1.64,0 -3.36,0.231 -5.23,0.661 -1.88,0.429 -3.56,1.25 -5.12,2.457 -1.56,1.171 -2.85,2.769 -3.79,4.769 -0.97,2.031 -1.44,4.57 -1.44,7.692 l 0,15.628 46.79,0 c 4.46,0 8.17,1.481 11.14,4.454 2.97,2.968 4.45,6.679 4.45,11.128 0,4.461 -1.48,8.211 -4.45,11.168 -2.97,2.973 -6.68,4.461 -11.14,4.461 l -46.79,0 0,15.582 c 0,1.637 0.19,3.399 0.66,5.239 0.43,1.871 1.25,3.59 2.46,5.148 1.17,1.57 2.78,2.82 4.77,3.793 2.03,0.938 4.57,1.449 7.69,1.449"
         id="path3043"
         style="fill:#b4725a;fill-opacity:1;fill-rule:nonzero;stroke:none" /><path
         d="m 3105.43,613.031 c -4.45,0 -8.2,-1.492 -11.17,-4.453 -2.97,-2.969 -4.46,-6.719 -4.46,-11.18 l 0,-87.378 -35.89,35.902 c -3.09,3.117 -6.76,4.687 -10.9,4.687 -4.18,0 -7.81,-1.57 -10.94,-4.687 l -35.9,-35.902 0,87.378 c 0,4.461 -1.48,8.211 -4.45,11.18 -2.97,2.961 -6.68,4.453 -11.13,4.453 -4.46,0 -8.17,-1.492 -11.14,-4.453 -2.97,-2.969 -4.45,-6.719 -4.45,-11.18 l 0,-124.839 c 0,-3.118 0.82,-6.02 2.54,-8.668 1.72,-2.7 4.14,-4.61 7.26,-5.821 2.97,-1.172 5.98,-1.492 9.03,-0.859 3.05,0.578 5.58,2.07 7.69,4.449 l 51.49,51.488 51.48,-51.488 c 2.11,-2.379 4.65,-3.871 7.7,-4.449 3.04,-0.633 6.05,-0.313 9.02,0.859 3.13,1.211 5.55,3.121 7.27,5.821 1.68,2.648 2.54,5.55 2.54,8.668 l 0,124.839 c 0,4.461 -1.49,8.211 -4.46,11.18 -2.97,2.961 -6.68,4.453 -11.13,4.453"
         id="path3045"
         style="fill:#b4725a;fill-opacity:1;fill-rule:nonzero;stroke:none" /><path
         d="m 3185.66,581.82 93.64,0 c 4.45,0 8.2,1.481 11.17,4.45 2.97,2.968 4.45,6.679 4.45,11.128 0,4.461 -1.48,8.211 -4.45,11.18 -2.97,2.961 -6.72,4.453 -11.17,4.453 l -93.64,0 c -8.59,0 -15.89,-1.562 -21.83,-4.691 -5.94,-3.121 -10.78,-7.031 -14.49,-11.719 -3.72,-4.68 -6.41,-9.762 -8.01,-15.269 -1.64,-5.473 -2.46,-10.551 -2.46,-15.161 l 0,-62.421 c 0,-8.59 1.56,-15.899 4.68,-21.829 3.13,-5.941 7,-10.793 11.68,-14.5 4.69,-3.711 9.77,-6.363 15.16,-8 5.43,-1.652 10.51,-2.472 15.27,-2.472 l 93.64,0 c 4.45,0 8.2,1.492 11.17,4.461 2.97,2.968 4.45,6.679 4.45,11.129 0,4.492 -1.48,8.203 -4.45,11.171 -2.97,2.969 -6.72,4.461 -11.17,4.461 l -93.64,0 c -1.64,0 -3.36,0.231 -5.23,0.661 -1.84,0.429 -3.55,1.25 -5.12,2.457 -1.56,1.171 -2.81,2.769 -3.79,4.769 -0.97,2.031 -1.44,4.57 -1.44,7.692 l 0,15.628 46.8,0 c 4.45,0 8.2,1.481 11.17,4.454 2.97,2.968 4.45,6.679 4.45,11.128 0,4.461 -1.48,8.211 -4.45,11.168 -2.97,2.973 -6.72,4.461 -11.17,4.461 l -46.8,0 0,15.582 c 0,1.637 0.23,3.399 0.66,5.239 0.43,1.871 1.25,3.59 2.46,5.148 1.18,1.57 2.78,2.82 4.77,3.793 2.03,0.938 4.57,1.449 7.69,1.449"
         id="path3047"
         style="fill:#b4725a;fill-opacity:1;fill-rule:nonzero;stroke:none" /><path
         d="m 3533.44,581.82 93.63,0 c 4.45,0 8.16,1.481 11.13,4.45 3.01,2.968 4.46,6.679 4.46,11.128 0,4.461 -1.45,8.211 -4.46,11.18 -2.97,2.961 -6.68,4.453 -11.13,4.453 l -93.63,0 c -8.6,0 -15.9,-1.562 -21.84,-4.691 -5.94,-3.121 -10.78,-7.031 -14.49,-11.719 -3.71,-4.68 -6.41,-9.762 -8.05,-15.269 -1.6,-5.473 -2.42,-10.551 -2.42,-15.161 l 0,-62.421 c 0,-8.59 1.56,-15.899 4.65,-21.829 3.12,-5.941 7.03,-10.793 11.72,-14.5 4.69,-3.711 9.72,-6.363 15.15,-8 5.43,-1.652 10.51,-2.472 15.28,-2.472 l 93.63,0 c 4.45,0 8.16,1.492 11.13,4.461 3.01,2.968 4.46,6.679 4.46,11.129 0,4.492 -1.45,8.203 -4.46,11.171 -2.97,2.969 -6.68,4.461 -11.13,4.461 l -93.63,0 c -1.64,0 -3.4,0.231 -5.24,0.661 -1.87,0.429 -3.55,1.25 -5.11,2.457 -1.57,1.171 -2.82,2.769 -3.79,4.769 -0.98,2.031 -1.45,4.57 -1.45,7.692 l 0,62.421 c 0,1.637 0.2,3.399 0.67,5.239 0.43,1.871 1.25,3.59 2.42,5.148 1.21,1.57 2.81,2.82 4.8,3.793 2.03,0.938 4.57,1.449 7.7,1.449"
         id="path3049"
         style="fill:#b4725a;fill-opacity:1;fill-rule:nonzero;stroke:none" /><path
         d="m 3769.73,613.031 -62.39,0 c -8.63,0 -15.93,-1.562 -21.87,-4.691 -5.94,-3.121 -10.78,-7.031 -14.49,-11.719 -3.71,-4.68 -6.37,-9.762 -8.01,-15.269 -1.64,-5.473 -2.46,-10.551 -2.46,-15.161 l 0,-93.632 c 0,-4.45 1.48,-8.161 4.45,-11.129 2.97,-2.969 6.68,-4.461 11.17,-4.461 4.46,0 8.17,1.492 11.14,4.461 2.96,2.968 4.45,6.679 4.45,11.129 l 0,46.839 93.63,0 0,-46.839 c 0,-4.45 1.49,-8.161 4.45,-11.129 2.97,-2.969 6.68,-4.461 11.14,-4.461 4.49,0 8.2,1.492 11.17,4.461 2.97,2.968 4.45,6.679 4.45,11.129 l 0,93.632 c 0,8.637 -1.56,15.899 -4.68,21.879 -3.13,5.942 -7.04,10.739 -11.72,14.489 -4.65,3.711 -9.77,6.371 -15.24,8.011 -5.51,1.641 -10.58,2.461 -15.19,2.461 z m -78.01,-62.422 0,15.582 c 0,1.637 0.23,3.399 0.66,5.239 0.47,1.871 1.29,3.59 2.46,5.148 1.18,1.57 2.78,2.82 4.81,3.793 1.99,0.938 4.57,1.449 7.69,1.449 l 62.39,0 c 1.64,0 3.39,-0.242 5.27,-0.672 1.84,-0.457 3.55,-1.277 5.12,-2.457 1.56,-1.211 2.81,-2.769 3.79,-4.8 0.97,-1.993 1.44,-4.571 1.44,-7.7 l 0,-15.582 -93.63,0"
         id="path3051"
         style="fill:#b4725a;fill-opacity:1;fill-rule:nonzero;stroke:none" /><path
         d="m 3974.84,613.031 c -4.45,0 -8.16,-1.492 -11.13,-4.453 -3.01,-2.969 -4.49,-6.719 -4.49,-11.18 l 0,-87.378 -98.32,98.32 c -2.07,2.379 -4.61,3.871 -7.66,4.449 -3.04,0.59 -6.05,0.32 -9.06,-0.891 -3.09,-1.179 -5.51,-3.128 -7.23,-5.777 -1.72,-2.699 -2.54,-5.59 -2.54,-8.723 l 0,-124.839 c 0,-4.45 1.45,-8.161 4.46,-11.129 2.97,-2.969 6.68,-4.461 11.13,-4.461 4.45,0 8.16,1.492 11.13,4.461 2.97,2.968 4.46,6.679 4.46,11.129 l 0,87.421 98.32,-98.32 c 2.07,-2.379 4.64,-3.871 7.69,-4.449 3.05,-0.633 6.06,-0.313 9.02,0.859 3.13,1.211 5.55,3.121 7.27,5.821 1.68,2.648 2.54,5.55 2.54,8.668 l 0,124.839 c 0,4.461 -1.48,8.211 -4.45,11.18 -2.97,2.961 -6.68,4.453 -11.14,4.453"
         id="path3053"
         style="fill:#b4725a;fill-opacity:1;fill-rule:nonzero;stroke:none" /><path
         d="m 1454.73,1081.62 c 7.61,0 13.82,-6.21 13.82,-13.83 l 0,-668.118 c 0,-7.582 -6.21,-13.832 -13.82,-13.832 -7.62,0 -13.83,6.25 -13.83,13.832 l 0,668.118 c 0,7.62 6.21,13.83 13.83,13.83"
         id="path3055"
         style="fill:#766a76;fill-opacity:1;fill-rule:evenodd;stroke:none" /></g></g></svg>