<?xml version="1.0" encoding="UTF-8" standalone="no"?>
<!-- Created with Inkscape (http://www.inkscape.org/) -->

<svg
   xmlns:dc="http://purl.org/dc/elements/1.1/"
   xmlns:cc="http://creativecommons.org/ns#"
   xmlns:rdf="http://www.w3.org/1999/02/22-rdf-syntax-ns#"
   xmlns:svg="http://www.w3.org/2000/svg"
   xmlns="http://www.w3.org/2000/svg"
   xmlns:sodipodi="http://sodipodi.sourceforge.net/DTD/sodipodi-0.dtd"
   xmlns:inkscape="http://www.inkscape.org/namespaces/inkscape"
   width="252"
   height="235"
   id="svg3018"
   version="1.1"
   inkscape:version="0.48.3.1 r9886"
   sodipodi:docname="logo_252x235_text_in_bottom_2line.svg"
   inkscape:export-filename="/home/oleg/public_html/03_temp/logo_252x235_text_in_bottom_2line.png"
   inkscape:export-xdpi="386.90189"
   inkscape:export-ydpi="386.90189">
  <defs
     id="defs3020" />
  <sodipodi:namedview
     id="base"
     pagecolor="#ffffff"
     bordercolor="#666666"
     borderopacity="1.0"
     inkscape:pageopacity="0.0"
     inkscape:pageshadow="2"
     inkscape:zoom="2.8"
     inkscape:cx="92.702008"
     inkscape:cy="105.99714"
     inkscape:document-units="px"
     inkscape:current-layer="text2993"
     showgrid="false"
     inkscape:window-width="1920"
     inkscape:window-height="1004"
     inkscape:window-x="0"
     inkscape:window-y="24"
     inkscape:window-maximized="1" />
  <metadata
     id="metadata3023">
    <rdf:RDF>
      <cc:Work
         rdf:about="">
        <dc:format>image/svg+xml</dc:format>
        <dc:type
           rdf:resource="http://purl.org/dc/dcmitype/StillImage" />
        <dc:title></dc:title>
      </cc:Work>
    </rdf:RDF>
  </metadata>
  <g
     inkscape:label="Layer 1"
     inkscape:groupmode="layer"
     id="layer1"
     transform="translate(0,-817.36198)">
    <g
       id="g3065"
       transform="translate(-1.856981,10.747048)">
      <g
         id="g3099"
         transform="translate(0,1.1643045)">
        <g
           transform="matrix(0.01947105,0,0,0.01947105,-177.65091,998.5313)"
           id="text2997"
           style="font-size:535.74700928px;font-style:normal;font-variant:normal;font-weight:normal;font-stretch:normal;line-height:125%;letter-spacing:0px;word-spacing:0px;fill:#000000;fill-opacity:1;stroke:none;font-family:Mensch for Powerline;-inkscape-font-specification:Mensch for Powerline">
          <g
             id="g3147"
             transform="translate(0,123.25987)">
            <g
               id="g3157"
               transform="translate(0,102.7166)">
              <g
                 id="g3178"
                 transform="translate(178.25448,-403.201)">
                <g
                   id="g2999"
                   transform="translate(0,-406.52935)">
                  <g
                     transform="matrix(74.584999,0,0,74.584999,5252.2272,-8976.7357)"
                     id="g3829">
                    <path
                       d="m 151.593,60.902001 c 1.005,-0.912 1.509,-2.019 1.509,-3.322 l 0,-2.092 c 0,-0.633 -0.131,-1.199 -0.392,-1.702 -0.26,-0.502 -0.623,-0.931 -1.089,-1.284 -0.446,-0.354 -0.996,-0.633 -1.646,-0.836 -0.632,-0.223 -1.33,-0.372 -2.092,-0.447 l -13.924,0 0,-2.482 19.143,0 0,-4.325 -21.403,0 c -1.396,0 -2.585,0.465 -3.572,1.395 -0.967,0.912 -1.45,2.009 -1.45,3.293 l 0,1.199 c 0,0.65 0.121,1.246 0.363,1.785 0.261,0.539 0.613,1.016 1.061,1.424 0.444,0.408 0.976,0.754 1.59,1.032 0.633,0.278 1.329,0.474 2.093,0.585 l 13.95,0 0,2.986 -19.085,0 0,4.156 21.344,0 c 1.433,10e-4 2.632,-0.455 3.6,-1.365 z"
                       id="path5-9"
                       style="fill:#fb1100;fill-opacity:1"
                       inkscape:connector-curvature="0" />
                    <path
                       d="m 138.75,27.48 c -1.215,0 -2.352,0.142 -3.319,0.387 0.119,-0.268 0.928,-0.769 1.785,-0.896 0.948,-0.141 1.384,0.047 1.556,0.259 0.176,-0.212 0.609,-0.4 1.559,-0.259 0.872,0.129 1.691,0.644 1.79,0.909 -0.978,-0.254 -2.135,-0.4 -3.371,-0.4 z m 17.175,47.891 c -0.85654,0.04432 -2.188,-1.354 -2.188,-1.354 -0.207,-0.021 -0.416,-0.039 -0.627,-0.057 l 1.183,1.434 c 0.396,0.019 0.791,0.037 1.19,0.066 4.479,0.312 8.568,1.357 11.842,2.87 -2.649,-1.729 -6.197,-3.092 -10.25,-3.847 0,0 -0.66633,0.862974 -1.15,0.888 z m -0.0171,-0.608865 c 0.54958,0.0077 1.0733,-0.315867 0.61631,-0.958056 L 156.17801,73.352154 152.29,69.18 l 4.79607,3.375013 c 1.09106,1.036975 2.25443,-0.105373 1.65288,-1.013168 l -0.59391,-0.759899 c 0.80833,0.04208 0.59488,-0.673411 0.56996,-0.716946 l -2.417,-4.517 -6.36,-1.776 c 0,0 -6.799,1.658 -12.713,4.062 l 8.238,3.26 6.76853,4.832861 c 1.13268,0.48718 1.48674,-0.09181 1.23081,-0.667807 L 149.635,70.734 l 4.84037,2.996973 c 0.47054,0.291342 0.88177,0.97733 1.43258,1.031162 z M 144.169,64.73 c -1.378,0.052 -2.923,0.076 -4.649,0.076 -3.917,0 -6.952,-0.127 -9.288,-0.361 -7.993,-0.562 -8.711,-3.58 -8.83,-7.318 0.02,-0.261 0.029,-0.523 0.029,-0.791 0,-3.646 -2.161,-7.179 -4.828,-8.53 2.126,1.892 3.491,4.829 3.491,8.125 0,1.617 -0.329,3.147 -0.915,4.512 l 0.133,0.188 c -0.676,-0.765 -1.446,-1.385 -2.267,-1.801 2.128,1.894 3.492,4.83 3.492,8.126 0,0.354 -0.016,0.703 -0.046,1.048 l 1.385,-0.646 c 0,-1.184 -0.227,-2.354 -0.628,-3.444 0.875,0.913 2.094,1.715 3.538,2.274 3.49,-0.371 7.349,-0.707 11.648,-0.617 l 5.202,-0.016 c 0.843,-0.284 1.686,-0.56 2.533,-0.825 z m 25.218,9.725 c 0.959,4.826 -0.922,9.884 -3.061,14.1 l -0.691,0.854 c 0,0 -0.98,-0.094 -2.602,-0.213 -1.52,-0.109 -3.6,-0.243 -5.965,-0.346 -0.498,3.252 -0.637,6.172 -0.791,9.452 l -26.867,0 0,-10.893 19.296,0 c -3.269,-1.017 -7.769,-3.704 -11.843,-6.449 -0.958,0.711 -1.944,1.47 -3.056,2.069 -4.45,2.397 -9.524,3.789 -11.676,4.33 l 0.01,0.05 4.385,0 0,10.892 -4.854,0 c -0.175,-3.705 -0.507,-6.974 -1.129,-10.636 -5.02,0.733 -6.635,1.149 -6.635,1.149 l -3.596,-1.31 -0.878,-3.733 c -1.194,-2.25 -3.438,-5.602 -2.641,-8.271 -1.345,-4.297 -2.249,-8.867 -0.161,-13.118 -1.348,-5.709 -3.019,-13.039 3.317,-17.03 1.484,-1.133 10.901,-4.752 10.901,-4.752 l 0.169,-0.073 c 2.539,-0.897 4.263,-1.617 6.394,-3.318 l 0.164,0.106 c 1.769,-1.51 2.576,-3.4 2.576,-6.123 l 0,-2.661 0.025,-0.836 c 0,0 -0.464,-1.184 -0.67,-2.522 -0.206,-1.339 -0.411,-3.23 -0.411,-3.23 0,0 -0.087,-0.018 -0.275,-0.067 -0.588,-0.228 -1.075,-0.664 -1.439,-1.205 -1.239,-1.61 -1.691,-4.28 0.335,-5.198 l -0.027,-0.078 -0.591,-1.6 c -4.598,-8.1640002 6.829,-15.8680002 13.74,-14.2880002 1.611,-0.306 3.237,0.808 4.211,1.83 6.422,-0.959 5.623,8.2980002 4.928,11.6350002 l -0.595,2.204 -0.055,0.312 c 1.174,0.556 1.499,1.728 1.31,2.923 -0.072,1.545 -0.998,3.198 -2.488,3.564 l -0.137,0.023 -0.034,0.492 -0.008,0.078 -0.111,1.708 c -0.104,1.323 -0.319,2.582 -1.018,3.88 l 0,3.272 c 0,0.445 0.021,0.865 0.065,1.262 0.255,1.989 1.075,3.472 2.546,4.703 l 0.025,0.019 0.069,-0.043 c 0.438,0.347 0.884,0.666 1.331,0.96 1.88,1.138 3.747,1.886 5.827,2.483 l 4.615,1.535 0.259,0.11 c 4.001,1.176 8.314,4.263 9.66,8.141 1.768,5.1 0.793,9.322 -0.447,12.918 0.336,0.645 0.628,1.771 0.74,3.783 0.14,2.465 -0.786,5.221 -2.146,7.156 z m -39.971,-53.28 -0.373,-4.802 c -0.15,-0.016 -0.302,-0.007 -0.447,0.028 -0.94,0.229 -1.386,1.481 -0.998,2.797 0.309,1.05 1.054,1.823 1.818,1.977 z m 19.272,-4.774 c -0.098,-0.023 -0.195,-0.035 -0.295,-0.036 l -0.15,1.455 -0.031,0.045 -0.217,3.278 c 0.72,-0.21 1.398,-0.955 1.689,-1.945 0.386,-1.315 -0.059,-2.568 -0.996,-2.797 z M 146.754,2.9909998 c 2.588,1.604 2.2,6.9220002 1.854,9.4330002 l 0.203,-0.752 c 0,-0.001 1.647,-7.9360002 -2.057,-8.6810002 z m -0.438,0.538 c 1.748,0.879 2.098,4.125 2.162,5.6640002 l 0.041,-0.4650002 c 0.001,0 0.131,-4.881 -2.203,-5.199 z m -5.067,-2.925 c 0.726,0.043 1.681,0.473 2.571,1.22 0.688,0.571 1.213,1.225 1.518,1.832 l 0.078,-0.106 c -0.246,-0.61 -0.762,-1.296 -1.463,-1.882 -0.974,-0.812 -2.029,-1.203 -2.704,-1.064 z m -7.219,1.889 c 1.406,-0.806 3.496,-1.123 5.662,-0.729 1.317,0.239 2.478,0.707 3.379,1.31 0.129,-0.05 0.261,-0.098 0.395,-0.141 -0.861,-0.767 -2.126,-1.37 -3.621,-1.642 -2.361,-0.429 -4.618,0.092 -5.815,1.202 z m 8.564,0.792 c 0.077,-0.039 0.156,-0.075 0.236,-0.111 -0.684,-0.429 -1.645,-0.756 -2.745,-0.888 -1.748,-0.208 -3.352,0.136 -4.14,0.804 0.963,-0.495 2.458,-0.716 4.064,-0.524 0.991,0.117 1.88,0.375 2.585,0.719 z m -1.428,5.099 c 0.38,-0.271 0.749,-0.572 1.105,-0.902 -0.347,0.262 -0.716,0.564 -1.105,0.902 z M 137.188,9.167 c 0.197,0.022 0.403,0.034 0.619,0.034 1.012,0 1.895,-0.2630002 2.338,-0.6480002 -0.502,0.154 -1.099,0.263 -1.752,0.311 -0.414,0.131 -0.82,0.2330002 -1.205,0.3030002 z m 0.09,-0.2830002 c -0.588,-0.02 -1.142,-0.089 -1.632,-0.196 0.22,0.142 0.506,0.262 0.836,0.3500002 0.258,-0.038 0.525,-0.09 0.796,-0.1540002 z M 147.716,15.382 c 0.068,-2.926 -1.195,-1.754 -1.509,-6.18 -0.149,-2.1590002 -0.802,-2.9460002 -1.843,-2.7900002 -0.334,0.921 -0.83,1.845 -1.493,2.7180002 -1.944,2.562 -4.745,3.957 -7.071,3.748 2.23,-0.321 4.655,-1.798 6.439,-4.1530002 0.189,-0.25 0.367,-0.502 0.535,-0.758 -1.09,0.929 -2.299,1.5690002 -3.48,1.8750002 -1.777,1.12 -3.58,1.548 -4.682,1.198 1.009,0.045 2.316,-0.306 3.663,-1.019 -0.332,0.03 -0.662,0.032 -0.981,0.003 0.612,-0.088 1.24,-0.264 1.866,-0.521 l 0.058,-0.039 c -1.444,0.483 -2.659,0.196 -3.712,-0.2 -0.337,-0.032 -0.634,-0.099 -0.884,-0.204 0.157,0.025 0.324,0.043 0.499,0.052 -1.931,-0.7880002 -3.297,-1.6720002 -4.554,1.927 -0.432,1.51 -0.81,3.059 -0.9,4.491 l 0.117,3.096 c 0.083,1.13 0.191,2.333 0.271,3.184 0.144,1.266 0.263,3.007 0.312,3.491 0.357,3.533 4.629,7.166 5.97,7.332 0.234,0.03 4.375,0.03 4.606,0 1.343,-0.167 5.613,-3.799 5.972,-7.333 0.038,-0.356 0.11,-1.395 0.204,-2.422 -0.002,0.005 0.18,-2.058 0.342,-4.011 z m -19.151,22.623 c 2.303,1.075 5.963,1.77 10.085,1.77 4.074,0 7.695,-0.678 10.002,-1.73 -1.769,-1.733 -2.647,-3.896 -2.647,-6.616 l 0,-2.47 c -1.405,2.548 -4.095,4.655 -5.11,4.782 -0.232,0.029 -4.372,0.029 -4.605,0 -1.002,-0.125 -3.641,-2.185 -5.059,-4.691 l -0.005,2.336 c -0.001,2.839 -0.831,4.945 -2.661,6.619 z m 7.788,41.155 -2.079,-1.383 -8.881,4.076 c 0.81,0.883 1.702,1.434 2.312,1.738 5.734,-2.059 8.648,-4.431 8.648,-4.431 z m 11.82,5.58 c 0.011,-0.42 0.026,-0.914 0.06,-1.451 -1.465,-0.52 -2.812,-1.072 -3.916,-1.648 -5.86,-3.064 -17.361,-10.757 -17.361,-10.757 0,0 11.089,9.846 21.217,13.856 z m 22.33,-17.345 c -0.187,-3.356 -0.87,-3.674 -0.87,-3.674 0,0 2.749,-6.791 0.342,-12.324 -2.673,-6.146 -8.738,-7.819 -8.738,-7.819 l -0.275,-0.119 -4.539,-1.507 -0.027,-0.01 c -0.386,-0.111 -0.767,-0.23 -1.143,-0.36 -1.725,-0.597 -3.18,-1.237 -4.389,-1.958 -2.264,1.44 -6.87,2.426 -12.184,2.426 -5.527,0 -10.288,-1.066 -12.446,-2.601 -1.249,0.774 -2.773,1.455 -4.599,2.086 -0.099,0.034 -0.205,0.068 -0.297,0.101 l -0.163,0.071 -7.741,3.112 c 0,0 -7.372,1.806 -6.413,10.874 0.507,4.819 1.078,6.901 1.078,6.901 0,0 -2.089,3.671 -1.32,7.888 0.77,4.217 1.142,5.078 1.142,5.078 0,0 -0.718,1.346 0.339,3.555 1.057,2.209 2.18,4.324 2.18,4.324 l 0.78,3.319 2.262,0.841 c 0,0 3.536,-0.488 7.925,-1.551 l 0.382,-0.095 c 1.745,-0.427 3.615,-0.944 5.445,-1.556 0,0 0.066,-0.017 0.203,-0.063 l 0.036,0.013 c -0.395,-0.14 -4.441,-1.664 -4.903,-6.359 -0.184,-1.854 0.459,-3.952 0.857,-5.038 0.605,-0.001 1.283,-0.044 2.057,-0.144 0.669,-0.088 1.298,-0.171 1.882,-0.257 -0.408,-0.317 -0.632,-0.499 -0.632,-0.499 0,0 -1.516,0.2 -3.073,0.303 -0.054,0.129 -0.136,0.332 -0.233,0.597 -3.334,0.008 -4.956,-0.56 -7.446,-0.412 -4.985,0.291 -6.29,2.312 -6.503,2.534 2.794,-4.182 7.777,-4.25 9.046,-4.195 l 0.344,-1.436 5.409,-2.47 7.929,-0.672 3.892,1.54 2.557,1.012 6.505,2.801 5.586,3.99 c -0.386,1.158 -0.829,2.61 -1.065,3.778 -0.604,2.99 -0.523,6.629 -0.523,6.629 -0.455,-0.125 -0.932,-0.28 -1.432,-0.471 0.5,0.188 0.979,0.351 1.428,0.472 0,0 0.602,0.153 0.789,0.193 1.756,0.367 6.802,1.113 9.896,1.554 2.329,0.229 3.81,0.292 3.81,0.292 l 1.99,-0.419 c 0,0 1.672,-3.299 2.317,-6.601 0.833,-4.25 0.062,-6.936 0.062,-6.936 0,0 2.672,-3.383 2.484,-6.738 z M 138.775,25.143 c 0.257,-0.002 0.402,-0.097 0.561,-0.287 0.266,-0.321 1.354,-0.439 1.184,-0.643 -0.069,-0.083 -0.527,0.146 -1.748,0.185 -1.217,-0.039 -1.676,-0.268 -1.746,-0.185 -0.17,0.204 0.917,0.323 1.184,0.643 0.153,0.19 0.302,0.285 0.565,0.287 z m 0.016,3.248 c -0.533,0.002 -1.366,0.049 -1.364,0.259 0,0.136 0.103,0.469 1.364,0.479 1.261,-0.011 1.361,-0.343 1.363,-0.479 0,-0.21 -0.834,-0.257 -1.363,-0.259 z m 17.17,36.409 c 0.426,-0.319 0.807,-0.666 1.135,-1.028 -0.16,0.385 -0.289,0.797 -0.38,1.24 l 0.009,0.002 0.832,1.553 c 0.448,-2.207 2.543,-5.422 4.082,-6.76 -0.765,0.273 -1.565,0.66 -2.302,1.195 -0.562,-1.387 -1.18,-3.548 -1.18,-5.07 0,-3.297 1.364,-6.23 3.491,-8.125 -2.67,1.351 -4.83,4.882 -4.83,8.53 0,0.093 0.002,0.188 0.005,0.286 -0.001,0.038 -0.005,0.08 -0.007,0.124 -0.06,2.692 -0.309,5.05 -3.151,6.446 -0.375,0.209 -0.843,0.397 -1.419,0.57 z"
                       id="path5-7"
                       style="fill:#00429d;fill-opacity:1"
                       inkscape:connector-curvature="0" />
                    <path
                       d="m 146.754,2.991 c 2.588,1.604 2.2,6.922 1.854,9.433 l 0.203,-0.752 c 0,-0.001 1.647,-7.936 -2.057,-8.681 z m -0.438,0.538 c 1.748,0.879 2.098,4.125 2.162,5.664 l 0.041,-0.465 c 0.001,0 0.131,-4.881 -2.203,-5.199 z m -5.067,-2.925 c 0.726,0.043 1.681,0.473 2.571,1.22 0.688,0.571 1.213,1.225 1.518,1.832 L 145.416,3.55 C 145.17,2.94 144.654,2.254 143.953,1.668 142.979,0.856 141.924,0.465 141.249,0.604 z m -7.219,1.889 c 1.406,-0.806 3.496,-1.123 5.662,-0.729 1.317,0.239 2.478,0.707 3.379,1.31 0.129,-0.05 0.261,-0.098 0.395,-0.141 -0.861,-0.767 -2.126,-1.37 -3.621,-1.642 -2.361,-0.429 -4.618,0.092 -5.815,1.202 z m 8.564,0.792 c 0.077,-0.039 0.156,-0.075 0.236,-0.111 -0.684,-0.429 -1.645,-0.756 -2.745,-0.888 -1.748,-0.208 -3.352,0.136 -4.14,0.804 0.963,-0.495 2.458,-0.716 4.064,-0.524 0.991,0.117 1.88,0.375 2.585,0.719 z m -1.428,5.099 c 0.38,-0.271 0.749,-0.572 1.105,-0.902 -0.347,0.262 -0.716,0.564 -1.105,0.902 z m -3.978,0.783 c 0.197,0.022 0.403,0.034 0.619,0.034 1.012,0 1.895,-0.263 2.338,-0.648 -0.502,0.154 -1.099,0.263 -1.752,0.311 -0.414,0.131 -0.82,0.233 -1.205,0.303 z m 0.09,-0.283 c -0.588,-0.02 -1.142,-0.089 -1.632,-0.196 0.22,0.142 0.506,0.262 0.836,0.35 0.258,-0.038 0.525,-0.09 0.796,-0.154 z m 10.418,6.938 c 0.01,-0.121 0.014,-0.237 0.017,-0.347 l 0.003,-0.093 c 0.068,-2.926 -1.195,-1.754 -1.509,-6.18 -0.149,-2.159 -0.802,-2.946 -1.843,-2.79 -0.334,0.921 -0.83,1.845 -1.493,2.718 -1.944,2.562 -4.745,3.957 -7.071,3.748 2.23,-0.321 4.655,-1.798 6.439,-4.153 0.189,-0.25 0.367,-0.502 0.535,-0.758 -1.09,0.929 -2.299,1.569 -3.48,1.875 -1.777,1.12 -3.58,1.548 -4.682,1.198 1.009,0.045 2.316,-0.306 3.663,-1.019 -0.332,0.03 -0.662,0.032 -0.981,0.003 0.612,-0.088 1.24,-0.264 1.866,-0.521 l 0.058,-0.039 c -1.444,0.483 -2.659,0.196 -3.712,-0.2 -0.337,-0.032 -0.634,-0.099 -0.884,-0.204 0.157,0.025 0.324,0.043 0.499,0.052 -1.931,-0.788 -3.297,-1.672 -4.554,1.927 -0.432,1.51 -0.81,3.059 -0.9,4.491 0.0411,0.637415 -0.0154,1.275264 -0.0816,1.11365 C 129.08096,15.412729 127.718,15.473 127.718,15.473 l -0.027,-0.078 -0.591,-1.6 c -4.598,-8.164 6.829,-15.868 13.74,-14.288 1.611,-0.306 3.237,0.808 4.211,1.83 6.422,-0.959 5.623,8.298 4.928,11.635 l -0.595,2.204 -0.055,0.312 c -1.75177,0.421486 -1.92,2.773 -1.633,0.334 z"
                       id="path5-1"
                       style="fill:#00000f;fill-opacity:1"
                       inkscape:connector-curvature="0" />
                    <path
                       d="m 140.641,18.827 c 0,0.592 3.452,0.563 4.064,-0.034 -0.928,-1.246 -4.064,-0.772 -4.064,0.034 z m -7.907,-0.035 c 0.613,0.597 4.065,0.626 4.065,0.034 0.001,-0.805 -3.137,-1.279 -4.065,-0.034 z m 14.727,0.075 c -0.779,0.886 -2.016,1.636 -5.216,1.737 -1.953,0 -1.796,-1.365 -3.522,-1.365 -1.669,0 -1.305,1.365 -3.524,1.365 -3.488,-0.11 -4.639,-0.99 -5.415,-1.978 l -0.117,-3.096 c 0.171,2.651 4.155,-0.338 9.054,1.872 4.661,-2.143 8.69198,0.859465 8.975,-1.58 z"
                       id="path5-0"
                       style="fill:#fb1100;fill-opacity:1"
                       inkscape:connector-curvature="0" />
                  </g>
                  <g
                     style="font-size:2054.33203125px;font-style:normal;font-variant:normal;font-weight:normal;font-stretch:normal;line-height:89.99999762%;letter-spacing:0px;word-spacing:0px;fill:#000000;fill-opacity:1;stroke:none;font-family:Serif;-inkscape-font-specification:Serif"
                     id="text2993">
                    <path
                       id="path3014"
                       style="font-size:2465.19824219px;text-align:center;line-height:89.99999762%;text-anchor:middle;font-family:Raleway;-inkscape-font-specification:Raleway"
                       d="m 18958.807,2420.7722 0,-645.8819 517.692,0 414.153,645.8819 194.751,0 -431.41,-675.4643 c 234.194,-46.8387 391.967,-271.1721 391.967,-525.0872 0,-271.17157 -216.938,-549.73924 -520.157,-549.73924 l -737.095,0 0,1750.29074 170.099,0 m 0,-1597.44845 559.6,0 c 192.285,0 354.989,184.89005 354.989,396.89695 0,207.0764 -133.121,401.8273 -340.198,401.8273 l -574.391,0 0,-798.72425 m -1511.86,1444.60615 0,-668.0687 857.889,0 0,-145.4467 -857.889,0 0,-631.09075 983.614,0 0,-152.84229 -1153.712,0 0,1750.29074 1175.899,0 0,-152.8423 -1005.801,0 m -1791.891,-838.1674 -332.801,791.3287 -636.022,-1550.60974 -182.424,0 737.094,1750.29074 152.842,0 369.78,-865.2846 367.315,865.2846 152.842,0 739.559,-1750.29074 -187.355,0 -633.556,1550.60974 -335.267,-791.3287 305.685,-746.95505 -162.703,0 -248.985,621.22995 -246.52,-621.22995 -165.168,0 305.684,746.95505 m -2049.735,1003.3357 c 468.387,0 820.911,-419.0842 820.911,-885.0062 0,-438.8048 -330.337,-889.93653 -818.446,-889.93653 -468.387,0 -823.376,421.54933 -823.376,887.47133 0,448.6657 332.802,887.4714 820.911,887.4714 m -648.347,-887.4714 c 0,-362.3837 251.45,-729.69864 648.347,-729.69864 379.64,0 648.347,350.05854 648.347,729.69864 0,359.9186 -251.451,732.1639 -648.347,732.1639 -384.571,0 -648.347,-352.5237 -648.347,-732.1639 m -1422.651,875.1454 0,-645.8819 569.461,0 c 300.754,0 502.9,-268.7069 502.9,-554.6696 0,-271.17157 -216.937,-549.73924 -517.691,-549.73924 l -724.768,0 0,1750.29074 170.098,0 m 0,-1597.44845 544.809,0 c 192.285,0 354.989,177.49445 354.989,396.89695 0,212.0068 -133.121,401.8273 -340.198,401.8273 l -559.6,0 0,-798.72425 m 6782.708,-2006.10175 -1183.295,0 0,127.3686 519.746,0 0,1331.20719 143.803,0 0,-1331.20719 519.746,0 0,-127.3686 m -2215.758,1458.57579 0,-538.23499 431.41,0 345.128,538.23499 162.292,0 -359.508,-562.88698 c 195.161,-39.03227 326.639,-225.97673 326.639,-437.57272 0,-225.9763 -180.782,-458.11609 -433.464,-458.11609 l -614.246,0 0,1458.57579 141.749,0 m 0,-1331.20719 466.334,0 c 160.237,0 295.823,154.07511 295.823,330.74749 0,172.56372 -110.934,334.85612 -283.497,334.85612 l -478.66,0 0,-665.60361 m -1540.107,1331.20719 186.944,-456.06171 655.332,0 188.999,456.06171 154.075,0 -610.137,-1458.57579 -117.097,0 -610.136,1458.57579 152.02,0 m 809.407,-569.04997 -591.648,0 299.933,-721.07052 291.715,721.07052 m -2298.156,-170.50956 c 0,369.779395 281.444,751.88552 682.039,751.88552 223.922,0 482.768,-121.2058 577.267,-338.964782 l -119.151,-61.629958 c -92.445,188.998354 -285.553,271.17182 -449.899,271.17182 -310.204,0 -546.452,-291.71547 -546.452,-614.24527 0,-293.76919 191.053,-606.02799 540.289,-606.02799 158.183,0 338.965,65.73886 431.41,258.84587 l 115.042,-69.84728 c -90.39,-186.94399 -279.389,-318.42149 -538.235,-318.42149 -439.626,0 -692.31,375.94313 -692.31,727.23356" />
                  </g>
                </g>
              </g>
            </g>
          </g>
        </g>
      </g>
    </g>
  </g>
</svg>
