<?xml version="1.0" encoding="UTF-8" standalone="no"?>
<!-- Created with Inkscape (http://www.inkscape.org/) -->

<svg
   xmlns:dc="http://purl.org/dc/elements/1.1/"
   xmlns:cc="http://creativecommons.org/ns#"
   xmlns:rdf="http://www.w3.org/1999/02/22-rdf-syntax-ns#"
   xmlns:svg="http://www.w3.org/2000/svg"
   xmlns="http://www.w3.org/2000/svg"
   xmlns:sodipodi="http://sodipodi.sourceforge.net/DTD/sodipodi-0.dtd"
   xmlns:inkscape="http://www.inkscape.org/namespaces/inkscape"
   id="svg3461"
   version="1.1"
   inkscape:version="0.91 r13725"
   xml:space="preserve"
   width="392.68112"
   height="85.756218"
   viewBox="0 0 392.68112 85.75622"
   sodipodi:docname="cms-magazine.svg"><metadata
     id="metadata3467"><rdf:RDF><cc:Work
         rdf:about=""><dc:format>image/svg+xml</dc:format><dc:type
           rdf:resource="http://purl.org/dc/dcmitype/StillImage" /><dc:title></dc:title></cc:Work></rdf:RDF></metadata><defs
     id="defs3465" /><sodipodi:namedview
     pagecolor="#ffffff"
     bordercolor="#666666"
     borderopacity="1"
     objecttolerance="10"
     gridtolerance="10"
     guidetolerance="10"
     inkscape:pageopacity="0"
     inkscape:pageshadow="2"
     inkscape:window-width="1920"
     inkscape:window-height="1016"
     id="namedview3463"
     showgrid="false"
     inkscape:zoom="0.78300003"
     inkscape:cx="197.71118"
     inkscape:cy="-21.793493"
     inkscape:window-x="0"
     inkscape:window-y="27"
     inkscape:window-maximized="1"
     inkscape:current-layer="g3475"
     fit-margin-top="0"
     fit-margin-left="0"
     fit-margin-right="0"
     fit-margin-bottom="0" /><g
     id="g3469"
     inkscape:groupmode="layer"
     inkscape:label="logo_cms_magazine [аналитический портал рынка веб-разработок] curves(1)"
     transform="matrix(1.25,0,0,-1.25,-174.33655,633.73108)"><text
       transform="matrix(1,0,0,-1,138.74854,440.87598)"
       style="font-variant:normal;font-weight:normal;font-size:12px;font-family:MyriadPro;-inkscape-font-specification:MyriadPro-Regular;writing-mode:lr-tb;fill:#656263;fill-opacity:1;fill-rule:nonzero;stroke:none"
       id="text3471"><tspan
         x="0 7.6680002 16.104 23.844 31.812 40.344002 47.076 55.476002 63.540001 71.435997 78.695999 86.328003 94.860001 103.392 107.82 116.196 124.668 133.284 139.93201 147.672 155.64 160.06799 168.78 178.644 187.08 194.832 202.5 206.92799 214.812 222.76801 230.98801 236.556 245.26801 252.936 259.992 268.70401 276.37201 284.59201 292.96799 299.54401 308.01599"
         y="0"
         sodipodi:role="line"
         id="tspan3473">аналитический портал рынка веб-разработок</tspan></text>
<g
       id="g3475"
       transform="scale(1,-1)"><path
         d="m 139.82617,-506.98486 c 0,0 125.8086,0 125.8086,0 0,0 0,49.98095 0,49.98095 0,0 -125.8086,0 -125.8086,0 0,0 0,-49.98095 0,-49.98095 z"
         style="fill:#bf2329;fill-opacity:1;fill-rule:evenodd;stroke:none"
         id="path3477"
         inkscape:connector-curvature="0" /><path
         d="m 168.31104,-477.66895 c 0,0 10.66601,0.61182 10.66601,0.61182 -0.50488,4.47705 -2.2251,7.91211 -5.17187,10.30713 -2.93702,2.39404 -6.54932,3.58984 -10.8462,3.58984 -5.16113,0 -9.32519,-1.64404 -12.5,-4.93408 -3.17382,-3.27978 -4.7622,-7.81103 -4.7622,-13.59472 0,-5.72803 1.50244,-10.35206 4.51513,-13.85987 3.00391,-3.51709 7.19629,-5.28125 12.58594,-5.28125 5.02832,0 8.89697,1.34326 11.59717,4.02002 2.69922,2.67725 4.22998,6.23096 4.58203,10.65283 0,0 -10.89404,0.55811 -10.89404,0.55811 0,-2.43994 -0.48487,-4.20313 -1.45508,-5.29883 -0.979,-1.08789 -2.12891,-1.62695 -3.44092,-1.62695 -3.67822,0 -5.51318,3.54492 -5.51318,10.65283 0,3.9751 0.4751,6.68018 1.43506,8.104 0.95117,1.43506 2.29101,2.14795 4.02099,2.14795 3.08008,0 4.81006,-2.02002 5.18116,-6.04883 m 56.2539,-22.59521 c 0,0 0,36.53809 0,36.53809 0,0 -10.82715,0 -10.82715,0 0,0 0,-26.12207 0,-26.12207 0,0 -7.05273,26.12207 -7.05273,26.12207 0,0 -7.40527,0 -7.40527,0 0,0 -7.29053,-26.12207 -7.29053,-26.12207 0,0 0,26.12207 0,26.12207 0,0 -8.74512,0 -8.74512,0 0,0 0,-36.53809 0,-36.53809 0,0 15.22803,0 15.22803,0 0,0 5.51269,19.40723 5.51269,19.40723 0,0 5.26612,-19.40723 5.26612,-19.40723 0,0 15.31396,0 15.31396,0 z m 2.70899,25.96728 c 0,0 10.82714,-1.87304 10.82714,-1.87304 0.91309,2.94189 3.25098,4.41308 7.01514,4.41308 2.93701,0 4.40088,-0.74902 4.40088,-2.24804 0,-0.78614 -0.33203,-1.39795 -1.01709,-1.83594 -0.6748,-0.43897 -1.88184,-0.82324 -3.63086,-1.16113 -6.66309,-1.23291 -10.94092,-2.84082 -12.83203,-4.81397 -1.90234,-1.98291 -2.84326,-4.31299 -2.84326,-6.99023 0,-3.44385 1.36035,-6.31397 4.07812,-8.59766 2.71924,-2.28418 6.63526,-3.42627 11.74024,-3.42627 7.73681,0 12.85058,2.99707 15.34179,8.97217 0,0 -9.66699,2.81396 -9.66699,2.81396 -0.99902,-2.44824 -3.0332,-3.67285 -6.09424,-3.67285 -2.54687,0 -3.8208,0.75879 -3.8208,2.27588 0,0.67481 0.29492,1.20508 0.86524,1.58008 0.57959,0.37402 1.69189,0.73096 3.3457,1.06885 4.54395,0.93213 7.77588,1.7539 9.68604,2.46679 1.92089,0.71338 3.51806,1.92823 4.79101,3.65528 1.28418,1.71679 1.91992,3.74512 1.91992,6.08496 0,3.69092 -1.55761,6.68799 -4.67578,8.98096 -3.11816,2.29296 -7.21484,3.44384 -12.28222,3.44384 -9.25782,0 -14.98096,-3.71777 -17.14795,-11.13672"
         style="fill:#ffffff;fill-opacity:1;fill-rule:nonzero;stroke:none"
         id="path3479"
         inkscape:connector-curvature="0" /><path
         d="m 303.52148,-462.65186 c 0,0 -7.56054,0 -7.56054,0 0,0 0,-12.42041 0,-12.42041 0,-0.83398 -0.12012,-1.41992 -0.35987,-1.74658 -0.24023,-0.33301 -0.66601,-0.5 -1.28027,-0.5 -1.45264,0 -2.18603,1.06006 -2.18603,3.17969 0,0 0,11.4873 0,11.4873 0,0 -7.47998,0 -7.47998,0 0,0 0,-12.42041 0,-12.42041 0,-1.59375 -0.61377,-2.38671 -1.83399,-2.38671 -1.26562,0 -1.89258,0.79296 -1.89258,2.38671 0,0 0,12.42041 0,12.42041 0,0 -7.5,0 -7.5,0 0,0 0,-19.86718 0,-19.86718 0,0 6.98682,0 6.98682,0 0,0 0,2.68017 0,2.68017 1.25293,-2.06006 3.06592,-3.08691 5.45312,-3.08691 2.5669,0 4.42579,1.02685 5.58692,3.08691 1.28613,-2.06006 3.26611,-3.08691 5.9331,-3.08691 1.27979,0 2.39991,0.2666 3.37354,0.7998 0.9668,0.53418 1.67285,1.21973 2.10644,2.06006 0.43946,0.83985 0.65332,2.14014 0.65332,3.8999 0,0 0,13.51416 0,13.51416 z m 24.14649,0 c 0,0 -7.42676,0 -7.42676,0 -0.18066,-0.84716 -0.27344,-1.77392 -0.27344,-2.77392 -1.40722,2.11963 -3.5332,3.18652 -6.38672,3.18652 -2.33984,0 -4.09375,-0.59961 -5.25976,-1.7998 -1.16699,-1.2002 -1.75391,-2.57276 -1.75391,-4.12012 0,-2.09961 0.95996,-3.79297 2.86719,-5.08691 1.90625,-1.29981 5.28613,-2.07276 10.14648,-2.33301 0,0 0,-0.4541 0,-0.4541 0,-0.87305 -0.20019,-1.45264 -0.5996,-1.73877 -0.39356,-0.28711 -0.98047,-0.42725 -1.74707,-0.42725 -1.79297,0 -2.79981,0.72022 -3.00586,2.16602 0,0 -7.10743,-0.65869 -7.10743,-0.65869 1.01368,-4.1543 4.4668,-6.23389 10.36621,-6.23389 1.60059,0 3.07325,0.15967 4.41407,0.47998 1.33984,0.31982 2.40625,0.81396 3.18652,1.49365 0.78027,0.67334 1.30664,1.39307 1.57324,2.146 0.2666,0.75293 0.40137,2.20703 0.40137,4.35302 0,0 0,7.93409 0,7.93409 0,1.50586 0.19824,2.7998 0.60547,3.86718 m -8.08692,-9.30029 c -3.32031,0.35303 -4.98046,1.41309 -4.98046,3.18604 0,1.20019 0.65332,1.80029 1.96679,1.80029 0.83399,0 1.54688,-0.25342 2.13379,-0.74609 0.58692,-0.49414 0.87988,-1.58692 0.87988,-3.28125 0,0 0,-0.95899 0,-0.95899 z m 32.22657,-15.07373 c 0,0 -0.19336,5.33399 -0.19336,5.33399 0,0 -0.37305,-0.02 -0.37305,-0.02 -0.70019,-0.04 -1.20703,-0.0601 -1.5,-0.0601 -1.21289,0 -1.94043,0.23974 -2.19336,0.71875 1.48633,1.22705 2.22656,2.70703 2.22656,4.43408 0,2.0332 -0.7998,3.56006 -2.40625,4.58008 -1.61328,1.02685 -3.79394,1.5332 -6.55371,1.5332 -0.0664,0 -0.40625,-0.0132 -1.0205,-0.04 -0.57325,-0.0264 -0.87305,-0.0332 -0.89258,-0.0332 -1.2666,0 -1.90039,0.32031 -1.90039,0.97314 0,0.57373 0.56152,0.87989 1.68066,0.91992 0,0 6.38574,0.27295 6.38574,0.27295 2.33399,0.1001 4.04004,0.75391 5.12696,1.95411 1.08691,1.19287 1.63379,2.59277 1.63379,4.20019 0,1.8999 -0.81348,3.45264 -2.4336,4.65381 -1.62012,1.20605 -4.77344,1.80615 -9.45996,1.80615 -7.22656,0 -10.83984,-1.66015 -10.83984,-4.97998 0,-1.80713 0.95312,-3.07422 2.87304,-3.78711 -1.23925,-0.87304 -1.86035,-1.90722 -1.86035,-3.10596 0,-1.95312 1.27344,-3.42724 3.81348,-4.41406 -2.12695,-0.92724 -3.18652,-2.45996 -3.18652,-4.60595 0,-1.96729 0.86035,-3.5 2.58007,-4.59424 1.71387,-1.09278 4.07325,-1.63965 7.06641,-1.63965 1.36719,0 2.61328,0.13379 3.7334,0.40674 0.4541,-3.10694 2.10058,-4.667 4.94043,-4.667 0.65332,0 1.5664,0.0542 2.75293,0.16016 m -11.40625,12.83399 c 1.51269,0 2.2666,-0.80713 2.2666,-2.40723 0,-1.64014 -0.77344,-2.45996 -2.32715,-2.45996 -1.5332,0 -2.2998,0.83301 -2.2998,2.5 0,1.57324 0.78711,2.36719 2.36035,2.36719 m -1.99317,11.28564 c -0.28711,-0.0127 -0.57324,-0.0195 -0.86035,-0.0195 -1.33984,0 -2.00683,0.4126 -2.00683,1.24658 0,0.77295 0.50683,1.26611 1.5332,1.48731 1.02051,0.21875 2.38672,0.333 4.08691,0.333 1.62012,0 2.65332,-0.14111 3.12012,-0.41308 0.45996,-0.27393 0.69336,-0.64698 0.69336,-1.13428 0,-0.33301 -0.10645,-0.61963 -0.31348,-0.8457 -0.20703,-0.22705 -0.70703,-0.35987 -1.48633,-0.39991 0,0 -4.7666,-0.25439 -4.7666,-0.25439 z m 35.49317,0.25439 c 0,0 -7.42676,0 -7.42676,0 -0.18066,-0.84716 -0.27344,-1.77392 -0.27344,-2.77392 -1.40722,2.11963 -3.5332,3.18652 -6.38672,3.18652 -2.33984,0 -4.09375,-0.59961 -5.25976,-1.7998 -1.16699,-1.2002 -1.75391,-2.57276 -1.75391,-4.12012 0,-2.09961 0.95996,-3.79297 2.86719,-5.08691 1.90625,-1.29981 5.28613,-2.07276 10.14648,-2.33301 0,0 0,-0.4541 0,-0.4541 0,-0.87305 -0.20019,-1.45264 -0.60058,-1.73877 -0.39258,-0.28711 -0.97949,-0.42725 -1.7461,-0.42725 -1.79297,0 -2.7998,0.72022 -3.00683,2.16602 0,0 -7.10742,-0.65869 -7.10742,-0.65869 1.01464,-4.1543 4.46777,-6.23389 10.36718,-6.23389 1.60059,0 3.07325,0.15967 4.41407,0.47998 1.33984,0.31982 2.40625,0.81396 3.18652,1.49365 0.78027,0.67334 1.30664,1.39307 1.57324,2.146 0.2666,0.75293 0.40039,2.20703 0.40039,4.35302 0,0 0,7.93409 0,7.93409 0,1.50586 0.19922,2.7998 0.60645,3.86718 m -8.08692,-9.30029 c -3.32031,0.35303 -4.98047,1.41309 -4.98047,3.18604 0,1.20019 0.65332,1.80029 1.9668,1.80029 0.83399,0 1.54688,-0.25342 2.13379,-0.74609 0.58691,-0.49414 0.87988,-1.58692 0.87988,-3.28125 0,0 0,-0.95899 0,-0.95899 z m 27.66016,4.36035 c 0,0 0,4.93994 0,4.93994 0,0 -17.52051,0 -17.52051,0 0,0 0,-4.31396 0,-4.31396 0,0 8.37403,-10.76611 8.37403,-10.76611 -1,0.04 -1.68067,0.06 -2.02735,0.06 0,0 -5.66601,0 -5.66601,0 0,0 0,-4.84716 0,-4.84716 0,0 16.52636,0 16.52636,0 0,0 0,4.18017 0,4.18017 0,0 -8.56054,10.78565 -8.56054,10.78565 0,0 1.04004,-0.02 1.04004,-0.02 0.20703,-0.0127 0.39355,-0.0186 0.56738,-0.0186 0,0 7.2666,0 7.2666,0 z m 10.50684,-16.3872 c 0,0 -7.79395,0 -7.79395,0 0,0 0,-6.17286 0,-6.17286 0,0 7.79395,0 7.79395,0 0,0 0,6.17286 0,6.17286 z m 0,21.32714 c 0,0 -7.79395,0 -7.79395,0 0,0 0,-19.86718 0,-19.86718 0,0 7.79395,0 7.79395,0 0,0 0,19.86718 0,19.86718 z m 23.49316,0 c 0,0 -7.79297,0 -7.79297,0 0,0 0,-12.5 0,-12.5 0,-1.02734 -0.16016,-1.68701 -0.48047,-1.97412 -0.32031,-0.28711 -0.71972,-0.42724 -1.20019,-0.42724 -1.41993,0 -2.12598,0.9873 -2.12598,2.96728 0,0 0,11.93408 0,11.93408 0,0 -7.79395,0 -7.79395,0 0,0 0,-19.86718 0,-19.86718 0,0 7.22657,0 7.22657,0 0,0 0,2.81299 0,2.81299 1.06738,-2.14698 2.97363,-3.21973 5.7207,-3.21973 1.44629,0 2.66602,0.27392 3.66016,0.82666 1,0.55322 1.71289,1.27295 2.13965,2.15332 0.43261,0.87988 0.64648,2.40674 0.64648,4.57959 0,0 0,12.71435 0,12.71435 z m 17.21973,-7.12695 c 0,0 7.2666,0.48682 7.2666,0.48682 -0.42676,1.95312 -1.52637,3.61279 -3.28614,4.98584 -1.7666,1.38037 -4.15332,2.06689 -7.16015,2.06689 -3.34668,0 -6.02051,-0.96679 -8.00684,-2.90674 -1.99316,-1.9331 -2.99316,-4.32714 -2.99316,-7.19287 0,-2.96728 0.98633,-5.47412 2.95312,-7.52002 1.9668,-2.04736 4.58692,-3.06689 7.86719,-3.06689 3.17969,0 5.74609,0.9668 7.70606,2.89258 1.95996,1.92724 2.94043,4.54736 2.94043,7.86718 0,0.27295 -0.007,0.65284 -0.0205,1.13282 0,0 -13.29981,0 -13.29981,0 0.0274,1.25439 0.24707,2.18017 0.667,2.78711 0.41308,0.60009 1.20605,0.90722 2.37988,0.90722 1.69336,0 2.68652,-0.81299 2.98633,-2.43994 m -0.50586,-5.16015 c -0.0137,-1.33985 -0.28028,-2.24024 -0.80762,-2.70704 -0.52637,-0.45996 -1.18652,-0.69287 -1.9668,-0.69287 -1.84668,0 -2.77343,1.13282 -2.77343,3.39991 0,0 5.54785,0 5.54785,0 z"
         style="fill:#656263;fill-opacity:1;fill-rule:nonzero;stroke:none"
         id="path3481"
         inkscape:connector-curvature="0" /></g></g></svg>