<?xml version="1.0" encoding="UTF-8" standalone="no"?>
<svg
   xmlns:dc="http://purl.org/dc/elements/1.1/"
   xmlns:cc="http://creativecommons.org/ns#"
   xmlns:rdf="http://www.w3.org/1999/02/22-rdf-syntax-ns#"
   xmlns:svg="http://www.w3.org/2000/svg"
   xmlns="http://www.w3.org/2000/svg"
   viewBox="0 0 246.25 72.5"
   height="72.5"
   width="246.25"
   xml:space="preserve"
   version="1.1"
   id="svg3355"><metadata
     id="metadata3361"><rdf:RDF><cc:Work
         rdf:about=""><dc:format>image/svg+xml</dc:format><dc:type
           rdf:resource="http://purl.org/dc/dcmitype/StillImage" /><dc:title></dc:title></cc:Work></rdf:RDF></metadata><defs
     id="defs3359" /><g
     transform="matrix(1.25,0,0,-1.25,0,72.5)"
     id="g3363"><g
       transform="scale(0.1,0.1)"
       id="g3365"><path
         id="path3367"
         style="fill:#ff6900;fill-opacity:1;fill-rule:nonzero;stroke:none"
         d="m 252.813,138.047 c 6.117,-93.4767 6.707,-96.3439 16.011,-130.21887 0.125,-0.47657 0.281,-0.86719 0.5,-1.3086 0.129,-0.26172 -0.148,-0.38281 -0.613,-0.4375 -66.313,-1.83594 -73.523,91.33207 -80.402,142.65597 -0.371,2.801 -2.215,4.992 -4.903,5.84 -2.691,0.848 -5.449,0.106 -7.351,-1.98 -28.2,-30.848 -71.969,-87.2933 -92.0862,-19.93 -0.5118,1.625 -0.6719,3.191 0.0507,4.289 14.7969,21.484 22.2185,32.324 34.1915,47 11.945,14.625 28.469,33.359 61.512,70.676 0.062,0.07 0.113,0.125 0.168,0.191 12.078,12.715 12.109,12.746 24.777,25.664 3.699,3.688 6.902,5.93 9.586,6.598 0.383,0.09 0.719,0.148 1.109,0.184 0.039,0 0.063,0.015 0.125,0.046 l 0,0 c 0.082,0 0.082,0 0.149,0 l 0,0 c 0.086,-0.007 0.086,-0.007 0.187,-0.046 l 0,0 c 0.078,-0.008 0.078,-0.008 0.153,-0.012 l 0,0 c 0.043,0.015 0.058,0.019 0.082,0.019 0.05,0.008 0.097,0.008 0.148,0.012 0.023,0.008 0.043,0.008 0.07,0.008 0.145,-0.008 0.262,-0.008 0.399,0 0.015,0 0.035,0 0.07,0 l 0,0 c 0.067,0 0.067,0 0.149,0 l 0,0 c 0.07,-0.008 0.07,-0.008 0.132,-0.008 l 0,0 c 0.071,-0.07 0.071,-0.07 0.161,-0.078 0.324,-0.008 0.621,-0.102 0.914,-0.176 0.101,-0.109 0.101,-0.109 0.171,-0.109 l 0,0 c 0.086,-0.004 0.086,-0.004 0.133,-0.071 l 0,0 c 0.098,-0.003 0.098,-0.003 0.16,-0.003 l 0,0 c 0.102,-0.125 0.102,-0.125 0.172,-0.125 l 0,0 c 0.082,-0.004 0.082,-0.004 0.153,-0.063 l 0,0 c 0.07,-0.004 0.07,-0.004 0.132,-0.004 l 0,0 c 0.086,-0.07 0.086,-0.07 0.196,-0.027 l 0,0 c 0.039,0 0.062,-0.008 0.082,-0.028 0.058,-0.062 0.113,-0.113 0.179,-0.179 0.004,0 0.024,-0.008 0.028,-0.016 l 0,0 c 0.105,0.028 0.105,0.028 0.199,0.028 l 0,0 c 0.078,-0.118 0.078,-0.118 0.156,-0.184 l 0,0 c 0.075,0.004 0.075,0.004 0.149,-0.074 l 0,0 c 0.078,0 0.078,0 0.148,0 l 0,0 c 0.051,-0.063 0.07,-0.094 0.102,-0.11 0.051,-0.019 0.097,-0.047 0.152,-0.07 0.012,-0.012 0.035,-0.012 0.066,-0.012 l 0,0 c 0.032,-0.031 0.047,-0.05 0.071,-0.062 0.082,-0.059 0.156,-0.117 0.242,-0.18 0,0 0.004,-0.008 0.016,-0.008 l 0,0 c 0.066,-0.004 0.066,-0.004 0.136,-0.004 l 0,0 c 0.059,-0.082 0.059,-0.082 0.172,-0.199 l 0,0 c 0.113,0.055 0.113,0.055 0.188,-0.047 l 0,0 c 0.101,-0.093 0.101,-0.093 0.164,-0.093 l 0,0 c 0.082,-0.075 0.082,-0.075 0.156,-0.157 l 0,0 c 0.07,0 0.07,0 0.176,-0.113 l 0,0 c 0.047,0 0.062,-0.004 0.09,-0.02 0.05,-0.035 0.101,-0.066 0.152,-0.101 0.047,-0.031 0.055,-0.063 0.082,-0.145 l 0,0 c 0.066,0.008 0.066,0.008 0.176,-0.023 l 0,0 c 0.109,-0.129 0.109,-0.129 0.179,-0.133 l 0,0 c 0.067,-0.062 0.067,-0.062 0.133,-0.133 l 0,0 c 0.051,-0.054 0.075,-0.082 0.098,-0.093 0.074,-0.028 0.137,-0.059 0.215,-0.094 0.012,-0.012 0.035,-0.024 0.054,-0.031 l 0,0 c 0.008,-0.114 0.008,-0.114 0.172,-0.125 l 0,0 0.008,-0.004 c 0.082,-0.078 0.149,-0.149 0.231,-0.231 0.031,-0.019 0.043,-0.043 0.089,-0.097 l 0,0 c 0.102,-0.04 0.102,-0.04 0.172,-0.04 l 0,0 c 0.114,-0.101 0.114,-0.101 0.184,-0.183 l 0,0 c 0.062,-0.067 0.062,-0.067 0.156,-0.192 l 0,0 c 0.031,-0.011 0.043,-0.027 0.063,-0.042 0.078,-0.059 0.144,-0.11 0.23,-0.168 0.024,-0.016 0.047,-0.043 0.086,-0.079 l 0,0 c 0.063,-0.07 0.063,-0.07 0.16,-0.183 l 0,0 c 0.059,-0.074 0.059,-0.074 0.18,-0.113 l 0,0 c 0.105,-0.114 0.105,-0.114 0.172,-0.18 l 0,0 c 0.062,-0.09 0.062,-0.09 0.148,-0.164 l 0,0 c 0.137,-0.059 0.137,-0.059 0.215,-0.117 l 0,0 c 0.067,-0.098 0.067,-0.098 0.129,-0.164 l 0,0 c 0.109,-0.118 0.109,-0.118 0.223,-0.153 l 0,0 c 0.015,-0.015 0.027,-0.035 0.035,-0.051 0.062,-0.066 0.117,-0.125 0.176,-0.195 0.031,-0.031 0.05,-0.074 0.125,-0.203 l 0,0 c 0.117,-0.043 0.117,-0.043 0.179,-0.102 l 0,0 c 0.055,-0.07 0.078,-0.101 0.11,-0.121 0.082,-0.058 0.156,-0.101 0.23,-0.164 0.012,-0.008 0.02,-0.015 0.031,-0.019 l 0,0 c 0.09,-0.196 0.09,-0.196 0.149,-0.262 l 0,0 c 0.363,-0.379 0.726,-0.793 1.133,-1.152 0.183,-0.164 0.332,-0.305 0.492,-0.489 9.164,-10.054 9.265,-10.175 18.777,-20.496 0.028,-0.031 0.051,-0.05 0.078,-0.082 0.188,-0.199 0.36,-0.422 0.524,-0.582 0.129,-0.121 0.234,-0.23 0.359,-0.363 2.984,-3.246 3.094,-3.359 6.199,-6.695 0.051,-0.055 0.09,-0.102 0.145,-0.153 46.558,-47.183 69.906,-70.808 90.664,-90.765 20.73,-19.914 38.949,-36.168 75.34,-68.6019 0.054,-0.0508 0.113,-0.1016 0.176,-0.1445 0.019,-0.0235 0.043,-0.043 0.066,-0.0625 2.644,-2.2422 3.305,-5.9922 1.57,-9 -34.715,-60.3711 -116,21.5309 -157.367,61.2499 -2.156,2.07 -5.195,2.57 -7.898,1.305 -2.707,-1.266 -4.278,-3.934 -4.078,-6.922 z m -187.8911,217.691 0,0 C 25.1484,345.242 12.6445,345.074 9.53125,305.961 c -0.16797,-2.063 0.47265,-3.898 1.87505,-5.418 1.4101,-1.52 3.1875,-2.289 5.2539,-2.266 5.789,0.043 15.9531,-0.07 39.2773,-0.343 2.5664,-0.032 4.7617,-1.309 6.043,-3.539 1.2929,-2.231 1.3242,-4.77 0.082,-7.024 C 46.0664,258.313 6.67969,180.18 46.8086,165.656 c 0.2031,-0.07 0.3789,-0.136 0.5703,-0.23 0.6797,-0.317 1.1445,0.148 1.5703,1.297 0.0899,0.234 0.1719,0.429 0.2813,0.652 11.875,24.215 17.8359,36.453 28.3047,52.184 10.4961,15.777 25.4768,35.183 55.4958,73.957 0.102,0.144 0.207,0.261 0.324,0.398 11.211,12.5 11.266,12.57 23.204,25.555 3.91,4.211 6.195,7.695 6.75,10.699 0.046,0.113 0.046,0.113 0.046,0.113 l 0,0 c 0.004,0.149 0.004,0.149 0.004,0.149 l 0,0 c 0.012,0.152 0.012,0.152 0.02,0.297 l 0,0 c 0,0 0,0 0.039,0.105 l 0,0 c -0.039,0.031 -0.039,0.031 0.004,0.137 l 0,0 c 0.008,0.168 0.008,0.168 -0.031,0.129 l 0,0 c 0.019,0.09 0.031,0.136 0.039,0.156 0,0.043 0,0.07 0.008,0.121 0.003,0.051 -0.016,0.051 -0.067,0.051 l 0,0 c 0.047,0.109 0.047,0.109 0.047,0.109 l 0,0 c 0.004,0.141 0.004,0.141 -0.027,0.184 l 0,0 c 0.031,0.121 0.031,0.121 0.058,0.261 l 0,0 c -0.047,0.024 -0.047,0.024 -0.07,0 0.008,0.442 -0.039,0.743 -0.074,1.071 -0.063,0 -0.063,0 -0.055,0.152 l 0,0 c 0,0 0,0 0,0.149 l 0,0 c -0.012,0.027 -0.023,0.035 -0.027,0.054 -0.024,0.035 -0.043,0.067 -0.063,0.11 -0.012,0.019 -0.012,0.05 -0.004,0.164 l 0,0 c -0.031,0.031 -0.031,0.031 -0.07,0.004 -0.02,0.035 -0.02,0.035 -0.02,0.035 0.024,0.113 0.024,0.113 0.004,0.144 l 0,0 c 0.004,0.141 0.004,0.141 0.008,0.309 l 0,0 c -0.078,0 -0.078,0 -0.101,0.035 l 0,0 c 0.007,0.145 0.007,0.145 -0.086,0.145 l 0,0 c 0.007,0.074 0.007,0.113 0.007,0.132 -0.007,0.055 -0.011,0.102 -0.015,0.157 0,0.015 -0.008,0.019 -0.008,0.019 -0.02,0.059 -0.039,0.094 -0.059,0.145 -0.007,0.023 -0.031,0.023 -0.082,0.023 l 0,0 c 0.004,0.082 0.012,0.125 0.004,0.145 -0.011,0.058 -0.015,0.097 -0.019,0.148 -0.004,0.035 -0.024,0.035 -0.074,0.039 l 0,0 c 0,0.102 0,0.133 0,0.153 -0.02,0.05 -0.032,0.101 -0.043,0.152 0,0.019 -0.008,0.023 -0.008,0.035 -0.031,0.066 -0.051,0.121 -0.078,0.195 -0.008,0.008 -0.016,0.02 -0.028,0.028 0,0 0,0 -0.047,-0.047 0,0.078 0.008,0.121 0,0.144 0,0.055 -0.003,0.102 -0.007,0.157 0,0.046 -0.028,0.046 -0.071,0.046 l 0,0 c -0.023,0.016 -0.031,0.028 -0.05,0.055 -0.024,0.051 -0.043,0.098 -0.071,0.149 -0.008,0.023 -0.008,0.054 -0.008,0.16 l 0,0 c -0.031,0 -0.054,0 -0.066,0.019 -0.035,0.074 -0.066,0.125 -0.102,0.184 -0.011,0.023 -0.011,0.055 -0.007,0.133 l 0,0 c -0.008,0.015 -0.016,0.019 -0.02,0.031 -0.035,0.078 -0.066,0.141 -0.101,0.219 -0.008,0.015 -0.008,0.05 -0.008,0.113 l 0,0 c -0.051,0 -0.051,0 -0.133,0.082 l 0,0 c 0.004,0.074 0.004,0.117 -0.012,0.129 -0.031,0.062 -0.062,0.113 -0.086,0.18 l 0,0 c -0.031,0.058 -0.058,0.101 -0.082,0.16 -0.008,0.004 -0.008,0.004 -0.008,0.004 -0.035,0.058 -0.062,0.117 -0.101,0.183 -0.012,0.02 -0.035,0.031 -0.074,0.047 l 0,0 c -0.051,0.02 -0.051,0.02 -0.121,0.192 l 0,0 c 0,0.007 0,0.011 0,0.011 -0.028,0.071 -0.055,0.129 -0.079,0.196 -0.015,0.027 -0.027,0.074 -0.046,0.156 l 0,0 c -0.036,0 -0.055,0.008 -0.075,0.015 -0.031,0.016 -0.058,0.024 -0.093,0.047 -0.004,0.004 0.003,0.047 0.035,0.153 -0.075,0.004 -0.075,0.004 -0.094,0.047 l 0,0 c -0.09,0.136 -0.09,0.136 -0.121,0.187 l 0,0 c -0.074,0.145 -0.074,0.145 -0.098,0.18 l 0,0 c -0.023,0.183 -0.023,0.183 -0.105,0.187 l 0,0 c -0.035,0 -0.055,0.008 -0.059,0.02 -0.047,0.07 -0.09,0.14 -0.137,0.211 -0.011,0.031 -0.027,0.082 -0.043,0.183 l 0,0 c -0.07,0 -0.07,0 -0.144,0.071 0,0 0,0 0.043,0.089 -0.07,0.008 -0.07,0.008 -0.141,0.094 l 0,0 c -0.008,0.055 -0.011,0.078 -0.031,0.102 -0.027,0.078 -0.051,0.136 -0.078,0.215 -0.024,0.046 -0.047,0.046 -0.102,0.046 l 0,0 c -0.097,0.055 -0.097,0.055 -0.113,0.239 l 0,0 c -0.035,0.008 -0.062,0.008 -0.07,0.019 -0.047,0.078 -0.09,0.141 -0.137,0.211 -0.02,0.031 -0.027,0.078 -0.039,0.172 l 0,0 c -0.082,-0.004 -0.082,-0.004 -0.176,0.027 l 0,0 c -0.012,0.098 -0.019,0.153 -0.039,0.18 -0.043,0.082 -0.086,0.141 -0.137,0.223 -0.011,0.019 -0.031,0.019 -0.066,0.019 l 0,0 c -0.051,0.012 -0.078,0.024 -0.098,0.047 -0.234,0.36 -0.457,0.649 -0.746,0.961 -0.125,0.121 -0.238,0.258 -0.344,0.391 l 0,0 c -7.375,9.008 -7.492,9.148 -14.414,17.468 -0.191,0.235 -0.343,0.438 -0.511,0.696 -0.051,0.082 -0.106,0.152 -0.168,0.211 -0.254,0.234 -0.453,0.453 -0.672,0.726 -1.789,2.219 -1.969,2.45 -3.985,5.02 -0.042,0.055 -0.082,0.101 -0.121,0.16 -46.9801,63.602 -47.2067,63.922 -62.6559,95.012 -0.1133,0.23 -0.2031,0.437 -0.2968,0.683 -0.2813,0.739 -0.8399,0.739 -1.8047,-0.101 C 39,428.063 53,401.781 69.5664,365.598 c 0.9063,-1.981 0.8945,-4.047 -0.0351,-6.012 -0.9258,-1.977 -2.5079,-3.297 -4.6094,-3.848 z m 139.6911,144.735 0,0 c 15.473,43.586 19.453,66.289 61.477,71.699 2.469,0.312 4.738,-0.574 6.336,-2.488 1.601,-1.918 2.074,-4.321 1.328,-6.704 -2.379,-7.625 -4.402,-20.074 -9.188,-51.867 -0.421,-2.816 0.747,-5.457 3.125,-7.015 2.368,-1.563 5.247,-1.594 7.645,-0.082 35.512,22.293 119.5,73.054 136.68,20.586 0.082,-0.914 -0.571,-1.786 -2.219,-2.465 -0.227,-0.086 -0.414,-0.18 -0.621,-0.293 -30.196,-15.989 -45.504,-24.074 -64.098,-36.528 -18.746,-12.558 -40.969,-29.507 -85.398,-63.441 -0.117,-0.09 -0.219,-0.168 -0.332,-0.27 -13.778,-11.89 -13.832,-11.937 -27.649,-24.214 -4.531,-4.071 -8.156,-6.301 -11.172,-6.86 -0.015,0.02 -0.019,0.032 -0.047,0.032 -0.05,0 -0.093,0 -0.152,0 -0.019,0.007 -0.047,-0.004 -0.098,-0.02 l 0,0 c -0.105,-0.035 -0.105,-0.035 -0.144,0.008 l 0,0 c -0.106,-0.039 -0.106,-0.039 -0.231,-0.078 l 0,0 c -0.039,0.047 -0.039,0.047 -0.07,0.07 l 0,0 c -0.109,-0.02 -0.109,-0.02 -0.219,-0.066 l 0,0 c -0.035,0.05 -0.035,0.05 -0.195,0.043 l 0,0 c 0,0 0,0 -0.133,0.003 l 0,0 c -0.043,0.02 -0.043,0.02 -0.16,-0.015 l 0,0 c -0.027,0.043 -0.027,0.043 -0.055,0.082 -0.093,-0.082 -0.093,-0.082 -0.093,-0.082 -0.024,0.043 -0.024,0.043 -0.051,0.074 l 0,0 c -0.07,-0.019 -0.102,-0.023 -0.117,-0.019 -0.172,0.039 -0.321,0.058 -0.5,0.078 -0.172,0.019 -0.356,0.039 -0.532,0.058 -0.074,0.09 -0.074,0.09 -0.105,0.121 l 0,0 c -0.055,-0.019 -0.094,-0.027 -0.105,-0.027 -0.071,0.008 -0.122,0.02 -0.184,0.031 -0.02,0 -0.027,0.016 -0.039,0.039 l 0,0 c -0.063,0.071 -0.063,0.071 -0.18,0.016 l 0,0 c -0.027,0.062 -0.027,0.062 -0.027,0.137 l 0,0 c -0.113,-0.024 -0.164,-0.036 -0.176,-0.032 -0.055,0.024 -0.101,0.043 -0.152,0.059 -0.024,0.012 -0.028,0.02 -0.051,0.047 l 0,0 c -0.008,0.012 -0.02,0.019 -0.035,0.019 -0.055,0.012 -0.106,0.024 -0.168,0.036 -0.028,0.011 -0.07,0.011 -0.156,0.011 l 0,0 c -0.032,0.047 -0.032,0.047 -0.102,0.11 l 0,0 c -0.121,-0.024 -0.121,-0.024 -0.18,0.047 l 0,0 c -0.05,0.031 -0.05,0.031 -0.199,0.023 l 0,0 c -0.023,0.051 -0.023,0.051 -0.051,0.16 l 0,0 c -0.148,-0.082 -0.148,-0.082 -0.148,0.008 0,0 0,0 -0.047,0.031 -0.031,0.039 -0.031,0.039 -0.184,0.043 l 0,0 c -0.027,0.027 -0.027,0.027 -0.101,0.098 l 0,0 c -0.113,-0.031 -0.113,-0.031 -0.172,0.051 l 0,0 c -0.031,0.023 -0.031,0.023 -0.188,0.015 l 0,0 c -0.07,0.086 -0.07,0.086 -0.101,0.133 l 0,0 c -0.039,0.105 -0.039,0.105 -0.223,0.066 l 0,0 c 0.004,0.082 0.004,0.082 -0.07,0.137 l 0,0 c -0.137,0 -0.137,0 -0.164,0.055 l 0,0 c -0.082,0.082 -0.082,0.082 -0.227,0.09 l 0,0 c -0.074,0.058 -0.074,0.058 -0.113,0.086 l 0,0 c -0.141,0.004 -0.141,0.004 -0.207,0.082 l 0,0 c 0,0.074 0,0.074 -0.074,0.136 l 0,0 c -0.133,0.004 -0.133,0.004 -0.211,0.086 l 0,0 c -0.055,0.071 -0.055,0.071 -0.231,0.071 l 0,0 c -0.023,0.043 -0.023,0.043 -0.089,0.121 l 0,0 c -0.063,0.074 -0.063,0.074 -0.11,0.183 l 0,0 c -0.183,-0.027 -0.183,-0.027 -0.183,0.035 l 0,0 c -0.071,0.067 -0.071,0.067 -0.219,0.071 l 0,0 c -0.004,0.004 -0.008,0.011 -0.012,0.015 -0.058,0.059 -0.101,0.118 -0.152,0.18 -0.028,0.039 -0.059,0.039 -0.188,0.043 l 0,0 c -0.074,0.074 -0.074,0.074 -0.105,0.176 l 0,0 c -0.067,0.066 -0.067,0.066 -0.133,0.144 l 0,0 c -0.145,0 -0.145,0 -0.184,0.051 l 0,0 c -0.062,0.063 -0.062,0.063 -0.097,0.168 l 0,0 c -0.059,0.09 -0.059,0.09 -0.203,0.094 l 0,0 c -0.063,0.039 -0.082,0.058 -0.129,0.101 -0.032,0.032 -0.059,0.067 -0.098,0.098 -0.023,0.024 -0.023,0.043 -0.023,0.117 l 0,0 c -0.231,0.004 -0.231,0.004 -0.27,0.114 l 0,0 c -0.062,0.074 -0.062,0.074 -0.121,0.156 l 0,0 c -0.082,0.09 -0.082,0.09 -0.23,0.094 l 0,0 c -0.079,0.054 -0.079,0.054 -0.114,0.164 l 0,0 c -0.039,0.07 -0.039,0.07 -0.117,0.152 0,0 0,0 -0.047,0.035 -0.027,0.031 -0.027,0.031 -0.207,0.07 l 0,0 c -0.078,0.086 -0.078,0.086 -0.113,0.188 l 0,0 c -0.07,0.074 -0.07,0.074 -0.164,0.187 l 0,0 c -0.145,0.004 -0.168,0.004 -0.207,0.039 -0.211,0.247 -0.41,0.434 -0.656,0.649 -0.2,0.168 -0.383,0.351 -0.54,0.535 -0.125,0.152 -0.234,0.274 -0.375,0.414 -7.957,8.18 -8.152,8.379 -15.738,16.133 -0.187,0.199 -0.347,0.375 -0.515,0.598 -0.008,0.007 -0.024,0.023 -0.032,0.035 -0.215,0.285 -0.422,0.519 -0.687,0.769 -2.203,2.145 -2.371,2.309 -4.625,4.723 -0.063,0.062 -0.113,0.113 -0.172,0.172 -56,55.93 -56.172,56.094 -80.828,78.375 -0.102,0.09 -0.192,0.164 -0.297,0.25 -0.66,0.531 -0.348,1.422 0.699,2.621 36.508,36.769 54.422,19.328 87.832,-3.75 1.879,-1.297 4.039,-1.613 6.203,-0.91 2.168,0.703 3.739,2.23 4.5,4.379 z m 221.977,-215.918 0,0 c 52.094,-3.055 80,-4.754 99.707,-6.258 21.641,-1.652 33.609,-3.156 57.039,-6.039 0.281,-0.039 0.516,-0.078 0.785,-0.141 0.445,-0.109 0.766,0.211 0.93,0.918 13.297,74.149 -102.731,76.965 -158.809,81.352 -3.012,0.234 -5.433,2.218 -6.265,5.129 -0.836,2.914 0.168,5.886 2.597,7.687 35.989,26.77 119.098,92.117 38.25,110.563 -0.136,0.031 -0.261,0.062 -0.394,0.101 -1.809,0.524 -3.504,0.313 -5.09,-0.574 -28.063,-19.297 -42.133,-28.941 -60.113,-42.941 -18,-13.997 -39.985,-32.422 -83.907,-69.247 -0.058,-0.054 -0.121,-0.105 -0.179,-0.16 -13.981,-12.57 -14.016,-12.601 -28.161,-25.515 -3.96,-3.684 -6.437,-6.93 -7.375,-9.739 -0.167,-0.48 -0.253,-0.906 -0.32,-1.398 0,-0.008 0,-0.012 0,-0.012 -0.019,-0.109 -0.035,-0.211 -0.043,-0.324 0,-0.027 -0.012,-0.055 -0.043,-0.117 l 0,0 c 0.012,-0.051 0.016,-0.09 0.016,-0.11 -0.004,-0.062 -0.004,-0.117 -0.004,-0.179 0,-0.008 0,-0.024 0,-0.039 l 0,0 c -0.012,-0.055 -0.027,-0.086 -0.027,-0.106 0,-0.051 -0.004,-0.101 -0.008,-0.152 l 0,0 c 0,-0.055 -0.008,-0.094 -0.008,-0.152 0,-0.02 0.008,-0.024 0.027,-0.036 0,0 0,0 -0.05,-0.05 -0.004,-0.032 -0.004,-0.051 0,-0.067 0.019,-0.07 0.035,-0.129 0.05,-0.199 0,-0.008 0.004,-0.02 0.008,-0.023 l 0,0 c 0.039,-0.129 0.039,-0.129 0.031,-0.188 0.016,-0.332 0.079,-0.633 0.168,-0.961 0.036,-0.113 0.036,-0.113 0.067,-0.148 l 0,0 c -0.024,-0.067 -0.031,-0.098 -0.02,-0.129 0.031,-0.055 0.055,-0.106 0.086,-0.168 0.008,-0.008 0.016,-0.012 0.02,-0.024 l 0,0 c -0.024,-0.121 -0.024,-0.121 0.039,-0.203 l 0,0 c 0.035,-0.039 0.035,-0.039 0.07,-0.148 l 0,0 c -0.027,-0.067 -0.031,-0.094 -0.027,-0.121 0.019,-0.051 0.039,-0.082 0.051,-0.129 0.007,-0.024 0.031,-0.043 0.082,-0.067 l 0,0 c 0.062,-0.086 0.062,-0.086 0.011,-0.199 l 0,0 c 0.032,-0.101 0.032,-0.101 0.067,-0.16 l 0,0 c 0.035,-0.031 0.054,-0.055 0.066,-0.074 0.016,-0.047 0.031,-0.094 0.051,-0.137 0.004,-0.027 0.004,-0.062 0.004,-0.144 l 0,0 c 0,-0.016 0.011,-0.039 0.019,-0.051 0.032,-0.078 0.059,-0.137 0.082,-0.207 0,-0.008 0.008,-0.008 0.008,-0.008 0.024,-0.051 0.043,-0.094 0.07,-0.145 l 0,-0.007 c 0.032,-0.055 0.055,-0.102 0.086,-0.164 0.012,-0.02 0.036,-0.04 0.082,-0.086 l 0,0 c -0.015,-0.075 -0.015,-0.075 -0.015,-0.145 l 0,0 c 0.015,-0.051 0.027,-0.082 0.043,-0.105 0.027,-0.067 0.054,-0.118 0.078,-0.184 0,-0.012 0.012,-0.016 0.012,-0.023 0.046,-0.063 0.082,-0.125 0.129,-0.196 0,-0.015 0.011,-0.031 0.023,-0.051 l 0,0 c 0.102,-0.078 0.102,-0.078 0.156,-0.148 l 0,0 c 0.035,-0.102 0.035,-0.102 0.082,-0.148 l 0,0 c 0.02,-0.121 0.02,-0.121 0.012,-0.262 l 0,0 c 0.051,-0.012 0.082,-0.031 0.098,-0.051 0.035,-0.07 0.07,-0.125 0.113,-0.191 0.008,-0.016 0.019,-0.047 0.023,-0.094 l 0,0 c 0.047,-0.039 0.075,-0.059 0.082,-0.086 0.032,-0.062 0.063,-0.113 0.098,-0.172 l 0,0 c 0.031,-0.066 0.059,-0.125 0.086,-0.183 0.012,-0.02 0.012,-0.043 0.012,-0.071 l 0,0 c 0.132,-0.078 0.132,-0.078 0.179,-0.183 l 0,0 c 0.02,-0.075 0.024,-0.098 0.051,-0.137 0.02,-0.039 0.039,-0.074 0.063,-0.113 0.007,-0.02 0.011,-0.032 0.019,-0.039 0.059,-0.071 0.11,-0.137 0.172,-0.211 0.016,-0.024 0.031,-0.032 0.066,-0.051 l 0,0 c 0.075,-0.152 0.075,-0.152 0.086,-0.277 l 0,0 c 0.028,-0.024 0.039,-0.032 0.063,-0.051 0.047,-0.055 0.09,-0.098 0.129,-0.157 0.027,-0.023 0.039,-0.05 0.062,-0.125 l 0,0 c 0.106,-0.117 0.106,-0.117 0.164,-0.183 l 0,0 c 0.043,-0.113 0.043,-0.113 0.145,-0.137 l 0,0 c 0.031,-0.113 0.031,-0.113 0.09,-0.207 l 0,0 c 0.027,-0.035 0.043,-0.062 0.058,-0.086 0.043,-0.078 0.09,-0.148 0.137,-0.226 0.008,-0.012 0.016,-0.028 0.027,-0.032 0.051,-0.07 0.102,-0.129 0.161,-0.203 0.011,-0.011 0.019,-0.027 0.035,-0.043 l 0,0 c 0.047,-0.039 0.074,-0.066 0.097,-0.09 0.051,-0.062 0.098,-0.113 0.153,-0.179 0.019,-0.02 0.039,-0.063 0.066,-0.141 l 0,0 c 0.078,-0.074 0.078,-0.074 0.137,-0.144 l 0,0 c 0.031,-0.11 0.031,-0.11 0.191,-0.188 l 0,0 c 0.008,-0.058 0.02,-0.082 0.039,-0.113 0.039,-0.067 0.071,-0.125 0.114,-0.192 0.027,-0.035 0.054,-0.058 0.152,-0.117 l 0,0 c 0.012,-0.008 0.023,-0.019 0.031,-0.031 0.07,-0.078 0.133,-0.145 0.207,-0.23 0.028,-0.02 0.039,-0.051 0.074,-0.125 l 0,0 c 0.102,-0.122 0.102,-0.122 0.207,-0.231 l 0,0 c 0.063,-0.066 0.063,-0.066 0.114,-0.168 0.011,0.02 0.011,0.02 0.011,0.02 0.02,-0.055 0.036,-0.082 0.059,-0.11 0.188,-0.183 0.344,-0.355 0.512,-0.558 0.242,-0.293 0.511,-0.594 0.804,-0.875 0.082,-0.082 0.149,-0.149 0.231,-0.231 9.613,-10.144 9.66,-10.195 19.461,-20.597 0.269,-0.282 0.461,-0.493 0.703,-0.739 0.031,-0.035 0.07,-0.07 0.105,-0.105 3.254,-3.477 3.27,-3.496 6.54,-6.965 l 0,0 c 45.75,-49.156 68.628,-73.77 88.253,-95.172 19.61,-21.375 35.957,-39.695 68.684,-76.18 0.055,-0.058 0.102,-0.105 0.156,-0.168 0.426,-0.445 0.856,-0.847 1.266,-1.203 2.141,-1.832 4.973,-2.234 7.535,-1.07 71.477,32.484 -16.809,121.551 -53.875,159.906 -2.078,2.153 -2.594,5.203 -1.355,7.922 1.242,2.723 3.882,4.313 6.863,4.141" /><path
         id="path3369"
         style="fill:#454545;fill-opacity:1;fill-rule:evenodd;stroke:none"
         d="m 688.703,401.992 c 6.969,6.164 16.559,8.156 25.641,8.281 30.312,0 60.57,0 90.883,0 3.921,-0.058 7.902,0.125 11.824,-0.308 7.41,-0.938 14.508,-5.106 18.238,-11.641 2.805,-4.672 3.676,-10.398 2.805,-15.816 -1.246,-7.715 -6.602,-14.5 -13.574,-17.985 -3.793,-2.054 -8.215,-2.742 -12.512,-2.8 -27.387,0 -54.711,0 -82.098,0 0,-13.012 0,-25.961 0,-38.907 23.653,0 47.309,0 70.957,0 5.852,0 12.016,-1.308 16.621,-5.164 5.727,-4.484 8.215,-12.199 7.469,-19.3 -0.559,-7.411 -5.168,-14.375 -11.828,-17.735 -3.922,-2.246 -8.461,-2.871 -12.945,-2.929 -23.407,0 -46.871,0 -70.274,0 0.063,-13.133 -0.058,-26.208 0.063,-39.278 27.132,0.125 54.34,0 81.476,0.063 2.242,0 4.547,-0.125 6.789,-0.434 8.278,-1.562 15.684,-7.406 19.047,-15.187 2.676,-6.106 2.238,-13.325 -0.562,-19.301 -2.926,-6.035 -8.465,-10.77 -14.879,-12.633 -2.922,-1 -6.094,-1.184 -9.153,-1.309 -32.796,0 -65.605,0 -98.406,0 -8.965,0.125 -18.363,2.18 -25.269,8.282 -8.286,6.593 -11.953,17.496 -12.02,27.82 0,49.613 0,99.223 0,148.836 0,10.141 3.551,20.91 11.707,27.445 z m 190.531,-42.883 c 8.715,1.805 18.176,-1.312 24.024,-7.972 11.211,-12.633 22.101,-25.52 33.305,-38.215 9.152,10.394 18.117,20.851 27.207,31.246 2.8,3.234 5.476,6.594 8.648,9.398 4.918,4.047 11.328,6.286 17.68,6.039 8.773,-0.121 17.112,-5.292 21.532,-12.761 3.49,-5.848 4.24,-13.196 2.18,-19.602 -1.93,-6.73 -6.97,-11.711 -11.38,-16.812 -10.532,-12.203 -21.176,-24.336 -31.629,-36.598 10.828,-12.016 21.414,-24.406 32.179,-36.547 3.73,-4.355 8.03,-8.465 10.27,-13.879 3.05,-6.84 2.99,-15 -0.31,-21.66 -2.67,-5.101 -6.97,-9.277 -12.26,-11.57 -8.465,-3.867 -18.985,-2.75 -26.52,2.734 -3.797,2.863 -6.664,6.656 -9.773,10.141 -9.278,10.648 -18.485,21.359 -27.824,31.937 -8.965,-10.273 -17.864,-20.726 -26.825,-31.058 -3.984,-4.426 -7.472,-9.649 -12.886,-12.575 -7.223,-4.05 -16.375,-4.546 -23.965,-1.25 -5.856,2.43 -10.465,7.356 -12.883,13.133 -2.68,6.414 -2.43,13.887 0.434,20.235 2.179,5.043 6.16,9.027 9.71,13.199 10.77,12.383 21.352,24.894 32.243,37.16 -11.332,13.32 -22.782,26.453 -34.172,39.711 -3.551,3.984 -6.973,8.285 -8.473,13.504 -1.738,5.355 -1.68,11.394 0.508,16.68 3.234,7.851 10.641,13.761 18.98,15.382 z m 973.546,-3.117 c 14.19,3.922 29.01,5.606 43.7,4.86 13.94,-0.938 27.82,-4.985 39.47,-12.95 14.12,-9.398 24.09,-24.523 28,-41.015 2.3,-9.219 2.5,-18.805 2.68,-28.199 0.12,-12.833 0.19,-25.836 -2.55,-38.407 -2.99,-13.761 -9.53,-27.019 -20.11,-36.539 -8.65,-7.906 -19.67,-12.887 -31.12,-15.066 -16.06,-3.051 -32.93,-1.305 -48.11,4.668 0,-9.957 0,-19.918 0,-29.879 -0.13,-5.164 0.24,-10.395 -0.32,-15.5 -1.24,-11.141 -10.33,-20.977 -21.54,-22.66 -6.22,-1.055 -12.82,0.379 -18.17,3.804 -7.84,5.039 -12.02,14.559 -11.64,23.774 0,58.762 -0.06,117.457 0,176.219 -0.18,4.05 1.49,8.214 4.92,10.586 10.39,7.656 22.47,12.695 34.79,16.304 z m 28.38,-45.254 c 6.98,1.309 14.57,1.25 21.04,-2.117 5.18,-2.551 8.97,-7.402 10.77,-12.824 2.12,-6.344 2.12,-13.07 2.19,-19.66 0,-6.664 0,-13.324 -0.75,-19.926 -0.75,-5.969 -3.37,-12.141 -8.41,-15.746 -4.85,-3.543 -11.08,-4.485 -16.99,-4.418 -8.34,0.43 -16.99,2.113 -24.27,6.469 0,20.547 0,41.086 0,61.562 4.78,3.613 10.64,5.414 16.42,6.66 z m -209.23,42.953 c 11.46,4.422 23.65,6.536 35.85,7.223 15.63,0.555 31.75,-0.566 46.32,-6.723 9.77,-4.109 18.48,-11.078 23.96,-20.171 8.53,-13.692 9.71,-30.379 9.4,-46.063 0,-20.727 0,-41.516 0,-62.246 -0.06,-5.039 0.37,-10.395 -1.61,-15.191 -1.57,-3.977 -5.11,-6.59 -8.6,-8.774 -14.25,-8.652 -30.69,-13.012 -47.12,-14.875 -13.63,-1.433 -27.58,-1.551 -41.02,1.434 -11.51,2.55 -22.78,7.715 -31,16.371 -9.21,9.269 -14,22.41 -14.07,35.355 -0.24,12.012 3.67,24.336 11.89,33.235 7.73,8.656 18.8,13.695 30.07,16.066 8.59,1.805 17.36,2.234 26.14,1.859 8.91,-0.183 17.81,-1.488 26.46,-3.793 -0.31,6.04 0.81,12.387 -1.31,18.239 -1.87,5.355 -7.34,8.34 -12.63,9.336 -8.47,1.746 -17.18,0.875 -25.59,-0.871 -7.22,-1.43 -14.37,-3.918 -21.78,-3.735 -6.48,0 -13.2,1.805 -17.93,6.352 -6.23,6.164 -7.34,16.558 -3.24,24.148 3.24,6.285 9.4,10.27 15.81,12.824 z m 22.98,-102.644 c 3.54,5.164 9.95,7.473 15.99,7.777 9.4,0.504 18.86,-0.683 27.76,-3.609 -0.19,-7.715 0.06,-15.434 -0.13,-23.149 -9.77,-5.91 -21.91,-8.101 -33.11,-5.605 -4.67,1.18 -9.28,3.926 -11.51,8.406 -2.31,5.098 -2.31,11.449 1,16.18 z m -251.42,109.121 c 13.26,1.984 27.14,2.547 40.03,-1.746 8.15,-2.555 15.37,-7.219 21.66,-12.891 12.82,8.473 27.64,13.887 42.89,15.692 13.93,1.183 28.38,0.125 41.51,-5.039 11.7,-4.485 21.47,-13.571 26.77,-24.903 6.04,-12.449 7.59,-26.519 7.72,-40.215 0,-25.328 0,-50.664 0,-76 -0.06,-5.976 -1.74,-12.074 -5.42,-16.929 -3.17,-4.231 -7.78,-7.407 -12.82,-8.965 -5.73,-1.867 -12.14,-2.422 -17.87,-0.309 -6.48,2.176 -11.89,7.098 -14.87,13.196 -2.18,4.238 -2.86,9.027 -2.86,13.691 0,20.355 0,40.652 0,61 -0.07,5.793 0.24,11.582 -0.37,17.313 -0.57,4.73 -2.13,9.71 -5.92,12.753 -4.05,3.368 -9.53,4.047 -14.56,3.739 -5.3,-0.313 -10.02,-2.989 -14.27,-5.973 -0.12,-25.707 0,-51.355 -0.06,-77 -0.12,-6.035 0.38,-12.078 -0.49,-18.055 -1.06,-5.539 -3.74,-10.769 -7.9,-14.562 -5.36,-5.11 -12.96,-7.344 -20.24,-7.469 -10.77,0.125 -20.72,7.965 -23.78,18.176 -1.55,4.418 -1.43,9.211 -1.43,13.812 0,19.926 0,39.844 0,59.762 -0.12,6.344 0.5,12.82 -1.24,19.047 -1.31,4.605 -4.49,8.898 -9.09,10.703 -8.16,3.305 -17.74,1.313 -24.84,-3.676 0,-27.754 0,-55.578 0,-83.34 -0.06,-5.355 0.31,-10.894 -1.43,-16 -1.81,-5.605 -5.54,-10.585 -10.45,-13.753 -5.17,-3.239 -11.28,-4.801 -17.37,-4.672 -10.71,0.375 -20.48,8.281 -23.59,18.425 -1.37,4.172 -1.31,8.59 -1.31,12.891 0,34.047 0,68.031 0,102.078 0,4.918 -0.13,10.082 2.24,14.563 2.55,4.359 6.85,7.351 10.95,10.156 11.58,7.586 24.84,12.191 38.41,14.5 z m -164.27,0.746 c 19.05,2.359 39.16,-0.687 55.84,-10.586 13.38,-7.781 24.09,-20.101 29.38,-34.73 4.85,-12.762 4.85,-26.641 5.04,-40.086 -0.06,-10.211 -0.19,-20.481 -1.99,-30.567 -2.68,-13.754 -9.52,-26.765 -19.61,-36.539 -11.64,-11.57 -27.33,-18.609 -43.51,-20.91 -18.11,-2.617 -37.28,0.059 -53.53,8.899 -19.04,10.027 -33.18,29.066 -36.54,50.48 -1.61,10.27 -1.68,20.727 -1.68,31.121 0.25,12.328 0.43,25.027 4.79,36.731 3.8,10.769 10.53,20.476 19.18,27.945 11.89,10.336 27.07,16.437 42.63,18.242 z m 6.23,-48.559 c 7.97,1.247 16.81,0.067 23.28,-5.164 5.54,-4.23 8.34,-11.14 8.72,-17.984 0.43,-8.715 0.3,-17.434 0.12,-26.144 -0.12,-6.231 -1.43,-12.762 -5.42,-17.684 -4.41,-5.848 -11.76,-8.965 -18.92,-9.274 -8.59,-0.621 -17.93,2.243 -23.22,9.403 -6.29,8.152 -6.16,18.988 -6.16,28.758 0.19,8.902 -0.56,18.484 4.17,26.457 3.49,6.41 10.27,10.515 17.43,11.632 z m -185.36,48.559 c 10.57,0.934 21.41,1.238 31.92,-0.812 12.45,-2.243 24.47,-7.411 34.18,-15.559 11.57,-9.461 19.48,-23.035 22.84,-37.535 2.18,-9.086 2.37,-18.492 2.56,-27.762 0.18,-14.133 0.18,-28.57 -3.55,-42.324 -2.93,-11.02 -8.28,-21.606 -16.31,-29.82 -8.47,-8.907 -19.86,-14.75 -31.75,-17.305 -16.68,-3.738 -34.42,-2.051 -50.29,4.172 0,-13.699 0,-27.395 0,-41.149 0,-5.976 -1.74,-12.078 -5.48,-16.867 -4.35,-5.914 -11.39,-9.894 -18.73,-10.269 -6.98,-0.5 -14.2,1.925 -19.24,6.781 -5.6,5.168 -8.28,12.887 -8.22,20.418 0,58.512 0,117.023 0,175.539 0.07,2.551 0.07,5.164 1.18,7.465 1.44,3.051 4.36,4.98 7.04,6.726 16.06,10.395 34.86,16.184 53.85,18.301 z m -10.4,-56.211 c 6.47,4.61 14.5,6.785 22.35,7.41 8.03,0.559 16.87,-1.871 21.96,-8.472 5.11,-6.282 5.86,-14.75 6.11,-22.532 0.06,-7.902 0.12,-15.808 -0.69,-23.711 -0.68,-6.164 -3.24,-12.574 -8.46,-16.312 -4.86,-3.547 -11.08,-4.481 -17,-4.414 -8.33,0.43 -16.99,2.113 -24.27,6.469 0,20.543 0,41.086 0,61.562" /><path
         id="path3371"
         style="fill:#454545;fill-opacity:1;fill-rule:evenodd;stroke:none"
         d="m 722.25,43.043 c 0,-2.2617 -0.379,-4.4961 -1.148,-6.6992 -0.758,-2.2032 -1.895,-4.1758 -3.391,-5.918 -1.504,-1.7461 -3.383,-3.168 -5.648,-4.2695 -2.266,-1.1016 -4.864,-1.6524 -7.801,-1.6524 l -27.266,0 0,63.2422 26.258,0 c 2.871,0 5.426,-0.457 7.66,-1.375 2.234,-0.918 4.117,-2.1445 5.645,-3.6719 1.535,-1.5312 2.695,-3.3047 3.488,-5.3242 0.797,-2.0195 1.195,-4.1328 1.195,-6.332 0,-2.5117 -0.578,-4.9766 -1.746,-7.3907 -1.16,-2.4179 -3.18,-4.4218 -6.055,-6.0117 3.059,-1.5898 5.293,-3.7343 6.7,-6.4258 1.406,-2.6914 2.109,-5.4179 2.109,-8.1718 z m -9.359,27.8164 c 0,3.3008 -1.059,5.6562 -3.153,7.0664 -2.113,1.4062 -4.804,2.1094 -8.109,2.1094 l -16.004,0 0,-18.6289 16.742,0 c 1.406,0 2.75,0.1953 4.016,0.5937 1.289,0.3984 2.41,0.9961 3.355,1.7891 0.934,0.7968 1.696,1.7929 2.278,2.9843 0.582,1.1954 0.875,2.5547 0.875,4.086 z m 1.097,-27.8164 c 0,1.7148 -0.32,3.2304 -0.961,4.5468 -0.644,1.3125 -1.496,2.4297 -2.57,3.3516 -1.07,0.9141 -2.297,1.6211 -3.672,2.1055 -1.379,0.4922 -2.801,0.7383 -4.269,0.7383 l -16.891,0 0,-21.6641 17.074,0 c 3.735,0 6.547,0.9492 8.446,2.8437 1.898,1.9024 2.843,4.5938 2.843,8.0782 z m 57.008,-18.5391 0,45.4336 7.613,0 0,-45.4336 -7.613,0 z m -12.305,14.043 c 0,1.7148 -0.64,3.289 -1.925,4.7265 -1.286,1.4414 -3.399,2.1602 -6.332,2.1602 l -11.84,0 0,-13.9531 11.84,0 c 2.629,0 4.664,0.5976 6.105,1.789 1.438,1.1914 2.152,2.9532 2.152,5.2774 z m -20.007,13.7695 12.07,0 c 2.566,0 4.867,-0.3516 6.851,-1.0586 1.993,-0.6992 3.657,-1.664 4.969,-2.8906 1.321,-1.2188 2.332,-2.6758 3.004,-4.3594 0.672,-1.6797 1.008,-3.5039 1.008,-5.4609 0,-4.2227 -1.359,-7.6172 -4.102,-10.1875 -2.718,-2.5703 -6.668,-3.8555 -11.824,-3.8555 l -19.871,0 0,45.5313 7.895,0 0,-17.7188 z m 66.82,18.1719 c 2.633,0 5.312,-0.3516 8.035,-1.0703 2.723,-0.7032 5.156,-2.2461 7.293,-4.6016 l -4.676,-5.9844 c -2.023,1.8985 -3.902,3.0782 -5.648,3.5352 -1.746,0.4609 -3.289,0.6875 -4.637,0.6875 -1.16,0 -2.367,-0.1836 -3.625,-0.5508 -1.254,-0.3633 -2.387,-0.9648 -3.394,-1.8203 -1.012,-0.8594 -1.836,-1.957 -2.481,-3.3359 -0.641,-1.3594 -0.961,-3.0274 -0.961,-4.9727 l 0,-10.2148 c 0,-1.9454 0.305,-3.6133 0.918,-4.9766 0.61,-1.375 1.402,-2.4766 2.387,-3.3359 0.976,-0.8516 2.094,-1.4493 3.348,-1.8164 1.253,-0.3711 2.527,-0.5508 3.808,-0.5508 1.348,0 2.984,0.2734 4.914,0.8281 1.926,0.5469 3.594,1.5312 5.004,2.9336 l 4.863,-5.5195 c -2.144,-2.1758 -4.511,-3.6563 -7.113,-4.4688 -2.601,-0.8125 -5.219,-1.207 -7.851,-1.207 -2.692,0 -5.137,0.3945 -7.34,1.1953 -2.203,0.793 -4.118,1.8945 -5.739,3.3047 -1.617,1.4023 -2.879,3.1015 -3.765,5.0898 -0.883,1.9883 -1.328,4.1797 -1.328,6.5625 l 0,13.4961 c 0,2.5703 0.488,4.8906 1.468,6.9727 0.981,2.082 2.293,3.8554 3.946,5.3242 1.652,1.4687 3.566,2.5859 5.738,3.3516 2.168,0.7617 4.453,1.1445 6.836,1.1445 z m 40.297,-7.5235 0,-38.4609 -8.168,0 0,38.4609 -14.047,0 0,7.0704 36.352,0 0,-7.0704 -14.137,0 z m 45.344,-34.0546 c -3.61,-2.0196 -6.559,-3.3164 -8.86,-3.9024 -2.293,-0.582 -4.359,-0.8711 -6.191,-0.8711 -4.41,0 -7.926,1.2227 -10.559,3.6719 -2.633,2.4492 -3.949,5.7812 -3.949,10.0078 0,2.5039 0.57,4.6172 1.699,6.332 1.133,1.711 2.539,3.1016 4.223,4.1758 1.683,1.0703 3.488,1.836 5.414,2.293 1.93,0.4609 3.66,0.6875 5.187,0.6875 l 13.309,0 0,3.4883 c 0,3.1836 -0.887,5.4023 -2.66,6.6562 -1.774,1.2539 -4.317,1.8828 -7.617,1.8828 -1.59,0 -3.536,-0.2304 -5.832,-0.6875 -2.293,-0.4648 -4.602,-1.6406 -6.926,-3.5351 l -3.86,5.9648 c 2.942,2.2617 5.907,3.7344 8.907,4.4063 3,0.6758 5.785,1.0078 8.355,1.0078 5.934,0 10.34,-1.2969 13.215,-3.8985 2.875,-2.6015 4.313,-6.5937 4.313,-11.9804 l 0,-30.1055 -6.958,0 -0.937,4.2188 -0.273,0.1875 z m 0.273,15.8789 -12.02,0 c -0.98,0 -2.039,-0.0743 -3.171,-0.2266 -1.129,-0.1562 -2.184,-0.4648 -3.164,-0.918 -0.981,-0.4609 -1.79,-1.164 -2.434,-2.1132 -0.645,-0.9493 -0.965,-2.1875 -0.965,-3.7149 0,-2.207 0.754,-3.8594 2.25,-4.9609 1.5,-1.1016 3.41,-1.6524 5.738,-1.6524 1.164,0 2.368,0.168 3.629,0.5078 1.25,0.336 2.473,0.7461 3.668,1.2383 1.196,0.4883 2.344,1.0235 3.442,1.6055 1.101,0.582 2.109,1.1172 3.027,1.6055 l 0,8.6289 z m 52.785,-6.5196 c 0,-1.6484 -0.308,-3.3047 -0.918,-4.9531 -0.613,-1.6562 -1.515,-3.1367 -2.707,-4.4492 -1.195,-1.3203 -2.695,-2.375 -4.5,-3.1719 -1.808,-0.793 -3.902,-1.1914 -6.289,-1.1914 l -22.117,0 0,45.4336 21.933,0 c 2.387,0 4.438,-0.3359 6.153,-1.0078 1.715,-0.6719 3.133,-1.5938 4.265,-2.7539 1.133,-1.1641 1.973,-2.4922 2.524,-3.9961 0.551,-1.4961 0.824,-3.0703 0.824,-4.7227 0,-1.6523 -0.426,-3.3359 -1.281,-5.0507 -0.86,-1.7149 -2.235,-3.0899 -4.133,-4.129 2.266,-1.039 3.871,-2.5234 4.82,-4.4492 0.95,-1.9297 1.426,-3.7812 1.426,-5.5586 z m -7.988,0 c 0,2.0196 -0.719,3.5977 -2.172,4.7305 -1.438,1.1289 -3.047,1.6992 -4.836,1.6992 l -13.644,0 0,-13.2187 12.816,0 c 2.769,0 4.762,0.5976 5.984,1.789 1.242,1.1914 1.852,2.8594 1.852,5 z m -0.824,19.0938 c 0,1.9609 -0.739,3.3828 -2.203,4.2695 -1.473,0.8867 -3.094,1.332 -4.868,1.332 l -12.757,0 0,-11.1992 13.218,0 c 2.016,0 3.625,0.4766 4.817,1.4258 1.195,0.9453 1.793,2.3359 1.793,4.1719 z m 17.074,-32.8594 0,45.5313 7.894,0 0,-19.375 7.707,0 c 0.86,0 1.715,0.0507 2.571,0.1406 0.855,0.0937 1.652,0.3515 2.386,0.7812 0.735,0.4258 1.422,1.0547 2.063,1.8828 0.648,0.8243 1.211,1.9688 1.703,3.4415 l 4.402,13.1289 8.079,0 -4.497,-13.2227 c -0.734,-2.2031 -1.605,-4.0547 -2.617,-5.5547 -1.008,-1.4961 -2.371,-2.4883 -4.086,-2.9805 2.082,-0.4882 3.614,-1.5429 4.594,-3.1679 0.977,-1.6211 1.832,-3.5625 2.566,-5.8281 l 4.868,-14.7774 -8.262,0 -3.945,12.5742 c -0.493,1.4688 -1.028,2.6485 -1.61,3.5352 -0.578,0.8828 -1.238,1.5586 -1.972,2.0195 -0.735,0.457 -1.532,0.7617 -2.387,0.918 -0.856,0.1562 -1.805,0.2265 -2.844,0.2265 l -8.719,0 0,-19.2734 -7.894,0 z m 52.685,12.6641 6.82,10.375 15.21,22.3945 7.43,0 0,-45.4336 -8.07,0 0,32.8594 -0.46,0 -6.88,-10.5547 -15.06,-22.3047 -7.249,0 0,45.4336 7.889,0 0,-32.7695 0.37,0 z m 39.93,-7.8946 c 0,1.3477 0.49,2.5704 1.47,3.6758 0.98,1.1016 2.32,1.6524 4.04,1.6524 1.16,0 2.14,-0.2305 2.93,-0.6914 0.8,-0.4571 1.44,-1.0391 1.93,-1.7422 0.49,-0.7032 0.84,-1.5 1.06,-2.3867 0.21,-0.8868 0.32,-1.7305 0.32,-2.5235 0,-1.7148 -0.28,-3.3515 -0.83,-4.914 -0.55,-1.5547 -1.27,-2.9805 -2.16,-4.2657 -0.88,-1.2812 -1.91,-2.4336 -3.07,-3.4414 -1.16,-1.0117 -2.36,-1.789 -3.58,-2.3398 l -2.75,3.5781 c 1.4,1.0391 2.54,2.1875 3.39,3.4414 0.86,1.2539 1.35,2.8008 1.47,4.6367 -1.28,0.1211 -2.31,0.6875 -3.07,1.6953 -0.77,1.0118 -1.15,2.2188 -1.15,3.625 z m 43.69,-4.7695 0,45.5313 7.9,0 0,-19.375 7.71,0 c 0.85,0 1.71,0.0507 2.57,0.1406 0.85,0.0937 1.65,0.3515 2.39,0.7812 0.73,0.4258 1.41,1.0547 2.06,1.8828 0.64,0.8243 1.21,1.9688 1.7,3.4415 l 4.4,13.1289 8.08,0 -4.5,-13.2227 c -0.73,-2.2031 -1.6,-4.0547 -2.61,-5.5547 -1.01,-1.4961 -2.38,-2.4883 -4.09,-2.9805 2.08,-0.4882 3.61,-1.5429 4.59,-3.1679 0.98,-1.6211 1.84,-3.5625 2.57,-5.8281 l 4.87,-14.7774 -8.27,0 -3.94,12.5742 c -0.49,1.4688 -1.03,2.6485 -1.61,3.5352 -0.58,0.8828 -1.23,1.5586 -1.97,2.0195 -0.74,0.457 -1.53,0.7617 -2.39,0.918 -0.85,0.1562 -1.8,0.2265 -2.84,0.2265 l -8.72,0 0,-19.2734 -7.9,0 z m 81.97,16.0625 c 0,-2.6289 -0.5,-4.9726 -1.51,-7.0234 -1.01,-2.0508 -2.41,-3.7774 -4.15,-5.1836 -1.74,-1.4063 -3.74,-2.4766 -6.03,-3.211 -2.26,-0.7382 -4.69,-1.1015 -7.26,-1.1015 -2.64,0 -5.1,0.3633 -7.36,1.1015 -2.28,0.7344 -4.25,1.8047 -5.94,3.211 -1.68,1.4062 -3.03,3.1328 -4,5.1836 -0.99,2.0508 -1.47,4.3945 -1.47,7.0234 l 0,13.2188 c 0,2.6289 0.5,4.9726 1.51,7.0234 1.01,2.0469 2.37,3.7891 4.06,5.2305 1.68,1.4375 3.67,2.539 5.97,3.3047 2.3,0.7617 4.75,1.1445 7.32,1.1445 2.76,0 5.29,-0.3828 7.58,-1.1445 2.32,-0.7657 4.31,-1.8672 5.99,-3.3047 1.68,-1.4414 3,-3.1836 3.91,-5.2305 0.92,-2.0508 1.38,-4.3945 1.38,-7.0234 l 0,-13.2188 z m -7.89,11.8086 c 0,1.9453 -0.34,3.6133 -1.01,4.9727 -0.67,1.3789 -1.55,2.4765 -2.62,3.3359 -1.07,0.8555 -2.25,1.457 -3.53,1.8203 -1.29,0.3672 -2.54,0.5508 -3.76,0.5508 -1.29,0 -2.58,-0.1836 -3.86,-0.5508 -1.28,-0.3633 -2.46,-0.9648 -3.54,-1.8203 -1.06,-0.8594 -1.94,-1.957 -2.61,-3.3359 -0.67,-1.3594 -1.01,-3.0274 -1.01,-4.9727 l 0,-10.2148 c 0,-1.9454 0.29,-3.6133 0.87,-4.9766 0.58,-1.375 1.36,-2.4766 2.35,-3.3359 0.97,-0.8516 2.14,-1.4493 3.48,-1.8164 1.35,-0.3711 2.78,-0.5508 4.32,-0.5508 1.22,0 2.47,0.1797 3.76,0.5508 1.28,0.3671 2.46,0.9648 3.53,1.8164 1.07,0.8593 1.95,1.9609 2.62,3.3359 0.67,1.3633 1.01,3.0312 1.01,4.9766 l 0,10.2148 z m 46.35,-27.8711 0,19.3672 -21.66,0 0,-19.3672 -7.89,0 0,45.4336 7.89,0 0,-18.9062 21.66,0 0,18.9062 7.9,0 0,-45.4336 -7.9,0 z m 37.64,-18.26562 0,17.71482 c -3.73,0.1836 -6.91,0.8438 -9.55,1.9727 -2.63,1.1328 -4.77,2.6015 -6.43,4.4062 -1.65,1.8047 -2.86,3.8711 -3.62,6.1953 -0.76,2.3282 -1.15,4.7422 -1.15,7.25 l 0,5.6954 c 0,2.6875 0.42,5.289 1.24,7.8007 0.83,2.5079 2.1,4.7266 3.81,6.6563 1.72,1.9258 3.87,3.4687 6.47,4.6328 2.6,1.1641 5.68,1.8047 9.23,1.9258 l 0,17.2578 7.89,0 0,-17.2578 c 3.48,-0.1211 6.5,-0.7188 9.09,-1.7852 2.6,-1.0742 4.74,-2.5117 6.45,-4.3164 1.7,-1.8047 2.99,-3.9179 3.83,-6.3359 0.86,-2.418 1.28,-4.9727 1.28,-7.6602 l 0,-6.6133 c 0,-2.5078 -0.42,-4.9062 -1.28,-7.2031 -0.84,-2.2929 -2.13,-4.3476 -3.83,-6.1484 -1.71,-1.8047 -3.85,-3.2891 -6.45,-4.4531 -2.59,-1.1641 -5.61,-1.836 -9.09,-2.0196 l 0,-17.71482 -7.89,0 z m 0,57.09372 c -2.27,0 -4.21,-0.414 -5.83,-1.2422 -1.62,-0.8242 -2.95,-1.8789 -3.99,-3.164 -1.04,-1.2852 -1.81,-2.7695 -2.3,-4.4531 -0.49,-1.6836 -0.74,-3.4102 -0.74,-5.1875 l 0,-4.1289 c 0,-1.7774 0.19,-3.4727 0.56,-5.0938 0.37,-1.625 1.04,-3.0625 2.02,-4.3125 0.98,-1.2578 2.29,-2.2969 3.94,-3.1211 1.66,-0.8281 3.77,-1.332 6.34,-1.5156 l 0,32.2187 z m 7.89,-32.2187 c 2.37,0 4.38,0.4101 6.01,1.2383 1.64,0.8242 2.97,1.8789 3.97,3.1679 1,1.2852 1.71,2.7696 2.14,4.4493 0.43,1.6796 0.64,3.4101 0.64,5.1875 l 0,4.1289 c 0,1.7773 -0.23,3.5039 -0.69,5.1875 -0.44,1.6836 -1.19,3.1679 -2.23,4.4531 -1.02,1.2851 -2.36,2.3398 -3.96,3.164 -1.61,0.8282 -3.57,1.2422 -5.88,1.2422 l 0,-32.2187 z m 37.09,13.2148 0,-3.0312 c 0,-1.8321 0.3,-3.3789 0.91,-4.6328 0.62,-1.2539 1.45,-2.293 2.53,-3.1211 1.07,-0.8242 2.29,-1.4219 3.67,-1.7891 1.37,-0.3672 2.8,-0.5508 4.27,-0.5508 1.53,0 3.3,0.3047 5.32,0.918 2.02,0.6094 3.98,1.8047 5.87,3.582 l 4.96,-5.4179 c -2.32,-2.3868 -4.91,-4.0196 -7.76,-4.9102 -2.84,-0.8867 -5.7,-1.3281 -8.57,-1.3281 -2.57,0 -5.02,0.3515 -7.35,1.0508 -2.32,0.7031 -4.36,1.7461 -6.1,3.1211 -1.75,1.3789 -3.12,3.1093 -4.14,5.1875 -1,2.082 -1.51,4.5 -1.51,7.25 l 0,12.0273 c 0,2.6914 0.46,5.1406 1.38,7.3437 0.91,2.2032 2.17,4.0665 3.79,5.5977 1.62,1.5273 3.55,2.7109 5.77,3.5352 2.23,0.8242 4.68,1.2382 7.37,1.2382 2.7,0 5.16,-0.3945 7.42,-1.1914 2.25,-0.7968 4.2,-1.9297 5.82,-3.3984 1.62,-1.4688 2.86,-3.2578 3.74,-5.3711 0.89,-2.1094 1.33,-4.4844 1.33,-7.1094 l 0,-9 -28.72,0 z m 20.83,8.1719 c 0,1.8984 -0.27,3.5195 -0.83,4.8633 -0.54,1.3476 -1.3,2.4609 -2.24,3.3515 -0.95,0.8868 -2.05,1.5274 -3.31,1.9297 -1.25,0.3946 -2.58,0.5938 -3.99,0.5938 -1.41,0 -2.72,-0.2149 -3.95,-0.6406 -1.22,-0.4297 -2.33,-1.0743 -3.3,-1.9297 -0.98,-0.8555 -1.74,-1.9414 -2.3,-3.2578 -0.55,-1.3164 -0.82,-2.8594 -0.82,-4.6368 l 0,-2.0156 20.74,0 0,1.7422 z m 22.84,17.4375 0.94,-4.7695 c 3.59,2.1406 6.48,3.5468 8.64,4.2226 2.17,0.6719 4.07,1.0078 5.72,1.0078 4.45,0 8.1,-1.3125 10.94,-3.9453 2.83,-2.6328 4.25,-6.7304 4.25,-12.3008 l 0,-13.9531 c 0,-5.2031 -1.42,-9.2109 -4.25,-12.0234 -2.84,-2.8164 -6.73,-4.2227 -11.68,-4.2227 -1.63,0 -3.56,0.168 -5.76,0.5039 -2.19,0.3399 -4.82,1.1172 -7.86,2.3438 l 0,-20.47267 -7.9,0 0,63.60937 6.96,0 z m 0.94,-35.707 c 2.8,-1.1602 5.18,-1.9219 7.12,-2.293 1.95,-0.3633 3.88,-0.5508 5.75,-0.5508 1.23,0 2.38,0.1367 3.45,0.4141 1.05,0.2773 1.99,0.7656 2.78,1.4687 0.79,0.7032 1.41,1.6524 1.87,2.8477 0.46,1.1914 0.69,2.6719 0.69,4.4492 l 0,13.0352 c 0,3.4882 -0.74,5.8906 -2.19,7.207 -1.47,1.3125 -3.41,1.9727 -5.86,1.9727 -0.84,0 -1.85,-0.1524 -3.01,-0.4571 -1.17,-0.3086 -2.36,-0.707 -3.62,-1.1953 -1.25,-0.4883 -2.47,-1.0547 -3.7,-1.6992 -1.22,-0.6445 -2.31,-1.2969 -3.28,-1.9727 l 0,-23.2265 z m 45.89,10.0976 0,-3.0312 c 0,-1.8321 0.31,-3.3789 0.91,-4.6328 0.62,-1.2539 1.46,-2.293 2.54,-3.1211 1.06,-0.8242 2.28,-1.4219 3.66,-1.7891 1.38,-0.3672 2.8,-0.5508 4.27,-0.5508 1.53,0 3.31,0.3047 5.33,0.918 2.02,0.6094 3.97,1.8047 5.87,3.582 l 4.96,-5.4179 c -2.33,-2.3868 -4.91,-4.0196 -7.76,-4.9102 -2.85,-0.8867 -5.71,-1.3281 -8.58,-1.3281 -2.57,0 -5.02,0.3515 -7.34,1.0508 -2.33,0.7031 -4.36,1.7461 -6.11,3.1211 -1.74,1.3789 -3.12,3.1093 -4.13,5.1875 -1.01,2.082 -1.51,4.5 -1.51,7.25 l 0,12.0273 c 0,2.6914 0.46,5.1406 1.37,7.3437 0.92,2.2032 2.18,4.0665 3.8,5.5977 1.62,1.5273 3.55,2.7109 5.76,3.5352 2.24,0.8242 4.69,1.2382 7.38,1.2382 2.69,0 5.15,-0.3945 7.42,-1.1914 2.25,-0.7968 4.19,-1.9297 5.81,-3.3984 1.62,-1.4688 2.87,-3.2578 3.75,-5.3711 0.89,-2.1094 1.33,-4.4844 1.33,-7.1094 l 0,-9 -28.73,0 z m 20.84,8.1719 c 0,1.8984 -0.28,3.5195 -0.83,4.8633 -0.55,1.3476 -1.3,2.4609 -2.25,3.3515 -0.95,0.8868 -2.05,1.5274 -3.3,1.9297 -1.26,0.3946 -2.59,0.5938 -3.99,0.5938 -1.41,0 -2.73,-0.2149 -3.95,-0.6406 -1.23,-0.4297 -2.33,-1.0743 -3.3,-1.9297 -0.99,-0.8555 -1.75,-1.9414 -2.31,-3.2578 -0.54,-1.3164 -0.82,-2.8594 -0.82,-4.6368 l 0,-2.0156 20.75,0 0,1.7422 z m 45.53,-27.9961 0,19.3672 -21.67,0 0,-19.3672 -7.89,0 0,45.4336 7.89,0 0,-18.9062 21.67,0 0,18.9062 7.89,0 0,-45.4336 -7.89,0 z m 50.39,0 -32.49,0 0,45.5313 7.71,0 0,-38.5547 20.92,0 0,38.5547 7.53,0 0,-38.6485 3.77,-0.0898 0,-18.4492 -7.44,0 0,11.6562 z m 22.76,12.6641 6.83,10.375 15.2,22.3945 7.44,0 0,-45.4336 -8.08,0 0,32.8594 -0.46,0 -6.88,-10.5547 -15.06,-22.3047 -7.25,0 0,45.4336 7.9,0 0,-32.7695 0.36,0 z m 46.91,0 6.82,10.375 15.21,22.3945 7.43,0 0,-45.4336 -8.07,0 0,32.8594 -0.46,0 -6.89,-10.5547 -15.05,-22.3047 -7.25,0 0,45.4336 7.89,0 0,-32.7695 0.37,0 z m 39.93,-7.8946 c 0,1.3477 0.48,2.5704 1.47,3.6758 0.98,1.1016 2.32,1.6524 4.03,1.6524 1.17,0 2.15,-0.2305 2.94,-0.6914 0.8,-0.4571 1.44,-1.0391 1.93,-1.7422 0.49,-0.7032 0.84,-1.5 1.06,-2.3867 0.21,-0.8868 0.32,-1.7305 0.32,-2.5235 0,-1.7148 -0.28,-3.3515 -0.83,-4.914 -0.55,-1.5547 -1.27,-2.9805 -2.16,-4.2657 -0.88,-1.2812 -1.91,-2.4336 -3.07,-3.4414 -1.17,-1.0117 -2.35,-1.789 -3.58,-2.3398 l -2.75,3.5781 c 1.4,1.0391 2.53,2.1875 3.39,3.4414 0.86,1.2539 1.35,2.8008 1.47,4.6367 -1.29,0.1211 -2.31,0.6875 -3.08,1.6953 -0.76,1.0118 -1.14,2.2188 -1.14,3.625 z m 64.16,-23.03512 0,17.71482 c -3.73,0.1836 -6.91,0.8438 -9.55,1.9727 -2.63,1.1328 -4.77,2.6015 -6.42,4.4062 -1.65,1.8047 -2.86,3.8711 -3.62,6.1953 -0.77,2.3282 -1.16,4.7422 -1.16,7.25 l 0,5.6954 c 0,2.6875 0.42,5.289 1.25,7.8007 0.82,2.5079 2.09,4.7266 3.8,6.6563 1.72,1.9258 3.88,3.4687 6.48,4.6328 2.59,1.1641 5.67,1.8047 9.22,1.9258 l 0,17.2578 7.89,0 0,-17.2578 c 3.48,-0.1211 6.5,-0.7188 9.09,-1.7852 2.6,-1.0742 4.75,-2.5117 6.46,-4.3164 1.7,-1.8047 2.98,-3.9179 3.83,-6.3359 0.85,-2.418 1.28,-4.9727 1.28,-7.6602 l 0,-6.6133 c 0,-2.5078 -0.43,-4.9062 -1.28,-7.2031 -0.85,-2.2929 -2.13,-4.3476 -3.83,-6.1484 -1.71,-1.8047 -3.86,-3.2891 -6.46,-4.4531 -2.59,-1.1641 -5.61,-1.836 -9.09,-2.0196 l 0,-17.71482 -7.89,0 z m 0,57.09372 c -2.27,0 -4.21,-0.414 -5.83,-1.2422 -1.62,-0.8242 -2.95,-1.8789 -3.99,-3.164 -1.04,-1.2852 -1.81,-2.7695 -2.29,-4.4531 -0.5,-1.6836 -0.74,-3.4102 -0.74,-5.1875 l 0,-4.1289 c 0,-1.7774 0.19,-3.4727 0.55,-5.0938 0.37,-1.625 1.04,-3.0625 2.02,-4.3125 0.98,-1.2578 2.3,-2.2969 3.95,-3.1211 1.65,-0.8281 3.76,-1.332 6.33,-1.5156 l 0,32.2187 z m 7.89,-32.2187 c 2.38,0 4.38,0.4101 6.01,1.2383 1.65,0.8242 2.97,1.8789 3.97,3.1679 1,1.2852 1.71,2.7696 2.14,4.4493 0.43,1.6796 0.64,3.4101 0.64,5.1875 l 0,4.1289 c 0,1.7773 -0.22,3.5039 -0.69,5.1875 -0.44,1.6836 -1.19,3.1679 -2.23,4.4531 -1.02,1.2851 -2.36,2.3398 -3.96,3.164 -1.61,0.8282 -3.57,1.2422 -5.88,1.2422 l 0,-32.2187 z m 67.01,9.4531 c 0,-2.6289 -0.51,-4.9726 -1.51,-7.0234 -1.01,-2.0508 -2.41,-3.7774 -4.15,-5.1836 -1.74,-1.4063 -3.74,-2.4766 -6.03,-3.211 -2.26,-0.7382 -4.69,-1.1015 -7.26,-1.1015 -2.63,0 -5.09,0.3633 -7.36,1.1015 -2.28,0.7344 -4.25,1.8047 -5.94,3.211 -1.68,1.4062 -3.03,3.1328 -4.01,5.1836 -0.98,2.0508 -1.46,4.3945 -1.46,7.0234 l 0,13.2188 c 0,2.6289 0.5,4.9726 1.51,7.0234 1.01,2.0469 2.37,3.7891 4.05,5.2305 1.69,1.4375 3.68,2.539 5.99,3.3047 2.29,0.7617 4.74,1.1445 7.31,1.1445 2.75,0 5.29,-0.3828 7.58,-1.1445 2.32,-0.7657 4.31,-1.8672 5.99,-3.3047 1.68,-1.4414 3,-3.1836 3.91,-5.2305 0.92,-2.0508 1.38,-4.3945 1.38,-7.0234 l 0,-13.2188 z m -7.89,11.8086 c 0,1.9453 -0.34,3.6133 -1.01,4.9727 -0.68,1.3789 -1.55,2.4765 -2.62,3.3359 -1.07,0.8555 -2.25,1.457 -3.53,1.8203 -1.29,0.3672 -2.54,0.5508 -3.76,0.5508 -1.29,0 -2.57,-0.1836 -3.86,-0.5508 -1.29,-0.3633 -2.46,-0.9648 -3.53,-1.8203 -1.08,-0.8594 -1.95,-1.957 -2.62,-3.3359 -0.67,-1.3594 -1.01,-3.0274 -1.01,-4.9727 l 0,-10.2148 c 0,-1.9454 0.29,-3.6133 0.87,-4.9766 0.58,-1.375 1.36,-2.4766 2.34,-3.3359 0.98,-0.8516 2.14,-1.4493 3.49,-1.8164 1.35,-0.3711 2.78,-0.5508 4.32,-0.5508 1.22,0 2.47,0.1797 3.76,0.5508 1.28,0.3671 2.46,0.9648 3.53,1.8164 1.07,0.8593 1.94,1.9609 2.62,3.3359 0.67,1.3633 1.01,3.0312 1.01,4.9766 l 0,10.2148 z m 23.67,17.5625 0.93,-4.7695 c 3.59,2.1406 6.49,3.5468 8.64,4.2226 2.18,0.6719 4.07,1.0078 5.72,1.0078 4.46,0 8.1,-1.3125 10.94,-3.9453 2.83,-2.6328 4.25,-6.7304 4.25,-12.3008 l 0,-13.9531 c 0,-5.2031 -1.42,-9.2109 -4.25,-12.0234 -2.84,-2.8164 -6.73,-4.2227 -11.67,-4.2227 -1.63,0 -3.57,0.168 -5.77,0.5039 -2.18,0.3399 -4.81,1.1172 -7.86,2.3438 l 0,-20.47267 -7.9,0 0,63.60937 6.97,0 z m 0.93,-35.707 c 2.8,-1.1602 5.19,-1.9219 7.13,-2.293 1.94,-0.3633 3.87,-0.5508 5.75,-0.5508 1.22,0 2.37,0.1367 3.44,0.4141 1.06,0.2773 1.99,0.7656 2.78,1.4687 0.79,0.7032 1.41,1.6524 1.88,2.8477 0.45,1.1914 0.68,2.6719 0.68,4.4492 l 0,13.0352 c 0,3.4882 -0.73,5.8906 -2.19,7.207 -1.46,1.3125 -3.41,1.9727 -5.86,1.9727 -0.84,0 -1.85,-0.1524 -3.01,-0.4571 -1.16,-0.3086 -2.35,-0.707 -3.61,-1.1953 -1.26,-0.4883 -2.48,-1.0547 -3.71,-1.6992 -1.21,-0.6445 -2.3,-1.2969 -3.28,-1.9727 l 0,-23.2265 z m 44.06,-28.17972 6.7,19.27732 -3.86,3.2188 -12.3,41.4883 8.54,0 5.5,-20.0157 5.06,-18.1757 0.27,0 6.42,18.1757 6.89,20.0157 8.45,0 -23.23,-63.98442 -8.44,0 z m 74.99,47.18362 -4.97,-9.3633 -7.28,-12.8516 -5.43,0 -5.99,10.7422 -5.7,10.8321 -0.37,0 0,-28.0899 -7.9,0 0,45.4336 7.26,0 9.21,-17.2539 6.35,-12.3008 6.5,12.211 9.53,17.3437 7.14,0 0,-45.4336 -7.89,0 0,28.7305 -0.46,0 z m 58.01,-28.7305 0,45.4336 7.62,0 0,-45.4336 -7.62,0 z m -12.3,14.043 c 0,1.7148 -0.64,3.289 -1.92,4.7265 -1.29,1.4414 -3.4,2.1602 -6.34,2.1602 l -11.84,0 0,-13.9531 11.84,0 c 2.63,0 4.66,0.5976 6.1,1.789 1.45,1.1914 2.16,2.9532 2.16,5.2774 z m -20.01,13.7695 12.07,0 c 2.57,0 4.87,-0.3516 6.86,-1.0586 1.98,-0.6992 3.65,-1.664 4.97,-2.8906 1.31,-1.2188 2.32,-2.6758 3,-4.3594 0.67,-1.6797 1.01,-3.5039 1.01,-5.4609 0,-4.2227 -1.36,-7.6172 -4.1,-10.1875 -2.73,-2.5703 -6.67,-3.8555 -11.83,-3.8555 l -19.87,0 0,45.5313 7.89,0 0,-17.7188" /></g></g></svg>