<?xml version="1.0" encoding="utf-8"?>
<!-- Generator: Adobe Illustrator 16.0.0, SVG Export Plug-In . SVG Version: 6.00 Build 0)  -->
<!DOCTYPE svg PUBLIC "-//W3C//DTD SVG 1.1//EN" "http://www.w3.org/Graphics/SVG/1.1/DTD/svg11.dtd">
<svg version="1.1" id="Layer_1" xmlns="http://www.w3.org/2000/svg" xmlns:xlink="http://www.w3.org/1999/xlink" x="0px" y="0px"
	 width="500px" height="75.6px" viewBox="0 0 500 75.6" enable-background="new 0 0 500 75.6" xml:space="preserve">
<g>
	<path d="M-1.7,43.1h0.3c0.3,0,0.6-0.1,0.9-0.4c0.3-0.3,0.5-0.6,0.7-0.9c0.2-0.3,0.3-0.7,0.4-1.1c0.1-0.4,0.1-0.8,0.1-1.1V4.9
		c0-0.3,0-0.6-0.1-1C0.5,3.4,0.4,3.1,0.2,2.7C0,2.4-0.2,2.1-0.5,1.8c-0.3-0.2-0.5-0.4-0.8-0.4h-0.3V0.8h9.2v0.6H7.2
		c-0.3,0-0.6,0.1-0.9,0.4C6.1,2.1,5.8,2.4,5.6,2.7C5.4,3.1,5.3,3.4,5.2,3.8C5.1,4.2,5,4.6,5,4.9v13.5l15.1-15
		c0.3-0.3,0.5-0.8,0.5-1.2c0-0.4-0.2-0.6-0.5-0.6V0.8h7v0.7c-0.9,0-1.6,0.3-2.3,0.8c-0.7,0.5-1.4,1.1-2.2,1.9L7.2,19.6
		c2.8,0.1,5.1,0.7,6.8,1.8c1.7,1.1,3.1,2.7,4.1,4.7l5.1,10.4c0.3,0.6,0.7,1.4,1.2,2.1c0.5,0.8,1.1,1.5,1.7,2.1
		c0.6,0.7,1.3,1.2,2.1,1.7s1.6,0.7,2.5,0.7v0.6h-3.2c-1.3,0-2.3-0.2-3.2-0.6c-0.9-0.4-1.7-0.9-2.4-1.5c-0.7-0.6-1.3-1.3-1.8-2.1
		c-0.5-0.8-0.9-1.6-1.3-2.3l-5.3-10.5c-0.8-1.6-2-2.8-3.4-3.7C8.7,22.2,7,21.8,5,21.7v17.8c0,0.3,0,0.7,0.1,1.1
		c0.1,0.4,0.2,0.8,0.4,1.1c0.2,0.4,0.4,0.7,0.6,0.9C6.4,42.9,6.7,43,7,43.1h0.5v0.6h-9.2V43.1z"/>
	<path d="M44.1,44.2c-2.2,0-4.1-0.4-5.8-1.1c-1.7-0.7-3.2-1.7-4.5-2.9c-1.2-1.2-2.2-2.7-2.9-4.4c-0.7-1.7-1-3.5-1-5.5
		c0-2.1,0.4-4.1,1.1-5.8c0.7-1.8,1.8-3.3,3.1-4.5c1.3-1.3,2.8-2.2,4.6-2.9c1.8-0.7,3.7-1,5.8-1c2.1,0,4,0.3,5.7,1
		c1.7,0.7,3.2,1.6,4.5,2.8c1.3,1.2,2.2,2.7,2.9,4.3c0.7,1.7,1,3.5,1,5.5c0,1.9-0.3,3.7-0.9,5.4c-0.6,1.8-1.6,3.3-2.8,4.6
		c-1.2,1.3-2.8,2.4-4.5,3.2C48.5,43.8,46.4,44.2,44.1,44.2z M43.6,18.1c-1.6,0.1-2.9,0.5-4.1,1.1c-1.2,0.7-2.2,1.5-3,2.6
		c-0.8,1.1-1.4,2.3-1.8,3.6c-0.4,1.3-0.6,2.7-0.6,4.1c0,1.6,0.2,3.2,0.7,4.6c0.5,1.5,1.2,2.8,2.1,4c0.9,1.2,2,2.1,3.3,2.8
		c1.3,0.7,2.7,1,4.3,1c1.6,0,3-0.3,4.2-1c1.2-0.7,2.3-1.6,3.1-2.7s1.4-2.3,1.8-3.7c0.4-1.4,0.6-2.8,0.6-4.2c0-1.4-0.2-2.9-0.6-4.3
		c-0.4-1.5-1.1-2.8-2-4c-0.9-1.2-2-2.2-3.4-2.9C47,18.5,45.5,18.1,43.6,18.1z"/>
	<path d="M70.8,39.5c0,0.3,0,0.7,0.1,1.1c0.1,0.4,0.2,0.8,0.4,1.1c0.2,0.3,0.4,0.6,0.6,0.9c0.2,0.3,0.5,0.4,0.8,0.4v0.6h-8.2v-0.6
		c0.3,0,0.6-0.1,0.8-0.4c0.2-0.2,0.4-0.5,0.6-0.9c0.2-0.4,0.3-0.8,0.4-1.2c0.1-0.4,0.1-0.8,0.1-1.1v-19c0-0.3,0-0.6-0.1-1
		c-0.1-0.4-0.2-0.8-0.4-1.1c-0.2-0.3-0.4-0.6-0.6-0.9c-0.2-0.2-0.5-0.4-0.8-0.4v-0.6h8.2v0.6c-0.3,0-0.6,0.1-0.9,0.4
		c-0.2,0.2-0.4,0.5-0.6,0.9c-0.2,0.3-0.3,0.7-0.4,1.1c-0.1,0.4-0.1,0.7-0.1,1v7.9h14.8v-7.9c0-0.3,0-0.6-0.1-1
		c-0.1-0.4-0.2-0.8-0.4-1.1c-0.2-0.3-0.3-0.6-0.6-0.9c-0.2-0.2-0.5-0.4-0.9-0.4v-0.6h8.2v0.6c-0.3,0-0.6,0.1-0.9,0.4
		c-0.2,0.2-0.4,0.5-0.6,0.9C90.2,18.7,90,19,90,19.4c-0.1,0.4-0.1,0.7-0.1,1v19c0,0.3,0,0.7,0.1,1.1c0.1,0.4,0.2,0.8,0.4,1.1
		c0.2,0.3,0.4,0.6,0.6,0.9c0.2,0.3,0.5,0.4,0.8,0.4v0.6h-8.2v-0.6c0.3,0,0.6-0.1,0.8-0.4c0.2-0.2,0.4-0.5,0.6-0.9
		c0.2-0.4,0.3-0.8,0.4-1.2c0.1-0.4,0.1-0.8,0.1-1.1v-9H70.8V39.5z"/>
	<path d="M120.1,23.3c0-0.5-0.1-1-0.3-1.6c-0.2-0.6-0.4-1.1-0.8-1.5c-0.3-0.5-0.8-0.8-1.3-1.1c-0.5-0.3-1.1-0.5-1.8-0.5h-5.7v20.9
		c0,0.3,0,0.7,0.1,1.1c0.1,0.4,0.2,0.8,0.4,1.1c0.2,0.4,0.4,0.7,0.6,0.9c0.2,0.3,0.5,0.4,0.9,0.4v0.6h-8.4v-0.6
		c0.3,0,0.6-0.1,0.9-0.4c0.3-0.3,0.5-0.6,0.7-0.9c0.2-0.3,0.3-0.7,0.4-1.1c0.1-0.4,0.1-0.8,0.1-1.1V18.6h-5.6
		c-0.7,0-1.3,0.2-1.8,0.5c-0.5,0.3-0.9,0.7-1.3,1.1c-0.3,0.5-0.6,1-0.7,1.5c-0.2,0.6-0.3,1.1-0.3,1.6h-0.6v-6.8h25v6.8H120.1z"/>
	<path d="M137.1,44.2c-2.2,0-4.1-0.4-5.8-1.1c-1.7-0.7-3.2-1.7-4.5-2.9c-1.2-1.2-2.2-2.7-2.9-4.4c-0.7-1.7-1-3.5-1-5.5
		c0-2.1,0.4-4.1,1.1-5.8c0.7-1.8,1.8-3.3,3.1-4.5c1.3-1.3,2.8-2.2,4.6-2.9c1.8-0.7,3.7-1,5.8-1c2.1,0,4,0.3,5.7,1
		c1.7,0.7,3.2,1.6,4.5,2.8c1.3,1.2,2.2,2.7,2.9,4.3c0.7,1.7,1,3.5,1,5.5c0,1.9-0.3,3.7-0.9,5.4c-0.6,1.8-1.6,3.3-2.8,4.6
		c-1.2,1.3-2.8,2.4-4.5,3.2C141.5,43.8,139.4,44.2,137.1,44.2z M136.6,18.1c-1.6,0.1-2.9,0.5-4.1,1.1c-1.2,0.7-2.2,1.5-3,2.6
		c-0.8,1.1-1.4,2.3-1.8,3.6c-0.4,1.3-0.6,2.7-0.6,4.1c0,1.6,0.2,3.2,0.7,4.6c0.5,1.5,1.2,2.8,2.1,4c0.9,1.2,2,2.1,3.3,2.8
		c1.3,0.7,2.7,1,4.3,1c1.6,0,3-0.3,4.2-1c1.2-0.7,2.3-1.6,3.1-2.7s1.4-2.3,1.8-3.7c0.4-1.4,0.6-2.8,0.6-4.2c0-1.4-0.2-2.9-0.6-4.3
		c-0.4-1.5-1.1-2.8-2-4c-0.9-1.2-2-2.2-3.4-2.9C140,18.5,138.4,18.1,136.6,18.1z"/>
	<path d="M167.4,16c2.3,0,4.4,0.4,6.1,1.2c1.7,0.8,3.1,1.9,4.3,3.2c1.1,1.3,2,2.8,2.6,4.5c0.6,1.7,0.8,3.4,0.8,5.2
		c0,1.7-0.3,3.4-0.8,5.1c-0.5,1.7-1.4,3.2-2.5,4.5c-1.1,1.3-2.5,2.4-4.1,3.2c-1.6,0.8-3.6,1.2-5.8,1.2c-1.3,0-2.7-0.4-4.1-1.1
		c-1.4-0.7-2.7-1.6-3.8-2.7v13.4c0,0.3,0,0.7,0.1,1.1c0.1,0.4,0.2,0.8,0.4,1.1c0.2,0.3,0.4,0.6,0.6,0.9c0.2,0.3,0.5,0.4,0.9,0.4V58
		h-8.4v-0.6c0.3,0,0.6-0.1,0.8-0.4c0.3-0.3,0.5-0.6,0.7-0.9c0.2-0.3,0.3-0.7,0.4-1.1c0.1-0.4,0.1-0.8,0.1-1.1V20.3
		c0-0.4,0-0.8,0-1.1c0-0.4-0.1-0.7-0.2-1c-0.1-0.3-0.3-0.5-0.6-0.7c-0.3-0.2-0.7-0.3-1.2-0.4v-0.6h6.4v2.9c0.9-1,1.9-1.9,3.2-2.4
		C164.4,16.3,165.8,16,167.4,16z M168,42c1.5,0,2.8-0.4,4-1c1.1-0.6,2.1-1.5,2.8-2.5c0.7-1,1.3-2.2,1.6-3.5c0.3-1.3,0.5-2.6,0.5-4
		c0-1.6-0.2-3.1-0.6-4.6c-0.4-1.5-1.1-2.9-1.9-4.1c-0.8-1.2-1.8-2.2-3-2.9c-1.2-0.8-2.5-1.1-4.1-1.1c-0.9,0-1.8,0.2-2.7,0.5
		c-0.9,0.3-1.7,0.8-2.3,1.5c-0.7,0.6-1.2,1.4-1.6,2.3c-0.4,0.9-0.6,1.9-0.6,3V34c0,1.2,0.2,2.2,0.7,3.2c0.5,1,1.1,1.8,1.9,2.5
		c0.8,0.7,1.6,1.3,2.6,1.7C166.1,41.8,167,42,168,42z"/>
	<path d="M204.2,43.7v-3.3l-0.3,0.3c-1.1,1.1-2.3,1.9-3.7,2.5c-1.4,0.6-3.1,0.9-5.1,0.9c-1.5,0-2.8-0.2-3.9-0.5
		c-1.1-0.3-2-0.8-2.7-1.5c-0.7-0.6-1.2-1.4-1.5-2.2c-0.3-0.8-0.5-1.7-0.5-2.6c0-1.5,0.4-2.8,1.2-3.9c0.8-1.1,2-2.1,3.5-3
		c1.5-0.9,3.4-1.7,5.6-2.4c2.2-0.7,4.7-1.4,7.5-2.1c-0.1-1.7-0.4-3.1-1-4.1c-0.6-1-1.3-1.9-2.1-2.4c-0.8-0.6-1.7-1-2.6-1.2
		s-1.7-0.3-2.3-0.3c-1.1,0-2.1,0.2-3,0.5c-0.9,0.3-1.6,0.8-2.3,1.3c-0.6,0.5-1.2,1.2-1.6,1.9c-0.4,0.7-0.7,1.4-0.9,2.1h-0.6v-5.1
		c0.4,0,0.8-0.1,1.4-0.4c0.5-0.3,1.1-0.6,1.9-0.9c0.7-0.3,1.6-0.7,2.6-0.9c1-0.3,2.2-0.4,3.7-0.4c2.4,0,4.3,0.3,5.8,0.9
		c1.5,0.6,2.6,1.4,3.4,2.4c0.8,1,1.3,2.1,1.6,3.4c0.3,1.3,0.4,2.6,0.4,3.9v12.9c0,0.9,0.2,1.7,0.6,2.4c0.4,0.8,1,1.1,1.8,1.1v0.6
		H204.2z M204.2,37.5v-9.3l-0.6,0.1c-1,0.3-2.3,0.6-3.8,1c-1.5,0.4-2.9,1-4.3,1.7c-1.3,0.7-2.5,1.5-3.4,2.5c-1,1-1.4,2.1-1.4,3.3
		c0,1.4,0.6,2.5,1.7,3.4c1.1,0.9,2.6,1.4,4.4,1.4c1.4,0,2.7-0.3,3.8-0.9c1.1-0.6,2.1-1.4,3-2.4L204.2,37.5z"/>
	<path d="M259.5,43.1h0.3c0.3,0,0.6-0.1,0.9-0.4c0.3-0.2,0.5-0.5,0.7-0.9c0.2-0.4,0.3-0.8,0.4-1.2c0.1-0.4,0.1-0.8,0.1-1.1V9.7
		l-21.6,29.2v0.6c0,0.3,0.1,0.7,0.2,1.1c0.1,0.4,0.2,0.8,0.4,1.1c0.2,0.3,0.4,0.6,0.6,0.9c0.3,0.3,0.6,0.4,0.9,0.4h0.3v0.6h-9.2
		v-0.6h0.3c0.3,0,0.6-0.1,0.9-0.4c0.3-0.2,0.5-0.5,0.7-0.9c0.2-0.4,0.3-0.8,0.4-1.2c0.1-0.4,0.1-0.8,0.1-1.1V4.9c0-0.3,0-0.6-0.1-1
		c-0.1-0.4-0.2-0.8-0.4-1.1c-0.2-0.3-0.4-0.6-0.7-0.9c-0.3-0.2-0.6-0.4-0.9-0.4h-0.3V0.8h9.2v0.6h-0.5c-0.3,0-0.6,0.2-0.8,0.5
		c-0.2,0.3-0.4,0.6-0.6,0.9c-0.2,0.3-0.3,0.7-0.4,1c-0.1,0.4-0.1,0.7-0.1,1v30l21.6-29.2V4.9c0-0.3,0-0.6-0.1-1
		c-0.1-0.4-0.2-0.8-0.4-1.1c-0.2-0.3-0.4-0.6-0.7-0.9c-0.3-0.2-0.6-0.4-0.9-0.4h-0.3V0.8h9.2v0.6h-0.3c-0.3,0-0.6,0.1-0.9,0.4
		c-0.3,0.2-0.5,0.5-0.6,0.9c-0.2,0.3-0.3,0.7-0.4,1.1c-0.1,0.4-0.2,0.7-0.2,1v34.6c0,0.3,0.1,0.7,0.2,1.1c0.1,0.4,0.2,0.8,0.4,1.1
		c0.2,0.4,0.4,0.7,0.6,0.9c0.3,0.3,0.6,0.4,0.9,0.4h0.3v0.6h-9.2V43.1z"/>
	<path d="M296.9,22.9c0,0.7-0.2,1.4-0.5,2.1c-0.3,0.6-0.7,1.2-1.1,1.8c-0.5,0.5-1,1-1.6,1.4c-0.6,0.4-1.2,0.7-1.8,0.9
		c0.7,0.1,1.5,0.4,2.3,0.7c0.8,0.3,1.5,0.8,2.2,1.4c0.7,0.6,1.2,1.3,1.7,2.1c0.4,0.8,0.7,1.9,0.7,3c0,0.6-0.1,1.3-0.4,2.2
		c-0.3,0.8-0.8,1.6-1.5,2.4c-0.7,0.8-1.7,1.4-2.9,1.9c-1.2,0.5-2.8,0.8-4.8,0.8h-14.3v-0.6c0.3,0,0.7-0.1,0.9-0.4
		c0.3-0.3,0.5-0.6,0.7-0.9c0.2-0.3,0.3-0.7,0.4-1.1c0.1-0.4,0.1-0.8,0.1-1.1v-19c0-0.7-0.2-1.4-0.6-2.2c-0.4-0.8-0.9-1.2-1.6-1.2
		v-0.6h13.3c1.6,0,2.9,0.2,4,0.6c1.1,0.4,2,0.9,2.7,1.6c0.7,0.6,1.2,1.3,1.6,2.1C296.7,21.4,296.9,22.2,296.9,22.9z M281.2,28.4h5
		c1.3,0,2.3-0.1,3.2-0.4c0.8-0.3,1.5-0.7,2-1.1c0.5-0.5,0.9-1,1.1-1.6c0.2-0.6,0.4-1.2,0.4-1.9c0-0.5-0.2-1.1-0.5-1.6
		c-0.3-0.6-0.7-1.1-1.3-1.5c-0.6-0.5-1.3-0.8-2.1-1.1c-0.8-0.3-1.8-0.5-2.8-0.5h-5V28.4z M287.6,41.6c0.5,0,1.2-0.1,2-0.2
		c0.8-0.1,1.6-0.3,2.3-0.7c0.8-0.4,1.4-0.9,1.9-1.6c0.5-0.7,0.8-1.7,0.8-2.8c0-1.3-0.4-2.3-1.1-3.1c-0.7-0.8-1.6-1.4-2.6-1.8
		c-1-0.4-2-0.7-3-0.8c-1-0.1-1.8-0.2-2.4-0.2h-4.4v11.2H287.6z"/>
	<path d="M321.6,43.7v-3.3l-0.3,0.3c-1.1,1.1-2.3,1.9-3.7,2.5c-1.4,0.6-3.1,0.9-5.1,0.9c-1.5,0-2.8-0.2-3.9-0.5
		c-1.1-0.3-2-0.8-2.7-1.5c-0.7-0.6-1.2-1.4-1.5-2.2c-0.3-0.8-0.5-1.7-0.5-2.6c0-1.5,0.4-2.8,1.2-3.9c0.8-1.1,2-2.1,3.5-3
		c1.5-0.9,3.4-1.7,5.6-2.4c2.2-0.7,4.7-1.4,7.5-2.1c-0.1-1.7-0.4-3.1-1-4.1c-0.6-1-1.3-1.9-2.1-2.4s-1.7-1-2.6-1.2
		c-0.9-0.2-1.7-0.3-2.3-0.3c-1.1,0-2.1,0.2-3,0.5c-0.9,0.3-1.6,0.8-2.3,1.3c-0.6,0.5-1.2,1.2-1.6,1.9c-0.4,0.7-0.7,1.4-0.9,2.1h-0.6
		v-5.1c0.4,0,0.8-0.1,1.4-0.4c0.5-0.3,1.1-0.6,1.9-0.9c0.7-0.3,1.6-0.7,2.6-0.9c1-0.3,2.2-0.4,3.7-0.4c2.4,0,4.3,0.3,5.8,0.9
		c1.5,0.6,2.6,1.4,3.4,2.4c0.8,1,1.3,2.1,1.6,3.4c0.3,1.3,0.4,2.6,0.4,3.9v12.9c0,0.9,0.2,1.7,0.7,2.4c0.4,0.8,1,1.1,1.8,1.1v0.6
		H321.6z M321.6,37.5v-9.3l-0.7,0.1c-1,0.3-2.3,0.6-3.8,1c-1.5,0.4-2.9,1-4.3,1.7c-1.3,0.7-2.5,1.5-3.4,2.5c-1,1-1.4,2.1-1.4,3.3
		c0,1.4,0.6,2.5,1.7,3.4c1.1,0.9,2.6,1.4,4.4,1.4c1.4,0,2.7-0.3,3.8-0.9c1.1-0.6,2.1-1.4,3-2.4L321.6,37.5z"/>
	<path d="M340.5,39.5c0,0.3,0,0.7,0.1,1.1c0.1,0.4,0.2,0.8,0.4,1.1c0.2,0.3,0.4,0.6,0.6,0.9c0.2,0.3,0.5,0.4,0.8,0.4v0.6h-8.2v-0.6
		c0.3,0,0.6-0.1,0.8-0.4c0.2-0.2,0.4-0.5,0.6-0.9c0.2-0.4,0.3-0.8,0.4-1.2c0.1-0.4,0.1-0.8,0.1-1.1v-19c0-0.3,0-0.6-0.1-1
		c-0.1-0.4-0.2-0.8-0.4-1.1c-0.2-0.3-0.4-0.6-0.6-0.9c-0.2-0.2-0.5-0.4-0.8-0.4v-0.6h8.2v0.6c-0.3,0-0.6,0.1-0.9,0.4
		c-0.2,0.2-0.4,0.5-0.6,0.9c-0.2,0.3-0.3,0.7-0.4,1.1c-0.1,0.4-0.1,0.7-0.1,1v7.9h14.8v-7.9c0-0.3,0-0.6-0.1-1
		c-0.1-0.4-0.2-0.8-0.4-1.1c-0.2-0.3-0.3-0.6-0.6-0.9c-0.2-0.2-0.5-0.4-0.9-0.4v-0.6h8.2v0.6c-0.3,0-0.6,0.1-0.9,0.4
		c-0.2,0.2-0.4,0.5-0.6,0.9c-0.2,0.3-0.3,0.7-0.4,1.1c-0.1,0.4-0.1,0.7-0.1,1v19c0,0.3,0,0.7,0.1,1.1c0.1,0.4,0.2,0.8,0.4,1.1
		c0.2,0.3,0.4,0.6,0.6,0.9c0.2,0.3,0.5,0.4,0.8,0.4v0.6h-8.2v-0.6c0.3,0,0.6-0.1,0.8-0.4c0.2-0.2,0.4-0.5,0.6-0.9
		c0.2-0.4,0.3-0.8,0.4-1.2c0.1-0.4,0.1-0.8,0.1-1.1v-9h-14.8V39.5z"/>
	<path d="M381.5,44.2c-2.2,0-4.1-0.4-5.8-1.1c-1.7-0.7-3.2-1.7-4.5-2.9c-1.2-1.2-2.2-2.7-2.9-4.4c-0.7-1.7-1-3.5-1-5.5
		c0-2.1,0.4-4.1,1.1-5.8c0.7-1.8,1.8-3.3,3.1-4.5c1.3-1.3,2.8-2.2,4.6-2.9c1.8-0.7,3.7-1,5.8-1s4,0.3,5.7,1c1.7,0.7,3.2,1.6,4.5,2.8
		c1.3,1.2,2.2,2.7,2.9,4.3c0.7,1.7,1,3.5,1,5.5c0,1.9-0.3,3.7-0.9,5.4s-1.6,3.3-2.8,4.6c-1.2,1.3-2.8,2.4-4.5,3.2
		S383.9,44.2,381.5,44.2z M381.1,18.1c-1.6,0.1-2.9,0.5-4.1,1.1c-1.2,0.7-2.2,1.5-3,2.6c-0.8,1.1-1.4,2.3-1.8,3.6
		c-0.4,1.3-0.6,2.7-0.6,4.1c0,1.6,0.2,3.2,0.7,4.6c0.5,1.5,1.2,2.8,2.1,4c0.9,1.2,2,2.1,3.3,2.8c1.3,0.7,2.7,1,4.3,1
		c1.6,0,3-0.3,4.2-1c1.2-0.7,2.3-1.6,3.1-2.7s1.4-2.3,1.8-3.7c0.4-1.4,0.6-2.8,0.6-4.2c0-1.4-0.2-2.9-0.6-4.3c-0.4-1.5-1.1-2.8-2-4
		c-0.9-1.2-2-2.2-3.4-2.9C384.5,18.5,382.9,18.1,381.1,18.1z"/>
	<path d="M423.9,22.9c0,0.7-0.2,1.4-0.5,2.1c-0.3,0.6-0.7,1.2-1.1,1.8c-0.5,0.5-1,1-1.6,1.4c-0.6,0.4-1.2,0.7-1.8,0.9
		c0.7,0.1,1.5,0.4,2.3,0.7c0.8,0.3,1.5,0.8,2.2,1.4c0.7,0.6,1.2,1.3,1.7,2.1c0.4,0.8,0.7,1.9,0.7,3c0,0.6-0.1,1.3-0.4,2.2
		c-0.3,0.8-0.8,1.6-1.5,2.4c-0.7,0.8-1.7,1.4-2.9,1.9c-1.2,0.5-2.8,0.8-4.8,0.8h-14.3v-0.6c0.3,0,0.7-0.1,0.9-0.4
		c0.3-0.3,0.5-0.6,0.7-0.9c0.2-0.3,0.3-0.7,0.4-1.1c0.1-0.4,0.1-0.8,0.1-1.1v-19c0-0.7-0.2-1.4-0.6-2.2c-0.4-0.8-0.9-1.2-1.6-1.2
		v-0.6h13.3c1.6,0,2.9,0.2,4,0.6c1.1,0.4,2,0.9,2.7,1.6c0.7,0.6,1.2,1.3,1.6,2.1C423.7,21.4,423.9,22.2,423.9,22.9z M408.2,28.4h5
		c1.3,0,2.3-0.1,3.2-0.4c0.8-0.3,1.5-0.7,2-1.1c0.5-0.5,0.9-1,1.1-1.6c0.2-0.6,0.4-1.2,0.4-1.9c0-0.5-0.2-1.1-0.5-1.6
		c-0.3-0.6-0.7-1.1-1.3-1.5c-0.6-0.5-1.3-0.8-2.1-1.1c-0.8-0.3-1.8-0.5-2.8-0.5h-5V28.4z M414.6,41.6c0.5,0,1.2-0.1,2-0.2
		c0.8-0.1,1.6-0.3,2.3-0.7c0.8-0.4,1.4-0.9,1.9-1.6s0.8-1.7,0.8-2.8c0-1.3-0.4-2.3-1.1-3.1c-0.7-0.8-1.6-1.4-2.6-1.8
		c-1-0.4-2-0.7-3-0.8c-1-0.1-1.8-0.2-2.4-0.2h-4.4v11.2H414.6z"/>
	<path d="M448.6,43.7v-3.3l-0.3,0.3c-1.1,1.1-2.3,1.9-3.7,2.5c-1.4,0.6-3.1,0.9-5.1,0.9c-1.5,0-2.8-0.2-3.9-0.5
		c-1.1-0.3-2-0.8-2.7-1.5c-0.7-0.6-1.2-1.4-1.5-2.2c-0.3-0.8-0.5-1.7-0.5-2.6c0-1.5,0.4-2.8,1.2-3.9c0.8-1.1,2-2.1,3.5-3
		c1.5-0.9,3.4-1.7,5.6-2.4c2.2-0.7,4.7-1.4,7.5-2.1c-0.1-1.7-0.4-3.1-1-4.1c-0.6-1-1.3-1.9-2.1-2.4s-1.7-1-2.6-1.2
		c-0.9-0.2-1.7-0.3-2.3-0.3c-1.1,0-2.1,0.2-3,0.5c-0.9,0.3-1.6,0.8-2.3,1.3c-0.6,0.5-1.2,1.2-1.6,1.9c-0.4,0.7-0.7,1.4-0.9,2.1H432
		v-5.1c0.4,0,0.8-0.1,1.4-0.4c0.5-0.3,1.1-0.6,1.9-0.9c0.7-0.3,1.6-0.7,2.6-0.9c1-0.3,2.2-0.4,3.7-0.4c2.4,0,4.3,0.3,5.8,0.9
		c1.5,0.6,2.6,1.4,3.4,2.4c0.8,1,1.3,2.1,1.6,3.4c0.3,1.3,0.4,2.6,0.4,3.9v12.9c0,0.9,0.2,1.7,0.7,2.4c0.4,0.8,1,1.1,1.8,1.1v0.6
		H448.6z M448.6,37.5v-9.3l-0.7,0.1c-1,0.3-2.3,0.6-3.8,1c-1.5,0.4-2.9,1-4.3,1.7c-1.3,0.7-2.5,1.5-3.4,2.5c-1,1-1.4,2.1-1.4,3.3
		c0,1.4,0.6,2.5,1.7,3.4c1.1,0.9,2.6,1.4,4.4,1.4c1.4,0,2.7-0.3,3.8-0.9c1.1-0.6,2.1-1.4,3-2.4L448.6,37.5z"/>
</g>
<path fill="#1C1C1B" d="M490.4,0h-6.1c0,0,0,0.2,0,0.4c1.1,0,1.5,0.7,0.7,1.8c-0.4,0.6-23.7,41.6-23.7,41.6l31.3-7.5l-21.4,37.8
	c0,0-0.5,1.2-1.7,1.1c0,0.3,0,0.4,0,0.4h6.1c0,0,0-0.2,0-0.4c-1.5,0-1.2-1-0.8-1.7c0.2-0.4,23.5-41.6,23.5-41.6l-31.1,7.6
	c0,0,21-36.9,21.6-38c0.6-1,0.9-1,1.7-1.1C490.4,0.2,490.4,0,490.4,0z"/>
</svg>
