<?xml version="1.0" encoding="UTF-8" standalone="no"?>
<!-- Created with Inkscape (http://www.inkscape.org/) -->

<svg
   xmlns:dc="http://purl.org/dc/elements/1.1/"
   xmlns:cc="http://creativecommons.org/ns#"
   xmlns:rdf="http://www.w3.org/1999/02/22-rdf-syntax-ns#"
   xmlns:svg="http://www.w3.org/2000/svg"
   xmlns="http://www.w3.org/2000/svg"
   version="1.1"
   width="488.0625"
   height="152.4875"
   id="svg3004"
   xml:space="preserve"><metadata
     id="metadata3010"><rdf:RDF><cc:Work
         rdf:about=""><dc:format>image/svg+xml</dc:format><dc:type
           rdf:resource="http://purl.org/dc/dcmitype/StillImage" /><dc:title></dc:title></cc:Work></rdf:RDF></metadata><defs
     id="defs3008"><clipPath
       id="clipPath3020"><path
         d="m 0,0 3904,0 0,1219.86 -3904,0 L 0,0 z"
         id="path3022" /></clipPath><linearGradient
       x1="0"
       y1="0"
       x2="1"
       y2="0"
       id="linearGradient3026"
       gradientUnits="userSpaceOnUse"
       gradientTransform="matrix(51.3433,-102.686,-102.686,-51.3433,18.4541,105.224)"
       spreadMethod="pad"><stop
         id="stop3028"
         style="stop-color:#5ac9da;stop-opacity:1"
         offset="0" /><stop
         id="stop3030"
         style="stop-color:#48bbcc;stop-opacity:1"
         offset="0.50800002" /><stop
         id="stop3032"
         style="stop-color:#48bbcc;stop-opacity:1"
         offset="0.50800002" /><stop
         id="stop3034"
         style="stop-color:#3d9db7;stop-opacity:1"
         offset="0.57499999" /><stop
         id="stop3036"
         style="stop-color:#3588a2;stop-opacity:1"
         offset="1" /></linearGradient><linearGradient
       x1="0"
       y1="0"
       x2="1"
       y2="0"
       id="linearGradient3040"
       gradientUnits="userSpaceOnUse"
       gradientTransform="matrix(35.2635,-70.5269,-70.5269,-35.2635,80.6689,114.394)"
       spreadMethod="pad"><stop
         id="stop3042"
         style="stop-color:#55c7d6;stop-opacity:1"
         offset="0" /><stop
         id="stop3044"
         style="stop-color:#45b5c7;stop-opacity:1"
         offset="0.63440901" /><stop
         id="stop3046"
         style="stop-color:#45b5c7;stop-opacity:1"
         offset="0.63440901" /><stop
         id="stop3048"
         style="stop-color:#45b5c7;stop-opacity:1"
         offset="1" /></linearGradient></defs><g
     transform="matrix(1.25,0,0,-1.25,0,152.4875)"
     id="g3012"><g
       transform="scale(0.1,0.1)"
       id="g3014"><g
         id="g3016"><g
           clip-path="url(#clipPath3020)"
           id="g3018"><path
             d="m 3904.49,307.984 -60.15,0 -127.91,192.852 -3.32,0 -127.93,-192.852 -59.28,0 143.16,213.243 -133.01,197.929 59.3,0 116.06,-175 6.7,0 116.07,175 59.3,0 -133.03,-197.929 144.04,-213.243 0,0 z m -560.29,-0.703 c -68.91,0 -117.62,16.25 -146.11,48.848 -28.56,32.559 -42.8,88.183 -42.8,166.914 0,79.277 14.24,135.215 42.8,167.793 28.49,32.559 77.2,48.848 146.11,48.848 68.89,0 117.44,-16.289 145.7,-48.848 28.23,-32.578 42.35,-88.516 42.35,-167.793 0,-79.297 -14.12,-135.059 -42.35,-167.344 -28.26,-32.304 -76.81,-48.418 -145.7,-48.418 l 0,0 z m 103.36,349.16 c -19.22,24.317 -53.67,36.524 -103.36,36.524 -49.71,0 -84.16,-12.207 -103.32,-36.524 -19.24,-24.375 -28.83,-68.828 -28.83,-133.398 0,-64.57 9.59,-109.023 28.83,-133.359 19.16,-24.395 53.61,-36.563 103.32,-36.563 49.69,0 84.14,12.168 103.36,36.563 19.18,24.336 28.79,68.789 28.79,133.359 0,64.57 -9.61,109.023 -28.79,133.398 l 0,0 z m -354.98,-81.152 c 17.75,-25.762 26.68,-63.008 26.68,-111.699 0,-58.926 -13.71,-99.121 -41.12,-120.625 -27.38,-21.563 -75.25,-32.285 -143.57,-32.285 -88.65,0 -157.27,2.246 -205.86,6.777 l 0,586.191 c 42.36,4.532 102.5,6.797 180.45,6.797 72.27,0 122.4,-10.625 150.33,-31.855 27.99,-21.25 41.96,-61.59 41.96,-121.074 0,-42.461 -7.93,-74.629 -23.72,-96.407 -15.8,-21.797 -40.93,-34.414 -75.39,-37.793 l 0,-3.418 c 42.35,-3.964 72.43,-18.847 90.24,-44.609 l 0,0 z m -72.44,90.488 c 18.04,14.727 27.09,43.321 27.09,85.801 0,44.18 -10.04,73.77 -30.06,88.781 -20.08,14.989 -56.64,22.508 -109.71,22.508 -62.13,0 -103.63,-0.293 -124.53,-0.84 l 0,-219.199 138.11,0 c 47.96,0.567 81.01,8.203 99.1,22.949 l 0,0 z m -99.1,-66.289 -138.11,0 0,-239.531 c 47.44,-1.152 95.72,-1.719 144.84,-1.719 51.41,0 86.72,7.657 105.9,22.93 19.2,15.293 28.81,45.312 28.81,90.059 0,49.257 -10.16,82.675 -30.51,100.234 -20.31,17.559 -57.3,26.914 -110.93,28.027 l 0,0 z m -366.55,-102.773 -205,0 c 3.4,-54.375 15.82,-91.738 37.31,-112.129 21.44,-20.391 56.44,-30.586 105.02,-30.586 42.36,0 89.49,3.379 141.46,10.195 l 5.92,-36.543 c -35.02,-13.593 -86.68,-20.371 -154.98,-20.371 -68.93,0 -117.91,16.563 -147.01,49.668 -29.08,33.164 -43.64,89.082 -43.64,167.793 0,79.297 14.14,134.942 42.41,166.934 28.2,31.992 75.35,48.008 141.44,48.008 58.15,0 101.08,-10.625 128.73,-31.836 27.68,-21.27 41.8,-53.418 42.37,-96.446 1.13,-76.445 -30.2,-114.687 -94.03,-114.687 l 0,0 z m 11.86,176.699 c -18.05,13.027 -46.86,19.551 -86.39,19.551 -48.03,0 -81.62,-11.211 -100.8,-33.555 -19.2,-22.383 -29.1,-62.441 -29.67,-120.234 l 192.33,0 c 36.11,0 53.61,23.828 52.52,71.386 -0.59,28.868 -9.91,49.825 -27.99,62.852 l 0,0 z M 2130.12,419.41 c 0,-39.629 20.04,-59.453 60.13,-59.453 l 66.94,0 6.76,-40.82 c -28.25,-5.645 -56.76,-8.457 -85.55,-8.457 -67.76,0 -101.66,34.238 -101.66,102.773 l 0,272.695 -74.53,0 0,38.243 74.53,4.25 0,124.89 53.38,0 0,-124.89 138.92,0 0,-42.493 -138.92,0 0,-266.738 z m -190.49,359.668 -24.55,0 c -11.89,0 -17.77,5.949 -17.77,17.852 l 0,49.258 c 0,11.894 5.88,17.851 17.77,17.851 l 24.55,0 c 11.88,0 17.82,-5.957 17.82,-17.851 l 0,-49.258 c 0,-11.903 -5.94,-17.852 -17.82,-17.852 l 0,0 z M 1531.75,335.172 c -18.07,18.691 -27.09,43.32 -27.09,73.887 l 0,485.117 55.91,0 0,-477.461 c 0,-41.328 20.35,-62.012 60.99,-62.012 l 217.7,0 1.68,-42.461 c -59.84,-3.398 -136.08,-5.117 -228.68,-5.117 -35.59,0 -62.42,9.375 -80.51,28.047 l 0,0 z m 422.28,-27.188 -53.34,0 0,420.657 53.34,0 0,-420.657"
             id="path3024"
             style="fill:#46bac6;fill-opacity:1;fill-rule:evenodd;stroke:none" /><path
             d="m 587.113,1219.86 -0.355,0 c -4.137,-1 -8.09,-2.18 -11.582,-3.75 L 35.4453,985.738 C 15.8633,977.047 0,952.555 0,931.09 L 0,292.438 C 0,270.934 15.8633,246.383 35.4453,237.633 L 575.176,6.55859 C 584.965,2.16016 597.797,0 610.637,0 c 12.82,0 25.652,2.16016 35.441,6.55859 L 1138.89,237.633 c 6.26,2.793 12.15,7.226 17.27,12.648 l -430.531,214.051 -85.793,42.52 c -1.199,0.586 -2.371,1.23 -3.566,1.914 l -2.653,1.328 0.071,0.215 c -26.208,16.621 -46.575,53.183 -46.575,85.351 l 0,624.2"
             id="path3038"
             style="fill:url(#linearGradient3026);fill-opacity:1;fill-rule:evenodd;stroke:none" /><path
             d="m 797.965,626.578 0,518.552 340.925,-159.392 c 19.6,-8.691 35.47,-33.183 35.47,-54.648 l 0,-490.567 -376.395,186.055 0,0"
             id="path3050"
             style="fill:url(#linearGradient3040);fill-opacity:1;fill-rule:evenodd;stroke:none" /></g></g></g></g></svg>