<?xml version="1.0" encoding="UTF-8" standalone="no"?>
<!-- Created with Inkscape (http://www.inkscape.org/) -->

<svg
   xmlns:dc="http://purl.org/dc/elements/1.1/"
   xmlns:cc="http://creativecommons.org/ns#"
   xmlns:rdf="http://www.w3.org/1999/02/22-rdf-syntax-ns#"
   xmlns:svg="http://www.w3.org/2000/svg"
   xmlns="http://www.w3.org/2000/svg"
   version="1.1"
   width="288"
   height="87"
   id="svg3004"
   xml:space="preserve"><metadata
     id="metadata3010"><rdf:RDF><cc:Work
         rdf:about=""><dc:format>image/svg+xml</dc:format><dc:type
           rdf:resource="http://purl.org/dc/dcmitype/StillImage" /><dc:title></dc:title></cc:Work></rdf:RDF></metadata><defs
     id="defs3008"><clipPath
       id="clipPath3020"><path
         d="m 0,0 5855.78,0 0,2735 L 0,2735 0,0 z"
         id="path3022" /></clipPath></defs><g
     transform="matrix(1.25,0,0,-1.25,0,86.999152)"
     id="g3012"><g
       transform="scale(0.1,0.1)"
       id="g3014"><g
         id="g3016"><g
           clip-path="url(#clipPath3020)"
           id="g3018"><path
             d="m 565.01266,478.46816 -536.972801,0 c -15.625,0 -28.2812,12.67 -28.2812,28.3 0,15.59 12.6562,28.25 28.2812,28.25 l 536.972801,0 c 15.598,0 28.242,-12.66 28.242,-28.25 0,-15.63 -12.644,-28.3 -28.242,-28.3"
             id="path3080"
             style="fill:#6ed0e5;fill-opacity:1;fill-rule:nonzero;stroke:none" /><path
             d="m 502.21966,573.47816 -474.179801,0 c -15.625,0 -28.2812,12.66 -28.2812,28.23 0,15.62 12.6562,28.29 28.2812,28.29 l 474.179801,0 c 15.605,0 28.254,-12.67 28.254,-28.29 0,-15.57 -12.649,-28.23 -28.254,-28.23"
             id="path3082"
             style="fill:#6ed0e5;fill-opacity:1;fill-rule:nonzero;stroke:none" /><path
             d="m 572.88366,383.49816 -544.843801,0 c -15.625,0 -28.2812,12.64 -28.2812,28.23 0,15.63 12.6562,28.3 28.2812,28.3 l 544.843801,0 c 15.605,0 28.254,-12.67 28.254,-28.3 0,-15.59 -12.649,-28.23 -28.254,-28.23"
             id="path3084"
             style="fill:#6ed0e5;fill-opacity:1;fill-rule:nonzero;stroke:none" /><path
             d="m 572.88366,288.49816 -544.843801,0 c -15.625,0 -28.2812,12.64 -28.2812,28.26 0,15.61 12.6562,28.26 28.2812,28.26 l 544.843801,0 c 15.605,0 28.254,-12.65 28.254,-28.26 0,-15.62 -12.649,-28.26 -28.254,-28.26"
             id="path3086"
             style="fill:#6ed0e5;fill-opacity:1;fill-rule:nonzero;stroke:none" /><path
             d="m 488.07066,193.48816 -460.030801,0 c -15.625,0 -28.2812,12.66 -28.2812,28.28 0,15.6 12.6562,28.26 28.2812,28.26 l 460.030801,0 c 15.606,0 28.258,-12.66 28.258,-28.26 0,-15.62 -12.652,-28.28 -28.258,-28.28"
             id="path3088"
             style="fill:#6ed0e5;fill-opacity:1;fill-rule:nonzero;stroke:none" /><path
             d="m 315.36366,98.51816 -287.323801,0 c -15.625,0 -28.2812,12.65 -28.2812,28.23 0,15.62 12.6562,28.28 28.2812,28.28 l 287.323801,0 c 15.586,0 28.282,-12.66 28.282,-28.28 0,-15.58 -12.696,-28.23 -28.282,-28.23"
             id="path3090"
             style="fill:#6ed0e5;fill-opacity:1;fill-rule:nonzero;stroke:none" /><path
             d="m 315.36366,3.508157 -287.323801,0 c -15.625,0 -28.2812,12.65 -28.2812,28.26 0,15.62 12.6562,28.270003 28.2812,28.270003 l 287.323801,0 c 15.586,0 28.282,-12.650003 28.282,-28.270003 0,-15.61 -12.696,-28.26 -28.282,-28.26"
             id="path3092"
             style="fill:#6ed0e5;fill-opacity:1;fill-rule:nonzero;stroke:none" /><path
             d="m 386.02066,478.46816 -357.980801,0 c -15.625,0 -28.2812,12.67 -28.2812,28.3 0,15.59 12.6562,28.25 28.2812,28.25 l 357.980801,0 c 15.593,0 28.269,-12.66 28.269,-28.25 0,-15.63 -12.676,-28.3 -28.269,-28.3"
             id="path3094"
             style="fill:#f46d16;fill-opacity:1;fill-rule:nonzero;stroke:none" /><path
             d="m 258.84066,573.47816 -230.800801,0 c -15.625,0 -28.2812,12.66 -28.2812,28.23 0,15.62 12.6562,28.29 28.2812,28.29 l 230.800801,0 c 15.598,0 28.254,-12.67 28.254,-28.29 0,-15.57 -12.656,-28.23 -28.254,-28.23"
             id="path3096"
             style="fill:#f46d16;fill-opacity:1;fill-rule:nonzero;stroke:none" /><path
             d="m 459.81766,383.49816 -431.777801,0 c -15.6054,0 -28.2812,12.64 -28.2812,28.23 0,15.63 12.6758,28.3 28.2812,28.3 l 431.777801,0 c 15.617,0 28.253,-12.67 28.253,-28.3 0,-15.59 -12.636,-28.23 -28.253,-28.23"
             id="path3098"
             style="fill:#f46d16;fill-opacity:1;fill-rule:nonzero;stroke:none" /><path
             d="m 448.02866,288.49816 -419.988801,0 c -15.6054,0 -28.2812,12.64 -28.2812,28.26 0,15.61 12.6758,28.26 28.2812,28.26 l 419.988801,0 c 15.625,0 28.285,-12.65 28.285,-28.26 0,-15.62 -12.66,-28.26 -28.285,-28.26"
             id="path3100"
             style="fill:#f46d16;fill-opacity:1;fill-rule:nonzero;stroke:none" /><path
             d="m 334.98566,193.48816 -306.945801,0 c -15.625,0 -28.2812,12.66 -28.2812,28.28 0,15.6 12.6562,28.26 28.2812,28.26 l 306.945801,0 c 15.593,0 28.281,-12.66 28.281,-28.26 0,-15.62 -12.688,-28.28 -28.281,-28.28"
             id="path3102"
             style="fill:#f46d16;fill-opacity:1;fill-rule:nonzero;stroke:none" /><path
             d="m 203.89166,98.51816 -175.851801,0 c -15.625,0 -28.2812,12.65 -28.2812,28.23 0,15.62 12.6562,28.28 28.2812,28.28 l 175.851801,0 c 15.613,0 28.262,-12.66 28.262,-28.28 0,-15.58 -12.649,-28.23 -28.262,-28.23"
             id="path3104"
             style="fill:#f46d16;fill-opacity:1;fill-rule:nonzero;stroke:none" /><path
             d="m 263.53566,3.508157 -235.495801,0 c -15.625,0 -28.2812,12.65 -28.2812,28.26 0,15.62 12.6562,28.270003 28.2812,28.270003 l 235.495801,0 c 15.618,0 28.262,-12.650003 28.262,-28.270003 0,-15.61 -12.644,-28.26 -28.262,-28.26"
             id="path3106"
             style="fill:#f46d16;fill-opacity:1;fill-rule:nonzero;stroke:none" /><path
             d="m 238.41866,478.46816 -210.378801,0 c -15.625,0 -28.2812,12.67 -28.2812,28.3 0,15.59 12.6562,28.25 28.2812,28.25 l 210.378801,0 c 15.617,0 28.266,-12.66 28.266,-28.25 0,-15.63 -12.649,-28.3 -28.266,-28.3"
             id="path3108"
             style="fill:#402a80;fill-opacity:1;fill-rule:nonzero;stroke:none" /><path
             d="m 125.36366,573.47816 -97.323801,0 c -15.625,0 -28.2812,12.66 -28.2812,28.23 0,15.62 12.6562,28.29 28.2812,28.29 l 97.323801,0 c 15.625,0 28.282,-12.67 28.282,-28.29 0,-15.57 -12.657,-28.23 -28.282,-28.23"
             id="path3110"
             style="fill:#402a80;fill-opacity:1;fill-rule:nonzero;stroke:none" /><path
             d="m 324.78566,383.49816 -296.745801,0 c -15.6054,0 -28.2812,12.64 -28.2812,28.23 0,15.63 12.6758,28.3 28.2812,28.3 l 296.745801,0 c 15.61,0 28.274,-12.67 28.274,-28.3 0,-15.59 -12.664,-28.23 -28.274,-28.23"
             id="path3112"
             style="fill:#402a80;fill-opacity:1;fill-rule:nonzero;stroke:none" /><path
             d="m 273.35266,288.49816 -245.312801,0 c -15.6054,0 -28.2812,12.64 -28.2812,28.26 0,15.61 12.6758,28.26 28.2812,28.26 l 245.312801,0 c 15.617,0 28.269,-12.65 28.269,-28.26 0,-15.62 -12.652,-28.26 -28.269,-28.26"
             id="path3114"
             style="fill:#402a80;fill-opacity:1;fill-rule:nonzero;stroke:none" /><path
             d="m 170.12966,193.48816 -142.089801,0 c -15.6054,0 -28.2812,12.66 -28.2812,28.28 0,15.6 12.6758,28.26 28.2812,28.26 l 142.089801,0 c 15.598,0 28.25,-12.66 28.25,-28.26 0,-15.62 -12.652,-28.28 -28.25,-28.28"
             id="path3116"
             style="fill:#402a80;fill-opacity:1;fill-rule:nonzero;stroke:none" /><path
             d="m 116.75066,98.51816 -88.710801,0 c -15.625,0 -28.2812,12.65 -28.2812,28.23 0,15.62 12.6562,28.28 28.2812,28.28 l 88.710801,0 c 15.598,0 28.25,-12.66 28.25,-28.28 0,-15.58 -12.652,-28.23 -28.25,-28.23"
             id="path3118"
             style="fill:#402a80;fill-opacity:1;fill-rule:nonzero;stroke:none" /><path
             d="m 183.46966,3.508157 -155.429801,0 c -15.625,0 -28.2812,12.65 -28.2812,28.26 0,15.62 12.6562,28.270003 28.2812,28.270003 l 155.429801,0 c 15.625,0 28.262,-12.650003 28.262,-28.270003 0,-15.61 -12.637,-28.26 -28.262,-28.26"
             id="path3120"
             style="fill:#402a80;fill-opacity:1;fill-rule:nonzero;stroke:none" /><path
             d="m 1995.8987,440.24816 0,17.94 c 0,0 -1.8,13.53 -14.66,13.53 -11.79,0 -15.63,-6.47 -15.63,-6.47 l -103.34,-161.19 -0.02,152.21 c 0,8.4 -6.81,15.24 -15.21,15.24 -8.44,0 -15.05,-6.84 -15.05,-15.24 l 0,-186.94 c 0,0 0.8,-18.07 15.55,-18.07 9.13,0 13.31,2.13 16.13,5.92 l 101.91,156.19 0,-146.68 c 0,-8.43 6.84,-15.24 15.24,-15.24 8.41,0 15.24,6.81 15.24,15.24 l 0,171.35 c 0,0.74 -0.06,1.48 -0.16,2.21"
             id="path3122"
             style="fill:#231f20;fill-opacity:1;fill-rule:nonzero;stroke:none" /><path
             d="m 1530.1187,465.33816 -123.66,0 c -7.65,0 -13.84,-6.22 -13.84,-13.87 0,-7.66 6.19,-13.88 13.84,-13.88 l 47.03,0 0,-170.14 c 0,-8.92 7.23,-16.17 16.15,-16.17 8.94,0 16.17,7.25 16.17,16.17 l 0,170.14 44.31,0 c 7.65,0 13.84,6.22 13.84,13.88 0,7.65 -6.19,13.87 -13.84,13.87"
             id="path3124"
             style="fill:#231f20;fill-opacity:1;fill-rule:nonzero;stroke:none" /><path
             d="m 895.93066,331.63816 c -2.949,-10.09 -7.481,-19.15 -13.613,-27.21 -6.133,-8.03 -13.899,-14.54 -23.274,-19.51 -9.324,-5 -20.183,-7.16 -32.461,-6.59 -7.293,0 -13.816,0.96 -19.5,2.87 -5.508,1.8 -9.824,3.85 -13.015,6.09 l 0,132.48 c 6.636,6.57 14.031,11.87 22.214,15.9 8.34,4.09 17.032,6.14 26.133,6.14 7.879,0.57 16.348,-0.11 25.41,-5.08 9.082,-4.97 16.668,-14.33 22.852,-28.08 6.394,-13.48 9.504,-29.12 9.199,-46.95 0.305,-9.94 -1.035,-19.97 -3.945,-30.06 z m 30.266,77.01 c -2.043,8.17 -5.2,16.07 -9.446,23.68 -4.25,7.59 -9.519,14.18 -15.793,19.75 -6.289,5.55 -13.594,10.02 -21.929,13.39 -8.332,3.34 -17.778,5.03 -28.293,5.03 -10.84,0 -21.016,-1.6 -30.497,-4.82 -9.21,-3.11 -18.925,-8.41 -27.187,-15.37 l 0,0.59 c 0,8.94 -6.231,16.44 -15.156,16.44 -8.664,0 -15.703,-6.8 -16.164,-15.34 l -0.071,-0.02 0,-259.45 0.11,0 c 0.633,-8.36 7.605,-14.94 16.125,-14.94 8.925,0 16.172,7.25 16.172,16.17 l 0,64.2 c 9.324,-4.55 22.214,-6.82 38.679,-6.82 14.602,0.88 29.407,4.22 44.317,10.06 15.215,6.47 28.066,18.72 38.593,36.9 10.821,17.81 16.231,39.46 16.231,64.92 0,15.48 -1.902,30.71 -5.691,45.63"
             id="path3126"
             style="fill:#231f20;fill-opacity:1;fill-rule:nonzero;stroke:none" /><path
             d="m 2262.8687,454.65816 c -0.96,8.85 -7.73,16.08 -18.01,16.08 -10.3,0 -14,-5.79 -16.41,-11.74 l -54.95,-154.74 0,0.04 0,-0.01 -0.02,0.01 0,-0.02 -0.02,-0.02 -54.95,154.74 c -2.4,5.95 -6.11,11.74 -16.4,11.74 -10.28,0 -17.03,-7.23 -18,-16.08 l -12.66,-188.68 0.04,0 c -0.16,-8.21 6.57,-13.92 14.55,-14.29 8.39,-0.33 14.25,5.13 14.72,13.69 l 8.82,140.35 53.98,-150.11 c 0.81,-1.82 2.72,-4.32 8.68,-4.32 0.44,0 2.07,0 2.51,0 5.94,0 7.91,2.39 8.67,4.32 l 53.98,150.11 8.83,-140.35 c 0.48,-8.56 6.31,-14.02 14.72,-13.69 7.97,0.37 14.71,6.08 14.55,14.29 l 0.04,0 -12.67,188.68"
             id="path3128"
             style="fill:#231f20;fill-opacity:1;fill-rule:nonzero;stroke:none" /><path
             d="m 1362.7387,295.92816 c -5.27,5.41 -12.41,5.51 -18.02,1.79 -0.1,-0.08 -0.3,-0.24 -0.3,-0.24 -6.14,-5.07 -12.76,-9.62 -20.13,-13 -8.91,-4.09 -20.12,-6.15 -33.57,-6.15 -8.48,0 -16.53,1.84 -24.13,5.47 -7.61,3.67 -14.22,9 -19.96,16.03 -5.68,7.02 -10.25,15.64 -13.6,25.87 -3.38,10.25 -5.04,21.96 -5.04,35.13 -0.59,9.63 0.57,20.63 3.5,32.9 2.92,12.27 9.36,23.69 19.31,34.22 10.23,10.82 22.38,15.94 36.39,15.36 7.96,0 14.87,-1.16 20.76,-3.45 l -0.03,-0.15 -0.19,0.05 c 0.54,-0.16 12.87,-5.1 26.27,-21.62 4.93,-6.08 13.85,-6.99 19.92,-2.08 6.06,4.92 7,13.83 2.07,19.91 -1.91,2.37 -3.85,4.54 -5.74,6.56 -2.45,2.7 -5.39,5.51 -8.83,8.46 -1.89,1.57 -3.97,3.17 -6.32,4.74 -6.43,4.56 -12,7.25 -15.71,8.75 -9.49,4.01 -20.36,6.02 -32.61,6.02 -11.7,0 -24.31,-2.62 -37.74,-7.89 -13.44,-5.26 -25.58,-16.84 -36.43,-34.66 -10.82,-16.97 -16.23,-39.64 -16.23,-68 0,-18.44 2.65,-34.44 7.91,-48.03 5.25,-13.61 12.15,-24.98 20.62,-34.04 8.48,-9.06 18.27,-15.78 29.4,-20.18 11.13,-4.38 22.64,-6.56 34.67,-6.56 14.04,0 27.05,1.97 39.04,5.92 6.48,2.13 13.13,5.37 19.04,8.99 6.4,3.88 13.61,9.96 13.91,10.27 5.87,5.57 7.6,13.6 1.77,19.61"
             id="path3130"
             style="fill:#231f20;fill-opacity:1;fill-rule:nonzero;stroke:none" /><path
             d="m 1035.6287,431.23816 c 9.66,8.34 21.07,12.49 34.23,12.49 4.37,0.3 10.53,-1.02 18.43,-3.92 7.9,-2.95 15.35,-9.09 22.39,-18.45 7.01,-9.35 10.51,-20.03 10.51,-32.02 l -105.29,0 c 3.51,19.59 10.09,33.58 19.73,41.9 z m 100.38,-132.74 c -0.12,-0.07 -0.33,-0.23 -0.33,-0.23 -6.12,-5.08 -12.78,-9.58 -20.14,-13.02 -3.48,-1.62 -19.11,-6.92 -36.03,-6.92 -21.94,0 -38.52,7.38 -49.77,22.17 -11.28,14.75 -16.9,35.45 -16.9,62.08 l 144.77,0 c 0,15.78 -2.64,32.31 -7.88,49.58 -4.99,16.96 -14.34,30.99 -28.1,42.12 -13.46,10.82 -30.7,16.22 -51.77,16.22 -14.04,0 -27.86,-3.38 -41.47,-10.08 -13.6,-6.73 -24.94,-18.87 -33.982,-36.42 -8.789,-17.57 -13.183,-38.33 -13.183,-62.3 0,-36 8.769,-63.39 26.345,-82.27 17.53,-18.87 41.23,-28.29 71.08,-28.29 7,0 14.53,0.72 22.57,2.18 2.76,0.5 5.61,1.13 8.52,1.89 l 0,-0.04 c 3.25,0.75 6.43,1.65 9.53,2.67 6.52,2.13 13.14,5.38 19.06,8.98 6.41,3.87 13.62,9.98 13.93,10.28 5.85,5.57 7.57,13.59 1.76,19.61 -5.29,5.42 -12.41,5.52 -18.01,1.79"
             id="path3132"
             style="fill:#231f20;fill-opacity:1;fill-rule:nonzero;stroke:none" /><path
             d="m 1731.6387,331.63816 c -2.95,-10.09 -7.49,-19.15 -13.63,-27.21 -6.12,-8.03 -13.89,-14.54 -23.24,-19.51 -9.37,-5 -20.21,-7.16 -32.48,-6.59 -7.32,0 -13.82,0.96 -19.52,2.87 -5.51,1.8 -9.83,3.85 -13,6.09 l 0,132.48 c 6.61,6.57 14.03,11.87 22.21,15.9 8.34,4.09 17.04,6.14 26.12,6.14 7.87,0.57 16.37,-0.11 25.43,-5.08 9.06,-4.97 16.67,-14.33 22.82,-28.08 6.44,-13.48 9.52,-29.12 9.22,-46.95 0.3,-9.94 -1.03,-19.97 -3.93,-30.06 z m 30.24,77.01 c -2.03,8.17 -5.19,16.07 -9.44,23.68 -4.23,7.59 -9.51,14.18 -15.79,19.75 -6.27,5.55 -13.58,10.02 -21.92,13.39 -8.33,3.34 -17.78,5.03 -28.3,5.03 -10.84,0 -20.99,-1.6 -30.52,-4.82 -9.17,-3.11 -18.91,-8.41 -27.16,-15.37 l 0,0.59 c 0,8.94 -6.24,16.44 -15.16,16.44 -8.63,0 -15.71,-6.8 -16.15,-15.34 l -0.08,-0.02 0,-259.45 0.11,0 c 0.64,-8.36 7.59,-14.94 16.12,-14.94 8.92,0 16.18,7.25 16.18,16.17 l 0,64.2 c 9.33,-4.55 22.21,-6.82 38.67,-6.82 14.63,0.88 29.4,4.22 44.31,10.06 15.21,6.47 28.07,18.72 38.61,36.9 10.82,17.81 16.23,39.46 16.23,64.92 0,15.48 -1.9,30.71 -5.71,45.63"
             id="path3134"
             style="fill:#231f20;fill-opacity:1;fill-rule:nonzero;stroke:none" /></g></g></g></g></svg>