<?xml version="1.0" encoding="UTF-8" standalone="no"?>
<!-- Created with Inkscape (http://www.inkscape.org/) -->

<svg
   xmlns:dc="http://purl.org/dc/elements/1.1/"
   xmlns:cc="http://creativecommons.org/ns#"
   xmlns:rdf="http://www.w3.org/1999/02/22-rdf-syntax-ns#"
   xmlns:svg="http://www.w3.org/2000/svg"
   xmlns="http://www.w3.org/2000/svg"
   version="1.1"
   width="360.33749"
   height="215.72501"
   id="svg3004"
   xml:space="preserve"><metadata
     id="metadata3010"><rdf:RDF><cc:Work
         rdf:about=""><dc:format>image/svg+xml</dc:format><dc:type
           rdf:resource="http://purl.org/dc/dcmitype/StillImage" /><dc:title></dc:title></cc:Work></rdf:RDF></metadata><defs
     id="defs3008" /><g
     transform="matrix(1.25,0,0,-1.25,0,215.725)"
     id="g3012"><g
       transform="scale(0.1,0.1)"
       id="g3014"><path
         d="m 1699.33,317.352 c 9.92,26.339 17.42,47.918 22.49,64.75 l 2.73,8.507 8.22,-25.23 c 5.66,-17.629 11.34,-33.438 17.02,-47.418 l 50.7,-130.27 -151.57,0 50.41,129.661 z m 58.96,117.027 -65.95,0 -174.79,-428.30869 60.19,0 49.23,125.24969 5.08,13.039 185.09,0 4.99,-13.039 48.95,-125.24969 59.27,0 -172.06,428.30869"
         id="path3016"
         style="fill:#231f20;fill-opacity:1;fill-rule:nonzero;stroke:none" /><path
         d="M 2805.47,133.309 C 2792.7,107.512 2774.41,87.7617 2750.6,74.0508 2726.78,60.3398 2699.17,53.5 2667.77,53.5 l -95.45,0 0,333.461 82.37,0 c 55.13,0 97.23,-13.852 126.31,-41.57 29.07,-27.711 43.62,-67.969 43.62,-120.782 0,-35.07 -6.39,-65.5 -19.15,-91.3 z m 18.13,246.492 c -39.38,36.39 -95.32,54.578 -167.81,54.578 l -141.54,0 0,-428.30869 160.07,0 c 41.3,0 77.75,8.80859 109.34,26.44919 31.59,17.6289 55.98,43.0118 73.2,76.1405 17.21,33.129 25.82,71.781 25.82,115.949 0,67.09 -19.7,118.821 -59.08,155.192"
         id="path3018"
         style="fill:#231f20;fill-opacity:1;fill-rule:nonzero;stroke:none" /><path
         d="m 1496.29,434.379 c -7.42,0 -14.6,0.223 -21.41,0 l -0.41,0 0,-0.008 c -20.03,-0.68 -36.81,-5.191 -46.56,-30.031 -3.02,-7.68 -73.03,-266.891 -75.84,-279.102 -3.38,-14.668 -7.75,-33.6364 -13.11,-56.906 l -2.68,-10.6211 c -6.5,30.1797 -15.43,67.0701 -26.8,110.6291 l -75.04,266.039 -56.05,0 c -50.24,-176.508 -78.57,-277.93 -85,-304.277 -6.44,-26.352 -12.1,-50.6723 -17.01,-72.9536 -7.75,36.0625 -16.23,71.1216 -25.42,105.1716 l -76.901,272.059 -60.496,0 126.137,-428.30869 69.34,0 c 51.69,187.26169 79.37,288.78169 83.02,304.58969 3.64,15.809 8.1,35.461 13.38,58.981 9.32,-43.981 16.41,-74.469 21.29,-91.493 l 74.11,-272.07769 69.3,0 126.15,428.30869"
         id="path3020"
         style="fill:#231f20;fill-opacity:1;fill-rule:nonzero;stroke:none" /><path
         d="m 819.242,434.379 c -20.39,0 -58.058,-3.949 -58.058,-41.91 0,-8.289 0,-221.731 0,-221.731 0,-40.297 -10.692,-70.9294 -32.071,-91.8786 -21.375,-20.961 -51.316,-31.4375 -89.824,-31.4375 -37.488,0 -66.172,10.1172 -86.023,30.3672 -19.864,20.25 -29.797,49.9219 -29.797,88.9999 l 0,267.59 -58.059,0 0,-272.66 c 0,-33.641 7.192,-62.6292 21.582,-86.9377 14.387,-24.3204 34.66,-42.8711 60.805,-55.6329 C 573.938,6.37891 604.535,0 639.594,0 c 36.543,0 68.261,6.62891 95.152,19.9102 26.899,13.2617 47.707,32.4687 62.426,57.6015 14.715,25.1293 22.07,55.0193 22.07,89.6793 l 0,267.188"
         id="path3022"
         style="fill:#231f20;fill-opacity:1;fill-rule:nonzero;stroke:none" /><path
         d="m 57.5,191.129 0,192.601 130.219,0 c 30.761,0 54.062,-7.41 70.871,-19.648 1.281,-0.961 2.57,-1.883 3.844,-2.934 0.293,-0.226 0.562,-0.468 0.851,-0.699 17.668,-14.949 32.953,-38.219 32.633,-73.82 -0.215,-24.039 -5.898,-41.899 -14.109,-55.367 -1.2,-1.903 -2.422,-3.782 -3.727,-5.582 -0.324,-0.442 -0.648,-0.871 -0.977,-1.301 -1.335,-1.758 -2.718,-3.438 -4.144,-5.059 -0.992,-1.101 -2.004,-2.148 -3.035,-3.172 -0.848,-0.859 -1.699,-1.707 -2.578,-2.5 -1.227,-1.109 -2.481,-2.117 -3.735,-3.117 -1.234,-0.972 -2.457,-1.961 -3.765,-2.851 -0.313,-0.231 -0.633,-0.43 -0.953,-0.649 -16.086,-10.66 -37.375,-16.011 -63.883,-16.011 0,0 -132.6018,0.07 -137.512,0.109 z m 214.684,-31.77 c 1.64,0.672 3.289,1.371 4.945,2.121 15.32,6.309 28.43,15.129 39.391,26.379 21.699,21.039 38.093,52.473 38.074,99.192 -0.059,123.578 -104.676,143.679 -145,143.679 L 0,430.73 0,3.23047 l 57.5,0 0,142.48853 161.184,-0.188 c 0,0 67.445,-108.449 69.539,-111.8122 C 311.07,-2.96875 334.84,0.398438 373.434,0.398438 L 272.184,159.359"
         id="path3024"
         style="fill:#231f20;fill-opacity:1;fill-rule:nonzero;stroke:none" /><path
         d="m 2082.87,191.129 0,192.601 130.22,0 c 30.76,0 54.06,-7.41 70.87,-19.648 1.28,-0.961 2.57,-1.883 3.84,-2.934 0.29,-0.226 0.57,-0.468 0.85,-0.699 17.67,-14.949 32.96,-38.219 32.64,-73.82 -0.22,-24.039 -5.9,-41.899 -14.12,-55.367 -1.19,-1.903 -2.42,-3.782 -3.72,-5.582 -0.32,-0.442 -0.65,-0.871 -0.98,-1.301 -1.33,-1.758 -2.72,-3.438 -4.14,-5.059 -0.99,-1.101 -2,-2.148 -3.04,-3.172 -0.84,-0.859 -1.69,-1.707 -2.57,-2.5 -1.23,-1.109 -2.48,-2.117 -3.74,-3.117 -1.23,-0.972 -2.45,-1.961 -3.76,-2.851 -0.32,-0.231 -0.64,-0.43 -0.96,-0.649 -16.08,-10.66 -37.37,-16.011 -63.88,-16.011 0,0 -132.6,0.07 -137.51,0.109 z m 214.68,-31.77 c 1.64,0.672 3.29,1.371 4.95,2.121 15.32,6.309 28.42,15.129 39.39,26.379 21.7,21.039 38.09,52.473 38.07,99.192 -0.06,123.578 -104.67,143.679 -145,143.679 l -209.59,0 0,-427.49953 57.5,0 0,142.48853 161.18,-0.188 c 0,0 67.45,-108.449 69.54,-111.8122 22.85,-36.68755 46.62,-33.320362 85.21,-33.320362 L 2297.55,159.359"
         id="path3026"
         style="fill:#231f20;fill-opacity:1;fill-rule:nonzero;stroke:none" /><path
         d="m 1100.82,1131.54 c 77.81,73.28 181.56,119.36 296,122.98 l 0,471.26 c -245.47,-3.82 -467.84,-102.74 -631.922,-261.44 l 335.922,-332.8"
         id="path3028"
         style="fill:#f1501b;fill-opacity:1;fill-rule:nonzero;stroke:none" /><path
         d="m 1720.84,1133.06 329.5,339.07 c -162.94,153.91 -381.59,249.32 -622.49,253.51 l 0,-471.2 c 10.59,-0.4 21.09,-1.12 31.49,-2.21 l 0,0.33 c 14.56,-0.92 29.67,0.43 39,21.26 0.24,0.53 118.9,286.64 118.9,286.64 l 10.02,11.22 -98.6,-332.15 c 72.92,-19.42 138.63,-56.54 192.18,-106.47"
         id="path3030"
         style="fill:#ddad31;fill-opacity:1;fill-rule:nonzero;stroke:none" /><path
         d="m 2072.56,1450.2 -331.03,-337.71 c 75.65,-80.13 122.51,-187.623 123.76,-306.084 l 476.78,0 c -2.92,251.064 -105.22,478.064 -269.51,643.794"
         id="path3032"
         style="fill:#add31b;fill-opacity:1;fill-rule:nonzero;stroke:none" /><path
         d="m 1412.97,679.48 c 0,0 -46.54,6.129 -46.54,49.352 0,43.227 260.83,842.848 260.83,842.848 l 12.76,1.03 -227.05,-893.23"
         id="path3034"
         style="fill:#231f20;fill-opacity:1;fill-rule:nonzero;stroke:none" /><path
         d="M 744.137,1443.76 C 583.715,1278.63 483.918,1054.18 481.074,806.406 l 476.735,0 c 1.363,116.985 47.021,223.354 120.981,303.094 l -261.595,261.88 -73.058,72.38"
         id="path3036"
         style="fill:#a2192d;fill-opacity:1;fill-rule:nonzero;stroke:none" /></g></g></svg>