<?xml version="1.0" encoding="UTF-8" standalone="no"?>
<svg
   xmlns:dc="http://purl.org/dc/elements/1.1/"
   xmlns:cc="http://creativecommons.org/ns#"
   xmlns:rdf="http://www.w3.org/1999/02/22-rdf-syntax-ns#"
   xmlns:svg="http://www.w3.org/2000/svg"
   xmlns="http://www.w3.org/2000/svg"
   viewBox="0 0 2250 1350"
   height="1350"
   width="2250"
   xml:space="preserve"
   version="1.1"
   id="svg3642"><metadata
     id="metadata3648"><rdf:RDF><cc:Work
         rdf:about=""><dc:format>image/svg+xml</dc:format><dc:type
           rdf:resource="http://purl.org/dc/dcmitype/StillImage" /><dc:title></dc:title></cc:Work></rdf:RDF></metadata><defs
     id="defs3646"><clipPath
       id="clipPath3656"
       clipPathUnits="userSpaceOnUse"><path
         id="path3658"
         d="m 0,1080 1800,0 L 1800,0 0,0 0,1080 Z" /></clipPath></defs><g
     transform="matrix(1.25,0,0,-1.25,0,1350)"
     id="g3650"><g
       id="g3652"><g
         clip-path="url(#clipPath3656)"
         id="g3654"><g
           transform="translate(616.8588,415.8755)"
           id="g3660"><path
             id="path3662"
             style="fill:#02b8e3;fill-opacity:1;fill-rule:nonzero;stroke:none"
             d="m 0,0 -45.442,22.029 c -9.023,-2.874 -18.863,-4.471 -29.178,-4.471 -43.35,0 -78.492,27.929 -78.492,62.381 0,34.452 35.142,62.381 78.492,62.381 43.35,0 78.493,-27.929 78.493,-62.381 0,-16.746 -8.318,-31.938 -21.83,-43.143 L 0,0 Z m -182.995,77.71 c -1.652,0.458 -3.287,0.943 -4.903,1.458 l -66.161,-32.072 26.145,53.571 c -19.672,16.314 -31.783,38.433 -31.783,62.813 0,50.16 44.804,90.822 107.919,90.822 63.114,0 107.919,-40.662 107.919,-90.822 l 0,-0.178 c -13,4.505 -20.971,6.999 -35.982,6.999 -60.519,0 -106.401,-40.456 -106.401,-90.362 0,-0.748 3.225,-1.486 3.247,-2.229 m 60.867,293.891 c -136.668,0 -247.459,-110.791 -247.459,-247.459 0,-136.667 110.791,-247.458 247.459,-247.458 136.667,0 247.458,110.791 247.458,247.458 0,136.668 -110.791,247.459 -247.458,247.459" /></g><g
           transform="translate(844.7402,588.8618)"
           id="g3664"><path
             id="path3666"
             style="fill:#02b8e3;fill-opacity:1;fill-rule:nonzero;stroke:none"
             d="m 0,0 c 0,-12.082 9.412,-16.788 20.095,-16.788 6.995,0 17.678,2.035 17.678,11.319 0,9.793 -13.608,11.447 -26.962,15.008 -13.481,3.561 -27.09,8.775 -27.09,25.817 0,18.569 17.551,27.472 33.958,27.472 18.95,0 36.374,-8.267 36.374,-29.252 l -19.332,0 c -0.636,10.938 -8.394,13.736 -17.933,13.736 -6.359,0 -13.735,-2.671 -13.735,-10.302 0,-6.995 4.324,-7.885 27.09,-13.736 6.613,-1.653 26.962,-5.85 26.962,-26.454 0,-16.66 -13.1,-29.124 -37.773,-29.124 -20.095,0 -38.918,9.92 -38.664,32.304 L 0,0 Z" /></g><g
           transform="translate(952.9316,590.897)"
           id="g3668"><path
             id="path3670"
             style="fill:#02b8e3;fill-opacity:1;fill-rule:nonzero;stroke:none"
             d="m 0,0 c -3.052,-2.671 -9.411,-2.798 -15.008,-3.815 -5.596,-1.145 -10.682,-3.053 -10.682,-9.666 0,-6.741 5.213,-8.394 11.064,-8.394 C -0.509,-21.875 0,-10.684 0,-6.741 L 0,0 Z m -41.716,13.354 c 1.018,16.915 16.153,22.002 30.905,22.002 13.1,0 28.871,-2.925 28.871,-18.695 l 0,-34.212 c 0,-5.978 0.636,-11.955 2.29,-14.626 l -18.315,0 c -0.636,2.035 -1.144,4.197 -1.271,6.359 -5.724,-5.978 -14.118,-8.14 -22.13,-8.14 -12.464,0 -22.384,6.232 -22.384,19.713 0,14.881 11.191,18.442 22.384,19.968 C -10.302,7.376 0,6.995 0,14.372 c 0,7.757 -5.342,8.902 -11.7,8.902 -6.868,0 -11.32,-2.798 -11.955,-9.92 l -18.061,0 z" /></g><g
           transform="translate(989.0117,612.3906)"
           id="g3672"><path
             id="path3674"
             style="fill:#02b8e3;fill-opacity:1;fill-rule:nonzero;stroke:none"
             d="m 0,0 -10.811,0 0,12.082 10.811,0 0,5.087 c 0,11.574 7.249,19.968 22.002,19.968 3.18,0 6.486,-0.382 9.539,-0.509 l 0,-13.481 c -2.162,0.254 -4.324,0.382 -6.613,0.382 -4.833,0 -6.868,-2.035 -6.868,-7.504 l 0,-3.943 12.463,0 0,-12.082 -12.463,0 0,-53.671 -18.06,0 L 0,0 Z" /></g><g
           transform="translate(1070.3682,598.6548)"
           id="g3676"><path
             id="path3678"
             style="fill:#02b8e3;fill-opacity:1;fill-rule:nonzero;stroke:none"
             d="M 0,0 C -1.653,9.157 -5.596,13.99 -14.371,13.99 -25.817,13.99 -29.124,5.087 -29.379,0 L 0,0 Z m -29.379,-11.446 c 0.509,-11.447 6.105,-16.661 16.152,-16.661 7.249,0 13.1,4.451 14.245,8.521 l 15.897,0 c -5.087,-15.516 -15.897,-22.13 -30.777,-22.13 -20.732,0 -33.576,14.245 -33.576,34.594 0,19.713 13.608,34.721 33.576,34.721 22.383,0 33.194,-18.823 31.923,-39.045 l -47.44,0 z" /></g><g
           transform="translate(1179.1064,573.3457)"
           id="g3680"><path
             id="path3682"
             style="fill:#a2d210;fill-opacity:1;fill-rule:nonzero;stroke:none"
             d="m 0,0 c 17.933,0 24.674,15.262 24.674,30.396 0,15.898 -6.741,31.16 -24.674,31.16 -17.933,0 -24.673,-15.262 -24.673,-31.16 C -24.673,15.262 -17.933,0 0,0 m 0,78.344 c 28.107,0 44.641,-20.985 44.641,-47.948 0,-26.199 -16.534,-47.184 -44.641,-47.184 -28.107,0 -44.641,20.985 -44.641,47.184 0,26.963 16.534,47.948 44.641,47.948" /></g><g
           transform="translate(1235.792,624.4727)"
           id="g3684"><path
             id="path3686"
             style="fill:#a2d210;fill-opacity:1;fill-rule:nonzero;stroke:none"
             d="m 0,0 17.169,0 0,-9.157 0.382,0 c 4.578,7.377 12.464,10.938 20.095,10.938 19.204,0 24.037,-10.811 24.037,-27.09 l 0,-40.444 -18.06,0 0,37.137 c 0,10.811 -3.18,16.152 -11.573,16.152 -9.793,0 -13.99,-5.469 -13.99,-18.823 l 0,-34.466 -18.06,0 L 0,0 Z" /></g><path
           id="path3688"
           style="fill:#a2d210;fill-opacity:1;fill-rule:nonzero;stroke:none"
           d="m 1311.577,649.528 18.06,0 0,-90.808 -18.06,0 0,90.808 z" /><path
           id="path3690"
           style="fill:#a2d210;fill-opacity:1;fill-rule:nonzero;stroke:none"
           d="m 1343.881,624.473 18.06,0 0,-65.753 -18.06,0 0,65.753 z m 18.059,10.174 -18.06,0 0,14.88 18.06,0 0,-14.88 z" /><g
           transform="translate(1375.9805,624.4727)"
           id="g3692"><path
             id="path3694"
             style="fill:#a2d210;fill-opacity:1;fill-rule:nonzero;stroke:none"
             d="m 0,0 17.169,0 0,-9.157 0.382,0 c 4.578,7.377 12.464,10.938 20.095,10.938 19.204,0 24.037,-10.811 24.037,-27.09 l 0,-40.444 -18.06,0 0,37.137 c 0,10.811 -3.18,16.152 -11.573,16.152 -9.793,0 -13.99,-5.469 -13.99,-18.823 l 0,-34.466 -18.06,0 L 0,0 Z" /></g><g
           transform="translate(1495.6045,598.6548)"
           id="g3696"><path
             id="path3698"
             style="fill:#a2d210;fill-opacity:1;fill-rule:nonzero;stroke:none"
             d="M 0,0 C -1.653,9.157 -5.596,13.99 -14.371,13.99 -25.817,13.99 -29.124,5.087 -29.379,0 L 0,0 Z m -29.379,-11.446 c 0.509,-11.447 6.105,-16.661 16.152,-16.661 7.249,0 13.1,4.451 14.245,8.521 l 15.897,0 c -5.087,-15.516 -15.897,-22.13 -30.777,-22.13 -20.732,0 -33.576,14.245 -33.576,34.594 0,19.713 13.608,34.721 33.576,34.721 22.383,0 33.194,-18.823 31.923,-39.045 l -47.44,0 z" /></g><g
           transform="translate(851.0996,467.1611)"
           id="g3700"><path
             id="path3702"
             style="fill:#02b8e3;fill-opacity:1;fill-rule:nonzero;stroke:none"
             d="m 0,0 21.875,0 c 8.903,0 13.736,3.815 13.736,12.973 0,8.775 -4.833,12.59 -13.736,12.59 L 0,25.563 0,0 Z m -19.968,41.079 48.966,0 c 16.279,0 26.581,-11.319 26.581,-25.055 0,-10.683 -4.324,-18.695 -14.372,-22.765 l 0,-0.254 C 51,-9.539 53.798,-19.078 54.435,-28.234 c 0.38,-5.724 0.253,-16.408 3.815,-21.495 l -19.968,0 c -2.417,5.724 -2.162,14.5 -3.18,21.749 -1.399,9.539 -5.087,13.735 -15.134,13.735 l -19.968,0 0,-35.484 -19.968,0 0,90.808 z" /></g><g
           transform="translate(964.0088,457.3682)"
           id="g3704"><path
             id="path3706"
             style="fill:#02b8e3;fill-opacity:1;fill-rule:nonzero;stroke:none"
             d="M 0,0 C -1.653,9.156 -5.596,13.989 -14.371,13.989 -25.817,13.989 -29.124,5.087 -29.379,0 L 0,0 Z m -29.379,-11.447 c 0.509,-11.447 6.105,-16.66 16.152,-16.66 7.249,0 13.1,4.451 14.245,8.521 l 15.897,0 c -5.087,-15.517 -15.897,-22.13 -30.777,-22.13 -20.732,0 -33.576,14.244 -33.576,34.593 0,19.714 13.608,34.721 33.576,34.721 22.383,0 33.194,-18.823 31.923,-39.045 l -47.44,0 z" /></g><g
           transform="translate(1041.3848,450.1182)"
           id="g3708"><path
             id="path3710"
             style="fill:#02b8e3;fill-opacity:1;fill-rule:nonzero;stroke:none"
             d="m 0,0 c 0,10.429 -4.197,21.239 -15.771,21.239 -11.828,0 -15.643,-10.555 -15.643,-21.239 0,-10.683 4.069,-20.857 15.77,-20.857 C -3.815,-20.857 0,-10.683 0,0 m -48.838,33.067 17.169,0 0,-8.393 0.255,0 c 4.324,6.995 11.446,10.174 19.586,10.174 20.603,0 29.888,-16.661 29.888,-35.357 0,-17.551 -9.666,-33.957 -28.871,-33.957 -7.885,0 -15.389,3.434 -19.713,9.92 l -0.254,0 0,-31.287 -18.06,0 0,88.9 z" /></g><g
           transform="translate(1131.8096,417.4326)"
           id="g3712"><path
             id="path3714"
             style="fill:#02b8e3;fill-opacity:1;fill-rule:nonzero;stroke:none"
             d="m 0,0 -17.169,0 0,9.157 -0.382,0 C -22.129,1.78 -30.015,-1.78 -37.646,-1.78 c -19.204,0 -24.037,10.81 -24.037,27.09 l 0,40.443 18.06,0 0,-37.137 c 0,-10.81 3.18,-16.152 11.573,-16.152 9.793,0 13.99,5.469 13.99,18.823 l 0,34.466 18.06,0 L 0,0 Z" /></g><g
           transform="translate(1168.3086,483.1855)"
           id="g3716"><path
             id="path3718"
             style="fill:#02b8e3;fill-opacity:1;fill-rule:nonzero;stroke:none"
             d="m 0,0 13.227,0 0,-12.082 -13.227,0 0,-32.559 c 0,-6.104 1.526,-7.63 7.631,-7.63 1.907,0 3.688,0.126 5.596,0.508 l 0,-14.117 c -3.052,-0.509 -6.996,-0.636 -10.556,-0.636 -11.066,0 -20.731,2.543 -20.731,15.643 l 0,38.791 -10.938,0 0,12.082 10.938,0 0,19.714 18.06,0 L 0,0 Z" /></g><g
           transform="translate(1231.9229,449.6094)"
           id="g3720"><path
             id="path3722"
             style="fill:#02b8e3;fill-opacity:1;fill-rule:nonzero;stroke:none"
             d="m 0,0 c -3.053,-2.671 -9.411,-2.798 -15.008,-3.815 -5.596,-1.145 -10.682,-3.052 -10.682,-9.666 0,-6.741 5.213,-8.394 11.064,-8.394 C -0.509,-21.875 0,-10.683 0,-6.74 L 0,0 Z m -41.716,13.354 c 1.018,16.916 16.153,22.002 30.905,22.002 13.1,0 28.871,-2.924 28.871,-18.695 l 0,-34.212 c 0,-5.977 0.636,-11.955 2.29,-14.626 l -18.315,0 c -0.636,2.035 -1.144,4.198 -1.271,6.36 -5.724,-5.978 -14.118,-8.14 -22.13,-8.14 -12.464,0 -22.384,6.231 -22.384,19.713 0,14.88 11.191,18.441 22.384,19.968 C -10.302,7.377 0,6.995 0,14.372 c 0,7.758 -5.342,8.902 -11.7,8.902 -6.868,0 -11.32,-2.797 -11.955,-9.92 l -18.061,0 z" /></g><g
           transform="translate(1286.5332,483.1855)"
           id="g3724"><path
             id="path3726"
             style="fill:#02b8e3;fill-opacity:1;fill-rule:nonzero;stroke:none"
             d="m 0,0 13.227,0 0,-12.082 -13.227,0 0,-32.559 c 0,-6.104 1.526,-7.63 7.631,-7.63 1.907,0 3.688,0.126 5.596,0.508 l 0,-14.117 c -3.052,-0.509 -6.996,-0.636 -10.556,-0.636 -11.066,0 -20.731,2.543 -20.731,15.643 l 0,38.791 -10.938,0 0,12.082 10.938,0 0,19.714 18.06,0 L 0,0 Z" /></g><path
           id="path3728"
           style="fill:#02b8e3;fill-opacity:1;fill-rule:nonzero;stroke:none"
           d="m 1310.137,483.186 18.06,0 0,-65.753 -18.06,0 0,65.753 z m 18.059,10.174 -18.06,0 0,14.88 18.06,0 0,-14.88 z" /><g
           transform="translate(1373.6377,429.2607)"
           id="g3730"><path
             id="path3732"
             style="fill:#02b8e3;fill-opacity:1;fill-rule:nonzero;stroke:none"
             d="M 0,0 C 12.337,0 16.025,10.556 16.025,20.984 16.025,31.541 12.337,42.097 0,42.097 -12.209,42.097 -15.897,31.541 -15.897,20.984 -15.897,10.556 -12.209,0 0,0 m 0,55.705 c 20.731,0 34.085,-13.735 34.085,-34.721 0,-20.857 -13.354,-34.592 -34.085,-34.592 -20.603,0 -33.957,13.735 -33.957,34.592 0,20.986 13.354,34.721 33.957,34.721" /></g><g
           transform="translate(1419.041,483.1855)"
           id="g3734"><path
             id="path3736"
             style="fill:#02b8e3;fill-opacity:1;fill-rule:nonzero;stroke:none"
             d="m 0,0 17.169,0 0,-9.157 0.382,0 C 22.129,-1.78 30.015,1.78 37.646,1.78 56.85,1.78 61.683,-9.029 61.683,-25.309 l 0,-40.444 -18.06,0 0,37.137 c 0,10.81 -3.18,16.152 -11.573,16.152 -9.793,0 -13.99,-5.469 -13.99,-18.822 l 0,-34.467 -18.06,0 L 0,0 Z" /></g></g></g></g></svg>