<?xml version="1.0" standalone="no"?>
<!DOCTYPE svg PUBLIC "-//W3C//DTD SVG 1.1//EN" "http://www.w3.org/Graphics/SVG/1.1/DTD/svg11.dtd" >
<svg>
<metadata>
Created by FontForge 20120731 at Fri Nov 22 21:54:09 2013
 By World Wide Web Server
Copyright (c) 2000 The Hoefler Type Foundry, Inc., dba Hoefler &#38; Frere-Jones. All Rights Reserved.
</metadata>
<defs>
<font id="GothamPro-Bold" horiz-adv-x="500" >
  <font-face 
    font-family="Gotham Pro"
    font-weight="700"
    font-stretch="normal"
    units-per-em="1000"
    panose-1="2 0 8 3 3 0 0 2 0 4"
    ascent="800"
    descent="-200"
    x-height="536"
    cap-height="700"
    bbox="-71 -173 1195 932"
    underline-thickness="20"
    underline-position="-113"
    stemh="139"
    stemv="152"
    unicode-range="U+0020-FB04"
  />
<missing-glyph 
d="M0 0v700h500v-700h-500zM81 49h339l-170 255zM49 96l171 254l-171 254v-508zM450 96v508l-171 -254zM250 395l170 255h-339z" />
    <glyph glyph-name="fi" unicode="fi" horiz-adv-x="684" 
d="M453 595v135h160v-135h-160zM94 0v406h-63v125h63v34c0 59 15 102 43 130s69 42 123 42c48 0 80 -6 108 -15v-126c-22 8 -43 13 -69 13c-35 0 -55 -18 -55 -58v-21h123v-124h-121v-406h-152zM457 0v536h152v-536h-152z" />
    <glyph glyph-name="fl" unicode="fl" horiz-adv-x="684" 
d="M94 0v406h-63v125h63v34c0 59 15 102 43 130s69 42 123 42c48 0 80 -6 108 -15v-126c-22 8 -43 13 -69 13c-35 0 -55 -18 -55 -58v-21h123v-124h-121v-406h-152zM457 0v730h152v-730h-152z" />
    <glyph glyph-name="ffi" unicode="ffi" horiz-adv-x="1066" 
d="M835 595v135h160v-135h-160zM476 0v406h-63v125h63v34c0 59 15 102 43 130s69 42 123 42c48 0 80 -6 108 -15v-126c-22 8 -43 13 -69 13c-35 0 -55 -18 -55 -58v-21h123v-124h-121v-406h-152zM94 0v406h-63v125h63v34c0 59 15 102 43 130s69 42 123 42
c48 0 80 -6 108 -15v-126c-22 8 -43 13 -69 13c-35 0 -55 -18 -55 -58v-21h123v-124h-121v-406h-152zM839 0v536h152v-536h-152z" />
    <glyph glyph-name="ffl" unicode="ffl" horiz-adv-x="1066" 
d="M476 0v406h-63v125h63v34c0 59 15 102 43 130s69 42 123 42c48 0 80 -6 108 -15v-126c-22 8 -43 13 -69 13c-35 0 -55 -18 -55 -58v-21h123v-124h-121v-406h-152zM94 0v406h-63v125h63v34c0 59 15 102 43 130s69 42 123 42c48 0 80 -6 108 -15v-126c-22 8 -43 13 -69 13
c-35 0 -55 -18 -55 -58v-21h123v-124h-121v-406h-152zM839 0v730h152v-730h-152z" />
    <glyph glyph-name=".notdef" 
d="M0 0v700h500v-700h-500zM81 49h339l-170 255zM49 96l171 254l-171 254v-508zM450 96v508l-171 -254zM250 395l170 255h-339z" />
    <glyph glyph-name="space" unicode=" " horiz-adv-x="300" 
 />
    <glyph glyph-name="exclam" unicode="!" horiz-adv-x="324" 
d="M120 238l-47 442v20h178v-20l-47 -442h-84zM81 0v160h162v-160h-162z" />
    <glyph glyph-name="quotedbl" unicode="&#x22;" horiz-adv-x="520" 
d="M293 381l18 319h168v-5l-109 -314h-77zM57 381l18 319h168v-5l-109 -314h-77z" />
    <glyph glyph-name="numbersign" unicode="#" horiz-adv-x="700" 
d="M85 0l26 150h-76v128h98l25 148h-88v128h110l25 146h132l-25 -146h145l25 146h132l-25 -146h76v-128h-98l-25 -148h88v-128h-110l-26 -150h-132l26 150h-145l-26 -150h-132zM265 278h145l25 148h-145z" />
    <glyph glyph-name="dollar" unicode="$" horiz-adv-x="646" 
d="M280 -98v101c-86 11 -170 45 -236 95l78 114c54 -41 104 -69 163 -81v159c-144 39 -215 94 -215 214c0 111 84 183 210 196v58h104v-60c71 -10 132 -36 186 -74l-67 -117c-40 27 -82 48 -124 59v-151c152 -41 217 -103 217 -217c0 -111 -85 -183 -212 -197v-99h-104z
M285 440v135c-48 -6 -69 -30 -69 -64c0 -31 14 -51 69 -71zM379 126c47 7 71 28 71 66c0 34 -17 54 -71 74v-140z" />
    <glyph glyph-name="percent" unicode="%" horiz-adv-x="860" 
d="M214 350c-101 0 -169 79 -169 179c0 99 69 179 171 179c101 0 169 -79 169 -179c0 -98 -69 -179 -171 -179zM115 0l511 700h119l-511 -700h-119zM644 -8c-101 0 -169 79 -169 179c0 99 69 179 171 179c101 0 169 -79 169 -179c0 -98 -69 -179 -171 -179zM216 441
c42 0 64 41 64 88s-26 88 -66 88c-42 0 -64 -40 -64 -88c0 -47 26 -88 66 -88zM646 83c42 0 64 41 64 88s-26 88 -66 88c-42 0 -64 -40 -64 -88c0 -47 26 -88 66 -88z" />
    <glyph glyph-name="ampersand" unicode="&#x26;" horiz-adv-x="696" 
d="M555 -14l-81 82c-57 -47 -124 -78 -205 -78c-134 0 -235 78 -235 204c0 89 48 152 136 192c-34 48 -49 92 -49 142c0 96 77 184 212 184c119 0 197 -78 197 -178c0 -94 -60 -149 -147 -183l93 -93c23 36 46 77 68 120l113 -62c-27 -49 -57 -101 -92 -148l103 -103z
M303 432c61 23 93 49 93 95c0 40 -27 65 -66 65c-41 0 -68 -29 -68 -73c0 -31 12 -54 41 -87zM287 116c35 0 69 15 101 40l-134 136c-46 -24 -65 -58 -65 -94c0 -49 41 -82 98 -82z" />
    <glyph glyph-name="quotesingle" unicode="'" horiz-adv-x="286" 
d="M57 381l18 319h170v-5l-109 -314h-79z" />
    <glyph glyph-name="parenleft" unicode="(" horiz-adv-x="445" 
d="M336 -141c-184 100 -277 236 -277 428s93 328 277 428l67 -101c-135 -94 -193 -186 -193 -327s58 -233 193 -327z" />
    <glyph glyph-name="parenright" unicode=")" horiz-adv-x="445" 
d="M109 -141l-67 101c135 94 193 186 193 327s-58 233 -193 327l67 101c184 -100 277 -236 277 -428s-93 -328 -277 -428z" />
    <glyph glyph-name="asterisk" unicode="*" horiz-adv-x="430" 
d="M174 372l16 120l-97 -74l-42 72l112 47l-112 47l42 72l97 -74l-16 120h82l-16 -120l97 74l42 -72l-112 -47l112 -47l-42 -72l-97 74l16 -120h-82z" />
    <glyph glyph-name="plus" unicode="+" horiz-adv-x="640" 
d="M249 103v180h-181v138h181v180h142v-180h181v-138h-181v-180h-142z" />
    <glyph glyph-name="comma" unicode="," horiz-adv-x="286" 
d="M39 -162l-13 63c65 7 98 37 98 88v11h-62v160h162v-135c0 -132 -66 -185 -185 -187z" />
    <glyph glyph-name="hyphen" unicode="-" horiz-adv-x="408" 
d="M50 237v146h308v-146h-308z" />
    <glyph glyph-name="period" unicode="." horiz-adv-x="286" 
d="M62 0v160h162v-160h-162z" />
    <glyph glyph-name="slash" unicode="/" horiz-adv-x="530" 
d="M-28 -128l443 926h129l-443 -926h-129z" />
    <glyph glyph-name="zero" unicode="0" horiz-adv-x="730" 
d="M364 -12c-187 0 -310 157 -310 362c0 203 126 362 312 362c185 0 310 -157 310 -362c0 -203 -125 -362 -312 -362zM366 127c93 0 152 94 152 223c0 127 -62 223 -154 223s-152 -93 -152 -223c0 -128 61 -223 154 -223z" />
    <glyph glyph-name="one" unicode="1" horiz-adv-x="422" 
d="M178 0v549l-122 -30l-32 126l201 60h105v-705h-152z" />
    <glyph glyph-name="two" unicode="2" horiz-adv-x="623" 
d="M49 0v122l233 191c87 72 121 110 121 168c0 59 -39 91 -94 91c-54 0 -91 -30 -143 -94l-108 87c69 94 136 145 261 145c145 0 241 -85 241 -218c0 -117 -60 -175 -184 -271l-114 -88h305v-133h-518z" />
    <glyph glyph-name="three" unicode="3" horiz-adv-x="621" 
d="M311 -12c-126 0 -213 50 -273 121l106 101c48 -54 98 -84 169 -84c58 0 99 33 99 87c0 57 -51 89 -137 89h-64l-24 98l167 168h-275v132h473v-116l-177 -169c95 -16 188 -66 188 -198s-96 -229 -252 -229z" />
    <glyph glyph-name="four" unicode="4" horiz-adv-x="689" 
d="M398 0v151h-342l-25 109l384 445h130v-429h94v-125h-94v-151h-147zM212 276h186v218z" />
    <glyph glyph-name="five" unicode="5" horiz-adv-x="630" 
d="M305 -12c-112 0 -194 40 -262 105l93 111c53 -48 105 -76 167 -76c72 0 117 35 117 99c0 60 -51 95 -124 95c-44 0 -84 -12 -117 -26l-89 59l20 345h430v-135h-298l-8 -121c28 7 53 12 92 12c136 0 245 -66 245 -226c0 -148 -105 -242 -266 -242z" />
    <glyph glyph-name="six" unicode="6" horiz-adv-x="662" 
d="M339 -12c-91 0 -153 26 -202 75c-51 51 -83 126 -83 267c0 216 98 382 307 382c95 0 157 -28 219 -77l-81 -119c-46 35 -83 56 -143 56c-87 0 -131 -70 -141 -162c35 23 76 45 145 45c139 0 246 -77 246 -225c0 -143 -115 -242 -267 -242zM333 120c76 0 120 43 120 105
c0 59 -46 102 -122 102s-120 -42 -120 -103c0 -59 46 -104 122 -104z" />
    <glyph glyph-name="seven" unicode="7" horiz-adv-x="619" 
d="M84 0l313 567h-329v133h504v-116l-314 -584h-174z" />
    <glyph glyph-name="eight" unicode="8" horiz-adv-x="630" 
d="M315 -10c-155 0 -270 80 -270 204c0 85 39 135 113 169c-54 33 -89 78 -89 155c0 107 98 192 246 192s246 -84 246 -194c0 -75 -35 -120 -89 -153c71 -37 113 -82 113 -167c0 -130 -115 -206 -270 -206zM315 414c61 0 100 36 100 87c0 43 -37 82 -100 82
s-100 -38 -100 -83c0 -49 39 -86 100 -86zM315 117c76 0 121 38 121 89c0 54 -51 86 -121 86s-121 -32 -121 -88c0 -48 45 -87 121 -87z" />
    <glyph glyph-name="nine" unicode="9" horiz-adv-x="662" 
d="M302 -12c-102 0 -171 34 -230 83l81 117c51 -41 94 -60 153 -60c86 0 132 65 142 159c-34 -29 -81 -48 -142 -48c-152 0 -250 84 -250 228c0 141 109 245 267 245c94 0 149 -23 202 -76c50 -50 83 -126 83 -266c0 -227 -107 -382 -306 -382zM331 367c76 0 120 44 120 106
s-46 107 -123 107c-76 0 -119 -44 -119 -108c0 -62 46 -105 122 -105z" />
    <glyph glyph-name="colon" unicode=":" horiz-adv-x="296" 
d="M67 376v160h162v-160h-162zM67 0v160h162v-160h-162z" />
    <glyph glyph-name="semicolon" unicode=";" horiz-adv-x="296" 
d="M67 376v160h162v-160h-162zM44 -162l-13 63c65 7 98 37 98 88v11h-62v160h162v-135c0 -132 -66 -185 -185 -187z" />
    <glyph glyph-name="less" unicode="&#x3c;" horiz-adv-x="640" 
d="M552 71l-484 212v138l484 212v-141l-338 -139l338 -139v-143z" />
    <glyph glyph-name="equal" unicode="=" horiz-adv-x="640" 
d="M83 413v138h474v-138h-474zM83 153v138h474v-138h-474z" />
    <glyph glyph-name="greater" unicode="&#x3e;" horiz-adv-x="640" 
d="M88 71v141l338 139l-338 139v143l484 -212v-138z" />
    <glyph glyph-name="question" unicode="?" horiz-adv-x="544" 
d="M197 238l-23 162l5 5c126 5 175 38 175 93c0 45 -34 71 -92 71c-56 0 -104 -23 -150 -69l-92 101c58 64 136 108 245 108c144 0 242 -74 242 -209c0 -127 -88 -179 -197 -201l-11 -61h-102zM164 0v160h162v-160h-162z" />
    <glyph glyph-name="at" unicode="@" horiz-adv-x="980" 
d="M499 -162c-256 0 -446 197 -446 436s193 438 438 438s436 -191 436 -396c0 -167 -89 -251 -199 -251c-81 0 -128 31 -153 60c-34 -31 -83 -60 -148 -60c-102 0 -183 74 -183 193c0 141 107 251 224 251c69 0 110 -30 138 -68l11 53l118 -19l-47 -269
c-2 -10 -3 -23 -3 -31c0 -36 27 -63 73 -63c71 0 127 71 127 204c0 185 -169 356 -394 356c-226 0 -396 -179 -396 -398c0 -220 168 -396 404 -396c99 0 170 23 245 67l20 -32c-77 -47 -161 -75 -265 -75zM462 168c63 0 119 62 119 144c0 57 -39 94 -93 94
c-65 0 -120 -61 -120 -141c0 -62 39 -97 94 -97z" />
    <glyph glyph-name="A" unicode="A" horiz-adv-x="790" 
d="M24 0l300 705h142l300 -705h-161l-64 157h-296l-64 -157h-157zM300 293h186l-93 227z" />
    <glyph glyph-name="B" unicode="B" horiz-adv-x="722" 
d="M84 0v700h325c80 0 143 -22 183 -62c32 -32 48 -71 48 -121c0 -79 -42 -123 -92 -151c81 -31 131 -78 131 -174c0 -128 -104 -192 -262 -192h-333zM234 417h142c68 0 111 22 111 76c0 46 -36 72 -101 72h-152v-148zM234 135h183c68 0 109 24 109 78c0 47 -35 76 -114 76
h-178v-154z" />
    <glyph glyph-name="C" unicode="C" horiz-adv-x="738" 
d="M412 -12c-206 0 -359 159 -359 362c0 199 150 362 365 362c132 0 206 -50 271 -114l-92 -106c-54 49 -100 78 -180 78c-118 0 -203 -98 -203 -220c0 -120 83 -220 203 -220c80 0 129 32 184 82l98 -105c-72 -77 -152 -119 -287 -119z" />
    <glyph glyph-name="D" unicode="D" horiz-adv-x="782" 
d="M84 0v700h273c220 0 372 -151 372 -350c0 -197 -152 -350 -372 -350h-273zM238 139h119c126 0 211 85 211 211c0 124 -85 211 -211 211h-119v-422z" />
    <glyph glyph-name="E" unicode="E" horiz-adv-x="670" 
d="M84 0v700h528v-137h-375v-142h330v-137h-330v-147h380v-137h-533z" />
    <glyph glyph-name="F" unicode="F" horiz-adv-x="656" 
d="M84 0v700h533v-140h-379v-149h334v-140h-334v-271h-154z" />
    <glyph glyph-name="G" unicode="G" horiz-adv-x="784" 
d="M421 -12c-218 0 -368 153 -368 362c0 199 155 362 367 362c126 0 202 -34 275 -96l-97 -117c-54 45 -102 71 -183 71c-112 0 -201 -99 -201 -220c0 -128 88 -222 212 -222c56 0 106 14 145 42v100h-155v133h304v-304c-72 -61 -171 -111 -299 -111z" />
    <glyph glyph-name="H" unicode="H" horiz-adv-x="760" 
d="M84 0v700h154v-277h284v277h154v-700h-154v281h-284v-281h-154z" />
    <glyph glyph-name="I" unicode="I" horiz-adv-x="336" 
d="M91 0v700h154v-700h-154z" />
    <glyph glyph-name="J" unicode="J" horiz-adv-x="564" 
d="M243 -10c-109 0 -181 48 -229 105l97 108c40 -44 79 -70 128 -70c58 0 94 35 94 116v451h158v-458c0 -83 -24 -145 -66 -187c-43 -43 -106 -65 -182 -65z" />
    <glyph glyph-name="K" unicode="K" horiz-adv-x="730" 
d="M84 0v700h154v-306l284 306h186l-285 -297l298 -403h-185l-217 298l-81 -84v-214h-154z" />
    <glyph glyph-name="L" unicode="L" horiz-adv-x="619" 
d="M84 0v700h154v-560h349v-140h-503z" />
    <glyph glyph-name="M" unicode="M" horiz-adv-x="868" 
d="M84 0v700h166l184 -296l184 296h166v-700h-153v457l-197 -299h-4l-195 296v-454h-151z" />
    <glyph glyph-name="N" unicode="N" horiz-adv-x="790" 
d="M84 0v700h142l328 -431v431h152v-700h-131l-339 445v-445h-152z" />
    <glyph glyph-name="O" unicode="O" horiz-adv-x="850" 
d="M424 -12c-216 0 -371 161 -371 362c0 199 157 362 373 362s371 -161 371 -362c0 -199 -157 -362 -373 -362zM426 130c124 0 210 98 210 220c0 120 -88 220 -212 220s-210 -98 -210 -220c0 -120 88 -220 212 -220z" />
    <glyph glyph-name="P" unicode="P" horiz-adv-x="668" 
d="M84 0v700h286c167 0 268 -99 268 -244c0 -162 -126 -246 -283 -246h-117v-210h-154zM238 347h122c77 0 122 46 122 108c0 69 -48 106 -125 106h-119v-214z" />
    <glyph glyph-name="Q" unicode="Q" horiz-adv-x="850" 
d="M709 -21l-77 69c-59 -38 -130 -60 -208 -60c-216 0 -371 161 -371 362c0 199 157 362 373 362s371 -161 371 -362c0 -73 -22 -143 -62 -201l72 -61zM426 130c34 0 65 7 92 19l-114 97l98 110l115 -104c13 29 19 61 19 98c0 120 -88 220 -212 220s-210 -98 -210 -220
c0 -120 88 -220 212 -220z" />
    <glyph glyph-name="R" unicode="R" horiz-adv-x="723" 
d="M84 0v700h320c89 0 158 -25 204 -71c39 -39 60 -94 60 -162c0 -113 -61 -184 -150 -217l171 -250h-180l-152 224h-119v-224h-154zM238 360h156c75 0 118 40 118 101c0 66 -46 100 -121 100h-153v-201z" />
    <glyph glyph-name="S" unicode="S" horiz-adv-x="640" 
d="M333 -10c-106 0 -213 37 -297 112l91 109c63 -52 129 -85 209 -85c63 0 101 25 101 68c0 39 -24 59 -141 89c-141 36 -232 75 -232 216c0 127 102 211 245 211c102 0 189 -32 260 -89l-80 -116c-62 43 -123 69 -182 69s-90 -27 -90 -63c0 -46 30 -61 151 -92
c142 -37 222 -88 222 -212c0 -139 -106 -217 -257 -217z" />
    <glyph glyph-name="T" unicode="T" horiz-adv-x="648" 
d="M247 0v558h-213v142h580v-142h-213v-558h-154z" />
    <glyph glyph-name="U" unicode="U" horiz-adv-x="756" 
d="M376 -11c-188 0 -303 105 -303 311v400h154v-396c0 -114 57 -173 151 -173s151 57 151 168v401h154v-395c0 -212 -119 -316 -307 -316z" />
    <glyph glyph-name="V" unicode="V" horiz-adv-x="750" 
d="M307 -5l-283 705h170l183 -493l183 493h166l-283 -705h-136z" />
    <glyph glyph-name="W" unicode="W" horiz-adv-x="1122" 
d="M269 -5l-239 705h165l145 -474l157 476h132l157 -476l145 474h161l-239 -705h-134l-158 458l-158 -458h-134z" />
    <glyph glyph-name="X" unicode="X" horiz-adv-x="732" 
d="M31 0l244 356l-234 344h180l147 -227l148 227h175l-234 -342l244 -358h-180l-157 240l-158 -240h-175z" />
    <glyph glyph-name="Y" unicode="Y" horiz-adv-x="716" 
d="M281 0v276l-269 424h180l167 -281l170 281h175l-269 -421v-279h-154z" />
    <glyph glyph-name="Z" unicode="Z" horiz-adv-x="708" 
d="M63 0v117l385 448h-373v135h571v-117l-385 -448h385v-135h-583z" />
    <glyph glyph-name="bracketleft" unicode="[" horiz-adv-x="465" 
d="M83 -130v830h323v-119h-177v-592h177v-119h-323z" />
    <glyph glyph-name="backslash" unicode="\" horiz-adv-x="530" 
d="M429 -128l-443 926h129l443 -926h-129z" />
    <glyph glyph-name="bracketright" unicode="]" horiz-adv-x="465" 
d="M59 -130v119h177v592h-177v119h323v-830h-323z" />
    <glyph glyph-name="asciicircum" unicode="^" 
d="M50 493l148 207h104l148 -207h-110l-91 117l-91 -117h-108z" />
    <glyph glyph-name="underscore" unicode="_" horiz-adv-x="600" 
d="M-2 -160v116h604v-116h-604z" />
    <glyph glyph-name="grave" unicode="`" 
d="M238 595l-128 120l131 57l113 -177h-116z" />
    <glyph glyph-name="a" unicode="a" horiz-adv-x="592" 
d="M220 -10c-101 0 -184 58 -184 166c0 117 89 171 216 171c54 0 93 -9 131 -22v9c0 63 -39 98 -115 98c-58 0 -99 -11 -148 -29l-38 116c59 26 117 43 208 43c83 0 143 -22 181 -60c40 -40 58 -99 58 -171v-311h-147v58c-37 -41 -88 -68 -162 -68zM266 95
c71 0 119 39 119 94v27c-26 12 -60 20 -97 20c-65 0 -105 -26 -105 -76c0 -41 34 -65 83 -65z" />
    <glyph glyph-name="b" unicode="b" horiz-adv-x="675" 
d="M387 -10c-81 0 -131 37 -167 80v-70h-152v730h152v-271c37 50 88 87 167 87c125 0 244 -98 244 -279c0 -179 -117 -277 -244 -277zM348 119c71 0 131 58 131 150c0 89 -60 148 -131 148s-130 -59 -130 -150c0 -89 59 -148 130 -148z" />
    <glyph glyph-name="c" unicode="c" horiz-adv-x="571" 
d="M321 -12c-161 0 -279 124 -279 279c0 153 117 279 281 279c101 0 163 -38 213 -94l-89 -90c-33 31 -65 53 -125 53c-76 0 -130 -67 -130 -148c0 -82 53 -148 136 -148c51 0 86 22 123 57l89 -90c-52 -57 -112 -98 -219 -98z" />
    <glyph glyph-name="d" unicode="d" horiz-adv-x="675" 
d="M288 -10c-125 0 -244 98 -244 279c0 179 117 277 244 277c81 0 131 -37 167 -80v264h152v-730h-152v77c-37 -50 -88 -87 -167 -87zM327 119c71 0 130 59 130 150c0 89 -59 148 -130 148s-131 -58 -131 -150c0 -89 60 -148 131 -148z" />
    <glyph glyph-name="e" unicode="e" horiz-adv-x="613" 
d="M322 -12c-161 0 -280 113 -280 279c0 153 109 279 265 279c179 0 261 -139 261 -291c0 -12 -1 -26 -2 -40h-373c15 -69 63 -105 131 -105c51 0 88 16 130 55l87 -77c-50 -62 -122 -100 -219 -100zM191 310h229c-9 68 -49 114 -113 114c-63 0 -104 -45 -116 -114z" />
    <glyph glyph-name="f" unicode="f" horiz-adv-x="382" 
d="M94 0v406h-63v125h63v34c0 59 15 102 43 130s69 42 123 42c48 0 80 -6 108 -15v-126c-22 8 -43 13 -69 13c-35 0 -55 -18 -55 -58v-21h123v-124h-121v-406h-152z" />
    <glyph glyph-name="g" unicode="g" horiz-adv-x="675" 
d="M308 -162c-87 0 -169 20 -237 56l52 114c55 -31 110 -49 181 -49c104 0 153 50 153 146v26c-45 -54 -94 -87 -175 -87c-125 0 -238 91 -238 252c0 160 115 250 238 250c83 0 132 -35 173 -80v70h152v-415c0 -96 -23 -166 -68 -211c-50 -50 -127 -72 -231 -72zM326 170
c74 0 131 51 131 126c0 73 -57 124 -131 124s-130 -51 -130 -126c0 -74 56 -124 130 -124z" />
    <glyph glyph-name="h" unicode="h" horiz-adv-x="623" 
d="M68 0v730h152v-270c35 45 80 86 157 86c115 0 182 -76 182 -199v-347h-152v299c0 72 -34 109 -92 109s-95 -37 -95 -109v-299h-152z" />
    <glyph glyph-name="i" unicode="i" horiz-adv-x="302" 
d="M71 595v135h160v-135h-160zM75 0v536h152v-536h-152z" />
    <glyph glyph-name="j" unicode="j" horiz-adv-x="302" 
d="M71 595v135h160v-135h-160zM55 -163c-28 0 -45 2 -66 6v119c12 -2 21 -3 32 -3c32 0 54 17 54 62v515h152v-527c0 -118 -60 -172 -172 -172z" />
    <glyph glyph-name="k" unicode="k" horiz-adv-x="592" 
d="M68 0v730h152v-389l178 195h182l-204 -211l211 -325h-174l-140 219l-53 -56v-163h-152z" />
    <glyph glyph-name="l" unicode="l" horiz-adv-x="302" 
d="M75 0v730h152v-730h-152z" />
    <glyph glyph-name="m" unicode="m" horiz-adv-x="950" 
d="M68 0v536h152v-76c35 45 81 86 158 86c70 0 123 -31 151 -85c47 55 103 85 176 85c113 0 181 -68 181 -197v-349h-152v299c0 72 -32 109 -89 109s-92 -37 -92 -109v-299h-152v299c0 72 -32 109 -89 109s-92 -37 -92 -109v-299h-152z" />
    <glyph glyph-name="n" unicode="n" horiz-adv-x="623" 
d="M68 0v536h152v-76c35 45 80 86 157 86c115 0 182 -76 182 -199v-347h-152v299c0 72 -34 109 -92 109s-95 -37 -95 -109v-299h-152z" />
    <glyph glyph-name="o" unicode="o" horiz-adv-x="664" 
d="M331 -12c-166 0 -289 123 -289 279c0 154 124 279 291 279c166 0 289 -123 289 -279c0 -154 -124 -279 -291 -279zM333 119c87 0 139 67 139 148c0 79 -57 148 -141 148c-87 0 -139 -67 -139 -148c0 -79 57 -148 141 -148z" />
    <glyph glyph-name="p" unicode="p" horiz-adv-x="675" 
d="M68 -160v696h152v-77c37 50 88 87 167 87c125 0 244 -98 244 -279c0 -179 -117 -277 -244 -277c-81 0 -131 37 -167 80v-230h-152zM348 119c71 0 131 58 131 150c0 89 -60 148 -131 148s-130 -59 -130 -150c0 -89 59 -148 130 -148z" />
    <glyph glyph-name="q" unicode="q" horiz-adv-x="675" 
d="M455 -160v237c-37 -50 -88 -87 -167 -87c-125 0 -244 98 -244 279c0 179 117 277 244 277c81 0 131 -37 167 -80v70h152v-696h-152zM327 119c71 0 130 59 130 150c0 89 -59 148 -130 148s-131 -58 -131 -150c0 -89 60 -148 131 -148z" />
    <glyph glyph-name="r" unicode="r" horiz-adv-x="418" 
d="M68 0v536h152v-108c31 74 81 122 171 118v-159h-8c-101 0 -163 -61 -163 -189v-198h-152z" />
    <glyph glyph-name="s" unicode="s" horiz-adv-x="502" 
d="M256 -10c-75 0 -159 25 -230 81l65 100c58 -42 119 -64 169 -64c44 0 64 16 64 42c0 33 -52 44 -111 62c-75 22 -160 57 -160 163c0 109 88 170 196 170c68 0 142 -23 200 -62l-58 -105c-53 31 -106 50 -145 50c-37 0 -56 -16 -56 -39c0 -30 51 -44 109 -64
c75 -25 162 -61 162 -161c0 -119 -89 -173 -205 -173z" />
    <glyph glyph-name="t" unicode="t" horiz-adv-x="415" 
d="M249 -9c-93 0 -156 37 -156 161v254h-64v130h64v137h152v-137h126v-130h-126v-229c0 -35 15 -52 49 -52c28 0 53 7 75 19v-122c-32 -19 -69 -31 -120 -31z" />
    <glyph glyph-name="u" unicode="u" horiz-adv-x="623" 
d="M246 -10c-115 0 -182 76 -182 199v347h152v-299c0 -72 34 -109 92 -109s95 37 95 109v299h152v-536h-152v76c-35 -45 -80 -86 -157 -86z" />
    <glyph glyph-name="v" unicode="v" horiz-adv-x="600" 
d="M231 -4l-211 540h161l120 -359l121 359h158l-211 -540h-138z" />
    <glyph glyph-name="w" unicode="w" horiz-adv-x="861" 
d="M189 -4l-165 540h154l86 -325l101 327h131l102 -328l88 326h151l-167 -540h-137l-103 329l-105 -329h-136z" />
    <glyph glyph-name="x" unicode="x" horiz-adv-x="584" 
d="M23 0l188 272l-181 264h163l100 -156l101 156h159l-181 -261l189 -275h-163l-108 167l-108 -167h-159z" />
    <glyph glyph-name="y" unicode="y" horiz-adv-x="600" 
d="M196 -163c-55 0 -96 14 -135 37l51 110c20 -12 45 -21 65 -21c26 0 40 8 53 35l-210 538h161l122 -365l117 365h158l-206 -549c-41 -109 -85 -150 -176 -150z" />
    <glyph glyph-name="z" unicode="z" horiz-adv-x="563" 
d="M50 0v107l277 306h-268v123h457v-107l-278 -306h278v-123h-466z" />
    <glyph glyph-name="braceleft" unicode="{" horiz-adv-x="490" 
d="M416 -141c-183 32 -234 96 -234 198c0 15 3 52 3 69c0 78 -32 103 -110 103h-26v116h26c78 0 110 25 110 103c0 17 -3 54 -3 69c0 102 51 166 234 198l27 -101c-106 -30 -122 -58 -122 -119c0 -20 3 -53 3 -74c0 -73 -37 -112 -104 -134c67 -22 104 -61 104 -134
c0 -21 -3 -54 -3 -74c0 -61 16 -89 122 -119z" />
    <glyph glyph-name="bar" unicode="|" horiz-adv-x="350" 
d="M115 -128v926h120v-926h-120z" />
    <glyph glyph-name="braceright" unicode="}" horiz-adv-x="490" 
d="M74 -141l-27 101c106 30 122 58 122 119c0 20 -3 53 -3 74c0 73 37 112 104 134c-67 22 -104 61 -104 134c0 21 3 54 3 74c0 61 -16 89 -122 119l27 101c183 -32 234 -96 234 -198c0 -15 -3 -52 -3 -69c0 -78 32 -103 110 -103h26v-116h-26c-78 0 -110 -25 -110 -103
c0 -17 3 -54 3 -69c0 -102 -51 -166 -234 -198z" />
    <glyph glyph-name="asciitilde" unicode="~" horiz-adv-x="510" 
d="M130 224l-81 25c23 84 54 138 124 138c62 0 114 -39 150 -39c31 0 43 17 57 49l81 -25c-23 -84 -54 -138 -124 -138c-62 0 -114 39 -150 39c-31 0 -43 -17 -57 -49z" />
    <glyph glyph-name="uni00A0" horiz-adv-x="300" 
 />
    <glyph glyph-name="nbspace" unicode="&#xa0;" horiz-adv-x="300" 
 />
    <glyph glyph-name="exclamdown" unicode="&#xa1;" horiz-adv-x="324" 
d="M81 540v160h162v-160h-162zM73 0v20l47 442h84l47 -442v-20h-178z" />
    <glyph glyph-name="cent" unicode="&#xa2;" horiz-adv-x="581" 
d="M208 -6l19 98c-106 39 -180 141 -180 263c0 154 118 279 280 279h6l14 72h104l-17 -88c44 -15 78 -41 108 -74l-90 -97c-16 16 -31 29 -49 38l-55 -277c42 5 76 26 108 56l86 -87c-52 -58 -117 -99 -214 -101l-16 -82h-104zM258 226l54 277c-69 -6 -118 -69 -118 -148
c0 -56 23 -104 64 -129z" />
    <glyph glyph-name="sterling" unicode="&#xa3;" horiz-adv-x="644" 
d="M60 0v101l76 25v141h-76v127h76v81c0 72 21 132 60 171c41 41 100 64 177 64c113 0 177 -50 225 -115l-117 -94c-34 44 -63 66 -106 66c-24 0 -42 -7 -57 -22c-16 -16 -26 -42 -26 -74v-77h228v-127h-228v-134h304v-133h-536z" />
    <glyph glyph-name="currency" unicode="&#xa4;" horiz-adv-x="720" 
d="M437 -12c-153 0 -257 92 -296 229h-92v101h75c-1 10 -1 20 -1 32s0 24 1 36h-75v101h94c41 132 144 225 291 225c124 0 193 -54 246 -128l-116 -88c-38 51 -75 79 -133 79c-59 0 -102 -32 -128 -88h185v-101h-208c-1 -11 -1 -22 -1 -36c0 -11 0 -22 1 -32h208v-101h-186
c26 -59 71 -92 135 -92c58 0 91 28 135 82l110 -81c-59 -83 -130 -138 -245 -138z" />
    <glyph glyph-name="yen" unicode="&#xa5;" horiz-adv-x="686" 
d="M269 0v92h-184v108h184v62h-184v108h143l-214 330h177l154 -259l155 259h172l-216 -330h145v-108h-184v-62h184v-108h-184v-92h-148z" />
    <glyph glyph-name="brokenbar" unicode="&#xa6;" horiz-adv-x="222" 
d="M182 411h-142v250h142v-250zM182 -89h-142v250h142v-250z" />
    <glyph glyph-name="section" unicode="&#xa7;" horiz-adv-x="632" 
d="M325 -10c-102 0 -177 34 -233 95l82 82c46 -42 92 -66 147 -66c45 0 66 15 66 38s-22 36 -110 55c-158 35 -222 74 -222 151c0 67 41 99 89 117c-29 23 -42 57 -42 93c0 95 77 155 205 155c102 0 177 -34 233 -95l-82 -82c-46 42 -92 66 -147 66c-42 0 -66 -14 -66 -38
c0 -21 15 -34 110 -55c158 -35 222 -72 222 -151c0 -66 -41 -99 -89 -117c27 -21 42 -56 42 -93c0 -94 -75 -155 -205 -155zM389 289c31 0 55 16 55 46c0 26 -32 41 -101 58c-52 13 -79 18 -100 18c-31 0 -55 -16 -55 -46c0 -26 32 -41 101 -58c52 -13 79 -18 100 -18z" />
    <glyph glyph-name="dieresis" unicode="&#xa8;" 
d="M284 595v135h146v-135h-146zM70 595v135h146v-135h-146z" />
    <glyph glyph-name="copyright" unicode="&#xa9;" horiz-adv-x="830" 
d="M414 -12c-203 0 -361 163 -361 362c0 197 160 362 363 362s361 -163 361 -362c0 -197 -160 -362 -363 -362zM414 28c183 0 321 145 321 324c0 177 -137 320 -319 320c-183 0 -321 -145 -321 -324c0 -177 137 -320 319 -320zM419 156c-113 0 -197 87 -197 199
c0 109 82 199 200 199c73 0 116 -24 152 -59l-55 -64c-29 26 -60 43 -97 43c-64 0 -110 -53 -110 -120c0 -64 45 -118 110 -118c43 0 69 18 99 45l56 -56c-40 -43 -84 -69 -158 -69z" />
    <glyph glyph-name="ordfeminine" unicode="&#xaa;" horiz-adv-x="390" 
d="M153 399c-56 0 -101 32 -101 92c0 64 49 94 119 94c29 0 51 -5 72 -12v5c0 34 -22 54 -64 54c-31 0 -54 -6 -81 -16l-21 63c33 15 64 24 114 24c46 0 79 -12 100 -33c22 -22 32 -55 32 -94v-171h-81v32c-20 -23 -48 -38 -89 -38zM49 277v66h278v-66h-278zM178 457
c39 0 66 22 66 52v15c-15 6 -33 11 -54 11c-35 0 -57 -14 -57 -42c0 -22 18 -36 45 -36z" />
    <glyph glyph-name="guillemotleft" unicode="&#xab;" horiz-adv-x="645" 
d="M481 40l-168 224v8l168 224l116 -56l-130 -171l130 -171zM209 40l-168 224v8l168 224l116 -56l-130 -171l130 -171z" />
    <glyph glyph-name="logicalnot" unicode="&#xac;" horiz-adv-x="640" 
d="M418 412h-340v136h482v-306h-142v170z" />
    <glyph glyph-name="uni00AD" unicode="&#xad;" horiz-adv-x="408" 
d="M50 237v146h308v-146h-308z" />
    <glyph glyph-name="registered" unicode="&#xae;" horiz-adv-x="830" 
d="M414 -12c-203 0 -361 163 -361 362c0 197 160 362 363 362s361 -163 361 -362c0 -197 -160 -362 -363 -362zM414 28c183 0 321 145 321 324c0 177 -137 320 -319 320c-183 0 -321 -145 -321 -324c0 -177 137 -320 319 -320zM266 168v385h171c52 0 92 -15 119 -42
c21 -21 32 -50 32 -86c0 -62 -34 -101 -83 -119l94 -138h-99l-84 124h-65v-124h-85zM351 365h85c43 0 66 23 66 57c0 37 -26 56 -68 56h-83v-113z" />
    <glyph glyph-name="macron" unicode="&#xaf;" 
d="M70 600v105h360v-105h-360z" />
    <glyph glyph-name="degree" unicode="&#xb0;" horiz-adv-x="480" 
d="M240 368c-91 0 -173 77 -173 170c0 91 82 168 173 168s173 -77 173 -170c0 -91 -82 -168 -173 -168zM240 443c53 0 92 43 92 95c0 50 -39 93 -92 93s-92 -43 -92 -95c0 -50 39 -93 92 -93z" />
    <glyph glyph-name="plusminus" unicode="&#xb1;" horiz-adv-x="640" 
d="M78 17v129h484v-129h-484zM250 207v141h-181v136h181v141h141v-141h178v-136h-178v-141h-141z" />
    <glyph glyph-name="twosuperior" unicode="&#xb2;" 
d="M0 0v700h500v-700h-500zM81 49h339l-170 255zM49 96l171 254l-171 254v-508zM450 96v508l-171 -254zM250 395l170 255h-339z" />
    <glyph glyph-name="threesuperior" unicode="&#xb3;" 
d="M0 0v700h500v-700h-500zM81 49h339l-170 255zM49 96l171 254l-171 254v-508zM450 96v508l-171 -254zM250 395l170 255h-339z" />
    <glyph glyph-name="acute" unicode="&#xb4;" 
d="M146 595l113 177l131 -57l-128 -120h-116z" />
    <glyph glyph-name="mu" unicode="&#xb5;" horiz-adv-x="628" 
d="M220 10v-170h-152v696h152v-302c0 -58 37 -110 91 -110c60 0 96 43 96 115v297h153v-536h-153v79c-28 -45 -75 -83 -137 -83c-27 0 -46 9 -50 14z" />
    <glyph glyph-name="paragraph" unicode="&#xb6;" horiz-adv-x="590" 
d="M352 0v230h-24c-168 0 -293 78 -293 235c0 147 112 235 276 235h195v-700h-154z" />
    <glyph glyph-name="periodcentered" unicode="&#xb7;" horiz-adv-x="286" 
d="M62 230v160h162v-160h-162z" />
    <glyph glyph-name="cedilla" unicode="&#xb8;" 
d="M245 -173l-127 53l89 130h112z" />
    <glyph glyph-name="onesuperior" unicode="&#xb9;" 
d="M0 0v700h500v-700h-500zM81 49h339l-170 255zM49 96l171 254l-171 254v-508zM450 96v508l-171 -254zM250 395l170 255h-339z" />
    <glyph glyph-name="ordmasculine" unicode="&#xba;" horiz-adv-x="390" 
d="M194 398c-88 0 -153 67 -153 154c0 85 67 153 155 153s153 -67 153 -154c0 -85 -67 -153 -155 -153zM51 277v66h288v-66h-288zM196 470c44 0 71 37 71 82c0 43 -29 81 -73 81s-71 -37 -71 -82c0 -43 29 -81 73 -81z" />
    <glyph glyph-name="guillemotright" unicode="&#xbb;" horiz-adv-x="645" 
d="M436 40l-116 56l130 171l-130 171l116 58l168 -224v-8zM164 40l-116 56l130 171l-130 171l116 58l168 -224v-8z" />
    <glyph glyph-name="onequarter" unicode="&#xbc;" 
d="M0 0v700h500v-700h-500zM81 49h339l-170 255zM49 96l171 254l-171 254v-508zM450 96v508l-171 -254zM250 395l170 255h-339z" />
    <glyph glyph-name="onehalf" unicode="&#xbd;" 
d="M0 0v700h500v-700h-500zM81 49h339l-170 255zM49 96l171 254l-171 254v-508zM450 96v508l-171 -254zM250 395l170 255h-339z" />
    <glyph glyph-name="threequarters" unicode="&#xbe;" 
d="M0 0v700h500v-700h-500zM81 49h339l-170 255zM49 96l171 254l-171 254v-508zM450 96v508l-171 -254zM250 395l170 255h-339z" />
    <glyph glyph-name="questiondown" unicode="&#xbf;" horiz-adv-x="544" 
d="M218 540v160h162v-160h-162zM279 -9c-144 0 -242 74 -242 207v2c0 127 88 179 197 201l11 61h102l23 -162l-5 -5c-126 -5 -175 -38 -175 -91v-2c0 -45 34 -71 92 -71c56 0 104 23 150 69l92 -101c-58 -64 -136 -108 -245 -108z" />
    <glyph glyph-name="Agrave" unicode="&#xc0;" horiz-adv-x="790" 
d="M24 0l300 705h142l300 -705h-161l-64 157h-296l-64 -157h-157zM300 293h186l-93 227zM343 755l-128 120l131 57l113 -177h-116z" />
    <glyph glyph-name="Aacute" unicode="&#xc1;" horiz-adv-x="790" 
d="M24 0l300 705h142l300 -705h-161l-64 157h-296l-64 -157h-157zM300 293h186l-93 227zM331 755l113 177l131 -57l-128 -120h-116z" />
    <glyph glyph-name="Acircumflex" unicode="&#xc2;" horiz-adv-x="790" 
d="M24 0l300 705h142l300 -705h-161l-64 157h-296l-64 -157h-157zM300 293h186l-93 227zM200 755l123 157h144l123 -157h-117l-79 66l-79 -66h-115z" />
    <glyph glyph-name="Atilde" unicode="&#xc3;" horiz-adv-x="790" 
d="M24 0l300 705h142l300 -705h-161l-64 157h-296l-64 -157h-157zM300 293h186l-93 227zM270 745l-81 25c23 84 54 138 124 138c62 0 114 -39 150 -39c31 0 43 17 57 49l81 -25c-23 -84 -54 -138 -124 -138c-62 0 -114 39 -150 39c-31 0 -43 -17 -57 -49z" />
    <glyph glyph-name="Adieresis" unicode="&#xc4;" horiz-adv-x="790" 
d="M24 0l300 705h142l300 -705h-161l-64 157h-296l-64 -157h-157zM300 293h186l-93 227zM429 755v135h146v-135h-146zM215 755v135h146v-135h-146z" />
    <glyph glyph-name="Aring" unicode="&#xc5;" horiz-adv-x="790" 
d="M24 0l292 687c-25 22 -42 53 -42 87v2c0 63 57 116 121 116s121 -53 121 -116v-2c0 -34 -17 -65 -42 -87l292 -687h-161l-64 157h-296l-64 -157h-157zM395 713c34 0 62 28 62 61v2c0 33 -28 61 -62 61s-62 -28 -62 -61v-2c0 -33 28 -61 62 -61zM300 293h186l-93 227z" />
    <glyph glyph-name="AE" unicode="&#xc6;" horiz-adv-x="1045" 
d="M9 0l377 700h601v-137h-350v-142h305v-137h-305v-147h355v-137h-508v157h-235l-83 -157h-157zM321 293h163v274h-18z" />
    <glyph glyph-name="Ccedilla" unicode="&#xc7;" horiz-adv-x="738" 
d="M373 -173l-127 53l80 118c-161 37 -273 178 -273 350v2c0 199 150 362 365 362c132 0 211 -44 276 -108l-98 -113c-54 49 -109 79 -179 79c-118 0 -203 -98 -203 -218v-2c0 -120 83 -220 203 -220c80 0 129 32 184 82l98 -99c-67 -72 -141 -118 -261 -124z" />
    <glyph glyph-name="Egrave" unicode="&#xc8;" horiz-adv-x="670" 
d="M84 0v700h528v-137h-375v-142h330v-137h-330v-147h380v-137h-533zM317 755l-128 120l131 57l113 -177h-116z" />
    <glyph glyph-name="Eacute" unicode="&#xc9;" horiz-adv-x="670" 
d="M84 0v700h528v-137h-375v-142h330v-137h-330v-147h380v-137h-533zM264 755l113 177l131 -57l-128 -120h-116z" />
    <glyph glyph-name="Ecircumflex" unicode="&#xca;" horiz-adv-x="670" 
d="M84 0v700h528v-137h-375v-142h330v-137h-330v-147h380v-137h-533zM151 755l123 157h144l123 -157h-117l-79 66l-79 -66h-115z" />
    <glyph glyph-name="Edieresis" unicode="&#xcb;" horiz-adv-x="670" 
d="M84 0v700h528v-137h-375v-142h330v-137h-330v-147h380v-137h-533zM380 755v135h146v-135h-146zM166 755v135h146v-135h-146z" />
    <glyph glyph-name="Igrave" unicode="&#xcc;" horiz-adv-x="336" 
d="M91 0v700h154v-700h-154zM116 755l-128 120l131 57l113 -177h-116z" />
    <glyph glyph-name="Iacute" unicode="&#xcd;" horiz-adv-x="336" 
d="M91 0v700h154v-700h-154zM104 755l113 177l131 -57l-128 -120h-116z" />
    <glyph glyph-name="Icircumflex" unicode="&#xce;" horiz-adv-x="336" 
d="M91 0v700h154v-700h-154zM-27 755l123 157h144l123 -157h-117l-79 66l-79 -66h-115z" />
    <glyph glyph-name="Idieresis" unicode="&#xcf;" horiz-adv-x="336" 
d="M91 0v700h154v-700h-154zM202 755v135h146v-135h-146zM-12 755v135h146v-135h-146z" />
    <glyph glyph-name="Eth" unicode="&#xd0;" horiz-adv-x="812" 
d="M114 0v284h-75v136h75v280h273c220 0 372 -151 372 -350c0 -197 -152 -350 -372 -350h-273zM266 139h121c126 0 211 85 211 211c0 124 -85 211 -211 211h-121v-141h152v-136h-152v-145z" />
    <glyph glyph-name="Ntilde" unicode="&#xd1;" horiz-adv-x="790" 
d="M84 0v700h142l328 -431v431h152v-700h-131l-339 445v-445h-152zM270 745l-81 25c23 84 54 138 124 138c62 0 114 -39 150 -39c31 0 43 17 57 49l81 -25c-23 -84 -54 -138 -124 -138c-62 0 -114 39 -150 39c-31 0 -43 -17 -57 -49z" />
    <glyph glyph-name="Ograve" unicode="&#xd2;" horiz-adv-x="850" 
d="M424 -12c-216 0 -371 161 -371 362c0 199 157 362 373 362s371 -161 371 -362c0 -199 -157 -362 -373 -362zM426 130c124 0 210 98 210 220c0 120 -88 220 -212 220s-210 -98 -210 -220c0 -120 88 -220 212 -220zM363 755l-128 120l131 57l113 -177h-116z" />
    <glyph glyph-name="Oacute" unicode="&#xd3;" horiz-adv-x="850" 
d="M424 -12c-216 0 -371 161 -371 362c0 199 157 362 373 362s371 -161 371 -362c0 -199 -157 -362 -373 -362zM426 130c124 0 210 98 210 220c0 120 -88 220 -212 220s-210 -98 -210 -220c0 -120 88 -220 212 -220zM371 755l113 177l131 -57l-128 -120h-116z" />
    <glyph glyph-name="Ocircumflex" unicode="&#xd4;" horiz-adv-x="850" 
d="M424 -12c-216 0 -371 161 -371 362c0 199 157 362 373 362s371 -161 371 -362c0 -199 -157 -362 -373 -362zM426 130c124 0 210 98 210 220c0 120 -88 220 -212 220s-210 -98 -210 -220c0 -120 88 -220 212 -220zM230 755l123 157h144l123 -157h-117l-79 66l-79 -66h-115
z" />
    <glyph glyph-name="Otilde" unicode="&#xd5;" horiz-adv-x="850" 
d="M424 -12c-216 0 -371 161 -371 362c0 199 157 362 373 362s371 -161 371 -362c0 -199 -157 -362 -373 -362zM426 130c124 0 210 98 210 220c0 120 -88 220 -212 220s-210 -98 -210 -220c0 -120 88 -220 212 -220zM300 745l-81 25c23 84 54 138 124 138
c62 0 114 -39 150 -39c31 0 43 17 57 49l81 -25c-23 -84 -54 -138 -124 -138c-62 0 -114 39 -150 39c-31 0 -43 -17 -57 -49z" />
    <glyph glyph-name="Odieresis" unicode="&#xd6;" horiz-adv-x="850" 
d="M424 -12c-216 0 -371 161 -371 362c0 199 157 362 373 362s371 -161 371 -362c0 -199 -157 -362 -373 -362zM426 130c124 0 210 98 210 220c0 120 -88 220 -212 220s-210 -98 -210 -220c0 -120 88 -220 212 -220zM459 755v135h146v-135h-146zM245 755v135h146v-135h-146z
" />
    <glyph glyph-name="multiply" unicode="&#xd7;" horiz-adv-x="640" 
d="M582 187l-99 -98l-164 163l-163 -163l-99 98l164 164l-164 164l99 98l163 -163l164 163l99 -98l-164 -164z" />
    <glyph glyph-name="Oslash" unicode="&#xd8;" horiz-adv-x="850" 
d="M424 -12c-72 0 -138 18 -193 50l-39 -43h-147l98 113c-57 64 -90 148 -90 242c0 199 157 362 373 362c72 0 138 -18 193 -50l39 43h147l-98 -114c57 -63 90 -147 90 -241c0 -199 -157 -362 -373 -362zM245 227l278 322c-29 15 -62 24 -99 24c-125 0 -213 -100 -213 -223
c0 -45 12 -87 34 -123zM426 127c125 0 213 100 213 223c0 45 -12 87 -34 123l-278 -322c29 -15 62 -24 99 -24z" />
    <glyph glyph-name="Ugrave" unicode="&#xd9;" horiz-adv-x="756" 
d="M376 -11c-188 0 -303 105 -303 311v400h154v-396c0 -114 57 -173 151 -173s151 57 151 168v401h154v-395c0 -212 -119 -316 -307 -316zM331 750l-128 120l131 57l113 -177h-116z" />
    <glyph glyph-name="Uacute" unicode="&#xda;" horiz-adv-x="756" 
d="M376 -11c-188 0 -303 105 -303 311v400h154v-396c0 -114 57 -173 151 -173s151 57 151 168v401h154v-395c0 -212 -119 -316 -307 -316zM309 750l113 177l131 -57l-128 -120h-116z" />
    <glyph glyph-name="Ucircumflex" unicode="&#xdb;" horiz-adv-x="756" 
d="M376 -11c-188 0 -303 105 -303 311v400h154v-396c0 -114 57 -173 151 -173s151 57 151 168v401h154v-395c0 -212 -119 -316 -307 -316zM183 755l123 157h144l123 -157h-117l-79 66l-79 -66h-115z" />
    <glyph glyph-name="Udieresis" unicode="&#xdc;" horiz-adv-x="756" 
d="M376 -11c-188 0 -303 105 -303 311v400h154v-396c0 -114 57 -173 151 -173s151 57 151 168v401h154v-395c0 -212 -119 -316 -307 -316zM412 755v135h146v-135h-146zM198 755v135h146v-135h-146z" />
    <glyph glyph-name="Yacute" unicode="&#xdd;" horiz-adv-x="716" 
d="M281 0v276l-269 424h180l167 -281l170 281h175l-269 -421v-279h-154zM299 750l113 177l131 -57l-128 -120h-116z" />
    <glyph glyph-name="Thorn" unicode="&#xde;" horiz-adv-x="673" 
d="M84 0v700h154v-102h132c167 0 268 -99 268 -242v-2c0 -162 -126 -246 -283 -246h-117v-108h-154zM238 245h122c77 0 122 46 122 106v2c0 69 -48 106 -125 106h-119v-214z" />
    <glyph glyph-name="germandbls" unicode="&#xdf;" horiz-adv-x="620" 
d="M299 -2v114c82 4 128 35 128 94c0 54 -55 87 -128 97v100c49 31 88 69 88 126c0 50 -31 80 -80 80c-52 0 -88 -39 -88 -100v-509h-151v503c0 148 96 234 246 234c143 0 223 -85 223 -196c0 -86 -41 -129 -91 -163c67 -29 131 -81 131 -179c0 -127 -100 -201 -257 -201
h-21z" />
    <glyph glyph-name="agrave" unicode="&#xe0;" horiz-adv-x="592" 
d="M220 -10c-101 0 -184 58 -184 166c0 117 89 171 216 171c54 0 93 -9 131 -22v9c0 63 -39 98 -115 98c-58 0 -99 -11 -148 -29l-38 116c59 26 117 43 208 43c83 0 143 -22 181 -60c40 -40 58 -99 58 -171v-311h-147v58c-37 -41 -88 -68 -162 -68zM266 95
c71 0 119 39 119 94v27c-26 12 -60 20 -97 20c-65 0 -105 -26 -105 -76c0 -41 34 -65 83 -65zM254 595l-128 120l131 57l113 -177h-116z" />
    <glyph glyph-name="aacute" unicode="&#xe1;" horiz-adv-x="592" 
d="M220 -10c-101 0 -184 58 -184 166c0 117 89 171 216 171c54 0 93 -9 131 -22v9c0 63 -39 98 -115 98c-58 0 -99 -11 -148 -29l-38 116c59 26 117 43 208 43c83 0 143 -22 181 -60c40 -40 58 -99 58 -171v-311h-147v58c-37 -41 -88 -68 -162 -68zM266 95
c71 0 119 39 119 94v27c-26 12 -60 20 -97 20c-65 0 -105 -26 -105 -76c0 -41 34 -65 83 -65zM227 595l113 177l131 -57l-128 -120h-116z" />
    <glyph glyph-name="acircumflex" unicode="&#xe2;" horiz-adv-x="592" 
d="M220 -10c-101 0 -184 58 -184 166c0 117 89 171 216 171c54 0 93 -9 131 -22v9c0 63 -39 98 -115 98c-58 0 -99 -11 -148 -29l-38 116c59 26 117 43 208 43c83 0 143 -22 181 -60c40 -40 58 -99 58 -171v-311h-147v58c-37 -41 -88 -68 -162 -68zM266 95
c71 0 119 39 119 94v27c-26 12 -60 20 -97 20c-65 0 -105 -26 -105 -76c0 -41 34 -65 83 -65zM99 595l123 157h144l123 -157h-117l-79 66l-79 -66h-115z" />
    <glyph glyph-name="atilde" unicode="&#xe3;" horiz-adv-x="592" 
d="M220 -10c-101 0 -184 58 -184 166c0 117 89 171 216 171c54 0 93 -9 131 -22v9c0 63 -39 98 -115 98c-58 0 -99 -11 -148 -29l-38 116c59 26 117 43 208 43c83 0 143 -22 181 -60c40 -40 58 -99 58 -171v-311h-147v58c-37 -41 -88 -68 -162 -68zM266 95
c71 0 119 39 119 94v27c-26 12 -60 20 -97 20c-65 0 -105 -26 -105 -76c0 -41 34 -65 83 -65zM171 585l-81 25c23 84 54 138 124 138c62 0 114 -39 150 -39c31 0 43 17 57 49l81 -25c-23 -84 -54 -138 -124 -138c-62 0 -114 39 -150 39c-31 0 -43 -17 -57 -49z" />
    <glyph glyph-name="adieresis" unicode="&#xe4;" horiz-adv-x="592" 
d="M220 -10c-101 0 -184 58 -184 166c0 117 89 171 216 171c54 0 93 -9 131 -22v9c0 63 -39 98 -115 98c-58 0 -99 -11 -148 -29l-38 116c59 26 117 43 208 43c83 0 143 -22 181 -60c40 -40 58 -99 58 -171v-311h-147v58c-37 -41 -88 -68 -162 -68zM266 95
c71 0 119 39 119 94v27c-26 12 -60 20 -97 20c-65 0 -105 -26 -105 -76c0 -41 34 -65 83 -65zM328 595v135h146v-135h-146zM114 595v135h146v-135h-146z" />
    <glyph glyph-name="aring" unicode="&#xe5;" horiz-adv-x="592" 
d="M220 -10c-101 0 -184 58 -184 166c0 117 89 171 216 171c54 0 93 -9 131 -22v9c0 63 -39 98 -115 98c-58 0 -99 -11 -148 -29l-38 116c59 26 117 43 208 43c83 0 143 -22 181 -60c40 -40 58 -99 58 -171v-311h-147v58c-37 -41 -88 -68 -162 -68zM266 95
c71 0 119 39 119 94v27c-26 12 -60 20 -97 20c-65 0 -105 -26 -105 -76c0 -41 34 -65 83 -65zM294 593c-64 0 -121 53 -121 116v2c0 63 57 116 121 116s121 -53 121 -116v-2c0 -63 -57 -116 -121 -116zM294 648c34 0 62 28 62 61v2c0 33 -28 61 -62 61s-62 -28 -62 -61v-2
c0 -33 28 -61 62 -61z" />
    <glyph glyph-name="ae" unicode="&#xe6;" horiz-adv-x="951" 
d="M238 -10c-116 0 -202 60 -202 166c0 117 89 171 216 171c54 0 93 -9 131 -22v9c0 63 -39 98 -115 98c-58 0 -99 -11 -148 -29l-38 116c59 26 117 43 208 43c88 0 146 -24 182 -68c44 45 104 72 177 72c174 0 257 -139 257 -291c0 -12 -1 -26 -2 -40h-373
c15 -69 63 -105 131 -105c51 0 88 16 130 55l87 -77c-50 -62 -122 -100 -219 -100c-82 0 -154 30 -204 81c-61 -45 -133 -79 -218 -79zM529 310h229c-9 68 -49 114 -113 114c-63 0 -104 -45 -116 -114zM266 97c45 0 92 16 137 51c-9 21 -16 44 -19 69c-26 11 -60 19 -96 19
c-65 0 -105 -26 -105 -76c0 -39 37 -63 83 -63z" />
    <glyph glyph-name="ccedilla" unicode="&#xe7;" horiz-adv-x="571" 
d="M281 -173l-127 53l82 120c-116 35 -194 140 -194 265v2c0 153 117 279 281 279c101 0 164 -34 214 -90l-93 -100c-34 36 -68 59 -122 59c-76 0 -130 -67 -130 -146v-2c0 -82 53 -148 136 -148c51 0 86 22 123 57l89 -90c-48 -52 -102 -91 -194 -97z" />
    <glyph glyph-name="egrave" unicode="&#xe8;" horiz-adv-x="613" 
d="M322 -12c-161 0 -280 113 -280 279c0 153 109 279 265 279c179 0 261 -139 261 -291c0 -12 -1 -26 -2 -40h-373c15 -69 63 -105 131 -105c51 0 88 16 130 55l87 -77c-50 -62 -122 -100 -219 -100zM191 310h229c-9 68 -49 114 -113 114c-63 0 -104 -45 -116 -114zM250 595
l-128 120l131 57l113 -177h-116z" />
    <glyph glyph-name="eacute" unicode="&#xe9;" horiz-adv-x="613" 
d="M322 -12c-161 0 -280 113 -280 279c0 153 109 279 265 279c179 0 261 -139 261 -291c0 -12 -1 -26 -2 -40h-373c15 -69 63 -105 131 -105c51 0 88 16 130 55l87 -77c-50 -62 -122 -100 -219 -100zM191 310h229c-9 68 -49 114 -113 114c-63 0 -104 -45 -116 -114zM246 595
l113 177l131 -57l-128 -120h-116z" />
    <glyph glyph-name="ecircumflex" unicode="&#xea;" horiz-adv-x="613" 
d="M322 -12c-161 0 -280 113 -280 279c0 153 109 279 265 279c179 0 261 -139 261 -291c0 -12 -1 -26 -2 -40h-373c15 -69 63 -105 131 -105c51 0 88 16 130 55l87 -77c-50 -62 -122 -100 -219 -100zM191 310h229c-9 68 -49 114 -113 114c-63 0 -104 -45 -116 -114zM111 595
l123 157h144l123 -157h-117l-79 66l-79 -66h-115z" />
    <glyph glyph-name="edieresis" unicode="&#xeb;" horiz-adv-x="613" 
d="M322 -12c-161 0 -280 113 -280 279c0 153 109 279 265 279c179 0 261 -139 261 -291c0 -12 -1 -26 -2 -40h-373c15 -69 63 -105 131 -105c51 0 88 16 130 55l87 -77c-50 -62 -122 -100 -219 -100zM191 310h229c-9 68 -49 114 -113 114c-63 0 -104 -45 -116 -114zM340 595
v135h146v-135h-146zM126 595v135h146v-135h-146z" />
    <glyph glyph-name="igrave" unicode="&#xec;" horiz-adv-x="302" 
d="M75 0v536h152v-536h-152zM101 595l-128 120l131 57l113 -177h-116z" />
    <glyph glyph-name="iacute" unicode="&#xed;" horiz-adv-x="302" 
d="M75 0v536h152v-536h-152zM85 595l113 177l131 -57l-128 -120h-116z" />
    <glyph glyph-name="icircumflex" unicode="&#xee;" horiz-adv-x="302" 
d="M75 0v536h152v-536h-152zM-44 595l123 157h144l123 -157h-117l-79 66l-79 -66h-115z" />
    <glyph glyph-name="idieresis" unicode="&#xef;" horiz-adv-x="302" 
d="M75 0v536h152v-536h-152zM185 595v135h146v-135h-146zM-29 595v135h146v-135h-146z" />
    <glyph glyph-name="eth" unicode="&#xf0;" horiz-adv-x="648" 
d="M319 -12c-160 0 -277 115 -277 264c0 139 95 234 229 234c46 0 80 -9 123 -32l-87 116l-114 -47l-56 75l115 46l-64 86h171l23 -33l100 41l55 -75l-102 -41l81 -115c63 -89 88 -158 88 -245c0 -148 -105 -274 -285 -274zM324 116c82 0 132 58 132 133
c0 71 -52 129 -133 129s-133 -55 -133 -131c0 -73 54 -131 134 -131z" />
    <glyph glyph-name="ntilde" unicode="&#xf1;" horiz-adv-x="623" 
d="M68 0v536h152v-76c35 45 80 86 157 86c115 0 182 -76 182 -199v-347h-152v299c0 72 -34 109 -92 109s-95 -37 -95 -109v-299h-152zM191 585l-81 25c23 84 54 138 124 138c62 0 114 -39 150 -39c31 0 43 17 57 49l81 -25c-23 -84 -54 -138 -124 -138
c-62 0 -114 39 -150 39c-31 0 -43 -17 -57 -49z" />
    <glyph glyph-name="ograve" unicode="&#xf2;" horiz-adv-x="664" 
d="M331 -12c-166 0 -289 123 -289 279c0 154 124 279 291 279c166 0 289 -123 289 -279c0 -154 -124 -279 -291 -279zM333 119c87 0 139 67 139 148c0 79 -57 148 -141 148c-87 0 -139 -67 -139 -148c0 -79 57 -148 141 -148zM274 595l-128 120l131 57l113 -177h-116z" />
    <glyph glyph-name="oacute" unicode="&#xf3;" horiz-adv-x="664" 
d="M331 -12c-166 0 -289 123 -289 279c0 154 124 279 291 279c166 0 289 -123 289 -279c0 -154 -124 -279 -291 -279zM333 119c87 0 139 67 139 148c0 79 -57 148 -141 148c-87 0 -139 -67 -139 -148c0 -79 57 -148 141 -148zM274 595l113 177l131 -57l-128 -120h-116z" />
    <glyph glyph-name="ocircumflex" unicode="&#xf4;" horiz-adv-x="664" 
d="M331 -12c-166 0 -289 123 -289 279c0 154 124 279 291 279c166 0 289 -123 289 -279c0 -154 -124 -279 -291 -279zM333 119c87 0 139 67 139 148c0 79 -57 148 -141 148c-87 0 -139 -67 -139 -148c0 -79 57 -148 141 -148zM137 595l123 157h144l123 -157h-117l-79 66
l-79 -66h-115z" />
    <glyph glyph-name="otilde" unicode="&#xf5;" horiz-adv-x="664" 
d="M331 -12c-166 0 -289 123 -289 279c0 154 124 279 291 279c166 0 289 -123 289 -279c0 -154 -124 -279 -291 -279zM333 119c87 0 139 67 139 148c0 79 -57 148 -141 148c-87 0 -139 -67 -139 -148c0 -79 57 -148 141 -148zM207 585l-81 25c23 84 54 138 124 138
c62 0 114 -39 150 -39c31 0 43 17 57 49l81 -25c-23 -84 -54 -138 -124 -138c-62 0 -114 39 -150 39c-31 0 -43 -17 -57 -49z" />
    <glyph glyph-name="odieresis" unicode="&#xf6;" horiz-adv-x="664" 
d="M331 -12c-166 0 -289 123 -289 279c0 154 124 279 291 279c166 0 289 -123 289 -279c0 -154 -124 -279 -291 -279zM333 119c87 0 139 67 139 148c0 79 -57 148 -141 148c-87 0 -139 -67 -139 -148c0 -79 57 -148 141 -148zM366 595v135h146v-135h-146zM152 595v135h146
v-135h-146z" />
    <glyph glyph-name="divide" unicode="&#xf7;" horiz-adv-x="640" 
d="M79 286v137h481v-137h-481zM242 500v151h149v-151h-149zM242 58v151h149v-151h-149z" />
    <glyph glyph-name="oslash" unicode="&#xf8;" horiz-adv-x="664" 
d="M331 -12c-53 0 -102 13 -144 35l-27 -28h-133l80 92c-41 48 -65 110 -65 180c0 154 124 279 291 279c53 0 102 -13 143 -35l28 30h133s-39 -45 -81 -93c42 -48 66 -110 66 -181c0 -154 -124 -279 -291 -279zM204 197l184 210c-17 8 -36 12 -57 12
c-90 0 -143 -69 -143 -152c0 -25 6 -49 16 -70zM333 115c90 0 143 69 143 152c0 25 -6 49 -16 70l-184 -211c17 -7 36 -11 57 -11z" />
    <glyph glyph-name="ugrave" unicode="&#xf9;" horiz-adv-x="623" 
d="M246 -10c-115 0 -182 76 -182 199v347h152v-299c0 -72 34 -109 92 -109s95 37 95 109v299h152v-536h-152v76c-35 -45 -80 -86 -157 -86zM269 595l-128 120l131 57l113 -177h-116z" />
    <glyph glyph-name="uacute" unicode="&#xfa;" horiz-adv-x="623" 
d="M246 -10c-115 0 -182 76 -182 199v347h152v-299c0 -72 34 -109 92 -109s95 37 95 109v299h152v-536h-152v76c-35 -45 -80 -86 -157 -86zM237 595l113 177l131 -57l-128 -120h-116z" />
    <glyph glyph-name="ucircumflex" unicode="&#xfb;" horiz-adv-x="623" 
d="M246 -10c-115 0 -182 76 -182 199v347h152v-299c0 -72 34 -109 92 -109s95 37 95 109v299h152v-536h-152v76c-35 -45 -80 -86 -157 -86zM116 595l123 157h144l123 -157h-117l-79 66l-79 -66h-115z" />
    <glyph glyph-name="udieresis" unicode="&#xfc;" horiz-adv-x="623" 
d="M246 -10c-115 0 -182 76 -182 199v347h152v-299c0 -72 34 -109 92 -109s95 37 95 109v299h152v-536h-152v76c-35 -45 -80 -86 -157 -86zM345 595v135h146v-135h-146zM131 595v135h146v-135h-146z" />
    <glyph glyph-name="yacute" unicode="&#xfd;" horiz-adv-x="600" 
d="M196 -163c-55 0 -96 14 -135 37l51 110c20 -12 45 -21 65 -21c26 0 40 8 53 35l-210 538h161l122 -365l117 365h158l-206 -549c-41 -109 -85 -150 -176 -150zM229 595l113 177l131 -57l-128 -120h-116z" />
    <glyph glyph-name="thorn" unicode="&#xfe;" horiz-adv-x="675" 
d="M68 -160v890h152v-271c37 50 88 87 167 87c125 0 244 -98 244 -277v-2c0 -179 -117 -277 -244 -277c-81 0 -131 37 -167 80v-230h-152zM348 119c71 0 131 58 131 148v2c0 89 -60 148 -131 148s-130 -59 -130 -148v-2c0 -89 59 -148 130 -148z" />
    <glyph glyph-name="ydieresis" unicode="&#xff;" horiz-adv-x="600" 
d="M196 -163c-55 0 -96 14 -135 37l51 110c20 -12 45 -21 65 -21c26 0 40 8 53 35l-210 538h161l122 -365l117 365h158l-206 -549c-41 -109 -85 -150 -176 -150zM334 595v135h146v-135h-146zM120 595v135h146v-135h-146z" />
    <glyph glyph-name="dotlessi" unicode="&#x131;" horiz-adv-x="302" 
d="M75 0v536h152v-536h-152z" />
    <glyph glyph-name="Lslash" unicode="&#x141;" horiz-adv-x="649" 
d="M114 0v262l-75 -22v143l75 22v295h152v-249l192 57v-143l-192 -57v-168h351v-140h-503z" />
    <glyph glyph-name="lslash" unicode="&#x142;" horiz-adv-x="362" 
d="M106 0v280l-76 -23v143l76 23v307h150v-263l76 23v-143l-76 -23v-324h-150z" />
    <glyph glyph-name="OE" unicode="&#x152;" horiz-adv-x="1075" 
d="M425 0c-220 0 -372 151 -372 350c0 197 152 350 372 350h592v-137h-350v-142h305v-137h-305v-147h355v-137h-597zM425 139h89v422h-89c-126 0 -211 -85 -211 -211c0 -124 85 -211 211 -211z" />
    <glyph glyph-name="oe" unicode="&#x153;" horiz-adv-x="1033" 
d="M322 -12c-153 0 -280 123 -280 279c0 154 127 279 286 279c83 0 154 -34 202 -89c47 55 116 89 197 89c179 0 261 -139 261 -291c0 -12 -1 -26 -2 -40h-373c15 -69 63 -105 131 -105c51 0 88 16 130 55l87 -77c-50 -62 -122 -100 -219 -100c-88 0 -163 34 -214 91
c-49 -56 -122 -91 -206 -91zM611 310h229c-9 68 -49 114 -113 114c-63 0 -104 -45 -116 -114zM328 119c84 0 134 67 134 148c0 79 -55 148 -136 148c-84 0 -134 -69 -134 -148s55 -148 136 -148z" />
    <glyph glyph-name="Scaron" unicode="&#x160;" horiz-adv-x="640" 
d="M333 -10c-106 0 -213 37 -297 112l91 109c63 -52 129 -85 209 -85c63 0 101 25 101 68c0 39 -24 59 -141 89c-141 36 -232 75 -232 216c0 127 102 211 245 211c102 0 189 -32 260 -89l-80 -116c-62 43 -123 69 -182 69s-90 -27 -90 -63c0 -46 30 -61 151 -92
c142 -37 222 -88 222 -212c0 -139 -106 -217 -257 -217zM245 755l-123 157h117l79 -66l79 66h115l-123 -157h-144z" />
    <glyph glyph-name="scaron" unicode="&#x161;" horiz-adv-x="502" 
d="M256 -10c-75 0 -159 25 -230 81l65 100c58 -42 119 -64 169 -64c44 0 64 16 64 42c0 33 -52 44 -111 62c-75 22 -160 57 -160 163c0 109 88 170 196 170c68 0 142 -23 200 -62l-58 -105c-53 31 -106 50 -145 50c-37 0 -56 -16 -56 -39c0 -30 51 -44 109 -64
c75 -25 162 -61 162 -161c0 -119 -89 -173 -205 -173zM183 595l-123 157h117l79 -66l79 66h115l-123 -157h-144z" />
    <glyph glyph-name="Ydieresis" unicode="&#x178;" horiz-adv-x="716" 
d="M281 0v276l-269 424h180l167 -281l170 281h175l-269 -421v-279h-154zM392 755v135h146v-135h-146zM178 755v135h146v-135h-146z" />
    <glyph glyph-name="Zcaron" unicode="&#x17d;" horiz-adv-x="708" 
d="M63 0v117l385 448h-373v135h571v-117l-385 -448h385v-135h-583zM285 755l-123 157h117l79 -66l79 66h115l-123 -157h-144z" />
    <glyph glyph-name="zcaron" unicode="&#x17e;" horiz-adv-x="563" 
d="M50 0v107l277 306h-268v123h457v-107l-278 -306h278v-123h-466zM217 595l-123 157h117l79 -66l79 66h115l-123 -157h-144z" />
    <glyph glyph-name="florin" unicode="&#x192;" horiz-adv-x="536" 
d="M100 -5c-25 0 -41 1 -59 5v123c13 -2 26 -3 37 -3c42 0 62 17 70 61l28 163h-67v125h89l14 74c19 102 69 162 189 162c40 0 74 -4 99 -12v-126c-24 6 -47 10 -68 10c-44 0 -67 -21 -75 -68l-7 -40h115v-125h-137l-33 -187c-21 -118 -80 -162 -195 -162z" />
    <glyph glyph-name="circumflex" unicode="&#x2c6;" 
d="M55 595l123 157h144l123 -157h-117l-79 66l-79 -66h-115z" />
    <glyph glyph-name="caron" unicode="&#x2c7;" 
d="M178 595l-123 157h117l79 -66l79 66h115l-123 -157h-144z" />
    <glyph glyph-name="breve" unicode="&#x2d8;" 
d="M250 593c-106 0 -179 58 -188 159h102c12 -36 36 -60 86 -60s74 24 86 60h102c-9 -101 -82 -159 -188 -159z" />
    <glyph glyph-name="dotaccent" unicode="&#x2d9;" 
d="M175 595v135h150v-135h-150z" />
    <glyph glyph-name="ring" unicode="&#x2da;" 
d="M250 593c-64 0 -121 53 -121 116v2c0 63 57 116 121 116s121 -53 121 -116v-2c0 -63 -57 -116 -121 -116zM250 648c34 0 62 28 62 61v2c0 33 -28 61 -62 61s-62 -28 -62 -61v-2c0 -33 28 -61 62 -61z" />
    <glyph glyph-name="ogonek" unicode="&#x2db;" 
d="M371 -164c-127 -10 -200 29 -200 109c0 22 7 46 16 65h104c-4 -14 -6 -27 -6 -39c0 -41 23 -64 86 -68v-67z" />
    <glyph glyph-name="tilde" unicode="&#x2dc;" 
d="M125 585l-81 25c23 84 54 138 124 138c62 0 114 -39 150 -39c31 0 43 17 57 49l81 -25c-23 -84 -54 -138 -124 -138c-62 0 -114 39 -150 39c-31 0 -43 -17 -57 -49z" />
    <glyph glyph-name="hungarumlaut" unicode="&#x2dd;" 
d="M231 595l113 177l128 -57l-130 -120h-111zM36 595l111 177l128 -57l-128 -120h-111z" />
    <glyph glyph-name="Omega" unicode="&#x3a9;" horiz-adv-x="784" 
d="M722 0h-289v208c91 20 134 95 134 185c0 102 -64 188 -172 188c-110 0 -176 -88 -176 -192c0 -89 42 -162 132 -181v-208h-289v126h174v27c-115 32 -174 139 -174 253c0 191 151 306 333 306c180 0 327 -114 327 -304c0 -113 -57 -227 -174 -255v-27h174v-126z" />
    <glyph glyph-name="pi" unicode="&#x3c0;" 
d="M0 0v700h500v-700h-500zM81 49h339l-170 255zM49 96l171 254l-171 254v-508zM450 96v508l-171 -254zM250 395l170 255h-339z" />
    <glyph glyph-name="afii10023" unicode="&#x401;" horiz-adv-x="670" 
d="M84 0v700h528v-137h-375v-142h330v-137h-330v-147h380v-137h-533zM379 755v135h146v-135h-146zM165 755v135h146v-135h-146z" />
    <glyph glyph-name="afii10051" unicode="&#x402;" horiz-adv-x="868" 
d="M457 6l27 137c13 -2 29 -4 44 -4c68 0 118 20 118 87c0 60 -45 85 -120 85c-62 0 -114 -22 -151 -56v-255h-153v564h-190v136h593v-136h-250v-161c54 35 119 57 190 57c139 0 240 -83 240 -231c0 -163 -101 -240 -240 -240c-43 0 -88 9 -108 17z" />
    <glyph glyph-name="afii10052" unicode="&#x403;" horiz-adv-x="598" 
d="M238 561v-561h-154v700h489v-139h-335zM217 755l113 177l131 -57l-128 -120h-116z" />
    <glyph glyph-name="afii10053" unicode="&#x404;" horiz-adv-x="733" 
d="M505 417v-128h-287c23 -94 98 -163 199 -163c82 0 136 32 192 83l95 -103c-72 -77 -157 -118 -292 -118c-206 0 -359 159 -359 362c0 199 150 362 365 362c126 0 204 -47 267 -106l-85 -106c-53 47 -113 74 -183 74c-97 0 -173 -66 -198 -157h286z" />
    <glyph glyph-name="afii10054" unicode="&#x405;" horiz-adv-x="640" 
d="M333 -10c-106 0 -213 37 -297 112l91 109c63 -52 129 -85 209 -85c63 0 101 25 101 68c0 39 -24 59 -141 89c-141 36 -232 75 -232 216c0 127 102 211 245 211c102 0 189 -32 260 -89l-80 -116c-62 43 -123 69 -182 69s-90 -27 -90 -63c0 -46 30 -61 151 -92
c142 -37 222 -88 222 -212c0 -139 -106 -217 -257 -217z" />
    <glyph glyph-name="afii10055" unicode="&#x406;" horiz-adv-x="336" 
d="M91 0v700h154v-700h-154z" />
    <glyph glyph-name="afii10056" unicode="&#x407;" horiz-adv-x="336" 
d="M91 0v700h154v-700h-154zM202 755v135h146v-135h-146zM-12 755v135h146v-135h-146z" />
    <glyph glyph-name="afii10057" unicode="&#x408;" horiz-adv-x="564" 
d="M243 -10c-109 0 -181 48 -229 105l97 108c40 -44 79 -70 128 -70c58 0 94 35 94 116v451h158v-458c0 -83 -24 -145 -66 -187c-43 -43 -106 -65 -182 -65z" />
    <glyph glyph-name="afii10058" unicode="&#x409;" horiz-adv-x="1116" 
d="M523 0v561h-202v-53c0 -402 -67 -517 -227 -517c-25 0 -62 4 -81 9l10 127c7 -1 13 -2 24 -2c83 0 130 53 130 430v145h500v-238h149c162 0 256 -90 256 -227c0 -144 -102 -235 -266 -235h-293zM813 330h-136v-191h137c76 0 115 33 115 98c0 59 -39 93 -116 93z" />
    <glyph glyph-name="afii10059" unicode="&#x40a;" horiz-adv-x="1115" 
d="M820 0h-298v311h-284v-311h-154v700h154v-261h284v261h154v-261h159c158 0 246 -86 246 -217c0 -143 -99 -222 -261 -222zM819 311h-143v-172h144c72 0 107 28 107 89c0 54 -35 83 -108 83z" />
    <glyph glyph-name="afii10060" unicode="&#x40b;" horiz-adv-x="868" 
d="M375 255v-255h-153v564h-190v136h593v-136h-250v-161c54 35 119 57 190 57c139 0 240 -78 240 -221v-239h-153v174c0 87 -40 137 -119 137c-62 0 -113 -15 -158 -56z" />
    <glyph glyph-name="afii10061" unicode="&#x40c;" horiz-adv-x="730" 
d="M84 0v700h154v-306l284 306h186l-285 -297l298 -403h-185l-217 298l-81 -84v-214h-154zM303 755l113 177l131 -57l-128 -120h-116z" />
    <glyph glyph-name="afii10062" unicode="&#x40e;" horiz-adv-x="734" 
d="M380 330l169 370h167l-269 -541c-61 -122 -131 -170 -229 -170c-60 0 -107 16 -151 41l60 113c28 -17 56 -23 83 -23c28 0 60 13 88 56l-280 524h172zM378 753c-92 0 -154 56 -168 152l89 16c13 -41 37 -67 79 -67s66 26 79 67l89 -16c-14 -96 -76 -152 -168 -152z" />
    <glyph glyph-name="afii10145" unicode="&#x40f;" horiz-adv-x="752" 
d="M84 0v700h153v-560h278v560h153v-700h-218v-146h-149v146h-217z" />
    <glyph glyph-name="afii10017" unicode="&#x410;" horiz-adv-x="790" 
d="M24 0l300 705h142l300 -705h-161l-64 157h-296l-64 -157h-157zM300 293h186l-93 227z" />
    <glyph glyph-name="afii10018" unicode="&#x411;" horiz-adv-x="712" 
d="M238 561v-122h185c158 0 246 -86 246 -217c0 -143 -99 -222 -261 -222h-324v700h537v-139h-383zM407 311h-169v-172h170c72 0 107 28 107 89c0 54 -35 83 -108 83z" />
    <glyph glyph-name="afii10019" unicode="&#x412;" horiz-adv-x="722" 
d="M84 0v700h325c80 0 143 -22 183 -62c32 -32 48 -71 48 -121c0 -79 -42 -123 -92 -151c81 -31 131 -78 131 -174c0 -128 -104 -192 -262 -192h-333zM234 417h142c68 0 111 22 111 76c0 46 -36 72 -101 72h-152v-148zM234 135h183c68 0 109 24 109 78c0 47 -35 76 -114 76
h-178v-154z" />
    <glyph glyph-name="afii10020" unicode="&#x413;" horiz-adv-x="598" 
d="M238 561v-561h-154v700h489v-139h-335z" />
    <glyph glyph-name="afii10021" unicode="&#x414;" horiz-adv-x="770" 
d="M10 -146v285h66c52 121 77 240 77 479v82h509v-561h84l-20 -285h-129v146h-438l-10 -146h-139zM508 561h-207v-71c0 -148 -23 -254 -63 -351h270v422z" />
    <glyph glyph-name="afii10022" unicode="&#x415;" horiz-adv-x="670" 
d="M84 0v700h528v-137h-375v-142h330v-137h-330v-147h380v-137h-533z" />
    <glyph glyph-name="afii10024" unicode="&#x416;" horiz-adv-x="1119" 
d="M636 0h-153v186l-93 100l-197 -286h-184l277 397l-267 303h183l281 -327v327h153v-327l281 327h183l-267 -303l277 -397h-184l-198 286l-92 -100v-186z" />
    <glyph glyph-name="afii10025" unicode="&#x417;" horiz-adv-x="654" 
d="M333 712c150 0 253 -79 253 -188c0 -87 -51 -134 -113 -161c75 -24 131 -76 131 -165c0 -121 -103 -210 -266 -210c-147 0 -236 41 -311 117l82 107c57 -56 132 -89 223 -89c65 0 118 30 118 84c0 58 -59 82 -139 82h-81v128h79c81 0 125 28 125 81c0 49 -46 78 -113 78
c-86 0 -142 -29 -189 -77l-81 98c65 68 149 115 282 115z" />
    <glyph glyph-name="afii10026" unicode="&#x418;" horiz-adv-x="771" 
d="M687 700v-700h-152v459l-306 -459h-145v700h152v-459l308 459h143z" />
    <glyph glyph-name="afii10027" unicode="&#x419;" horiz-adv-x="771" 
d="M687 700v-700h-152v459l-306 -459h-145v700h152v-459l308 459h143zM388 753c-92 0 -154 56 -168 152l89 16c13 -41 37 -67 79 -67s66 26 79 67l89 -16c-14 -96 -76 -152 -168 -152z" />
    <glyph glyph-name="afii10028" unicode="&#x41a;" horiz-adv-x="730" 
d="M84 0v700h154v-306l284 306h186l-285 -297l298 -403h-185l-217 298l-81 -84v-214h-154z" />
    <glyph glyph-name="afii10029" unicode="&#x41b;" horiz-adv-x="761" 
d="M177 700h500v-700h-154v561h-202v-53c0 -412 -67 -517 -227 -517c-25 0 -62 4 -81 9l10 127c7 -1 14 -2 24 -2c83 0 130 53 130 430v145z" />
    <glyph glyph-name="afii10030" unicode="&#x41c;" horiz-adv-x="868" 
d="M84 0v700h166l184 -296l184 296h166v-700h-153v457l-197 -299h-4l-195 296v-454h-151z" />
    <glyph glyph-name="afii10031" unicode="&#x41d;" horiz-adv-x="760" 
d="M84 0v700h154v-277h284v277h154v-700h-154v281h-284v-281h-154z" />
    <glyph glyph-name="afii10032" unicode="&#x41e;" horiz-adv-x="850" 
d="M424 -12c-216 0 -371 161 -371 362c0 199 157 362 373 362s371 -161 371 -362c0 -199 -157 -362 -373 -362zM426 130c124 0 210 98 210 220c0 120 -88 220 -212 220s-210 -98 -210 -220c0 -120 88 -220 212 -220z" />
    <glyph glyph-name="afii10033" unicode="&#x41f;" horiz-adv-x="752" 
d="M84 0v700h584v-700h-154v561h-276v-561h-154z" />
    <glyph glyph-name="afii10034" unicode="&#x420;" horiz-adv-x="668" 
d="M84 0v700h286c167 0 268 -99 268 -244c0 -162 -126 -246 -283 -246h-117v-210h-154zM238 347h122c77 0 122 46 122 108c0 69 -48 106 -125 106h-119v-214z" />
    <glyph glyph-name="afii10035" unicode="&#x421;" horiz-adv-x="738" 
d="M412 -12c-206 0 -359 159 -359 362c0 199 150 362 365 362c132 0 206 -50 271 -114l-92 -106c-54 49 -100 78 -180 78c-118 0 -203 -98 -203 -220c0 -120 83 -220 203 -220c80 0 129 32 184 82l98 -105c-72 -77 -152 -119 -287 -119z" />
    <glyph glyph-name="afii10036" unicode="&#x422;" horiz-adv-x="648" 
d="M247 0v558h-213v142h580v-142h-213v-558h-154z" />
    <glyph glyph-name="afii10037" unicode="&#x423;" horiz-adv-x="734" 
d="M380 330l169 370h167l-269 -541c-61 -122 -131 -170 -229 -170c-60 0 -107 16 -151 41l60 113c28 -17 56 -23 83 -23c28 0 60 13 88 56l-280 524h172z" />
    <glyph glyph-name="afii10038" unicode="&#x424;" horiz-adv-x="932" 
d="M543 526v-341c113 0 188 66 188 171c0 103 -75 170 -188 170zM543 -28h-154v76c-216 0 -347 134 -347 311c0 175 132 304 347 304v64h154v-64c214 0 347 -129 347 -305s-131 -310 -347 -310v-76zM389 185v341c-113 0 -189 -67 -189 -170c0 -105 76 -171 189 -171z" />
    <glyph glyph-name="afii10039" unicode="&#x425;" horiz-adv-x="732" 
d="M31 0l244 356l-234 344h180l147 -227l148 227h175l-234 -342l244 -358h-180l-157 240l-158 -240h-175z" />
    <glyph glyph-name="afii10040" unicode="&#x426;" horiz-adv-x="775" 
d="M603 -146v146h-519v700h154v-561h276v561h154v-561h83l-20 -285h-128z" />
    <glyph glyph-name="afii10041" unicode="&#x427;" horiz-adv-x="728" 
d="M490 0v261c-47 -23 -114 -52 -185 -52c-139 0 -235 73 -235 235v256h154v-211c0 -87 34 -136 113 -136c62 0 121 20 153 45v302h154v-700h-154z" />
    <glyph glyph-name="afii10042" unicode="&#x428;" horiz-adv-x="1129" 
d="M1045 700v-700h-961v700h154v-561h249v561h154v-561h250v561h154z" />
    <glyph glyph-name="afii10043" unicode="&#x429;" horiz-adv-x="1152" 
d="M980 -146v146h-896v700h154v-561h249v561h154v-561h250v561h154v-561h83l-20 -285h-128z" />
    <glyph glyph-name="afii10044" unicode="&#x42a;" horiz-adv-x="790" 
d="M487 330h-136v-191h137c76 0 115 33 115 98c0 59 -39 93 -116 93zM351 700v-238h149c162 0 256 -90 256 -227c0 -144 -102 -235 -266 -235h-293v561h-167v139h321z" />
    <glyph glyph-name="afii10045" unicode="&#x42b;" horiz-adv-x="959" 
d="M84 0v700h154v-238h149c162 0 256 -90 256 -227c0 -144 -102 -235 -266 -235h-293zM374 330h-136v-191h137c76 0 115 33 115 98c0 59 -39 93 -116 93zM721 0v700h154v-700h-154z" />
    <glyph glyph-name="afii10046" unicode="&#x42c;" horiz-adv-x="677" 
d="M84 0v700h154v-238h149c162 0 256 -90 256 -227c0 -144 -102 -235 -266 -235h-293zM374 330h-136v-191h137c76 0 115 33 115 98c0 59 -39 93 -116 93z" />
    <glyph glyph-name="afii10047" unicode="&#x42d;" horiz-adv-x="733" 
d="M228 289v128h286c-25 91 -101 157 -198 157c-70 0 -130 -27 -183 -74l-85 106c63 59 141 106 267 106c215 0 365 -163 365 -362c0 -203 -153 -362 -359 -362c-135 0 -220 41 -292 118l95 103c56 -51 110 -83 192 -83c101 0 176 69 199 163h-287z" />
    <glyph glyph-name="afii10048" unicode="&#x42e;" horiz-adv-x="1065" 
d="M670 -12c-179 0 -309 125 -336 295h-96v-283h-154v700h154v-279h97c29 166 160 291 337 291c200 0 340 -159 340 -362c0 -201 -141 -362 -342 -362zM672 128c108 0 181 96 181 222c0 123 -75 221 -183 221s-181 -95 -181 -221c0 -124 74 -222 183 -222z" />
    <glyph glyph-name="afii10049" unicode="&#x42f;" horiz-adv-x="723" 
d="M638 700v-700h-154v224h-121l-150 -224h-180l171 250c-89 33 -150 104 -150 219c0 145 100 231 264 231h320zM328 360h156v201h-153c-75 0 -121 -34 -121 -102c0 -59 43 -99 118 -99z" />
    <glyph glyph-name="afii10065" unicode="&#x430;" horiz-adv-x="592" 
d="M220 -10c-101 0 -184 58 -184 166c0 117 89 171 216 171c54 0 93 -9 131 -22v9c0 63 -39 98 -115 98c-58 0 -99 -11 -148 -29l-38 116c59 26 117 43 208 43c83 0 143 -22 181 -60c40 -40 58 -99 58 -171v-311h-147v58c-37 -41 -88 -68 -162 -68zM266 95
c71 0 119 39 119 94v27c-26 12 -60 20 -97 20c-65 0 -105 -26 -105 -76c0 -41 34 -65 83 -65z" />
    <glyph glyph-name="afii10066" unicode="&#x431;" horiz-adv-x="654" 
d="M335 119c78 0 129 61 129 138s-56 140 -131 140c-77 0 -129 -62 -129 -140c0 -76 56 -138 131 -138zM333 -12c-181 0 -280 114 -280 320c0 161 24 332 225 369l287 53l24 -120l-294 -58c-99 -20 -126 -75 -130 -126c20 35 85 90 195 90c136 0 254 -110 254 -257
c0 -148 -118 -271 -281 -271z" />
    <glyph glyph-name="afii10067" unicode="&#x432;" horiz-adv-x="600" 
d="M68 536h294c108 0 179 -50 179 -134c0 -65 -39 -101 -85 -121c65 -20 105 -60 105 -135c0 -91 -76 -146 -200 -146h-293v536zM218 321h107c43 0 64 23 64 54c0 26 -18 49 -62 49h-109v-103zM218 119h120c47 0 69 22 69 54c0 29 -21 52 -73 52h-116v-106z" />
    <glyph glyph-name="afii10068" unicode="&#x433;" horiz-adv-x="474" 
d="M459 406h-239v-406h-152v536h391v-130z" />
    <glyph glyph-name="afii10069" unicode="&#x434;" horiz-adv-x="645" 
d="M222 130h183v276h-143v-12c-1 -91 -7 -185 -40 -264zM484 0h-336l-11 -126h-128v256h58c45 96 52 231 52 360v46h438v-406h73l-18 -256h-128v126z" />
    <glyph glyph-name="afii10070" unicode="&#x435;" horiz-adv-x="613" 
d="M322 -12c-161 0 -280 113 -280 279c0 153 109 279 265 279c179 0 261 -139 261 -291c0 -12 -1 -26 -2 -40h-373c15 -69 63 -105 131 -105c51 0 88 16 130 55l87 -77c-50 -62 -122 -100 -219 -100zM191 310h229c-9 68 -49 114 -113 114c-63 0 -104 -45 -116 -114z" />
    <glyph glyph-name="afii10072" unicode="&#x436;" horiz-adv-x="891" 
d="M522 0h-153v139l-64 75l-135 -214h-170l203 314l-197 222h175l188 -228v228h153v-228l188 228h176l-197 -222l202 -314h-169l-136 214l-64 -75v-139z" />
    <glyph glyph-name="afii10073" unicode="&#x437;" horiz-adv-x="523" 
d="M100 366l-65 93c54 50 133 84 226 84c116 0 204 -62 204 -145c0 -64 -35 -100 -82 -121c56 -20 95 -58 95 -125c0 -93 -89 -164 -216 -164c-103 0 -183 31 -244 85l70 97c44 -38 103 -61 161 -61c46 0 79 26 79 57c0 30 -31 55 -89 55h-63v95h62c48 0 77 25 77 55
c0 28 -29 51 -70 51c-58 0 -108 -21 -145 -56z" />
    <glyph glyph-name="afii10074" unicode="&#x438;" horiz-adv-x="635" 
d="M567 536v-536h-147v312l-209 -312h-143v536h147v-313l209 313h143z" />
    <glyph glyph-name="afii10075" unicode="&#x439;" horiz-adv-x="635" 
d="M567 536v-536h-147v312l-209 -312h-143v536h147v-313l209 313h143zM322 587c-92 0 -154 56 -168 152l89 16c13 -41 37 -67 79 -67s66 26 79 67l89 -16c-14 -96 -76 -152 -168 -152z" />
    <glyph glyph-name="afii10076" unicode="&#x43a;" horiz-adv-x="611" 
d="M68 0v536h152v-220l192 220h175l-197 -220l222 -316h-180l-143 204l-69 -75v-129h-152z" />
    <glyph glyph-name="afii10077" unicode="&#x43b;" horiz-adv-x="631" 
d="M132 536h431v-536h-152v406h-136c0 -355 -61 -412 -195 -412c-20 0 -57 4 -77 9l10 123c6 -1 25 -3 32 -3c57 0 87 33 87 413z" />
    <glyph glyph-name="afii10078" unicode="&#x43c;" horiz-adv-x="736" 
d="M68 0v536h154l145 -225l147 225h154v-536h-154v322l-149 -220l-147 217v-319h-150z" />
    <glyph glyph-name="afii10079" unicode="&#x43d;" horiz-adv-x="627" 
d="M559 536v-536h-152v205h-187v-205h-152v536h152v-206h187v206h152z" />
    <glyph glyph-name="afii10080" unicode="&#x43e;" horiz-adv-x="664" 
d="M331 -12c-166 0 -289 123 -289 279c0 154 124 279 291 279c166 0 289 -123 289 -279c0 -154 -124 -279 -291 -279zM333 119c87 0 139 67 139 148c0 79 -57 148 -141 148c-87 0 -139 -67 -139 -148c0 -79 57 -148 141 -148z" />
    <glyph glyph-name="afii10081" unicode="&#x43f;" horiz-adv-x="623" 
d="M555 536v-536h-152v406h-183v-406h-152v536h487z" />
    <glyph glyph-name="afii10082" unicode="&#x440;" horiz-adv-x="675" 
d="M68 -160v696h152v-77c37 50 88 87 167 87c125 0 244 -98 244 -279c0 -179 -117 -277 -244 -277c-81 0 -131 37 -167 80v-230h-152zM348 119c71 0 131 58 131 150c0 89 -60 148 -131 148s-130 -59 -130 -150c0 -89 59 -148 130 -148z" />
    <glyph glyph-name="afii10083" unicode="&#x441;" horiz-adv-x="571" 
d="M321 -12c-161 0 -279 124 -279 279c0 153 117 279 281 279c101 0 163 -38 213 -94l-89 -90c-33 31 -65 53 -125 53c-76 0 -130 -67 -130 -148c0 -82 53 -148 136 -148c51 0 86 22 123 57l89 -90c-52 -57 -112 -98 -219 -98z" />
    <glyph glyph-name="afii10084" unicode="&#x442;" horiz-adv-x="502" 
d="M487 536v-130h-159v-406h-154v406h-159v130h472z" />
    <glyph glyph-name="afii10085" unicode="&#x443;" horiz-adv-x="600" 
d="M196 -163c-55 0 -96 14 -135 37l51 110c20 -12 45 -21 65 -21c26 0 40 8 53 35l-210 538h161l122 -365l117 365h158l-206 -549c-41 -109 -85 -150 -176 -150z" />
    <glyph glyph-name="afii10086" unicode="&#x444;" horiz-adv-x="903" 
d="M593 415c-27 0 -45 -11 -65 -26v-245c20 -15 38 -24 65 -24c75 0 114 56 114 147c0 88 -40 148 -114 148zM528 -160h-153v196c-21 -23 -66 -43 -114 -43c-127 0 -217 100 -217 274c0 173 90 275 218 275c48 0 92 -25 113 -50v208h153v-208c21 25 65 50 113 50
c128 0 218 -102 218 -275c0 -174 -90 -274 -217 -274c-48 0 -93 20 -114 43v-196zM310 415c-74 0 -114 -60 -114 -148c0 -91 39 -147 114 -147c27 0 45 9 65 24v245c-20 15 -38 26 -65 26z" />
    <glyph glyph-name="afii10087" unicode="&#x445;" horiz-adv-x="584" 
d="M23 0l188 272l-181 264h163l100 -156l101 156h159l-181 -261l189 -275h-163l-108 167l-108 -167h-159z" />
    <glyph glyph-name="afii10088" unicode="&#x446;" horiz-adv-x="643" 
d="M482 -126v126h-414v536h152v-406h183v406h152v-406h73l-18 -256h-128z" />
    <glyph glyph-name="afii10089" unicode="&#x447;" horiz-adv-x="606" 
d="M207 536v-168c0 -56 24 -88 74 -88c41 0 74 11 104 26v230h153v-536h-153v187c-37 -18 -91 -35 -145 -35c-107 0 -187 61 -187 173v211h154z" />
    <glyph glyph-name="afii10090" unicode="&#x448;" horiz-adv-x="934" 
d="M866 536v-536h-798v536h152v-406h171v406h152v-406h170v406h153z" />
    <glyph glyph-name="afii10091" unicode="&#x449;" horiz-adv-x="954" 
d="M793 0h-725v536h152v-406h171v406h152v-406h170v406h153v-406h73l-18 -256h-128v126z" />
    <glyph glyph-name="afii10092" unicode="&#x44a;" horiz-adv-x="649" 
d="M401 244h-95v-124h96c50 0 75 23 75 64c0 37 -26 60 -76 60zM306 536v-177h110c124 0 214 -57 214 -177c0 -113 -77 -182 -206 -182h-270v408h-139v128h291z" />
    <glyph glyph-name="afii10093" unicode="&#x44b;" horiz-adv-x="835" 
d="M68 0v536h152v-177h110c124 0 214 -57 214 -177c0 -113 -77 -182 -206 -182h-270zM315 244h-95v-124h96c50 0 75 23 75 64c0 37 -26 60 -76 60zM615 0v536h152v-536h-152z" />
    <glyph glyph-name="afii10094" unicode="&#x44c;" horiz-adv-x="563" 
d="M68 0v536h152v-177h110c124 0 214 -57 214 -177c0 -113 -77 -182 -206 -182h-270zM315 244h-95v-124h96c50 0 75 23 75 64c0 37 -26 60 -76 60z" />
    <glyph glyph-name="afii10095" unicode="&#x44d;" horiz-adv-x="575" 
d="M193 217v102h186c-18 58 -65 100 -126 100c-56 0 -95 -18 -130 -51l-79 93c42 42 111 85 208 85c164 0 281 -126 281 -279c0 -155 -118 -279 -279 -279c-107 0 -171 41 -223 98l86 87c38 -36 77 -58 130 -58c67 0 115 42 133 102h-187z" />
    <glyph glyph-name="afii10096" unicode="&#x44e;" horiz-adv-x="869" 
d="M556 -12c-139 0 -239 91 -263 217h-73v-205h-152v536h152v-206h73c26 123 126 216 265 216c161 0 269 -123 269 -279c0 -154 -109 -279 -271 -279zM558 119c82 0 119 67 119 148c0 79 -42 148 -121 148c-82 0 -119 -67 -119 -148c0 -79 42 -148 121 -148z" />
    <glyph glyph-name="afii10097" unicode="&#x44f;" horiz-adv-x="611" 
d="M543 536v-536h-152v172h-82l-113 -172h-176l137 197c-68 26 -112 77 -112 160c0 107 77 179 217 179h281zM288 282h103v135h-104c-55 0 -88 -24 -88 -68c0 -43 34 -67 89 -67z" />
    <glyph glyph-name="afii10071" unicode="&#x451;" horiz-adv-x="613" 
d="M322 -12c-161 0 -280 113 -280 279c0 153 109 279 265 279c179 0 261 -139 261 -291c0 -12 -1 -26 -2 -40h-373c15 -69 63 -105 131 -105c51 0 88 16 130 55l87 -77c-50 -62 -122 -100 -219 -100zM191 310h229c-9 68 -49 114 -113 114c-63 0 -104 -45 -116 -114zM340 595
v135h146v-135h-146zM126 595v135h146v-135h-146z" />
    <glyph glyph-name="afii10099" unicode="&#x452;" horiz-adv-x="623" 
d="M407 238v21c0 72 -34 109 -92 109s-95 -37 -95 -109v-259h-152v551h-66v106h66v73h152v-73h156v-106h-156v-131c35 45 80 86 157 86c115 0 182 -76 182 -199v-114c0 -126 -79 -201 -191 -201c-66 0 -89 14 -107 19l25 116c7 -2 14 -2 22 -2c59 0 99 41 99 113z" />
    <glyph glyph-name="afii10100" unicode="&#x453;" horiz-adv-x="474" 
d="M459 406h-239v-406h-152v536h391v-130zM165 595l113 177l131 -57l-128 -120h-116z" />
    <glyph glyph-name="afii10101" unicode="&#x454;" horiz-adv-x="575" 
d="M382 319v-102h-187c18 -60 66 -102 133 -102c53 0 92 22 130 58l86 -87c-52 -57 -116 -98 -223 -98c-161 0 -279 124 -279 279c0 153 117 279 281 279c97 0 166 -43 208 -85l-79 -93c-35 33 -74 51 -130 51c-61 0 -108 -42 -126 -100h186z" />
    <glyph glyph-name="afii10102" unicode="&#x455;" horiz-adv-x="502" 
d="M256 -10c-75 0 -159 25 -230 81l65 100c58 -42 119 -64 169 -64c44 0 64 16 64 42c0 33 -52 44 -111 62c-75 22 -160 57 -160 163c0 109 88 170 196 170c68 0 142 -23 200 -62l-58 -105c-53 31 -106 50 -145 50c-37 0 -56 -16 -56 -39c0 -30 51 -44 109 -64
c75 -25 162 -61 162 -161c0 -119 -89 -173 -205 -173z" />
    <glyph glyph-name="afii10103" unicode="&#x456;" horiz-adv-x="302" 
d="M71 595v135h160v-135h-160zM75 0v536h152v-536h-152z" />
    <glyph glyph-name="afii10104" unicode="&#x457;" horiz-adv-x="302" 
d="M185 595v135h146v-135h-146zM-29 595v135h146v-135h-146zM75 0v536h152v-536h-152z" />
    <glyph glyph-name="afii10105" unicode="&#x458;" horiz-adv-x="302" 
d="M71 595v135h160v-135h-160zM55 -163c-28 0 -45 2 -66 6v119c12 -2 21 -3 32 -3c32 0 54 17 54 62v515h152v-527c0 -118 -60 -172 -172 -172z" />
    <glyph glyph-name="afii10106" unicode="&#x459;" horiz-adv-x="906" 
d="M411 0v406h-136c0 -355 -61 -412 -195 -412c-20 0 -60 4 -77 9l10 123c6 -1 25 -3 32 -3c57 0 87 33 87 413h431v-177h110c124 0 214 -57 214 -177c0 -113 -77 -182 -206 -182h-270zM658 244h-95v-124h96c50 0 75 23 75 64c0 37 -26 60 -76 60z" />
    <glyph glyph-name="afii10107" unicode="&#x45a;" horiz-adv-x="902" 
d="M407 0v236h-187v-236h-152v536h152v-185h187v185h152v-185h110c124 0 214 -54 214 -174c0 -113 -77 -177 -206 -177h-270zM654 236h-95v-116h96c50 0 75 18 75 59c0 37 -26 57 -76 57z" />
    <glyph glyph-name="afii10108" unicode="&#x45b;" horiz-adv-x="623" 
d="M2 657h66v73h152v-73h156v-106h-156v-131c35 45 80 86 157 86c115 0 182 -76 182 -199v-307h-152v259c0 72 -34 109 -92 109s-95 -37 -95 -109v-259h-152v551h-66v106z" />
    <glyph glyph-name="afii10109" unicode="&#x45c;" horiz-adv-x="611" 
d="M68 0v536h152v-220l192 220h175l-197 -220l222 -316h-180l-143 204l-69 -75v-129h-152zM233 595l113 177l131 -57l-128 -120h-116z" />
    <glyph glyph-name="afii10110" unicode="&#x45e;" horiz-adv-x="600" 
d="M196 -163c-55 0 -96 14 -135 37l51 110c20 -12 45 -21 65 -21c26 0 40 8 53 35l-210 538h161l122 -365l117 365h158l-206 -549c-41 -109 -85 -150 -176 -150zM302 587c-92 0 -154 56 -168 152l89 16c13 -41 37 -67 79 -67s66 26 79 67l89 -16c-14 -96 -76 -152 -168 -152
z" />
    <glyph glyph-name="afii10193" unicode="&#x45f;" horiz-adv-x="623" 
d="M242 -126v126h-174v536h152v-406h183v406h152v-536h-170v-126h-143z" />
    <glyph glyph-name="afii10050" unicode="&#x490;" horiz-adv-x="598" 
d="M573 561h-335v-561h-154v700h341v146h128z" />
    <glyph glyph-name="afii10098" unicode="&#x491;" horiz-adv-x="474" 
d="M459 406h-239v-406h-152v536h245v126h128z" />
    <glyph glyph-name="endash" unicode="&#x2013;" horiz-adv-x="528" 
d="M50 239v142h428v-142h-428z" />
    <glyph glyph-name="emdash" unicode="&#x2014;" horiz-adv-x="898" 
d="M50 239v142h798v-142h-798z" />
    <glyph glyph-name="quoteleft" unicode="&#x2018;" horiz-adv-x="286" 
d="M57 383v135c0 132 66 185 185 187l13 -63c-69 -7 -103 -42 -98 -99h62v-160h-162z" />
    <glyph glyph-name="quoteright" unicode="&#x2019;" horiz-adv-x="286" 
d="M44 378l-13 63c69 7 103 42 98 99h-62v160h162v-135c0 -132 -66 -185 -185 -187z" />
    <glyph glyph-name="quotesinglbase" unicode="&#x201a;" horiz-adv-x="286" 
d="M39 -162l-13 63c69 7 103 42 98 99h-62v160h162v-135c0 -132 -66 -185 -185 -187z" />
    <glyph glyph-name="quotedblleft" unicode="&#x201c;" horiz-adv-x="540" 
d="M311 383v135c0 132 66 185 185 187l13 -63c-69 -7 -103 -42 -98 -99h62v-160h-162zM57 383v135c0 132 66 185 185 187l13 -63c-69 -7 -103 -42 -98 -99h62v-160h-162z" />
    <glyph glyph-name="quotedblright" unicode="&#x201d;" horiz-adv-x="540" 
d="M298 378l-13 63c69 7 103 42 98 99h-62v160h162v-135c0 -132 -66 -185 -185 -187zM44 378l-13 63c69 7 103 42 98 99h-62v160h162v-135c0 -132 -66 -185 -185 -187z" />
    <glyph glyph-name="quotedblbase" unicode="&#x201e;" horiz-adv-x="540" 
d="M293 -162l-13 63c69 7 103 42 98 99h-62v160h162v-135c0 -132 -66 -185 -185 -187zM39 -162l-13 63c69 7 103 42 98 99h-62v160h162v-135c0 -132 -66 -185 -185 -187z" />
    <glyph glyph-name="dagger" unicode="&#x2020;" horiz-adv-x="410" 
d="M163 238l10 270l-120 -10v83l119 -10l-13 129h92l-13 -129l119 10v-83l-120 10l10 -270h-84z" />
    <glyph glyph-name="daggerdbl" unicode="&#x2021;" horiz-adv-x="430" 
d="M169 0l13 129l-119 -10v83l119 -10l-9 158l9 158l-119 -10v83l119 -10l-13 129h92l-13 -129l119 10v-83l-119 10l9 -158l-9 -158l119 10v-83l-119 10l13 -129h-92z" />
    <glyph glyph-name="bullet" unicode="&#x2022;" 
d="M250 203c-82 0 -149 66 -149 148v2c0 82 67 148 149 148s149 -66 149 -148v-2c0 -82 -67 -148 -149 -148z" />
    <glyph glyph-name="ellipsis" unicode="&#x2026;" horiz-adv-x="840" 
d="M620 0v156h158v-156h-158zM341 0v156h158v-156h-158zM62 0v156h158v-156h-158z" />
    <glyph glyph-name="perthousand" unicode="&#x2030;" horiz-adv-x="1240" 
d="M214 350c-101 0 -169 79 -169 177v2c0 99 69 179 171 179c101 0 169 -79 169 -177v-2c0 -98 -69 -179 -171 -179zM115 0l511 700h119l-511 -700h-119zM1024 -8c-101 0 -169 79 -169 177v2c0 99 69 179 171 179c101 0 169 -79 169 -177v-2c0 -98 -69 -179 -171 -179z
M644 -8c-101 0 -169 79 -169 177v2c0 99 69 179 171 179c101 0 169 -79 169 -177v-2c0 -98 -69 -179 -171 -179zM216 441c42 0 64 41 64 86v2c0 47 -26 88 -66 88c-42 0 -64 -40 -64 -86v-2c0 -47 26 -88 66 -88zM1026 83c42 0 64 41 64 86v2c0 47 -26 88 -66 88
c-42 0 -64 -40 -64 -86v-2c0 -47 26 -88 66 -88zM646 83c42 0 64 41 64 86v2c0 47 -26 88 -66 88c-42 0 -64 -40 -64 -86v-2c0 -47 26 -88 66 -88z" />
    <glyph glyph-name="guilsinglleft" unicode="&#x2039;" horiz-adv-x="373" 
d="M209 40l-168 224v8l168 224l116 -56l-130 -171l130 -171z" />
    <glyph glyph-name="guilsinglright" unicode="&#x203a;" horiz-adv-x="373" 
d="M164 40l-116 56l130 171l-130 171l116 58l168 -224v-8z" />
    <glyph glyph-name="fraction" unicode="&#x2044;" horiz-adv-x="480" 
d="M-71 -98l466 856h134l-466 -856h-134z" />
    <glyph glyph-name="Euro" unicode="&#x20ac;" horiz-adv-x="720" 
d="M437 -12c-153 0 -257 92 -296 229h-92v101h75c-1 10 -1 20 -1 32s0 24 1 36h-75v101h94c41 132 144 225 291 225c124 0 193 -54 246 -128l-116 -88c-38 51 -75 79 -133 79c-59 0 -102 -32 -128 -88h185v-101h-208c-1 -11 -1 -22 -1 -36c0 -11 0 -22 1 -32h208v-101h-186
c26 -59 71 -92 135 -92c58 0 91 28 135 82l110 -81c-59 -83 -130 -138 -245 -138z" />
    <glyph glyph-name="afii61352" unicode="&#x2116;" horiz-adv-x="1061" 
d="M62 0v700h144l273 -424v424h159v-700h-133l-284 436v-436h-159zM721 124v91h268v-91h-268zM854 265c-88 0 -153 67 -153 153s67 154 155 154s153 -67 153 -153s-67 -154 -155 -154zM856 345c39 0 63 33 63 73s-26 74 -65 74s-63 -33 -63 -73s26 -74 65 -74z" />
    <glyph glyph-name="published" unicode="&#x2117;" horiz-adv-x="830" 
d="M414 -12c-203 0 -361 163 -361 360v2c0 197 160 362 363 362s361 -163 361 -360v-2c0 -197 -160 -362 -363 -362zM414 28c183 0 321 145 321 322v2c0 177 -137 320 -319 320c-183 0 -321 -145 -321 -322v-2c0 -177 137 -320 319 -320zM282 164v385h158
c92 0 148 -54 148 -133v-2c0 -88 -70 -134 -156 -134h-64v-116h-86zM368 355h66c42 0 67 25 67 58v2c0 37 -27 58 -69 58h-64v-118z" />
    <glyph glyph-name="trademark" unicode="&#x2122;" horiz-adv-x="690" 
d="M345 392v308h74l81 -130l81 130h72v-308h-66v208l-85 -135h-6l-85 135v-208h-66zM118 392v246h-92v62h254v-62h-92v-246h-70z" />
    <glyph glyph-name="partialdiff" unicode="&#x2202;" 
d="M0 0v700h500v-700h-500zM81 49h339l-170 255zM49 96l171 254l-171 254v-508zM450 96v508l-171 -254zM250 395l170 255h-339z" />
    <glyph glyph-name="Delta" unicode="&#x2206;" horiz-adv-x="570" 
d="M740 0h-723l290 700h143zM380 498l-140 -362h281z" />
    <glyph glyph-name="product" unicode="&#x220f;" 
d="M0 0v700h500v-700h-500zM81 49h339l-170 255zM49 96l171 254l-171 254v-508zM450 96v508l-171 -254zM250 395l170 255h-339z" />
    <glyph glyph-name="summation" unicode="&#x2211;" 
d="M0 0v700h500v-700h-500zM81 49h339l-170 255zM49 96l171 254l-171 254v-508zM450 96v508l-171 -254zM250 395l170 255h-339z" />
    <glyph glyph-name="minus" unicode="&#x2212;" horiz-adv-x="640" 
d="M557 282h-474v140h474v-140z" />
    <glyph glyph-name="radical" unicode="&#x221a;" horiz-adv-x="605" 
d="M82 231h-107v98h168l113 -218l288 687h112l-389 -926z" />
    <glyph glyph-name="infinity" unicode="&#x221e;" horiz-adv-x="864" 
d="M240 146c-122 0 -195 90 -195 208c0 116 71 203 191 203c92 0 144 -55 196 -123c52 68 104 123 196 123c120 0 191 -87 191 -203s-70 -208 -192 -208c-85 0 -144 54 -195 117c-52 -63 -105 -117 -192 -117zM239 271c50 0 92 44 121 81c-28 36 -74 81 -123 81
c-46 0 -74 -37 -74 -81c0 -46 28 -81 76 -81zM627 271c48 0 74 36 74 81c0 46 -29 81 -77 81s-93 -46 -120 -81c30 -38 71 -81 123 -81z" />
    <glyph glyph-name="integral" unicode="&#x222b;" 
d="M0 0v700h500v-700h-500zM81 49h339l-170 255zM49 96l171 254l-171 254v-508zM450 96v508l-171 -254zM250 395l170 255h-339z" />
    <glyph glyph-name="approxequal" unicode="&#x2248;" horiz-adv-x="640" 
d="M150 385l-76 21c21 92 66 154 146 154c54 0 165 -39 198 -39c37 0 62 14 75 47l77 -21c-21 -92 -64 -154 -146 -154c-54 0 -166 39 -199 39c-31 0 -61 -14 -75 -47zM150 131l-76 21c21 92 66 154 146 154c54 0 165 -39 198 -39c37 0 62 14 75 47l77 -21
c-21 -92 -64 -154 -146 -154c-54 0 -166 39 -199 39c-31 0 -61 -14 -75 -47z" />
    <glyph glyph-name="notequal" unicode="&#x2260;" horiz-adv-x="640" 
d="M79 413v136h320l68 103h95l-68 -103h66v-136h-155l-80 -122h235v-136h-323l-71 -107h-95l70 107h-62v136h151l80 122h-231z" />
    <glyph glyph-name="lessequal" unicode="&#x2264;" horiz-adv-x="640" 
d="M563 182l-483 166v141l483 166v-145l-339 -91l339 -92v-145zM79 17v129h485v-129h-485z" />
    <glyph glyph-name="greaterequal" unicode="&#x2265;" horiz-adv-x="640" 
d="M563 348l-483 -166v145l339 92l-339 91v145l483 -166v-141zM564 146v-129h-485v129h485z" />
    <glyph glyph-name="lozenge" unicode="&#x25ca;" horiz-adv-x="640" 
d="M573 356l-190 -391h-128l-188 391l189 391h127zM429 356l-109 249l-109 -249l109 -250z" />
    <glyph glyph-name="cyrBreve" unicode="&#xf6d1;" 
d="M248 593c-92 0 -154 56 -168 152l89 16c13 -41 37 -67 79 -67s66 26 79 67l89 -16c-14 -96 -76 -152 -168 -152z" />
    <glyph glyph-name="cyrbreve" unicode="&#xf6d4;" 
d="M248 587c-92 0 -154 56 -168 152l89 16c13 -41 37 -67 79 -67s66 26 79 67l89 -16c-14 -96 -76 -152 -168 -152z" />
    <glyph glyph-name="ff" unicode="&#xfb00;" horiz-adv-x="764" 
d="M476 0v406h-63v125h63v34c0 59 15 102 43 130s69 42 123 42c48 0 80 -6 108 -15v-126c-22 8 -43 13 -69 13c-35 0 -55 -18 -55 -58v-21h123v-124h-121v-406h-152zM94 0v406h-63v125h63v34c0 59 15 102 43 130s69 42 123 42c48 0 80 -6 108 -15v-126c-22 8 -43 13 -69 13
c-35 0 -55 -18 -55 -58v-21h123v-124h-121v-406h-152z" />
    <glyph glyph-name="apple" 
d="M0 0v700h500v-700h-500zM81 49h339l-170 255zM49 96l171 254l-171 254v-508zM450 96v508l-171 -254zM250 395l170 255h-339z" />
    </font>
</defs>
</svg>
